<svg xmlns="http://www.w3.org/2000/svg" xmlns:xlink="http://www.w3.org/1999/xlink" contentStyleType="text/css" data-diagram-type="ACTIVITY" height="926px" preserveAspectRatio="none" style="width:776px;height:926px;background:#FFFFFF;" version="1.1" viewBox="0 0 776 926" width="776px" zoomAndPan="magnify"><?plantuml 1.2026.6?><defs/><g><g class="title" data-source-line="1"><text fill="#000000" font-family="sans-serif" font-size="14" font-weight="700" lengthAdjust="spacing" textLength="266.335" x="254.0828" y="34.5332">&#12450;&#12463;&#12486;&#12451;&#12499;&#12486;&#12451;&#22259; - &#37096;&#23627;&#12434;&#20104;&#32004;&#12377;&#12427;(UC1)</text></g><rect fill="none" height="22.6406" style="stroke:none;stroke-width:1;" width="729.5005" x="20" y="56.0645"/><ellipse cx="161" cy="93.7051" fill="#222222" rx="10" ry="10" style="stroke:#222222;stroke-width:1;"/><rect fill="#F1F1F1" height="35.0938" rx="12.5" ry="12.5" style="stroke:#181818;stroke-width:0.5;" width="188" x="67" y="123.7051"/><text fill="#000000" font-family="sans-serif" font-size="12" lengthAdjust="spacing" textLength="168" x="77" y="146.1621">&#23487;&#27850;&#26085;&#12539;&#23458;&#23460;&#12479;&#12452;&#12503;&#12434;&#25351;&#23450;&#12377;&#12427;</text><polygon fill="#F1F1F1" points="102.9412,364.9863,219.0588,364.9863,231.0588,376.9863,219.0588,388.9863,102.9412,388.9863,90.9412,376.9863,102.9412,364.9863" style="stroke:#181818;stroke-width:0.5;stroke-linejoin:miter;stroke-miterlimit:10;"/><text fill="#000000" font-family="sans-serif" font-size="11" lengthAdjust="spacing" textLength="116.1177" x="102.9412" y="381.4873">&#20104;&#32004;&#12375;&#12383;&#12356;&#23458;&#23460;&#12364;&#12354;&#12427;?</text><text fill="#000000" font-family="sans-serif" font-size="11" lengthAdjust="spacing" textLength="17.1177" x="73.8235" y="374.5693">yes</text><text fill="#000000" font-family="sans-serif" font-size="11" lengthAdjust="spacing" textLength="12.2354" x="231.0588" y="374.5693">no</text><rect fill="#F1F1F1" height="35.0938" rx="12.5" ry="12.5" style="stroke:#181818;stroke-width:0.5;" width="104" x="26" y="408.9863"/><text fill="#000000" font-family="sans-serif" font-size="12" lengthAdjust="spacing" textLength="84" x="36" y="431.4434">&#23458;&#23460;&#12434;&#36984;&#25246;&#12377;&#12427;</text><rect fill="#F1F1F1" height="35.0938" rx="12.5" ry="12.5" style="stroke:#181818;stroke-width:0.5;" width="188" x="150" y="408.9863"/><text fill="#000000" font-family="sans-serif" font-size="12" lengthAdjust="spacing" textLength="168" x="160" y="431.4434">&#23487;&#27850;&#26085;&#12539;&#23458;&#23460;&#12479;&#12452;&#12503;&#12434;&#22793;&#26356;&#12377;&#12427;</text><rect fill="#F1F1F1" height="35.0938" rx="12.5" ry="12.5" style="stroke:#181818;stroke-width:0.5;" width="104" x="192" y="574.2676"/><text fill="#000000" font-family="sans-serif" font-size="12" lengthAdjust="spacing" textLength="84" x="202" y="596.7246">&#23458;&#23460;&#12434;&#36984;&#25246;&#12377;&#12427;</text><polygon fill="#F1F1F1" points="161,619.3613,173,631.3613,161,643.3613,149,631.3613,161,619.3613" style="stroke:#181818;stroke-width:0.5;stroke-linejoin:miter;stroke-miterlimit:10;"/><rect fill="#F1F1F1" height="35.0938" rx="12.5" ry="12.5" style="stroke:#181818;stroke-width:0.5;" width="128" x="97" y="828.6426"/><text fill="#000000" font-family="sans-serif" font-size="12" lengthAdjust="spacing" textLength="108" x="107" y="851.0996">&#20104;&#32004;&#30058;&#21495;&#12434;&#21463;&#12369;&#21462;&#12427;</text><ellipse cx="161" cy="894.7363" fill="none" rx="11" ry="11" style="stroke:#222222;stroke-width:1;"/><ellipse cx="161" cy="894.7363" fill="#222222" rx="6" ry="6" style="stroke:#222222;stroke-width:1;"/><line style="stroke:#000000;stroke-width:1.5;" x1="20" x2="20" y1="56.0645" y2="905.7363"/><rect fill="#F1F1F1" height="35.0938" rx="12.5" ry="12.5" style="stroke:#181818;stroke-width:0.5;" width="104" x="488" y="178.7988"/><text fill="#000000" font-family="sans-serif" font-size="12" lengthAdjust="spacing" textLength="84" x="498" y="201.2559">&#31354;&#23460;&#12434;&#26908;&#32034;&#12377;&#12427;</text><polygon fill="#F1F1F1" points="487.4412,233.8926,592.5588,233.8926,604.5588,245.8926,592.5588,257.8926,487.4412,257.8926,475.4412,245.8926,487.4412,233.8926" style="stroke:#181818;stroke-width:0.5;stroke-linejoin:miter;stroke-miterlimit:10;"/><text fill="#000000" font-family="sans-serif" font-size="11" lengthAdjust="spacing" textLength="105.1177" x="487.4412" y="250.3936">&#35442;&#24403;&#12377;&#12427;&#31354;&#23460;&#12364;&#12354;&#12427;?</text><text fill="#000000" font-family="sans-serif" font-size="11" lengthAdjust="spacing" textLength="17.1177" x="458.3235" y="243.4756">yes</text><text fill="#000000" font-family="sans-serif" font-size="11" lengthAdjust="spacing" textLength="12.2354" x="604.5588" y="243.4756">no</text><rect fill="#F1F1F1" height="35.0938" rx="12.5" ry="12.5" style="stroke:#181818;stroke-width:0.5;" width="176" x="348" y="267.8926"/><text fill="#000000" font-family="sans-serif" font-size="12" lengthAdjust="spacing" textLength="156" x="358" y="290.3496">&#35442;&#24403;&#12377;&#12427;&#31354;&#23460;&#19968;&#35239;&#12434;&#25552;&#31034;&#12377;&#12427;</text><rect fill="#F1F1F1" height="35.0938" rx="12.5" ry="12.5" style="stroke:#181818;stroke-width:0.5;" width="200" x="544" y="267.8926"/><text fill="#000000" font-family="sans-serif" font-size="12" lengthAdjust="spacing" textLength="180" x="554" y="290.3496">&#12300;&#31354;&#23460;&#12394;&#12375;&#12301;&#12434;&#21033;&#29992;&#32773;&#12395;&#36890;&#30693;&#12377;&#12427;</text><ellipse cx="644" cy="333.9863" fill="none" rx="11" ry="11" style="stroke:#222222;stroke-width:1;"/><ellipse cx="644" cy="333.9863" fill="#222222" rx="6" ry="6" style="stroke:#222222;stroke-width:1;"/><rect fill="#F1F1F1" height="35.0938" rx="12.5" ry="12.5" style="stroke:#181818;stroke-width:0.5;" width="164" x="541" y="464.0801"/><text fill="#000000" font-family="sans-serif" font-size="12" lengthAdjust="spacing" textLength="144" x="551" y="486.5371">&#22793;&#26356;&#24460;&#12398;&#26465;&#20214;&#12391;&#20877;&#26908;&#32034;&#12377;&#12427;</text><rect fill="#F1F1F1" height="35.0938" rx="12.5" ry="12.5" style="stroke:#181818;stroke-width:0.5;" width="140" x="553" y="519.1738"/><text fill="#000000" font-family="sans-serif" font-size="12" lengthAdjust="spacing" textLength="120" x="563" y="541.6309">&#31354;&#23460;&#19968;&#35239;&#12434;&#20877;&#25552;&#31034;&#12377;&#12427;</text><rect fill="#F1F1F1" height="35.0938" rx="12.5" ry="12.5" style="stroke:#181818;stroke-width:0.5;" width="104" x="488" y="663.3613"/><text fill="#000000" font-family="sans-serif" font-size="12" lengthAdjust="spacing" textLength="84" x="498" y="685.8184">&#20104;&#32004;&#12434;&#30331;&#37682;&#12377;&#12427;</text><rect fill="#F1F1F1" height="35.0938" rx="12.5" ry="12.5" style="stroke:#181818;stroke-width:0.5;" width="128" x="476" y="718.4551"/><text fill="#000000" font-family="sans-serif" font-size="12" lengthAdjust="spacing" textLength="108" x="486" y="740.9121">&#20104;&#32004;&#30058;&#21495;&#12434;&#30330;&#34892;&#12377;&#12427;</text><rect fill="#F1F1F1" height="35.0938" rx="12.5" ry="12.5" style="stroke:#181818;stroke-width:0.5;" width="176" x="452" y="773.5488"/><text fill="#000000" font-family="sans-serif" font-size="12" lengthAdjust="spacing" textLength="156" x="462" y="796.0059">&#20104;&#32004;&#30058;&#21495;&#12434;&#21033;&#29992;&#32773;&#12395;&#25552;&#31034;&#12377;&#12427;</text><line style="stroke:#000000;stroke-width:1.5;" x1="342" x2="342" y1="56.0645" y2="905.7363"/><line style="stroke:#000000;stroke-width:1.5;" x1="748" x2="748" y1="56.0645" y2="905.7363"/><line style="stroke:#181818;stroke-width:1;" x1="161" x2="161" y1="103.7051" y2="123.7051"/><polygon fill="#181818" points="157,113.7051,161,123.7051,165,113.7051,161,117.7051" style="stroke:#181818;stroke-width:1;stroke-linejoin:miter;stroke-miterlimit:10;"/><line style="stroke:#181818;stroke-width:1;" x1="90.9412" x2="78" y1="376.9863" y2="376.9863"/><line style="stroke:#181818;stroke-width:1;" x1="78" x2="78" y1="376.9863" y2="408.9863"/><polygon fill="#181818" points="74,398.9863,78,408.9863,82,398.9863,78,402.9863" style="stroke:#181818;stroke-width:1;stroke-linejoin:miter;stroke-miterlimit:10;"/><line style="stroke:#181818;stroke-width:1;" x1="231.0588" x2="244" y1="376.9863" y2="376.9863"/><line style="stroke:#181818;stroke-width:1;" x1="244" x2="244" y1="376.9863" y2="408.9863"/><polygon fill="#181818" points="240,398.9863,244,408.9863,248,398.9863,244,402.9863" style="stroke:#181818;stroke-width:1;stroke-linejoin:miter;stroke-miterlimit:10;"/><line style="stroke:#181818;stroke-width:1;" x1="78" x2="78" y1="444.0801" y2="631.3613"/><line style="stroke:#181818;stroke-width:1;" x1="78" x2="149" y1="631.3613" y2="631.3613"/><polygon fill="#181818" points="139,627.3613,149,631.3613,139,635.3613,143,631.3613" style="stroke:#181818;stroke-width:1;stroke-linejoin:miter;stroke-miterlimit:10;"/><line style="stroke:#181818;stroke-width:1;" x1="244" x2="244" y1="609.3613" y2="631.3613"/><line style="stroke:#181818;stroke-width:1;" x1="244" x2="173" y1="631.3613" y2="631.3613"/><polygon fill="#181818" points="183,627.3613,173,631.3613,183,635.3613,179,631.3613" style="stroke:#181818;stroke-width:1;stroke-linejoin:miter;stroke-miterlimit:10;"/><line style="stroke:#181818;stroke-width:1;" x1="161" x2="161" y1="863.7363" y2="883.7363"/><polygon fill="#181818" points="157,873.7363,161,883.7363,165,873.7363,161,877.7363" style="stroke:#181818;stroke-width:1;stroke-linejoin:miter;stroke-miterlimit:10;"/><line style="stroke:#181818;stroke-width:1;" x1="644" x2="644" y1="302.9863" y2="322.9863"/><polygon fill="#181818" points="640,312.9863,644,322.9863,648,312.9863,644,316.9863" style="stroke:#181818;stroke-width:1;stroke-linejoin:miter;stroke-miterlimit:10;"/><line style="stroke:#181818;stroke-width:1;" x1="475.4412" x2="436" y1="245.8926" y2="245.8926"/><line style="stroke:#181818;stroke-width:1;" x1="436" x2="436" y1="245.8926" y2="267.8926"/><polygon fill="#181818" points="432,257.8926,436,267.8926,440,257.8926,436,261.8926" style="stroke:#181818;stroke-width:1;stroke-linejoin:miter;stroke-miterlimit:10;"/><line style="stroke:#181818;stroke-width:1;" x1="604.5588" x2="644" y1="245.8926" y2="245.8926"/><line style="stroke:#181818;stroke-width:1;" x1="644" x2="644" y1="245.8926" y2="267.8926"/><polygon fill="#181818" points="640,257.8926,644,267.8926,648,257.8926,644,261.8926" style="stroke:#181818;stroke-width:1;stroke-linejoin:miter;stroke-miterlimit:10;"/><line style="stroke:#181818;stroke-width:1;" x1="436" x2="436" y1="302.9863" y2="349.9863"/><line style="stroke:#181818;stroke-width:1;" x1="436" x2="161" y1="349.9863" y2="349.9863"/><line style="stroke:#181818;stroke-width:1;" x1="161" x2="161" y1="349.9863" y2="364.9863"/><polygon fill="#181818" points="157,354.9863,161,364.9863,165,354.9863,161,358.9863" style="stroke:#181818;stroke-width:1;stroke-linejoin:miter;stroke-miterlimit:10;"/><line style="stroke:#181818;stroke-width:1;" x1="540" x2="540" y1="213.8926" y2="233.8926"/><polygon fill="#181818" points="536,223.8926,540,233.8926,544,223.8926,540,227.8926" style="stroke:#181818;stroke-width:1;stroke-linejoin:miter;stroke-miterlimit:10;"/><line style="stroke:#181818;stroke-width:1;" x1="623" x2="623" y1="499.1738" y2="519.1738"/><polygon fill="#181818" points="619,509.1738,623,519.1738,627,509.1738,623,513.1738" style="stroke:#181818;stroke-width:1;stroke-linejoin:miter;stroke-miterlimit:10;"/><line style="stroke:#181818;stroke-width:1;" x1="540" x2="540" y1="698.4551" y2="718.4551"/><polygon fill="#181818" points="536,708.4551,540,718.4551,544,708.4551,540,712.4551" style="stroke:#181818;stroke-width:1;stroke-linejoin:miter;stroke-miterlimit:10;"/><line style="stroke:#181818;stroke-width:1;" x1="540" x2="540" y1="753.5488" y2="773.5488"/><polygon fill="#181818" points="536,763.5488,540,773.5488,544,763.5488,540,767.5488" style="stroke:#181818;stroke-width:1;stroke-linejoin:miter;stroke-miterlimit:10;"/><line style="stroke:#181818;stroke-width:1;" x1="161" x2="161" y1="158.7988" y2="163.7988"/><line style="stroke:#181818;stroke-width:1;" x1="161" x2="540" y1="163.7988" y2="163.7988"/><line style="stroke:#181818;stroke-width:1;" x1="540" x2="540" y1="163.7988" y2="178.7988"/><polygon fill="#181818" points="536,168.7988,540,178.7988,544,168.7988,540,172.7988" style="stroke:#181818;stroke-width:1;stroke-linejoin:miter;stroke-miterlimit:10;"/><line style="stroke:#181818;stroke-width:1;" x1="244" x2="244" y1="444.0801" y2="449.0801"/><line style="stroke:#181818;stroke-width:1;" x1="244" x2="623" y1="449.0801" y2="449.0801"/><line style="stroke:#181818;stroke-width:1;" x1="623" x2="623" y1="449.0801" y2="464.0801"/><polygon fill="#181818" points="619,454.0801,623,464.0801,627,454.0801,623,458.0801" style="stroke:#181818;stroke-width:1;stroke-linejoin:miter;stroke-miterlimit:10;"/><line style="stroke:#181818;stroke-width:1;" x1="623" x2="623" y1="554.2676" y2="559.2676"/><line style="stroke:#181818;stroke-width:1;" x1="623" x2="244" y1="559.2676" y2="559.2676"/><line style="stroke:#181818;stroke-width:1;" x1="244" x2="244" y1="559.2676" y2="574.2676"/><polygon fill="#181818" points="240,564.2676,244,574.2676,248,564.2676,244,568.2676" style="stroke:#181818;stroke-width:1;stroke-linejoin:miter;stroke-miterlimit:10;"/><line style="stroke:#181818;stroke-width:1;" x1="161" x2="161" y1="643.3613" y2="648.3613"/><line style="stroke:#181818;stroke-width:1;" x1="161" x2="540" y1="648.3613" y2="648.3613"/><line style="stroke:#181818;stroke-width:1;" x1="540" x2="540" y1="648.3613" y2="663.3613"/><polygon fill="#181818" points="536,653.3613,540,663.3613,544,653.3613,540,657.3613" style="stroke:#181818;stroke-width:1;stroke-linejoin:miter;stroke-miterlimit:10;"/><line style="stroke:#181818;stroke-width:1;" x1="540" x2="540" y1="808.6426" y2="813.6426"/><line style="stroke:#181818;stroke-width:1;" x1="540" x2="161" y1="813.6426" y2="813.6426"/><line style="stroke:#181818;stroke-width:1;" x1="161" x2="161" y1="813.6426" y2="828.6426"/><polygon fill="#181818" points="157,818.6426,161,828.6426,165,818.6426,161,822.6426" style="stroke:#181818;stroke-width:1;stroke-linejoin:miter;stroke-miterlimit:10;"/><text fill="#000000" font-family="sans-serif" font-size="18" lengthAdjust="spacing" textLength="54" x="154" y="74.75">&#21033;&#29992;&#32773;</text><text fill="#000000" font-family="sans-serif" font-size="18" lengthAdjust="spacing" textLength="72" x="509" y="74.75">&#12471;&#12473;&#12486;&#12512;</text><?plantuml-src VP7DJi9054RtVOfPmiA5Mrouy1by01Dh925WR3ScNNIcY0WbAAWDe29OvCUaHY224ELXBjCfRs5RMgKWxDhEkL-_ELUCYZ4U0Qa3UGCb1UGPbEByWLPwQ0lDb1Pzpm8fJ4Tfray2BW79XlRtjiCS9z5qczsqBFbSuWJnu5Ja8jIOcBsCgJL06LEZJWqTo0I83efcPvZg1JNAyumTJW8o0FBf_4rvahW8QuzSlc3gzwnVzx7e4GfPxIxzAiw_U1XM0HFxTJUCn6C-Za9dl13c48giijEXRBqqdU3y5TD7VZ0V4tWKYYVSAP1LFxW3M0CvP_E_zmFyEfFBhDhmPn4InCG9nySFeqT14KvTtvK6k0euwObOszWNLPZXePbv_BVVPh5KlpGh_RzoIsgTUPUWttO7mtoeJSSVW9iqbGkwji4bPGuIi6Q7BznsGtjFpTAIFJMam4hZcThrQUyxk-tG_C0z7LarTTtfubw2xHQxhKpbxNrSq_oTIxhx-m40?></g></svg>