<svg xmlns="http://www.w3.org/2000/svg" xmlns:xlink="http://www.w3.org/1999/xlink" contentStyleType="text/css" data-diagram-type="ACTIVITY" height="995px" preserveAspectRatio="none" style="width:1122px;height:995px;background:#FFFFFF;" version="1.1" viewBox="0 0 1122 995" width="1122px" zoomAndPan="magnify"><?plantuml 1.2026.6?><defs/><g><g class="title" data-source-line="1"><text fill="#000000" font-family="sans-serif" font-size="14" font-weight="700" lengthAdjust="spacing" textLength="266.335" x="426.8328" y="34.5332">&#12450;&#12463;&#12486;&#12451;&#12499;&#12486;&#12451;&#22259; - &#37096;&#23627;&#12434;&#20104;&#32004;&#12377;&#12427;(UC1)</text></g><rect fill="none" height="22.6406" style="stroke:none;stroke-width:1;" width="1075.0005" x="20" y="56.0645"/><ellipse cx="330.5" cy="93.7051" fill="#222222" rx="10" ry="10" style="stroke:#222222;stroke-width:1;"/><rect fill="#F1F1F1" height="35.0938" rx="12.5" ry="12.5" style="stroke:#181818;stroke-width:0.5;" width="188" x="236.5" y="123.7051"/><text fill="#000000" font-family="sans-serif" font-size="12" lengthAdjust="spacing" textLength="168" x="246.5" y="146.1621">&#23487;&#27850;&#26085;&#12539;&#23458;&#23460;&#12479;&#12452;&#12503;&#12434;&#25351;&#23450;&#12377;&#12427;</text><polygon fill="#F1F1F1" points="272.4412,453.8574,388.5588,453.8574,400.5588,465.8574,388.5588,477.8574,272.4412,477.8574,260.4412,465.8574,272.4412,453.8574" style="stroke:#181818;stroke-width:0.5;stroke-linejoin:miter;stroke-miterlimit:10;"/><text fill="#000000" font-family="sans-serif" font-size="11" lengthAdjust="spacing" textLength="116.1177" x="272.4412" y="470.3584">&#27671;&#12395;&#20837;&#12387;&#12383;&#23458;&#23460;&#12364;&#12354;&#12427;?</text><text fill="#000000" font-family="sans-serif" font-size="11" lengthAdjust="spacing" textLength="17.1177" x="243.3235" y="463.4404">yes</text><text fill="#000000" font-family="sans-serif" font-size="11" lengthAdjust="spacing" textLength="12.2354" x="400.5588" y="463.4404">no</text><rect fill="#F1F1F1" height="35.0938" rx="12.5" ry="12.5" style="stroke:#181818;stroke-width:0.5;" width="236" x="26" y="497.8574"/><text fill="#000000" font-family="sans-serif" font-size="12" lengthAdjust="spacing" textLength="216" x="36" y="520.3145">&#23458;&#23460;&#12434;&#36984;&#25246;&#12375;&#12289;&#27663;&#21517;&#12539;&#36899;&#32097;&#20808;&#12434;&#20837;&#21147;&#12377;&#12427;</text><polygon fill="#F1F1F1" points="330.5,677.0449,342.5,689.0449,330.5,701.0449,318.5,689.0449,330.5,677.0449" style="stroke:#181818;stroke-width:0.5;stroke-linejoin:miter;stroke-miterlimit:10;"/><rect fill="#F1F1F1" height="35.0938" rx="12.5" ry="12.5" style="stroke:#181818;stroke-width:0.5;" width="128" x="266.5" y="897.4854"/><text fill="#000000" font-family="sans-serif" font-size="12" lengthAdjust="spacing" textLength="108" x="276.5" y="919.9424">&#20104;&#32004;&#30058;&#21495;&#12434;&#21463;&#12369;&#21462;&#12427;</text><ellipse cx="330.5" cy="963.5791" fill="none" rx="11" ry="11" style="stroke:#222222;stroke-width:1;"/><ellipse cx="330.5" cy="963.5791" fill="#222222" rx="6" ry="6" style="stroke:#222222;stroke-width:1;"/><line style="stroke:#000000;stroke-width:1.5;" x1="20" x2="20" y1="56.0645" y2="974.5791"/><rect fill="#F1F1F1" height="35.0938" rx="12.5" ry="12.5" style="stroke:#181818;stroke-width:0.5;" width="200" x="680" y="227.7168"/><text fill="#000000" font-family="sans-serif" font-size="12" lengthAdjust="spacing" textLength="180" x="690" y="250.1738">&#12300;&#31354;&#23460;&#12394;&#12375;&#12301;&#12434;&#21033;&#29992;&#32773;&#12395;&#36890;&#30693;&#12377;&#12427;</text><ellipse cx="780" cy="301.7637" fill="none" rx="11" ry="11" style="stroke:#222222;stroke-width:1;"/><ellipse cx="780" cy="301.7637" fill="#222222" rx="6" ry="6" style="stroke:#222222;stroke-width:1;"/><polygon fill="#F1F1F1" points="727.4412,178.7988,832.5588,178.7988,844.5588,190.7988,832.5588,202.7988,727.4412,202.7988,715.4412,190.7988,727.4412,178.7988" style="stroke:#181818;stroke-width:0.5;stroke-linejoin:miter;stroke-miterlimit:10;"/><text fill="#000000" font-family="sans-serif" font-size="11" lengthAdjust="spacing" textLength="12.2354" x="784" y="214.2178">no</text><text fill="#000000" font-family="sans-serif" font-size="11" lengthAdjust="spacing" textLength="105.1177" x="727.4412" y="195.2998">&#35442;&#24403;&#12377;&#12427;&#31354;&#23460;&#12364;&#12354;&#12427;?</text><rect fill="#F1F1F1" height="35.0938" rx="12.5" ry="12.5" style="stroke:#181818;stroke-width:0.5;" width="176" x="692" y="398.7637"/><text fill="#000000" font-family="sans-serif" font-size="12" lengthAdjust="spacing" textLength="156" x="702" y="421.2207">&#35442;&#24403;&#12377;&#12427;&#31354;&#23460;&#19968;&#35239;&#12434;&#25552;&#31034;&#12377;&#12427;</text><polygon fill="#F1F1F1" points="524.4412,567.9512,662.5588,567.9512,674.5588,579.9512,662.5588,591.9512,524.4412,591.9512,512.4412,579.9512,524.4412,567.9512" style="stroke:#181818;stroke-width:0.5;stroke-linejoin:miter;stroke-miterlimit:10;"/><text fill="#000000" font-family="sans-serif" font-size="11" lengthAdjust="spacing" textLength="138.1177" x="524.4412" y="584.4521">&#36984;&#25246;&#12375;&#12383;&#23458;&#23460;&#12434;&#30906;&#20445;&#12391;&#12365;&#12427;?</text><text fill="#000000" font-family="sans-serif" font-size="11" lengthAdjust="spacing" textLength="17.1177" x="495.3235" y="577.5342">yes</text><text fill="#000000" font-family="sans-serif" font-size="11" lengthAdjust="spacing" textLength="12.2354" x="674.5588" y="577.5342">no</text><rect fill="#F1F1F1" height="35.0938" rx="12.5" ry="12.5" style="stroke:#181818;stroke-width:0.5;" width="104" x="434.5" y="601.9512"/><text fill="#000000" font-family="sans-serif" font-size="12" lengthAdjust="spacing" textLength="84" x="444.5" y="624.4082">&#20104;&#32004;&#12434;&#30331;&#37682;&#12377;&#12427;</text><rect fill="#F1F1F1" height="35.0938" rx="12.5" ry="12.5" style="stroke:#181818;stroke-width:0.5;" width="284" x="558.5" y="601.9512"/><text fill="#000000" font-family="sans-serif" font-size="12" lengthAdjust="spacing" textLength="264" x="568.5" y="624.4082">&#12300;&#35442;&#24403;&#23458;&#23460;&#12399;&#30906;&#20445;&#12391;&#12365;&#12394;&#12356;&#12301;&#12434;&#21033;&#29992;&#32773;&#12395;&#36890;&#30693;&#12377;&#12427;</text><polygon fill="#F1F1F1" points="593.5,643.0449,605.5,655.0449,593.5,667.0449,581.5,655.0449,593.5,643.0449" style="stroke:#181818;stroke-width:0.5;stroke-linejoin:miter;stroke-miterlimit:10;"/><rect fill="#F1F1F1" height="35.0938" rx="12.5" ry="12.5" style="stroke:#181818;stroke-width:0.5;" width="188" x="872.5" y="497.8574"/><text fill="#000000" font-family="sans-serif" font-size="12" lengthAdjust="spacing" textLength="168" x="882.5" y="520.3145">&#23487;&#27850;&#26085;&#12539;&#23458;&#23460;&#12479;&#12452;&#12503;&#12434;&#22793;&#26356;&#12377;&#12427;</text><polygon fill="#F1F1F1" points="780,354.7637,792,366.7637,780,378.7637,768,366.7637,780,354.7637" style="stroke:#181818;stroke-width:0.5;stroke-linejoin:miter;stroke-miterlimit:10;"/><polygon fill="#F1F1F1" points="743.9412,721.0449,816.0588,721.0449,828.0588,733.0449,816.0588,745.0449,743.9412,745.0449,731.9412,733.0449,743.9412,721.0449" style="stroke:#181818;stroke-width:0.5;stroke-linejoin:miter;stroke-miterlimit:10;"/><text fill="#000000" font-family="sans-serif" font-size="11" lengthAdjust="spacing" textLength="72.1177" x="743.9412" y="737.5459">&#20104;&#32004;&#12364;&#26410;&#30331;&#37682;?</text><text fill="#000000" font-family="sans-serif" font-size="11" lengthAdjust="spacing" textLength="17.1177" x="828.0588" y="730.6279">yes</text><rect fill="#F1F1F1" height="35.0938" rx="12.5" ry="12.5" style="stroke:#181818;stroke-width:0.5;" width="128" x="716" y="787.2979"/><text fill="#000000" font-family="sans-serif" font-size="12" lengthAdjust="spacing" textLength="108" x="726" y="809.7549">&#20104;&#32004;&#30058;&#21495;&#12434;&#30330;&#34892;&#12377;&#12427;</text><rect fill="#F1F1F1" height="35.0938" rx="12.5" ry="12.5" style="stroke:#181818;stroke-width:0.5;" width="176" x="692" y="842.3916"/><text fill="#000000" font-family="sans-serif" font-size="12" lengthAdjust="spacing" textLength="156" x="702" y="864.8486">&#20104;&#32004;&#30058;&#21495;&#12434;&#21033;&#29992;&#32773;&#12395;&#25552;&#31034;&#12377;&#12427;</text><line style="stroke:#000000;stroke-width:1.5;" x1="428.5" x2="428.5" y1="56.0645" y2="974.5791"/><line style="stroke:#000000;stroke-width:1.5;" x1="1093.5" x2="1093.5" y1="56.0645" y2="974.5791"/><line style="stroke:#181818;stroke-width:1;" x1="330.5" x2="330.5" y1="103.7051" y2="123.7051"/><polygon fill="#181818" points="326.5,113.7051,330.5,123.7051,334.5,113.7051,330.5,117.7051" style="stroke:#181818;stroke-width:1;stroke-linejoin:miter;stroke-miterlimit:10;"/><line style="stroke:#181818;stroke-width:1;" x1="260.4412" x2="144" y1="465.8574" y2="465.8574"/><line style="stroke:#181818;stroke-width:1;" x1="144" x2="144" y1="465.8574" y2="497.8574"/><polygon fill="#181818" points="140,487.8574,144,497.8574,148,487.8574,144,491.8574" style="stroke:#181818;stroke-width:1;stroke-linejoin:miter;stroke-miterlimit:10;"/><line style="stroke:#181818;stroke-width:1;" x1="330.5" x2="330.5" y1="932.5791" y2="952.5791"/><polygon fill="#181818" points="326.5,942.5791,330.5,952.5791,334.5,942.5791,330.5,946.5791" style="stroke:#181818;stroke-width:1;stroke-linejoin:miter;stroke-miterlimit:10;"/><line style="stroke:#181818;stroke-width:1;" x1="780" x2="780" y1="262.8105" y2="290.7637"/><polygon fill="#181818" points="776,280.7637,780,290.7637,784,280.7637,780,284.7637" style="stroke:#181818;stroke-width:1;stroke-linejoin:miter;stroke-miterlimit:10;"/><line style="stroke:#181818;stroke-width:1;" x1="780" x2="780" y1="202.7988" y2="227.7168"/><polygon fill="#181818" points="776,217.7168,780,227.7168,784,217.7168,780,221.7168" style="stroke:#181818;stroke-width:1;stroke-linejoin:miter;stroke-miterlimit:10;"/><line style="stroke:#181818;stroke-width:1;" x1="844.5588" x2="890" y1="190.7988" y2="190.7988"/><polygon fill="#181818" points="886,260.7637,890,270.7637,894,260.7637,890,264.7637" style="stroke:#181818;stroke-width:1;stroke-linejoin:miter;stroke-miterlimit:10;"/><line style="stroke:#181818;stroke-width:1;" x1="890" x2="890" y1="190.7988" y2="334.7637"/><line style="stroke:#181818;stroke-width:1;" x1="890" x2="780" y1="334.7637" y2="334.7637"/><line style="stroke:#181818;stroke-width:1;" x1="780" x2="780" y1="334.7637" y2="354.7637"/><polygon fill="#181818" points="776,344.7637,780,354.7637,784,344.7637,780,348.7637" style="stroke:#181818;stroke-width:1;stroke-linejoin:miter;stroke-miterlimit:10;"/><line style="stroke:#181818;stroke-width:1;" x1="512.4412" x2="486.5" y1="579.9512" y2="579.9512"/><line style="stroke:#181818;stroke-width:1;" x1="486.5" x2="486.5" y1="579.9512" y2="601.9512"/><polygon fill="#181818" points="482.5,591.9512,486.5,601.9512,490.5,591.9512,486.5,595.9512" style="stroke:#181818;stroke-width:1;stroke-linejoin:miter;stroke-miterlimit:10;"/><line style="stroke:#181818;stroke-width:1;" x1="674.5588" x2="700.5" y1="579.9512" y2="579.9512"/><line style="stroke:#181818;stroke-width:1;" x1="700.5" x2="700.5" y1="579.9512" y2="601.9512"/><polygon fill="#181818" points="696.5,591.9512,700.5,601.9512,704.5,591.9512,700.5,595.9512" style="stroke:#181818;stroke-width:1;stroke-linejoin:miter;stroke-miterlimit:10;"/><line style="stroke:#181818;stroke-width:1;" x1="486.5" x2="486.5" y1="637.0449" y2="655.0449"/><line style="stroke:#181818;stroke-width:1;" x1="486.5" x2="581.5" y1="655.0449" y2="655.0449"/><polygon fill="#181818" points="571.5,651.0449,581.5,655.0449,571.5,659.0449,575.5,655.0449" style="stroke:#181818;stroke-width:1;stroke-linejoin:miter;stroke-miterlimit:10;"/><line style="stroke:#181818;stroke-width:1;" x1="700.5" x2="700.5" y1="637.0449" y2="655.0449"/><line style="stroke:#181818;stroke-width:1;" x1="700.5" x2="605.5" y1="655.0449" y2="655.0449"/><polygon fill="#181818" points="615.5,651.0449,605.5,655.0449,615.5,659.0449,611.5,655.0449" style="stroke:#181818;stroke-width:1;stroke-linejoin:miter;stroke-miterlimit:10;"/><line style="stroke:#181818;stroke-width:1;" x1="780" x2="780" y1="378.7637" y2="398.7637"/><polygon fill="#181818" points="776,388.7637,780,398.7637,784,388.7637,780,392.7637" style="stroke:#181818;stroke-width:1;stroke-linejoin:miter;stroke-miterlimit:10;"/><line style="stroke:#181818;stroke-width:1;" x1="828.0588" x2="1074.5" y1="733.0449" y2="733.0449"/><polygon fill="#181818" points="1070.5,552.4043,1074.5,542.4043,1078.5,552.4043,1074.5,548.4043" style="stroke:#181818;stroke-width:1;stroke-linejoin:miter;stroke-miterlimit:10;"/><line style="stroke:#181818;stroke-width:1;" x1="1074.5" x2="1074.5" y1="366.7637" y2="733.0449"/><line style="stroke:#181818;stroke-width:1;" x1="1074.5" x2="792" y1="366.7637" y2="366.7637"/><polygon fill="#181818" points="802,362.7637,792,366.7637,802,370.7637,798,366.7637" style="stroke:#181818;stroke-width:1;stroke-linejoin:miter;stroke-miterlimit:10;"/><line style="stroke:#181818;stroke-width:1;" x1="780" x2="780" y1="745.0449" y2="787.2979"/><polygon fill="#181818" points="776,777.2979,780,787.2979,784,777.2979,780,781.2979" style="stroke:#181818;stroke-width:1;stroke-linejoin:miter;stroke-miterlimit:10;"/><text fill="#000000" font-family="sans-serif" font-size="11" lengthAdjust="spacing" textLength="12.2354" x="784" y="767.3809">no</text><line style="stroke:#181818;stroke-width:1;" x1="780" x2="780" y1="822.3916" y2="842.3916"/><polygon fill="#181818" points="776,832.3916,780,842.3916,784,832.3916,780,836.3916" style="stroke:#181818;stroke-width:1;stroke-linejoin:miter;stroke-miterlimit:10;"/><line style="stroke:#181818;stroke-width:1;" x1="330.5" x2="330.5" y1="158.7988" y2="163.7988"/><line style="stroke:#181818;stroke-width:1;" x1="330.5" x2="780" y1="163.7988" y2="163.7988"/><line style="stroke:#181818;stroke-width:1;" x1="780" x2="780" y1="163.7988" y2="178.7988"/><polygon fill="#181818" points="776,168.7988,780,178.7988,784,168.7988,780,172.7988" style="stroke:#181818;stroke-width:1;stroke-linejoin:miter;stroke-miterlimit:10;"/><line style="stroke:#181818;stroke-width:1;" x1="144" x2="144" y1="532.9512" y2="550.4512"/><line style="stroke:#181818;stroke-width:1;" x1="144" x2="593.5" y1="550.4512" y2="550.4512"/><line style="stroke:#181818;stroke-width:1;" x1="593.5" x2="593.5" y1="550.4512" y2="567.9512"/><polygon fill="#181818" points="589.5,557.9512,593.5,567.9512,597.5,557.9512,593.5,561.9512" style="stroke:#181818;stroke-width:1;stroke-linejoin:miter;stroke-miterlimit:10;"/><line style="stroke:#181818;stroke-width:1;" x1="400.5588" x2="966.5" y1="465.8574" y2="465.8574"/><line style="stroke:#181818;stroke-width:1;" x1="966.5" x2="966.5" y1="465.8574" y2="497.8574"/><polygon fill="#181818" points="962.5,487.8574,966.5,497.8574,970.5,487.8574,966.5,491.8574" style="stroke:#181818;stroke-width:1;stroke-linejoin:miter;stroke-miterlimit:10;"/><line style="stroke:#181818;stroke-width:1;" x1="593.5" x2="593.5" y1="667.0449" y2="671.0449"/><line style="stroke:#181818;stroke-width:1;" x1="593.5" x2="300.5" y1="671.0449" y2="671.0449"/><line style="stroke:#181818;stroke-width:1;" x1="300.5" x2="300.5" y1="671.0449" y2="689.0449"/><line style="stroke:#181818;stroke-width:1;" x1="300.5" x2="318.5" y1="689.0449" y2="689.0449"/><polygon fill="#181818" points="308.5,685.0449,318.5,689.0449,308.5,693.0449,312.5,689.0449" style="stroke:#181818;stroke-width:1;stroke-linejoin:miter;stroke-miterlimit:10;"/><line style="stroke:#181818;stroke-width:1;" x1="966.5" x2="966.5" y1="532.9512" y2="689.0449"/><line style="stroke:#181818;stroke-width:1;" x1="966.5" x2="342.5" y1="689.0449" y2="689.0449"/><polygon fill="#181818" points="352.5,685.0449,342.5,689.0449,352.5,693.0449,348.5,689.0449" style="stroke:#181818;stroke-width:1;stroke-linejoin:miter;stroke-miterlimit:10;"/><line style="stroke:#181818;stroke-width:1;" x1="780" x2="780" y1="433.8574" y2="438.8574"/><line style="stroke:#181818;stroke-width:1;" x1="780" x2="330.5" y1="438.8574" y2="438.8574"/><line style="stroke:#181818;stroke-width:1;" x1="330.5" x2="330.5" y1="438.8574" y2="453.8574"/><polygon fill="#181818" points="326.5,443.8574,330.5,453.8574,334.5,443.8574,330.5,447.8574" style="stroke:#181818;stroke-width:1;stroke-linejoin:miter;stroke-miterlimit:10;"/><line style="stroke:#181818;stroke-width:1;" x1="330.5" x2="330.5" y1="701.0449" y2="706.0449"/><line style="stroke:#181818;stroke-width:1;" x1="330.5" x2="780" y1="706.0449" y2="706.0449"/><line style="stroke:#181818;stroke-width:1;" x1="780" x2="780" y1="706.0449" y2="721.0449"/><polygon fill="#181818" points="776,711.0449,780,721.0449,784,711.0449,780,715.0449" style="stroke:#181818;stroke-width:1;stroke-linejoin:miter;stroke-miterlimit:10;"/><line style="stroke:#181818;stroke-width:1;" x1="780" x2="780" y1="877.4854" y2="882.4854"/><line style="stroke:#181818;stroke-width:1;" x1="780" x2="330.5" y1="882.4854" y2="882.4854"/><line style="stroke:#181818;stroke-width:1;" x1="330.5" x2="330.5" y1="882.4854" y2="897.4854"/><polygon fill="#181818" points="326.5,887.4854,330.5,897.4854,334.5,887.4854,330.5,891.4854" style="stroke:#181818;stroke-width:1;stroke-linejoin:miter;stroke-miterlimit:10;"/><text fill="#000000" font-family="sans-serif" font-size="18" lengthAdjust="spacing" textLength="54" x="197.25" y="74.75">&#21033;&#29992;&#32773;</text><text fill="#000000" font-family="sans-serif" font-size="18" lengthAdjust="spacing" textLength="72" x="725" y="74.75">&#12471;&#12473;&#12486;&#12512;</text><?plantuml-src XPBBJi9058RtynIpX8KBjvZemcVm0KYiiOa1GviO4nQTgIXYIHLK0gZ8JGKJl4UjCJpCOLhw5iwqL0eOsVLopld-yvzVbTKj2GDj07q0VHze4_IY_y2gBtW1k_eTUpe2MXXOMUTr3qWPw55aRNKnYb2QPJlEwTrGowIHeiPJAegnNjz-oTcbDkXVhDTWlHRGFj0Mw2K-mpOEMA_YprX2QQ3lG3y5JRzE8ta3HuQTP_PTz0kSZYNQYG64yjULA5OtfGIE999HX74CD2Eew08fWPRdW5z1GEvThUBKsW4COqLDRYCfiIvle9IqBSLLCMKMEFZGXZUtGgnvxBIiSNzuMuo5Mlknn3aimo5D8BNHlZE2ToL5AEQqm962Ipxit9KdczYF9ZlESxzShUcyrLacAnR9j5ckEePp_AHRufFGC9xqAu0Md8Orw5y2kGMI_rC9rpAw9oykVxd6SnWbRIbIuBDNoxtsZGfMV9WWY0FipJy07-ovFmsO4nhMEhIhh_zQ4RugtjcKUQGZGLuD-wBhhyXja9MH2GlBYUGI6fdWd7MP-UvPOGthHe2Q_XlURJ8SuMZCT9dyD2VCFFSglH3-0000?></g></svg>