<svg xmlns="http://www.w3.org/2000/svg" xmlns:xlink="http://www.w3.org/1999/xlink" contentStyleType="text/css" data-diagram-type="ACTIVITY" height="892px" preserveAspectRatio="none" style="width:743px;height:892px;background:#FFFFFF;" version="1.1" viewBox="0 0 743 892" width="743px" zoomAndPan="magnify"><?plantuml 1.2026.6?><defs/><g><g class="title" data-source-line="1"><text fill="#000000" font-family="sans-serif" font-size="14" font-weight="700" lengthAdjust="spacing" textLength="295.21" x="223.1453" y="34.5332">&#12450;&#12463;&#12486;&#12451;&#12499;&#12486;&#12451;&#22259; - &#12481;&#12455;&#12483;&#12463;&#12450;&#12454;&#12488;&#12377;&#12427;(UC3)</text></g><rect fill="none" height="22.6406" style="stroke:none;stroke-width:1;" width="696.5005" x="20" y="56.0645"/><ellipse cx="143" cy="93.7051" fill="#222222" rx="10" ry="10" style="stroke:#222222;stroke-width:1;"/><rect fill="#F1F1F1" height="35.0938" rx="12.5" ry="12.5" style="stroke:#181818;stroke-width:0.5;" width="224" x="31" y="123.7051"/><text fill="#000000" font-family="sans-serif" font-size="12" lengthAdjust="spacing" textLength="204" x="41" y="146.1621">&#12501;&#12525;&#12531;&#12488;&#12391;&#12481;&#12455;&#12483;&#12463;&#12450;&#12454;&#12488;&#12434;&#30003;&#21578;&#12377;&#12427;</text><polygon fill="#F1F1F1" points="79.4412,492.0918,206.5588,492.0918,218.5588,504.0918,206.5588,516.0918,79.4412,516.0918,67.4412,504.0918,79.4412,492.0918" style="stroke:#181818;stroke-width:0.5;stroke-linejoin:miter;stroke-miterlimit:10;"/><text fill="#000000" font-family="sans-serif" font-size="11" lengthAdjust="spacing" textLength="12.2354" x="147" y="527.5107">no</text><text fill="#000000" font-family="sans-serif" font-size="11" lengthAdjust="spacing" textLength="127.1177" x="79.4412" y="508.5928">&#26009;&#37329;&#12398;&#25903;&#25173;&#12356;&#12395;&#21516;&#24847;&#12377;&#12427;?</text><polygon fill="#F1F1F1" points="143,640.1035,155,652.1035,143,664.1035,131,652.1035,143,640.1035" style="stroke:#181818;stroke-width:0.5;stroke-linejoin:miter;stroke-miterlimit:10;"/><rect fill="#F1F1F1" height="35.0938" rx="12.5" ry="12.5" style="stroke:#181818;stroke-width:0.5;" width="92" x="97" y="684.1035"/><text fill="#000000" font-family="sans-serif" font-size="12" lengthAdjust="spacing" textLength="72" x="107" y="706.5605">&#26009;&#37329;&#12434;&#25903;&#25173;&#12358;</text><line style="stroke:#000000;stroke-width:1.5;" x1="20" x2="20" y1="56.0645" y2="871.3848"/><rect fill="#F1F1F1" height="35.0938" rx="12.5" ry="12.5" style="stroke:#181818;stroke-width:0.5;" width="128" x="325" y="178.7988"/><text fill="#000000" font-family="sans-serif" font-size="12" lengthAdjust="spacing" textLength="108" x="335" y="201.2559">&#23487;&#27850;&#26009;&#37329;&#12434;&#35336;&#31639;&#12377;&#12427;</text><rect fill="#F1F1F1" height="35.0938" rx="12.5" ry="12.5" style="stroke:#181818;stroke-width:0.5;" width="188" x="295" y="282.8105"/><text fill="#000000" font-family="sans-serif" font-size="12" lengthAdjust="spacing" textLength="168" x="305" y="305.2676">&#36861;&#21152;&#26009;&#37329;&#12434;&#23487;&#27850;&#26009;&#37329;&#12395;&#21152;&#31639;&#12377;&#12427;</text><polygon fill="#F1F1F1" points="308.9412,233.8926,469.0588,233.8926,481.0588,245.8926,469.0588,257.8926,308.9412,257.8926,296.9412,245.8926,308.9412,233.8926" style="stroke:#181818;stroke-width:0.5;stroke-linejoin:miter;stroke-miterlimit:10;"/><text fill="#000000" font-family="sans-serif" font-size="11" lengthAdjust="spacing" textLength="17.1177" x="393" y="269.3115">yes</text><text fill="#000000" font-family="sans-serif" font-size="11" lengthAdjust="spacing" textLength="160.1177" x="308.9412" y="250.3936">&#36861;&#21152;&#12469;&#12540;&#12499;&#12473;&#12398;&#21033;&#29992;&#23653;&#27508;&#12364;&#12354;&#12427;?</text><polygon fill="#F1F1F1" points="389,337.9043,401,349.9043,389,361.9043,377,349.9043,389,337.9043" style="stroke:#181818;stroke-width:0.5;stroke-linejoin:miter;stroke-miterlimit:10;"/><rect fill="#F1F1F1" height="35.0938" rx="12.5" ry="12.5" style="stroke:#181818;stroke-width:0.5;" width="200" x="289" y="381.9043"/><text fill="#000000" font-family="sans-serif" font-size="12" lengthAdjust="spacing" textLength="180" x="299" y="404.3613">&#23487;&#27850;&#26009;&#37329;&#12434;&#12501;&#12525;&#12531;&#12488;&#20418;&#12395;&#25552;&#31034;&#12377;&#12427;</text><rect fill="#F1F1F1" height="35.0938" rx="12.5" ry="12.5" style="stroke:#181818;stroke-width:0.5;" width="116" x="331" y="739.1973"/><text fill="#000000" font-family="sans-serif" font-size="12" lengthAdjust="spacing" textLength="96" x="341" y="761.6543">&#25903;&#25173;&#12356;&#12434;&#35352;&#37682;&#12377;&#12427;</text><rect fill="#F1F1F1" height="35.0938" rx="12.5" ry="12.5" style="stroke:#181818;stroke-width:0.5;" width="248" x="265" y="794.291"/><text fill="#000000" font-family="sans-serif" font-size="12" lengthAdjust="spacing" textLength="228" x="275" y="816.748">&#20104;&#32004;&#29366;&#24907;&#12434;&#12481;&#12455;&#12483;&#12463;&#12450;&#12454;&#12488;&#28168;&#12415;&#12395;&#26356;&#26032;&#12377;&#12427;</text><ellipse cx="389" cy="860.3848" fill="none" rx="11" ry="11" style="stroke:#222222;stroke-width:1;"/><ellipse cx="389" cy="860.3848" fill="#222222" rx="6" ry="6" style="stroke:#222222;stroke-width:1;"/><line style="stroke:#000000;stroke-width:1.5;" x1="259" x2="259" y1="56.0645" y2="871.3848"/><rect fill="#F1F1F1" height="35.0938" rx="12.5" ry="12.5" style="stroke:#181818;stroke-width:0.5;" width="152" x="541" y="436.998"/><text fill="#000000" font-family="sans-serif" font-size="12" lengthAdjust="spacing" textLength="132" x="551" y="459.4551">&#21033;&#29992;&#32773;&#12395;&#26009;&#37329;&#12434;&#26696;&#20869;&#12377;&#12427;</text><rect fill="#F1F1F1" height="35.0938" rx="12.5" ry="12.5" style="stroke:#181818;stroke-width:0.5;" width="188" x="523" y="541.0098"/><text fill="#000000" font-family="sans-serif" font-size="12" lengthAdjust="spacing" textLength="168" x="533" y="563.4668">&#21033;&#29992;&#32773;&#12392;&#26009;&#37329;&#20869;&#23481;&#12434;&#20877;&#30906;&#35469;&#12377;&#12427;</text><polygon fill="#F1F1F1" points="591.9412,596.1035,642.0588,596.1035,654.0588,608.1035,642.0588,620.1035,591.9412,620.1035,579.9412,608.1035,591.9412,596.1035" style="stroke:#181818;stroke-width:0.5;stroke-linejoin:miter;stroke-miterlimit:10;"/><text fill="#000000" font-family="sans-serif" font-size="11" lengthAdjust="spacing" textLength="50.1177" x="591.9412" y="612.6045">&#35299;&#27770;&#12375;&#12383;?</text><text fill="#000000" font-family="sans-serif" font-size="11" lengthAdjust="spacing" textLength="12.2354" x="654.0588" y="605.6865">no</text><ellipse cx="688.2942" cy="608.1035" fill="none" rx="11" ry="11" style="stroke:#222222;stroke-width:1;"/><ellipse cx="688.2942" cy="608.1035" fill="#222222" rx="6" ry="6" style="stroke:#222222;stroke-width:1;"/><line style="stroke:#000000;stroke-width:1.5;" x1="517" x2="517" y1="56.0645" y2="871.3848"/><line style="stroke:#000000;stroke-width:1.5;" x1="715" x2="715" y1="56.0645" y2="871.3848"/><line style="stroke:#181818;stroke-width:1;" x1="143" x2="143" y1="103.7051" y2="123.7051"/><polygon fill="#181818" points="139,113.7051,143,123.7051,147,113.7051,143,117.7051" style="stroke:#181818;stroke-width:1;stroke-linejoin:miter;stroke-miterlimit:10;"/><line style="stroke:#181818;stroke-width:1;" x1="67.4412" x2="39" y1="504.0918" y2="504.0918"/><polygon fill="#181818" points="35,587.0566,39,597.0566,43,587.0566,39,591.0566" style="stroke:#181818;stroke-width:1;stroke-linejoin:miter;stroke-miterlimit:10;"/><line style="stroke:#181818;stroke-width:1;" x1="39" x2="39" y1="504.0918" y2="652.1035"/><line style="stroke:#181818;stroke-width:1;" x1="39" x2="131" y1="652.1035" y2="652.1035"/><polygon fill="#181818" points="121,648.1035,131,652.1035,121,656.1035,125,652.1035" style="stroke:#181818;stroke-width:1;stroke-linejoin:miter;stroke-miterlimit:10;"/><line style="stroke:#181818;stroke-width:1;" x1="143" x2="143" y1="664.1035" y2="684.1035"/><polygon fill="#181818" points="139,674.1035,143,684.1035,147,674.1035,143,678.1035" style="stroke:#181818;stroke-width:1;stroke-linejoin:miter;stroke-miterlimit:10;"/><line style="stroke:#181818;stroke-width:1;" x1="389" x2="389" y1="257.8926" y2="282.8105"/><polygon fill="#181818" points="385,272.8105,389,282.8105,393,272.8105,389,276.8105" style="stroke:#181818;stroke-width:1;stroke-linejoin:miter;stroke-miterlimit:10;"/><line style="stroke:#181818;stroke-width:1;" x1="481.0588" x2="493.0588" y1="245.8926" y2="245.8926"/><polygon fill="#181818" points="489.0588,290.3574,493.0588,300.3574,497.0588,290.3574,493.0588,294.3574" style="stroke:#181818;stroke-width:1;stroke-linejoin:miter;stroke-miterlimit:10;"/><line style="stroke:#181818;stroke-width:1;" x1="493.0588" x2="493.0588" y1="245.8926" y2="349.9043"/><line style="stroke:#181818;stroke-width:1;" x1="493.0588" x2="401" y1="349.9043" y2="349.9043"/><polygon fill="#181818" points="411,345.9043,401,349.9043,411,353.9043,407,349.9043" style="stroke:#181818;stroke-width:1;stroke-linejoin:miter;stroke-miterlimit:10;"/><line style="stroke:#181818;stroke-width:1;" x1="389" x2="389" y1="317.9043" y2="337.9043"/><polygon fill="#181818" points="385,327.9043,389,337.9043,393,327.9043,389,331.9043" style="stroke:#181818;stroke-width:1;stroke-linejoin:miter;stroke-miterlimit:10;"/><line style="stroke:#181818;stroke-width:1;" x1="389" x2="389" y1="213.8926" y2="233.8926"/><polygon fill="#181818" points="385,223.8926,389,233.8926,393,223.8926,389,227.8926" style="stroke:#181818;stroke-width:1;stroke-linejoin:miter;stroke-miterlimit:10;"/><line style="stroke:#181818;stroke-width:1;" x1="389" x2="389" y1="361.9043" y2="381.9043"/><polygon fill="#181818" points="385,371.9043,389,381.9043,393,371.9043,389,375.9043" style="stroke:#181818;stroke-width:1;stroke-linejoin:miter;stroke-miterlimit:10;"/><line style="stroke:#181818;stroke-width:1;" x1="389" x2="389" y1="774.291" y2="794.291"/><polygon fill="#181818" points="385,784.291,389,794.291,393,784.291,389,788.291" style="stroke:#181818;stroke-width:1;stroke-linejoin:miter;stroke-miterlimit:10;"/><line style="stroke:#181818;stroke-width:1;" x1="389" x2="389" y1="829.3848" y2="849.3848"/><polygon fill="#181818" points="385,839.3848,389,849.3848,393,839.3848,389,843.3848" style="stroke:#181818;stroke-width:1;stroke-linejoin:miter;stroke-miterlimit:10;"/><line style="stroke:#181818;stroke-width:1;" x1="617" x2="617" y1="620.1035" y2="627.6445"/><line style="stroke:#181818;stroke-width:1;" x1="617" x2="143" y1="627.6445" y2="627.6445"/><line style="stroke:#181818;stroke-width:1;" x1="143" x2="143" y1="627.6445" y2="640.1035"/><polygon fill="#181818" points="139,630.1035,143,640.1035,147,630.1035,143,634.1035" style="stroke:#181818;stroke-width:1;stroke-linejoin:miter;stroke-miterlimit:10;"/><line style="stroke:#181818;stroke-width:1;" x1="654.0588" x2="677.2942" y1="608.1035" y2="608.1035"/><polygon fill="#181818" points="667.2942,604.1035,677.2942,608.1035,667.2942,612.1035,671.2942,608.1035" style="stroke:#181818;stroke-width:1;stroke-linejoin:miter;stroke-miterlimit:10;"/><line style="stroke:#181818;stroke-width:1;" x1="617" x2="617" y1="576.1035" y2="596.1035"/><polygon fill="#181818" points="613,586.1035,617,596.1035,621,586.1035,617,590.1035" style="stroke:#181818;stroke-width:1;stroke-linejoin:miter;stroke-miterlimit:10;"/><line style="stroke:#181818;stroke-width:1;" x1="143" x2="143" y1="158.7988" y2="163.7988"/><line style="stroke:#181818;stroke-width:1;" x1="143" x2="389" y1="163.7988" y2="163.7988"/><line style="stroke:#181818;stroke-width:1;" x1="389" x2="389" y1="163.7988" y2="178.7988"/><polygon fill="#181818" points="385,168.7988,389,178.7988,393,168.7988,389,172.7988" style="stroke:#181818;stroke-width:1;stroke-linejoin:miter;stroke-miterlimit:10;"/><line style="stroke:#181818;stroke-width:1;" x1="389" x2="389" y1="416.998" y2="421.998"/><line style="stroke:#181818;stroke-width:1;" x1="389" x2="617" y1="421.998" y2="421.998"/><line style="stroke:#181818;stroke-width:1;" x1="617" x2="617" y1="421.998" y2="436.998"/><polygon fill="#181818" points="613,426.998,617,436.998,621,426.998,617,430.998" style="stroke:#181818;stroke-width:1;stroke-linejoin:miter;stroke-miterlimit:10;"/><line style="stroke:#181818;stroke-width:1;" x1="143" x2="143" y1="516.0918" y2="528.5508"/><line style="stroke:#181818;stroke-width:1;" x1="143" x2="617" y1="528.5508" y2="528.5508"/><line style="stroke:#181818;stroke-width:1;" x1="617" x2="617" y1="528.5508" y2="541.0098"/><polygon fill="#181818" points="613,531.0098,617,541.0098,621,531.0098,617,535.0098" style="stroke:#181818;stroke-width:1;stroke-linejoin:miter;stroke-miterlimit:10;"/><line style="stroke:#181818;stroke-width:1;" x1="617" x2="617" y1="472.0918" y2="477.0918"/><line style="stroke:#181818;stroke-width:1;" x1="617" x2="143" y1="477.0918" y2="477.0918"/><line style="stroke:#181818;stroke-width:1;" x1="143" x2="143" y1="477.0918" y2="492.0918"/><polygon fill="#181818" points="139,482.0918,143,492.0918,147,482.0918,143,486.0918" style="stroke:#181818;stroke-width:1;stroke-linejoin:miter;stroke-miterlimit:10;"/><line style="stroke:#181818;stroke-width:1;" x1="143" x2="143" y1="719.1973" y2="724.1973"/><line style="stroke:#181818;stroke-width:1;" x1="143" x2="389" y1="724.1973" y2="724.1973"/><line style="stroke:#181818;stroke-width:1;" x1="389" x2="389" y1="724.1973" y2="739.1973"/><polygon fill="#181818" points="385,729.1973,389,739.1973,393,729.1973,389,733.1973" style="stroke:#181818;stroke-width:1;stroke-linejoin:miter;stroke-miterlimit:10;"/><text fill="#000000" font-family="sans-serif" font-size="18" lengthAdjust="spacing" textLength="54" x="112.5" y="74.75">&#21033;&#29992;&#32773;</text><text fill="#000000" font-family="sans-serif" font-size="18" lengthAdjust="spacing" textLength="72" x="352" y="74.75">&#12471;&#12473;&#12486;&#12512;</text><text fill="#000000" font-family="sans-serif" font-size="18" lengthAdjust="spacing" textLength="90" x="571" y="74.75">&#12501;&#12525;&#12531;&#12488;&#20418;</text><?plantuml-src RLAzJi907D_x53V2uEHM1mUVmGSmiKGI0qQwc7ImTr1hWG0AA64GGGKr5B7u0T7qOVxqMjx2kvP24RPBxlTz9oVbOma1RWCU0D40Tu1S1mUdQQ4j14G5t0L2E833de3ee3O0vsFxUzjnGL0S_Tcjzhppd29av8DJMH21r83qWLW-jhjP0r-vLSkf687OZg00_W8yvkQafGYYOzhKCcYzCRkeCB3Nqrtp9WGd4oZcsR-EqGBy0UI7fsPSrGp2ECD7sX-1MW0LC_nk7Cb7KWh5pgHCN4183AWBxHKhzPLTHQoar64oiHOdMd5gOyQYfRBxC5csMGNmGk5E71pgq7lTqN8BLcHBNZ6CPDBgW5xMGCtoUEK2pPO2og9PAisBhRkoiX7VNY3871rpp8jhHRSzyLwAOG24_6Mx7JfaLTW6T_yS4Ch8wHDs26PXbf78ywcMvUQfjVNNNHRYJtixAxo74SJfH7T7MTVufBcyl_I6tqE_sSUo-P3D4Qs_XLm_sny0?></g></svg>