<svg xmlns="http://www.w3.org/2000/svg" xmlns:xlink="http://www.w3.org/1999/xlink" contentStyleType="text/css" data-diagram-type="ACTIVITY" height="908px" preserveAspectRatio="none" style="width:834px;height:908px;background:#FFFFFF;" version="1.1" viewBox="0 0 834 908" width="834px" zoomAndPan="magnify"><?plantuml 1.2026.6?><defs/><g><g class="title" data-source-line="1"><text fill="#000000" font-family="sans-serif" font-size="14" font-weight="700" lengthAdjust="spacing" textLength="280.7725" x="276.0699" y="34.5332">&#12450;&#12463;&#12486;&#12451;&#12499;&#12486;&#12451;&#22259; - &#12481;&#12455;&#12483;&#12463;&#12452;&#12531;&#12377;&#12427;(UC2)</text></g><rect fill="none" height="22.6406" style="stroke:none;stroke-width:1;" width="787.9124" x="20" y="56.0645"/><ellipse cx="170.0588" cy="93.7051" fill="#222222" rx="10" ry="10" style="stroke:#222222;stroke-width:1;"/><polygon fill="#F1F1F1" points="112,123.7051,228.1177,123.7051,240.1177,135.7051,228.1177,147.7051,112,147.7051,100,135.7051,112,123.7051" style="stroke:#181818;stroke-width:0.5;stroke-linejoin:miter;stroke-miterlimit:10;"/><text fill="#000000" font-family="sans-serif" font-size="11" lengthAdjust="spacing" textLength="116.1177" x="112" y="140.2061">&#20104;&#32004;&#30058;&#21495;&#12434;&#25552;&#31034;&#12391;&#12365;&#12427;?</text><text fill="#000000" font-family="sans-serif" font-size="11" lengthAdjust="spacing" textLength="17.1177" x="82.8823" y="133.2881">yes</text><text fill="#000000" font-family="sans-serif" font-size="11" lengthAdjust="spacing" textLength="12.2354" x="240.1177" y="133.2881">no</text><rect fill="#F1F1F1" height="35.0938" rx="12.5" ry="12.5" style="stroke:#181818;stroke-width:0.5;" width="128" x="26" y="167.7051"/><text fill="#000000" font-family="sans-serif" font-size="12" lengthAdjust="spacing" textLength="108" x="36" y="190.1621">&#20104;&#32004;&#30058;&#21495;&#12434;&#25552;&#31034;&#12377;&#12427;</text><polygon fill="#F1F1F1" points="170.0588,212.7988,182.0588,224.7988,170.0588,236.7988,158.0588,224.7988,170.0588,212.7988" style="stroke:#181818;stroke-width:0.5;stroke-linejoin:miter;stroke-miterlimit:10;"/><rect fill="#F1F1F1" height="35.0938" rx="12.5" ry="12.5" style="stroke:#181818;stroke-width:0.5;" width="128" x="106.0588" y="810.4668"/><text fill="#000000" font-family="sans-serif" font-size="12" lengthAdjust="spacing" textLength="108" x="116.0588" y="832.9238">&#37096;&#23627;&#30058;&#21495;&#12434;&#21463;&#12369;&#21462;&#12427;</text><ellipse cx="170.0588" cy="876.5605" fill="none" rx="11" ry="11" style="stroke:#222222;stroke-width:1;"/><ellipse cx="170.0588" cy="876.5605" fill="#222222" rx="6" ry="6" style="stroke:#222222;stroke-width:1;"/><line style="stroke:#000000;stroke-width:1.5;" x1="20" x2="20" y1="56.0645" y2="887.5605"/><rect fill="#F1F1F1" height="35.0938" rx="12.5" ry="12.5" style="stroke:#181818;stroke-width:0.5;" width="152" x="385.4119" y="167.7051"/><text fill="#000000" font-family="sans-serif" font-size="12" lengthAdjust="spacing" textLength="132" x="395.4119" y="190.1621">&#27663;&#21517;&#12539;&#23487;&#27850;&#26085;&#12434;&#32862;&#12365;&#21462;&#12427;</text><rect fill="#F1F1F1" height="35.0938" rx="12.5" ry="12.5" style="stroke:#181818;stroke-width:0.5;" width="201.3594" x="280.6733" y="256.7988"/><text fill="#000000" font-family="sans-serif" font-size="12" lengthAdjust="spacing" textLength="181.3594" x="290.6733" y="279.2559">&#20104;&#32004;&#20869;&#23481;&#12434;&#30906;&#35469;&#12377;&#12427;(include UC4)</text><rect fill="#F1F1F1" height="35.0938" rx="12.5" ry="12.5" style="stroke:#181818;stroke-width:0.5;" width="164" x="299.353" y="415.9043"/><text fill="#000000" font-family="sans-serif" font-size="12" lengthAdjust="spacing" textLength="144" x="309.353" y="438.3613">&#21033;&#29992;&#32773;&#12395;&#20877;&#30906;&#35469;&#12434;&#20381;&#38972;&#12377;&#12427;</text><ellipse cx="381.353" cy="481.998" fill="none" rx="11" ry="11" style="stroke:#222222;stroke-width:1;"/><ellipse cx="381.353" cy="481.998" fill="#222222" rx="6" ry="6" style="stroke:#222222;stroke-width:1;"/><rect fill="#F1F1F1" height="35.0938" rx="12.5" ry="12.5" style="stroke:#181818;stroke-width:0.5;" width="236" x="263.353" y="534.998"/><text fill="#000000" font-family="sans-serif" font-size="12" lengthAdjust="spacing" textLength="216" x="273.353" y="557.4551">&#35442;&#24403;&#20104;&#32004;&#12398;&#20869;&#23481;&#12434;&#12501;&#12525;&#12531;&#12488;&#20418;&#12395;&#25552;&#31034;&#12377;&#12427;</text><rect fill="#F1F1F1" height="35.0938" rx="12.5" ry="12.5" style="stroke:#181818;stroke-width:0.5;" width="176" x="293.353" y="590.0918"/><text fill="#000000" font-family="sans-serif" font-size="12" lengthAdjust="spacing" textLength="156" x="303.353" y="612.5488">&#12481;&#12455;&#12483;&#12463;&#12452;&#12531;&#20966;&#29702;&#12434;&#23455;&#34892;&#12377;&#12427;</text><rect fill="#F1F1F1" height="35.0938" rx="12.5" ry="12.5" style="stroke:#181818;stroke-width:0.5;" width="176" x="293.353" y="755.373"/><text fill="#000000" font-family="sans-serif" font-size="12" lengthAdjust="spacing" textLength="156" x="303.353" y="777.8301">&#37096;&#23627;&#30058;&#21495;&#12434;&#21033;&#29992;&#32773;&#12395;&#36890;&#30693;&#12377;&#12427;</text><line style="stroke:#000000;stroke-width:1.5;" x1="257.353" x2="257.353" y1="56.0645" y2="887.5605"/><rect fill="#F1F1F1" height="35.0938" rx="12.5" ry="12.5" style="stroke:#181818;stroke-width:0.5;" width="224" x="553.4119" y="360.8105"/><text fill="#000000" font-family="sans-serif" font-size="12" lengthAdjust="spacing" textLength="204" x="563.4119" y="383.2676">&#12300;&#20104;&#32004;&#12394;&#12375;&#12301;&#12434;&#12501;&#12525;&#12531;&#12488;&#20418;&#12395;&#36890;&#30693;&#12377;&#12427;</text><polygon fill="#F1F1F1" points="612.853,311.8926,717.9707,311.8926,729.9707,323.8926,717.9707,335.8926,612.853,335.8926,600.853,323.8926,612.853,311.8926" style="stroke:#181818;stroke-width:0.5;stroke-linejoin:miter;stroke-miterlimit:10;"/><text fill="#000000" font-family="sans-serif" font-size="11" lengthAdjust="spacing" textLength="12.2354" x="669.4119" y="347.3115">no</text><text fill="#000000" font-family="sans-serif" font-size="11" lengthAdjust="spacing" textLength="105.1177" x="612.853" y="328.3936">&#35442;&#24403;&#12377;&#12427;&#20104;&#32004;&#12364;&#12354;&#12427;?</text><rect fill="#F1F1F1" height="35.0938" rx="12.5" ry="12.5" style="stroke:#181818;stroke-width:0.5;" width="236" x="547.4119" y="645.1855"/><text fill="#000000" font-family="sans-serif" font-size="12" lengthAdjust="spacing" textLength="216" x="557.4119" y="667.6426">&#20104;&#32004;&#29366;&#24907;&#12434;&#12481;&#12455;&#12483;&#12463;&#12452;&#12531;&#28168;&#12415;&#12395;&#26356;&#26032;&#12377;&#12427;</text><rect fill="#F1F1F1" height="35.0938" rx="12.5" ry="12.5" style="stroke:#181818;stroke-width:0.5;" width="200" x="565.4119" y="700.2793"/><text fill="#000000" font-family="sans-serif" font-size="12" lengthAdjust="spacing" textLength="180" x="575.4119" y="722.7363">&#37096;&#23627;&#30058;&#21495;&#12434;&#12501;&#12525;&#12531;&#12488;&#20418;&#12395;&#25552;&#31034;&#12377;&#12427;</text><line style="stroke:#000000;stroke-width:1.5;" x1="541.4119" x2="541.4119" y1="56.0645" y2="887.5605"/><line style="stroke:#000000;stroke-width:1.5;" x1="806.4119" x2="806.4119" y1="56.0645" y2="887.5605"/><line style="stroke:#181818;stroke-width:1;" x1="100" x2="90" y1="135.7051" y2="135.7051"/><line style="stroke:#181818;stroke-width:1;" x1="90" x2="90" y1="135.7051" y2="167.7051"/><polygon fill="#181818" points="86,157.7051,90,167.7051,94,157.7051,90,161.7051" style="stroke:#181818;stroke-width:1;stroke-linejoin:miter;stroke-miterlimit:10;"/><line style="stroke:#181818;stroke-width:1;" x1="90" x2="90" y1="202.7988" y2="224.7988"/><line style="stroke:#181818;stroke-width:1;" x1="90" x2="158.0588" y1="224.7988" y2="224.7988"/><polygon fill="#181818" points="148.0588,220.7988,158.0588,224.7988,148.0588,228.7988,152.0588,224.7988" style="stroke:#181818;stroke-width:1;stroke-linejoin:miter;stroke-miterlimit:10;"/><line style="stroke:#181818;stroke-width:1;" x1="170.0588" x2="170.0588" y1="103.7051" y2="123.7051"/><polygon fill="#181818" points="166.0588,113.7051,170.0588,123.7051,174.0588,113.7051,170.0588,117.7051" style="stroke:#181818;stroke-width:1;stroke-linejoin:miter;stroke-miterlimit:10;"/><line style="stroke:#181818;stroke-width:1;" x1="170.0588" x2="170.0588" y1="845.5605" y2="865.5605"/><polygon fill="#181818" points="166.0588,855.5605,170.0588,865.5605,174.0588,855.5605,170.0588,859.5605" style="stroke:#181818;stroke-width:1;stroke-linejoin:miter;stroke-miterlimit:10;"/><line style="stroke:#181818;stroke-width:1;" x1="381.353" x2="381.353" y1="450.998" y2="470.998"/><polygon fill="#181818" points="377.353,460.998,381.353,470.998,385.353,460.998,381.353,464.998" style="stroke:#181818;stroke-width:1;stroke-linejoin:miter;stroke-miterlimit:10;"/><line style="stroke:#181818;stroke-width:1;" x1="381.353" x2="381.353" y1="570.0918" y2="590.0918"/><polygon fill="#181818" points="377.353,580.0918,381.353,590.0918,385.353,580.0918,381.353,584.0918" style="stroke:#181818;stroke-width:1;stroke-linejoin:miter;stroke-miterlimit:10;"/><line style="stroke:#181818;stroke-width:1;" x1="665.4119" x2="665.4119" y1="335.8926" y2="360.8105"/><polygon fill="#181818" points="661.4119,350.8105,665.4119,360.8105,669.4119,350.8105,665.4119,354.8105" style="stroke:#181818;stroke-width:1;stroke-linejoin:miter;stroke-miterlimit:10;"/><line style="stroke:#181818;stroke-width:1;" x1="729.9707" x2="787.4119" y1="323.8926" y2="323.8926"/><polygon fill="#181818" points="783.4119,422.6543,787.4119,432.6543,791.4119,422.6543,787.4119,426.6543" style="stroke:#181818;stroke-width:1;stroke-linejoin:miter;stroke-miterlimit:10;"/><line style="stroke:#181818;stroke-width:1;" x1="787.4119" x2="787.4119" y1="323.8926" y2="519.998"/><line style="stroke:#181818;stroke-width:1;" x1="787.4119" x2="381.353" y1="519.998" y2="519.998"/><line style="stroke:#181818;stroke-width:1;" x1="381.353" x2="381.353" y1="519.998" y2="534.998"/><polygon fill="#181818" points="377.353,524.998,381.353,534.998,385.353,524.998,381.353,528.998" style="stroke:#181818;stroke-width:1;stroke-linejoin:miter;stroke-miterlimit:10;"/><line style="stroke:#181818;stroke-width:1;" x1="665.4119" x2="665.4119" y1="680.2793" y2="700.2793"/><polygon fill="#181818" points="661.4119,690.2793,665.4119,700.2793,669.4119,690.2793,665.4119,694.2793" style="stroke:#181818;stroke-width:1;stroke-linejoin:miter;stroke-miterlimit:10;"/><line style="stroke:#181818;stroke-width:1;" x1="240.1177" x2="461.4119" y1="135.7051" y2="135.7051"/><line style="stroke:#181818;stroke-width:1;" x1="461.4119" x2="461.4119" y1="135.7051" y2="167.7051"/><polygon fill="#181818" points="457.4119,157.7051,461.4119,167.7051,465.4119,157.7051,461.4119,161.7051" style="stroke:#181818;stroke-width:1;stroke-linejoin:miter;stroke-miterlimit:10;"/><line style="stroke:#181818;stroke-width:1;" x1="461.4119" x2="461.4119" y1="202.7988" y2="224.7988"/><line style="stroke:#181818;stroke-width:1;" x1="461.4119" x2="182.0588" y1="224.7988" y2="224.7988"/><polygon fill="#181818" points="192.0588,220.7988,182.0588,224.7988,192.0588,228.7988,188.0588,224.7988" style="stroke:#181818;stroke-width:1;stroke-linejoin:miter;stroke-miterlimit:10;"/><line style="stroke:#181818;stroke-width:1;" x1="170.0588" x2="170.0588" y1="236.7988" y2="241.7988"/><line style="stroke:#181818;stroke-width:1;" x1="170.0588" x2="381.353" y1="241.7988" y2="241.7988"/><line style="stroke:#181818;stroke-width:1;" x1="381.353" x2="381.353" y1="241.7988" y2="256.7988"/><polygon fill="#181818" points="377.353,246.7988,381.353,256.7988,385.353,246.7988,381.353,250.7988" style="stroke:#181818;stroke-width:1;stroke-linejoin:miter;stroke-miterlimit:10;"/><line style="stroke:#181818;stroke-width:1;" x1="665.4119" x2="665.4119" y1="395.9043" y2="400.9043"/><line style="stroke:#181818;stroke-width:1;" x1="665.4119" x2="381.353" y1="400.9043" y2="400.9043"/><line style="stroke:#181818;stroke-width:1;" x1="381.353" x2="381.353" y1="400.9043" y2="415.9043"/><polygon fill="#181818" points="377.353,405.9043,381.353,415.9043,385.353,405.9043,381.353,409.9043" style="stroke:#181818;stroke-width:1;stroke-linejoin:miter;stroke-miterlimit:10;"/><line style="stroke:#181818;stroke-width:1;" x1="381.353" x2="381.353" y1="291.8926" y2="296.8926"/><line style="stroke:#181818;stroke-width:1;" x1="381.353" x2="665.4119" y1="296.8926" y2="296.8926"/><line style="stroke:#181818;stroke-width:1;" x1="665.4119" x2="665.4119" y1="296.8926" y2="311.8926"/><polygon fill="#181818" points="661.4119,301.8926,665.4119,311.8926,669.4119,301.8926,665.4119,305.8926" style="stroke:#181818;stroke-width:1;stroke-linejoin:miter;stroke-miterlimit:10;"/><line style="stroke:#181818;stroke-width:1;" x1="381.353" x2="381.353" y1="625.1855" y2="630.1855"/><line style="stroke:#181818;stroke-width:1;" x1="381.353" x2="665.4119" y1="630.1855" y2="630.1855"/><line style="stroke:#181818;stroke-width:1;" x1="665.4119" x2="665.4119" y1="630.1855" y2="645.1855"/><polygon fill="#181818" points="661.4119,635.1855,665.4119,645.1855,669.4119,635.1855,665.4119,639.1855" style="stroke:#181818;stroke-width:1;stroke-linejoin:miter;stroke-miterlimit:10;"/><line style="stroke:#181818;stroke-width:1;" x1="665.4119" x2="665.4119" y1="735.373" y2="740.373"/><line style="stroke:#181818;stroke-width:1;" x1="665.4119" x2="381.353" y1="740.373" y2="740.373"/><line style="stroke:#181818;stroke-width:1;" x1="381.353" x2="381.353" y1="740.373" y2="755.373"/><polygon fill="#181818" points="377.353,745.373,381.353,755.373,385.353,745.373,381.353,749.373" style="stroke:#181818;stroke-width:1;stroke-linejoin:miter;stroke-miterlimit:10;"/><line style="stroke:#181818;stroke-width:1;" x1="381.353" x2="381.353" y1="790.4668" y2="795.4668"/><line style="stroke:#181818;stroke-width:1;" x1="381.353" x2="170.0588" y1="795.4668" y2="795.4668"/><line style="stroke:#181818;stroke-width:1;" x1="170.0588" x2="170.0588" y1="795.4668" y2="810.4668"/><polygon fill="#181818" points="166.0588,800.4668,170.0588,810.4668,174.0588,800.4668,170.0588,804.4668" style="stroke:#181818;stroke-width:1;stroke-linejoin:miter;stroke-miterlimit:10;"/><text fill="#000000" font-family="sans-serif" font-size="18" lengthAdjust="spacing" textLength="54" x="111.6765" y="74.75">&#21033;&#29992;&#32773;</text><text fill="#000000" font-family="sans-serif" font-size="18" lengthAdjust="spacing" textLength="90" x="354.3824" y="74.75">&#12501;&#12525;&#12531;&#12488;&#20418;</text><text fill="#000000" font-family="sans-serif" font-size="18" lengthAdjust="spacing" textLength="72" x="637.9119" y="74.75">&#12471;&#12473;&#12486;&#12512;</text><?plantuml-src dLAzJW916EplARQ4miPO7OK5py0363aY2G4ZPs5o1RihIFZ98GX4ZO88ycD45AA2FppCnzuTR-4Un_4hZTqMC_FDp8xibmCI0b81yWmq1kGUQCvwiEiksa90CP0wK6e2I1Le5_0baAJ3uzvs2eB2uatzec54eeeGblUEPC7lGuxH8AxtJlLyYwdlGBAQcj6h0y1rm6bEtNKY-K0A8iU957OA28aRuEOPbo05mX9o14CcKW6Q1_facg3nqP0e9blhg2oJ1lh9saEjcz2ADQvXu5j-ZAa5IoFezVk4TVRqCej5MRlFMNfbOBJIqu3-u7xWs2iXZtl7wU9amhtrpMfeMPcaD9glx3jdeIqXm2d0P36YvLk4ICf6j00N8S9xoAxO0VmuZbpffPgTV4FUMUESm6BfgMUI7VtSZCjVSt9O3XrEaukMLTj2UnPutS9o-NzKjZu8TlQWP_XYignTCkvIS-vIO_Ol9zwqQ79oUbL7-uW37feUhdjQeMFhY6FQO2_9sJp-uNb5OR71vSeNvxp6Kek0p-r9JThz1G00?></g></svg>