<svg xmlns="http://www.w3.org/2000/svg" xmlns:xlink="http://www.w3.org/1999/xlink" contentStyleType="text/css" data-diagram-type="CLASS" height="445px" preserveAspectRatio="none" style="width:458px;height:445px;background:#FFFFFF;" version="1.1" viewBox="0 0 458 445" width="458px" zoomAndPan="magnify"><?plantuml 1.2026.6?><defs/><g><g class="title" data-source-line="1"><text fill="#000000" font-family="sans-serif" font-size="14" font-weight="700" lengthAdjust="spacing" textLength="390.3867" x="30.5334" y="24.5332">&#12471;&#12473;&#12486;&#12512;&#20998;&#26512; - &#12467;&#12521;&#12508;&#12524;&#12540;&#12471;&#12519;&#12531;&#22259;(&#12481;&#12455;&#12483;&#12463;&#12452;&#12531;&#20966;&#29702;: UC2)</text></g><g class="entity" data-qualified-name="Staff" data-source-line="3" id="ent0001"><rect fill="#F1F1F1" height="37.6094" rx="2.5" ry="2.5" style="stroke:#181818;stroke-width:0.5;" width="84" x="148" y="45.6094"/><text fill="#000000" font-family="sans-serif" font-size="14" lengthAdjust="spacing" textLength="70" x="155" y="62.1426">&#12501;&#12525;&#12531;&#12488;&#20418;</text><line style="stroke:#181818;stroke-width:0.5;" x1="149" x2="231" y1="67.2188" y2="67.2188"/></g><g class="entity" data-qualified-name="UI" data-source-line="4" id="ent0002"><rect fill="#F1F1F1" height="37.6094" rx="2.5" ry="2.5" style="stroke:#181818;stroke-width:0.5;" width="188.2412" x="96" y="161.6094"/><text fill="#000000" font-family="sans-serif" font-size="14" lengthAdjust="spacing" textLength="174.2412" x="103" y="178.1426">&#12501;&#12525;&#12531;&#12488;&#30011;&#38754; : FrontDeskUI</text><line style="stroke:#181818;stroke-width:0.5;" x1="97" x2="283.2412" y1="183.2188" y2="183.2188"/></g><g class="entity" data-qualified-name="Manager" data-source-line="5" id="ent0003"><rect fill="#F1F1F1" height="37.6094" rx="2.5" ry="2.5" style="stroke:#181818;stroke-width:0.5;" width="211.627" x="84" y="277.6094"/><text fill="#000000" font-family="sans-serif" font-size="14" lengthAdjust="spacing" textLength="197.627" x="91" y="294.1426">&#20104;&#32004;&#31649;&#29702; : ReservationManager</text><line style="stroke:#181818;stroke-width:0.5;" x1="85" x2="294.627" y1="299.2188" y2="299.2188"/></g><g class="entity" data-qualified-name="Reservation" data-source-line="6" id="ent0004"><rect fill="#F1F1F1" height="37.6094" rx="2.5" ry="2.5" style="stroke:#181818;stroke-width:0.5;" width="156.3721" x="7" y="393.6094"/><text fill="#000000" font-family="sans-serif" font-size="14" lengthAdjust="spacing" textLength="142.3721" x="14" y="410.1426">&#23550;&#35937;&#20104;&#32004; : Reservation</text><line style="stroke:#181818;stroke-width:0.5;" x1="8" x2="162.3721" y1="415.2188" y2="415.2188"/></g><g class="entity" data-qualified-name="Room" data-source-line="7" id="ent0005"><rect fill="#F1F1F1" height="37.6094" rx="2.5" ry="2.5" style="stroke:#181818;stroke-width:0.5;" width="119.0137" x="239.5" y="393.6094"/><text fill="#000000" font-family="sans-serif" font-size="14" lengthAdjust="spacing" textLength="105.0137" x="246.5" y="410.1426">&#23550;&#35937;&#23458;&#23460; : Room</text><line style="stroke:#181818;stroke-width:0.5;" x1="240.5" x2="357.5137" y1="415.2188" y2="415.2188"/></g><!--link Staff to UI--><g class="link" data-entity-1="ent0001" data-entity-2="ent0002" data-link-type="dependency" data-source-line="9" id="lnk6"><path codeLine="9" d="M147.75,77.9994 C118.22,89.0494 86.46,107.2494 101,131.6094 C108.74,144.5694 116.9133,151.877 130.2133,159.007" fill="none" id="Staff-to-UI" style="stroke:#181818;stroke-width:1;"/><polygon fill="#181818" points="134.62,161.3694,128.5778,153.5917,130.2133,159.007,124.798,160.6424,134.62,161.3694" style="stroke:#181818;stroke-width:1;stroke-linejoin:miter;stroke-miterlimit:10;"/><text fill="#000000" font-family="sans-serif" font-size="13" lengthAdjust="spacing" textLength="131.4536" x="102" y="128.1045">1: &#20104;&#32004;&#30058;&#21495;&#12434;&#20837;&#21147;&#12377;&#12427;</text></g><!--link UI to Staff--><g class="link" data-entity-1="ent0002" data-entity-2="ent0001" data-link-type="dependency" data-source-line="15" id="lnk12"><path codeLine="15" d="M214.95,161.5994 C224,153.5594 233.17,143.2594 238,131.6094 C245.37,113.8094 235.1856,99.5207 220.4256,87.0207" fill="none" id="UI-to-Staff" style="stroke:#181818;stroke-width:1;"/><polygon fill="#181818" points="216.61,83.7894,220.8929,92.6582,220.4256,87.0207,226.0631,86.5533,216.61,83.7894" style="stroke:#181818;stroke-width:1;stroke-linejoin:miter;stroke-miterlimit:10;"/><text fill="#000000" font-family="sans-serif" font-size="13" lengthAdjust="spacing" textLength="131.4536" x="242" y="128.1045">7: &#37096;&#23627;&#30058;&#21495;&#12434;&#34920;&#31034;&#12377;&#12427;</text></g><!--link UI to Manager--><g class="link" data-entity-1="ent0002" data-entity-2="ent0003" data-link-type="dependency" data-source-line="10" id="lnk7"><path codeLine="10" d="M120.18,199.6194 C105.89,206.6194 92.59,216.2794 84,229.6094 C70.14,251.1094 86.9171,264.979 114.0671,275.659" fill="none" id="UI-to-Manager" style="stroke:#181818;stroke-width:1;"/><polygon fill="#181818" points="118.72,277.4894,111.809,270.4724,114.0671,275.659,108.8804,277.9171,118.72,277.4894" style="stroke:#181818;stroke-width:1;stroke-linejoin:miter;stroke-miterlimit:10;"/><text fill="#000000" font-family="sans-serif" font-size="13" lengthAdjust="spacing" textLength="165.439" x="85" y="244.1045">2: findReservation(&#20104;&#32004;&#30058;&#21495;)</text></g><!--link Manager to UI--><g class="link" data-entity-1="ent0003" data-entity-2="ent0002" data-link-type="dependency" data-source-line="14" id="lnk11"><path codeLine="14" d="M226.3,277.5794 C237.6,269.9994 248.74,260.0094 255,247.6094 C264.56,228.6594 251.2263,214.3393 231.9563,202.3593" fill="none" id="Manager-to-UI" style="stroke:#181818;stroke-width:1;"/><polygon fill="#181818" points="227.71,199.7194,233.2414,207.8682,231.9563,202.3593,237.4652,201.0741,227.71,199.7194" style="stroke:#181818;stroke-width:1;stroke-linejoin:miter;stroke-miterlimit:10;"/><text fill="#000000" font-family="sans-serif" font-size="13" lengthAdjust="spacing" textLength="105.4536" x="259" y="244.1045">6: &#37096;&#23627;&#30058;&#21495;&#12434;&#36820;&#12377;</text></g><!--link Manager to Reservation--><g class="link" data-entity-1="ent0003" data-entity-2="ent0004" data-link-type="dependency" data-source-line="11" id="lnk8"><path codeLine="11" d="M83.86,312.9494 C66.68,320.1694 50.96,330.5894 40,345.6094 C28.39,361.5194 39.6886,376.8432 55.4586,390.2332" fill="none" id="Manager-to-Reservation" style="stroke:#181818;stroke-width:1;"/><polygon fill="#181818" points="59.27,393.4694,54.9984,384.5951,55.4586,390.2332,49.8205,390.6933,59.27,393.4694" style="stroke:#181818;stroke-width:1;stroke-linejoin:miter;stroke-miterlimit:10;"/><text fill="#000000" font-family="sans-serif" font-size="13" lengthAdjust="spacing" textLength="105.4536" x="41" y="360.1045">3: &#20104;&#32004;&#12434;&#21462;&#24471;&#12377;&#12427;</text></g><!--link Manager to Reservation--><g class="link" data-entity-1="ent0003" data-entity-2="ent0004" data-link-type="dependency" data-source-line="12" id="lnk9"><path codeLine="12" d="M181.83,315.7294 C174.92,329.7894 164.07,349.2294 151,363.6094 C140.61,375.0394 131.2401,382.6259 119.1601,390.8059" fill="none" id="Manager-to-Reservation-1" style="stroke:#181818;stroke-width:1;"/><polygon fill="#181818" points="115.02,393.6094,124.715,391.8752,119.1601,390.8059,120.2294,385.251,115.02,393.6094" style="stroke:#181818;stroke-width:1;stroke-linejoin:miter;stroke-miterlimit:10;"/><text fill="#000000" font-family="sans-serif" font-size="13" lengthAdjust="spacing" textLength="67.9136" x="165" y="360.1045">4: checkIn()</text></g><!--link Manager to Room--><g class="link" data-entity-1="ent0003" data-entity-2="ent0005" data-link-type="dependency" data-source-line="13" id="lnk10"><path codeLine="13" d="M210.28,315.8794 C219.81,324.6594 231.2,335.4694 241,345.6094 C256.16,361.2994 269.2459,376.2362 280.6959,389.7362" fill="none" id="Manager-to-Room" style="stroke:#181818;stroke-width:1;"/><polygon fill="#181818" points="283.93,393.5494,281.1591,384.0983,280.6959,389.7362,275.058,389.273,283.93,393.5494" style="stroke:#181818;stroke-width:1;stroke-linejoin:miter;stroke-miterlimit:10;"/><text fill="#000000" font-family="sans-serif" font-size="13" lengthAdjust="spacing" textLength="183.4536" x="259" y="360.1045">5: &#29366;&#24907;&#12434;&#12300;&#20351;&#29992;&#20013;&#12301;&#12395;&#26356;&#26032;&#12377;&#12427;</text></g><?plantuml-src TP3BJi9058RtVOg9ArYm46z95suq9YpSQ7Y0YaKHRHDeN4D7a806OW1ZK2C45I-01E855HxcT5fu2qzB8OYucvdpVUS_PvI0iYyIKDz0_G0Q1th34d7zEaDS-DW4-W3q4kWpq2-JeVT0cwpGT02DWeeN2ceTrBBvUdndPE8yyQwudHmdR-s9FeNC0Cq1hM8PQ4BhgZD429DDHV3xfn96zhD_LI8yMGl9ah8gXeDUZwLuFIDUQoUCrf5HAs8QaXjYM0mT2af0bjO5ITWHGvPWdqSMgtTwZUB0_MrP-DXzGc6r4gkLJKMM3mOi7ZZEMeAuNCiu6rPdUM8FbdjaQVpCCnQxPSa2H2z0JN78cAWz5V9kdlW3qlPOhcFSTt93rDJ6A5JdXb5cI3hFEkTsoF_AF4zykw8lw94S4vrn5wmlyCH8lkgn5BQ4o8dstJMo5Usz2f5JY3xfXPQUVvaIOcs-o9C-hR16QhHvhvj5UBZpuADuilINArQCSjlk-mC0?></g></svg>