<svg xmlns="http://www.w3.org/2000/svg" xmlns:xlink="http://www.w3.org/1999/xlink" contentStyleType="text/css" data-diagram-type="DESCRIPTION" height="385px" preserveAspectRatio="none" style="width:1566px;height:385px;background:#FFFFFF;" version="1.1" viewBox="0 0 1566 385" width="1566px" zoomAndPan="magnify"><?plantuml 1.2026.6?><defs/><g><g class="title" data-source-line="1"><text fill="#000000" font-family="sans-serif" font-size="14" font-weight="700" lengthAdjust="spacing" textLength="404.8242" x="577.3147" y="24.5332">&#12471;&#12473;&#12486;&#12512;&#20998;&#26512; - &#12467;&#12521;&#12508;&#12524;&#12540;&#12471;&#12519;&#12531;&#22259;(UC3: &#12481;&#12455;&#12483;&#12463;&#12450;&#12454;&#12488;&#12377;&#12427;)</text></g><!--entity Staff--><g class="entity" data-qualified-name="Staff" data-source-line="3" id="ent0001"><ellipse cx="213.4448" cy="52.6094" fill="#F1F1F1" rx="8" ry="8" style="stroke:#181818;stroke-width:0.5;"/><path d="M213.4448,60.6094 L213.4448,87.6094 M200.4448,68.6094 L226.4448,68.6094 M213.4448,87.6094 L200.4448,102.6094 M213.4448,87.6094 L226.4448,102.6094" fill="none" style="stroke:#181818;stroke-width:0.5;"/><text fill="#000000" font-family="sans-serif" font-size="14" lengthAdjust="spacing" textLength="73.8896" x="176.5" y="118.6426">:&#12501;&#12525;&#12531;&#12488;&#20418;</text></g><!--entity UI--><g class="entity" data-qualified-name="UI" data-source-line="4" id="ent0002"><path d="M572.9448,53.6094 L572.9448,77.6094 M572.9448,65.6094 L589.9448,65.6094" fill="none" style="stroke:#181818;stroke-width:0.5;"/><ellipse cx="601.9448" cy="65.6094" fill="#F1F1F1" rx="12" ry="12" style="stroke:#181818;stroke-width:0.5;"/><text fill="#000000" font-family="sans-serif" font-size="14" lengthAdjust="spacing" textLength="129.8896" x="528.5" y="96.1426">:&#12481;&#12455;&#12483;&#12463;&#12450;&#12454;&#12488;&#30011;&#38754;</text><text fill="#000000" font-family="sans-serif" font-size="14" lengthAdjust="spacing" textLength="85.5723" x="528.5" y="113.752">(CheckOutUI)</text></g><!--entity Ctrl--><g class="entity" data-qualified-name="Ctrl" data-source-line="5" id="ent0003"><ellipse cx="1011.7241" cy="65.6094" fill="#F1F1F1" rx="12" ry="12" style="stroke:#181818;stroke-width:0.5;"/><polygon fill="#181818" points="1007.7241,53.6094,1013.7241,48.6094,1011.7241,53.6094,1013.7241,58.6094,1007.7241,53.6094" style="stroke:#181818;stroke-width:1;stroke-linejoin:miter;stroke-miterlimit:10;"/><text fill="#000000" font-family="sans-serif" font-size="14" lengthAdjust="spacing" textLength="138.4482" x="942.5" y="96.1426">:&#12481;&#12455;&#12483;&#12463;&#12450;&#12454;&#12488;CTRL</text><text fill="#000000" font-family="sans-serif" font-size="14" lengthAdjust="spacing" textLength="116.7031" x="942.5" y="113.752">(CheckOutControl)</text></g><!--entity Rsv--><g class="entity" data-qualified-name="Rsv" data-source-line="6" id="ent0004"><ellipse cx="588.5137" cy="232.1094" fill="#F1F1F1" rx="12" ry="12" style="stroke:#181818;stroke-width:0.5;"/><line style="stroke:#181818;stroke-width:0.5;" x1="576.5137" x2="600.5137" y1="246.1094" y2="246.1094"/><text fill="#000000" font-family="sans-serif" font-size="14" lengthAdjust="spacing" textLength="31.8896" x="546.5" y="262.6426">:&#20104;&#32004;</text><text fill="#000000" font-family="sans-serif" font-size="14" lengthAdjust="spacing" textLength="84.0273" x="546.5" y="280.252">(Reservation)</text></g><!--entity Rate--><g class="entity" data-qualified-name="Rate" data-source-line="7" id="ent0005"><ellipse cx="780.6206" cy="232.1094" fill="#F1F1F1" rx="12" ry="12" style="stroke:#181818;stroke-width:0.5;"/><line style="stroke:#181818;stroke-width:0.5;" x1="768.6206" x2="792.6206" y1="246.1094" y2="246.1094"/><text fill="#000000" font-family="sans-serif" font-size="14" lengthAdjust="spacing" textLength="45.8896" x="742.5" y="262.6426">:&#26009;&#37329;&#34920;</text><text fill="#000000" font-family="sans-serif" font-size="14" lengthAdjust="spacing" textLength="76.2412" x="742.5" y="280.252">(RoomRate)</text></g><!--entity Svc--><g class="entity" data-qualified-name="Svc" data-source-line="8" id="ent0006"><ellipse cx="1011.4448" cy="232.1094" fill="#F1F1F1" rx="12" ry="12" style="stroke:#181818;stroke-width:0.5;"/><line style="stroke:#181818;stroke-width:0.5;" x1="999.4448" x2="1023.4448" y1="246.1094" y2="246.1094"/><text fill="#000000" font-family="sans-serif" font-size="14" lengthAdjust="spacing" textLength="115.8896" x="953.5" y="262.6426">:&#36861;&#21152;&#12469;&#12540;&#12499;&#12473;&#21033;&#29992;</text><text fill="#000000" font-family="sans-serif" font-size="14" lengthAdjust="spacing" textLength="96.4756" x="953.5" y="280.252">(ServiceUsage)</text></g><!--entity Charge--><g class="entity" data-qualified-name="Charge" data-source-line="9" id="ent0007"><ellipse cx="1292.4448" cy="232.1094" fill="#F1F1F1" rx="12" ry="12" style="stroke:#181818;stroke-width:0.5;"/><line style="stroke:#181818;stroke-width:0.5;" x1="1280.4448" x2="1304.4448" y1="246.1094" y2="246.1094"/><text fill="#000000" font-family="sans-serif" font-size="14" lengthAdjust="spacing" textLength="59.8896" x="1262.5" y="262.6426">:&#23487;&#27850;&#26009;&#37329;</text><text fill="#000000" font-family="sans-serif" font-size="14" lengthAdjust="spacing" textLength="55.2412" x="1262.5" y="280.252">(Charge)</text></g><!--entity Room--><g class="entity" data-qualified-name="Room" data-source-line="10" id="ent0008"><ellipse cx="1471.3345" cy="232.1094" fill="#F1F1F1" rx="12" ry="12" style="stroke:#181818;stroke-width:0.5;"/><line style="stroke:#181818;stroke-width:0.5;" x1="1459.3345" x2="1483.3345" y1="246.1094" y2="246.1094"/><text fill="#000000" font-family="sans-serif" font-size="14" lengthAdjust="spacing" textLength="31.8896" x="1448" y="262.6426">:&#23458;&#23460;</text><text fill="#000000" font-family="sans-serif" font-size="14" lengthAdjust="spacing" textLength="46.6689" x="1448" y="280.252">(Room)</text></g><g class="entity" data-qualified-name="GMN18" data-source-line="21" id="ent0019"><path d="M935,344.1094 L935,370.4609 A0,0 0 0 0 935,370.4609 L1088.1709,370.4609 A0,0 0 0 0 1088.1709,370.4609 L1088.1709,354.1094 L1078.1709,344.1094 L1015.5,344.1094 L1011.5,283.1194 L1007.5,344.1094 L935,344.1094 A0,0 0 0 0 935,344.1094" fill="#FEFFDD" style="stroke:#181818;stroke-width:0.5;"/><path d="M1078.1709,344.1094 L1078.1709,354.1094 L1088.1709,354.1094 L1078.1709,344.1094" fill="#FEFFDD" style="stroke:#181818;stroke-width:0.5;"/><text fill="#000000" font-family="sans-serif" font-size="13" lengthAdjust="spacing" textLength="132.1709" x="941" y="362.6045">&#22810;&#37325;&#12458;&#12502;&#12472;&#12455;&#12463;&#12488;(0..*)</text></g><g class="entity" data-qualified-name="GMN21" data-source-line="22" id="ent0022"><path d="M6,228.1094 L6,270.8125 A0,0 0 0 0 6,270.8125 L421.3418,270.8125 A0,0 0 0 0 421.3418,270.8125 L421.3418,238.1094 L411.3418,228.1094 L217.5,228.1094 L213.5,122.2594 L209.5,228.1094 L6,228.1094 A0,0 0 0 0 6,228.1094" fill="#FEFFDD" style="stroke:#181818;stroke-width:0.5;"/><path d="M411.3418,228.1094 L411.3418,238.1094 L421.3418,238.1094 L411.3418,228.1094" fill="#FEFFDD" style="stroke:#181818;stroke-width:0.5;"/><text fill="#000000" font-family="sans-serif" font-size="13" lengthAdjust="spacing" textLength="394.3418" x="12" y="246.6045">&#20363;&#22806;&#12501;&#12525;&#12540;5a(&#25903;&#25173;&#12356;&#25298;&#21542;): &#26009;&#37329;&#20869;&#23481;&#12398;&#20877;&#30906;&#35469;&#12399;&#12471;&#12473;&#12486;&#12512;&#22806;&#12398;&#23550;&#35441;&#12290;</text><text fill="#000000" font-family="sans-serif" font-size="13" lengthAdjust="spacing" textLength="392.8882" x="12" y="262.9561">&#35299;&#27770;&#12375;&#12394;&#12356;&#22580;&#21512;&#12399;&#25163;&#38918;2&#12434;&#34892;&#12431;&#12378;&#12395;&#32066;&#20102;&#12377;&#12427;(&#12481;&#12455;&#12483;&#12463;&#12450;&#12454;&#12488;&#26410;&#23436;&#20102;)</text></g><!--link Staff to UI--><g class="link" data-entity-1="ent0001" data-entity-2="ent0002" data-link-type="dependency" data-source-line="12" id="lnk9"><path d="M250.63,83.1094 C315.06,83.1094 443.34,83.1094 523.43,83.1094" fill="none" id="Staff-to-UI" style="stroke:#181818;stroke-width:1;"/><polygon fill="#181818" points="528.43,83.1094,519.43,79.1094,523.43,83.1094,519.43,87.1094,528.43,83.1094" style="stroke:#181818;stroke-width:1;stroke-linejoin:miter;stroke-miterlimit:10;"/><text fill="#000000" font-family="sans-serif" font-size="13" lengthAdjust="spacing" textLength="231.1118" x="274.4177" y="60.6045">1: &#12481;&#12455;&#12483;&#12463;&#12450;&#12454;&#12488;&#12434;&#25351;&#31034;&#12377;&#12427;(&#20104;&#32004;&#30058;&#21495;)</text><text fill="#000000" font-family="sans-serif" font-size="13" lengthAdjust="spacing" textLength="241.9473" x="269" y="76.9561">2: [&#25903;&#25173;&#12356;&#12434;&#21463;&#38936;&#12375;&#12383;] &#25903;&#25173;&#12356;&#12434;&#30331;&#37682;&#12377;&#12427;()</text></g><!--reverse link Staff to UI--><g class="link" data-entity-1="ent0001" data-entity-2="ent0002" data-link-type="dependency" data-source-line="13" id="lnk11"><path d="M255.5871,93.9846 C274.2871,98.3846 292.5,101.9294 313.5,104.1094 C380.69,111.0894 398.17,109.5994 465.5,104.1094 C486.04,102.4394 508.25,99.2794 528.31,95.9094" fill="none" id="Staff-backto-UI" style="stroke:#181818;stroke-width:1;"/><polygon fill="#181818" points="250.72,92.8394,258.5646,98.7944,255.5871,93.9846,260.3969,91.0071,250.72,92.8394" style="stroke:#181818;stroke-width:1;stroke-linejoin:miter;stroke-miterlimit:10;"/><text fill="#000000" font-family="sans-serif" font-size="13" lengthAdjust="spacing" textLength="150.9536" x="314.5" y="100.6045">1.6: &#23487;&#27850;&#26009;&#37329;&#12434;&#34920;&#31034;&#12377;&#12427;()</text></g><!--link UI to Ctrl--><g class="link" data-entity-1="ent0002" data-entity-2="ent0003" data-link-type="dependency" data-source-line="14" id="lnk12"><path d="M658.81,83.1094 C735.96,83.1094 858.74,83.1094 937.48,83.1094" fill="none" id="UI-to-Ctrl" style="stroke:#181818;stroke-width:1;"/><polygon fill="#181818" points="942.48,83.1094,933.48,79.1094,937.48,83.1094,933.48,87.1094,942.48,83.1094" style="stroke:#181818;stroke-width:1;stroke-linejoin:miter;stroke-miterlimit:10;"/><text fill="#000000" font-family="sans-serif" font-size="13" lengthAdjust="spacing" textLength="247.3809" x="677" y="60.6045">1.1: &#23487;&#27850;&#26009;&#37329; := &#26009;&#37329;&#12434;&#35336;&#31639;&#12377;&#12427;(&#20104;&#32004;&#30058;&#21495;)</text><text fill="#000000" font-family="sans-serif" font-size="13" lengthAdjust="spacing" textLength="189.9536" x="705.7136" y="76.9561">2.1: &#25903;&#25173;&#12356;&#12434;&#35352;&#37682;&#12377;&#12427;(&#20104;&#32004;&#30058;&#21495;)</text></g><!--link Ctrl to Rsv--><g class="link" data-entity-1="ent0003" data-entity-2="ent0004" data-link-type="dependency" data-source-line="15" id="lnk13"><path d="M942.44,88.6894 C846.1,96.3394 677.83,114.7394 630.5,152.1094 C610.71,167.7394 601.32,189.7234 595.7,211.1234" fill="none" id="Ctrl-to-Rsv" style="stroke:#181818;stroke-width:1;"/><polygon fill="#181818" points="594.43,215.9594,600.5848,208.2706,595.7,211.1234,592.8472,206.2385,594.43,215.9594" style="stroke:#181818;stroke-width:1;stroke-linejoin:miter;stroke-miterlimit:10;"/><text fill="#000000" font-family="sans-serif" font-size="13" lengthAdjust="spacing" textLength="124.9536" x="644.5" y="166.6045">1.2: &#20869;&#23481;&#12434;&#21462;&#24471;&#12377;&#12427;()</text><text fill="#000000" font-family="sans-serif" font-size="13" lengthAdjust="spacing" textLength="150.9536" x="631.5" y="182.9561">2.3: &#12481;&#12455;&#12483;&#12463;&#12450;&#12454;&#12488;&#12377;&#12427;()</text></g><!--link Ctrl to Rate--><g class="link" data-entity-1="ent0003" data-entity-2="ent0005" data-link-type="dependency" data-source-line="16" id="lnk14"><path d="M942.06,91.2594 C898.51,99.2694 844.24,116.2094 809.5,152.1094 C793.08,169.0794 786.6529,190.0449 783.5429,210.7449" fill="none" id="Ctrl-to-Rate" style="stroke:#181818;stroke-width:1;"/><polygon fill="#181818" points="782.8,215.6894,788.0928,207.3836,783.5429,210.7449,780.1816,206.195,782.8,215.6894" style="stroke:#181818;stroke-width:1;stroke-linejoin:miter;stroke-miterlimit:10;"/><text fill="#000000" font-family="sans-serif" font-size="13" lengthAdjust="spacing" textLength="189.9536" x="810.5" y="174.6045">1.3: &#21336;&#20385;&#12434;&#21462;&#24471;&#12377;&#12427;(&#23458;&#23460;&#12479;&#12452;&#12503;)</text></g><!--link Ctrl to Svc--><g class="link" data-entity-1="ent0003" data-entity-2="ent0006" data-link-type="dependency" data-source-line="17" id="lnk15"><path d="M1009.65,116.7194 C1008.74,136.7394 1007.94,162.9094 1008.5,186.1094 C1008.73,195.7794 1008.9304,201.2751 1009.3904,210.8651" fill="none" id="Ctrl-to-Svc" style="stroke:#181818;stroke-width:1;"/><polygon fill="#181818" points="1009.63,215.8594,1013.1942,206.6781,1009.3904,210.8651,1005.2034,207.0614,1009.63,215.8594" style="stroke:#181818;stroke-width:1;stroke-linejoin:miter;stroke-miterlimit:10;"/><text fill="#000000" font-family="sans-serif" font-size="13" lengthAdjust="spacing" textLength="239.7891" x="1009.5" y="166.6045">1.4: [&#21033;&#29992;&#23653;&#27508;&#12354;&#12426;] &#36861;&#21152;&#26009;&#37329;&#12434;&#21462;&#24471;&#12377;&#12427;()</text><text fill="#000000" font-family="sans-serif" font-size="13" lengthAdjust="spacing" textLength="88.1182" x="1085.3354" y="182.9561">(&#20195;&#26367;&#12501;&#12525;&#12540;2a)</text></g><!--link Ctrl to Charge--><g class="link" data-entity-1="ent0003" data-entity-2="ent0007" data-link-type="dependency" data-source-line="18" id="lnk16"><path d="M1080.58,87.4094 C1133.75,93.4094 1205.95,109.5294 1253.5,152.1094 C1271.81,168.4994 1280.4622,189.8574 1285.6822,210.8274" fill="none" id="Ctrl-to-Charge" style="stroke:#181818;stroke-width:1;"/><polygon fill="#181818" points="1286.89,215.6794,1288.5975,205.9797,1285.6822,210.8274,1280.8345,207.9121,1286.89,215.6794" style="stroke:#181818;stroke-width:1;stroke-linejoin:miter;stroke-miterlimit:10;"/><text fill="#000000" font-family="sans-serif" font-size="13" lengthAdjust="spacing" textLength="111.9536" x="1290.5" y="166.6045">1.5: &#29983;&#25104;&#12377;&#12427;(&#37329;&#38989;)</text><text fill="#000000" font-family="sans-serif" font-size="13" lengthAdjust="spacing" textLength="137.9536" x="1277.5" y="182.9561">2.2: &#25903;&#25173;&#12356;&#28168;&#12415;&#12395;&#12377;&#12427;()</text></g><!--link Ctrl to Room--><g class="link" data-entity-1="ent0003" data-entity-2="ent0008" data-link-type="dependency" data-source-line="19" id="lnk17"><path d="M1080.73,87.9894 C1183.57,94.9794 1370.3,112.7994 1423.5,152.1094 C1444.27,167.4594 1455.0508,189.5422 1462.0008,211.0222" fill="none" id="Ctrl-to-Room" style="stroke:#181818;stroke-width:1;"/><polygon fill="#181818" points="1463.54,215.7794,1464.5752,205.9851,1462.0008,211.0222,1456.9637,208.4478,1463.54,215.7794" style="stroke:#181818;stroke-width:1;stroke-linejoin:miter;stroke-miterlimit:10;"/><text fill="#000000" font-family="sans-serif" font-size="13" lengthAdjust="spacing" textLength="98.9536" x="1451.5" y="174.6045">2.4: &#31354;&#23460;&#12395;&#25147;&#12377;()</text></g><?plantuml-src VLHDJnfH5DtFhvXq1KqmbTOkIDeDAvCcJR2igeiH1oMbCmcCDjrrthCu5OdK8lZLYaXLi48i6XKi_9ZBcu5_qJiV25BfRZ9pphddddj0YIXHaGTo1UG6Q09edca9_KUQz-3B6j0Iq3sWlu3UcXXw3BJ6TckkeF-fZmUg0i4t54WLI0784L0Dr6qWIJV72I55Zl6FV40tWPuX3p-sM-GHByJvAKK8XxbPUL6Q4s8VBT03KaQcqVrUc9PS_WKnzExreXAST5lqu2GNaYKb9aT7KVrl0gy6Y7uRRRFzIYpAYP8IKSp9xRfcN2mZDY36nTYIe4HaoSO5uajzc9xTxgvyxHoSc4XPVXyG5D61uLCVrsdzOQjv89TcOlGRfigqaf4nQLCe7mc9mRWmxr2dba9z9gkqzDggFSUoBiHwEFjv45fWbQBZn761JnndvSfxOf7v1SNp4dFYVVpug4EH3NrjnIZMxOkvx22CpJ9Rlt9FIruV_rRFLFKlcw0k8vQjvxhvBL1peExFy8DVZEr6T-ste-BcSAWdAeRD-ROTj33stCSFxeSiZB8_ssRrR9i7ibZZzrcyxmNVvvzeHYKtmhl97BJOETdgMxm7vgnXdZdvWuIJyUJMO5oU9JwpoesrU9OrUuCiyVzNtpMiYVsmH976Kbljvi6mg7rE82qWHQ2v8JwMnA8_muFONMBdF_Mp2r09aDKPtcxSNIx3Tbtjng6-s-hz2c-zmf2-NIvhn8IFDpBxkfPswAZOFKXPEti70jMlSTKMgASZ5iOgefpNT6oKwkPgwgckDH2DK4wICOzPML4G9OUTzLXnfxkI0b86cWLoRMQBmLBDzMHixB7x7uxJgtOpoOhPkzKc15VVOtA3fO_SFgSmpZNL2akaZ4AzKqw1MhtthuSw-BNQx9JEuHEPbZh7X_fvtUfx6VLO_eAbSMsKJtRp2Q_Lu3KWww3ku7h69MdN4quU3vP3tokpoXg2tDnV?></g></svg>