<svg xmlns="http://www.w3.org/2000/svg" xmlns:xlink="http://www.w3.org/1999/xlink" contentStyleType="text/css" data-diagram-type="DESCRIPTION" height="385px" preserveAspectRatio="none" style="width:1758px;height:385px;background:#FFFFFF;" version="1.1" viewBox="0 0 1758 385" width="1758px" zoomAndPan="magnify"><?plantuml 1.2026.6?><defs/><g><g class="title" data-source-line="1"><text fill="#000000" font-family="sans-serif" font-size="14" font-weight="700" lengthAdjust="spacing" textLength="404.8242" x="673.3147" y="24.5332">&#12471;&#12473;&#12486;&#12512;&#20998;&#26512; - &#12467;&#12521;&#12508;&#12524;&#12540;&#12471;&#12519;&#12531;&#22259;(UC3: &#12481;&#12455;&#12483;&#12463;&#12450;&#12454;&#12488;&#12377;&#12427;)</text></g><!--entity Staff--><g class="entity" data-qualified-name="Staff" data-source-line="3" id="ent0001"><ellipse cx="213.4448" cy="52.6094" fill="#F1F1F1" rx="8" ry="8" style="stroke:#181818;stroke-width:0.5;"/><path d="M213.4448,60.6094 L213.4448,87.6094 M200.4448,68.6094 L226.4448,68.6094 M213.4448,87.6094 L200.4448,102.6094 M213.4448,87.6094 L226.4448,102.6094" fill="none" style="stroke:#181818;stroke-width:0.5;"/><text fill="#000000" font-family="sans-serif" font-size="14" lengthAdjust="spacing" textLength="73.8896" x="176.5" y="118.6426">:&#12501;&#12525;&#12531;&#12488;&#20418;</text></g><!--entity UI--><g class="entity" data-qualified-name="UI" data-source-line="4" id="ent0002"><path d="M624.9448,53.6094 L624.9448,77.6094 M624.9448,65.6094 L641.9448,65.6094" fill="none" style="stroke:#181818;stroke-width:0.5;"/><ellipse cx="653.9448" cy="65.6094" fill="#F1F1F1" rx="12" ry="12" style="stroke:#181818;stroke-width:0.5;"/><text fill="#000000" font-family="sans-serif" font-size="14" lengthAdjust="spacing" textLength="129.8896" x="580.5" y="96.1426">:&#12481;&#12455;&#12483;&#12463;&#12450;&#12454;&#12488;&#30011;&#38754;</text><text fill="#000000" font-family="sans-serif" font-size="14" lengthAdjust="spacing" textLength="85.5723" x="580.5" y="113.752">(CheckOutUI)</text></g><!--entity Ctrl--><g class="entity" data-qualified-name="Ctrl" data-source-line="5" id="ent0003"><ellipse cx="1065.7241" cy="65.6094" fill="#F1F1F1" rx="12" ry="12" style="stroke:#181818;stroke-width:0.5;"/><polygon fill="#181818" points="1061.7241,53.6094,1067.7241,48.6094,1065.7241,53.6094,1067.7241,58.6094,1061.7241,53.6094" style="stroke:#181818;stroke-width:1;stroke-linejoin:miter;stroke-miterlimit:10;"/><text fill="#000000" font-family="sans-serif" font-size="14" lengthAdjust="spacing" textLength="138.4482" x="996.5" y="96.1426">:&#12481;&#12455;&#12483;&#12463;&#12450;&#12454;&#12488;CTRL</text><text fill="#000000" font-family="sans-serif" font-size="14" lengthAdjust="spacing" textLength="116.7031" x="996.5" y="113.752">(CheckOutControl)</text></g><!--entity Rsv--><g class="entity" data-qualified-name="Rsv" data-source-line="6" id="ent0004"><ellipse cx="570.5137" cy="232.1094" fill="#F1F1F1" rx="12" ry="12" style="stroke:#181818;stroke-width:0.5;"/><line style="stroke:#181818;stroke-width:0.5;" x1="558.5137" x2="582.5137" y1="246.1094" y2="246.1094"/><text fill="#000000" font-family="sans-serif" font-size="14" lengthAdjust="spacing" textLength="31.8896" x="528.5" y="262.6426">:&#20104;&#32004;</text><text fill="#000000" font-family="sans-serif" font-size="14" lengthAdjust="spacing" textLength="84.0273" x="528.5" y="280.252">(Reservation)</text></g><!--entity Rate--><g class="entity" data-qualified-name="Rate" data-source-line="7" id="ent0005"><ellipse cx="762.6206" cy="232.1094" fill="#F1F1F1" rx="12" ry="12" style="stroke:#181818;stroke-width:0.5;"/><line style="stroke:#181818;stroke-width:0.5;" x1="750.6206" x2="774.6206" y1="246.1094" y2="246.1094"/><text fill="#000000" font-family="sans-serif" font-size="14" lengthAdjust="spacing" textLength="45.8896" x="724.5" y="262.6426">:&#26009;&#37329;&#34920;</text><text fill="#000000" font-family="sans-serif" font-size="14" lengthAdjust="spacing" textLength="76.2412" x="724.5" y="280.252">(RoomRate)</text></g><!--entity Svc--><g class="entity" data-qualified-name="Svc" data-source-line="8" id="ent0006"><ellipse cx="993.4448" cy="232.1094" fill="#F1F1F1" rx="12" ry="12" style="stroke:#181818;stroke-width:0.5;"/><line style="stroke:#181818;stroke-width:0.5;" x1="981.4448" x2="1005.4448" y1="246.1094" y2="246.1094"/><text fill="#000000" font-family="sans-serif" font-size="14" lengthAdjust="spacing" textLength="115.8896" x="935.5" y="262.6426">:&#36861;&#21152;&#12469;&#12540;&#12499;&#12473;&#21033;&#29992;</text><text fill="#000000" font-family="sans-serif" font-size="14" lengthAdjust="spacing" textLength="96.4756" x="935.5" y="280.252">(ServiceUsage)</text></g><!--entity Charge--><g class="entity" data-qualified-name="Charge" data-source-line="9" id="ent0007"><ellipse cx="1274.4448" cy="232.1094" fill="#F1F1F1" rx="12" ry="12" style="stroke:#181818;stroke-width:0.5;"/><line style="stroke:#181818;stroke-width:0.5;" x1="1262.4448" x2="1286.4448" y1="246.1094" y2="246.1094"/><text fill="#000000" font-family="sans-serif" font-size="14" lengthAdjust="spacing" textLength="59.8896" x="1244.5" y="262.6426">:&#23487;&#27850;&#26009;&#37329;</text><text fill="#000000" font-family="sans-serif" font-size="14" lengthAdjust="spacing" textLength="55.2412" x="1244.5" y="280.252">(Charge)</text></g><!--entity Payment--><g class="entity" data-qualified-name="Payment" data-source-line="10" id="ent0008"><ellipse cx="1427.2861" cy="232.1094" fill="#F1F1F1" rx="12" ry="12" style="stroke:#181818;stroke-width:0.5;"/><line style="stroke:#181818;stroke-width:0.5;" x1="1415.2861" x2="1439.2861" y1="246.1094" y2="246.1094"/><text fill="#000000" font-family="sans-serif" font-size="14" lengthAdjust="spacing" textLength="45.8896" x="1395" y="262.6426">:&#25903;&#25173;&#12356;</text><text fill="#000000" font-family="sans-serif" font-size="14" lengthAdjust="spacing" textLength="64.5723" x="1395" y="280.252">(Payment)</text></g><!--entity Room--><g class="entity" data-qualified-name="Room" data-source-line="11" id="ent0009"><ellipse cx="1666.3345" cy="232.1094" fill="#F1F1F1" rx="12" ry="12" style="stroke:#181818;stroke-width:0.5;"/><line style="stroke:#181818;stroke-width:0.5;" x1="1654.3345" x2="1678.3345" y1="246.1094" y2="246.1094"/><text fill="#000000" font-family="sans-serif" font-size="14" lengthAdjust="spacing" textLength="31.8896" x="1643" y="262.6426">:&#23458;&#23460;</text><text fill="#000000" font-family="sans-serif" font-size="14" lengthAdjust="spacing" textLength="46.6689" x="1643" y="280.252">(Room)</text></g><g class="entity" data-qualified-name="GMN20" data-source-line="23" id="ent0021"><path d="M917,344.1094 L917,370.4609 A0,0 0 0 0 917,370.4609 L1070.1709,370.4609 A0,0 0 0 0 1070.1709,370.4609 L1070.1709,354.1094 L1060.1709,344.1094 L997.5,344.1094 L993.5,283.1194 L989.5,344.1094 L917,344.1094 A0,0 0 0 0 917,344.1094" fill="#FEFFDD" style="stroke:#181818;stroke-width:0.5;"/><path d="M1060.1709,344.1094 L1060.1709,354.1094 L1070.1709,354.1094 L1060.1709,344.1094" fill="#FEFFDD" style="stroke:#181818;stroke-width:0.5;"/><text fill="#000000" font-family="sans-serif" font-size="13" lengthAdjust="spacing" textLength="132.1709" x="923" y="362.6045">&#22810;&#37325;&#12458;&#12502;&#12472;&#12455;&#12463;&#12488;(0..*)</text></g><g class="entity" data-qualified-name="GMN23" data-source-line="24" id="ent0024"><path d="M6,228.1094 L6,270.8125 A0,0 0 0 0 6,270.8125 L421.3418,270.8125 A0,0 0 0 0 421.3418,270.8125 L421.3418,238.1094 L411.3418,228.1094 L217.5,228.1094 L213.5,122.2594 L209.5,228.1094 L6,228.1094 A0,0 0 0 0 6,228.1094" fill="#FEFFDD" style="stroke:#181818;stroke-width:0.5;"/><path d="M411.3418,228.1094 L411.3418,238.1094 L421.3418,238.1094 L411.3418,228.1094" fill="#FEFFDD" style="stroke:#181818;stroke-width:0.5;"/><text fill="#000000" font-family="sans-serif" font-size="13" lengthAdjust="spacing" textLength="394.3418" x="12" y="246.6045">&#20363;&#22806;&#12501;&#12525;&#12540;5a(&#25903;&#25173;&#12356;&#25298;&#21542;): &#26009;&#37329;&#20869;&#23481;&#12398;&#20877;&#30906;&#35469;&#12399;&#12471;&#12473;&#12486;&#12512;&#22806;&#12398;&#23550;&#35441;&#12290;</text><text fill="#000000" font-family="sans-serif" font-size="13" lengthAdjust="spacing" textLength="392.8882" x="12" y="262.9561">&#35299;&#27770;&#12375;&#12394;&#12356;&#22580;&#21512;&#12399;&#25163;&#38918;2&#12434;&#34892;&#12431;&#12378;&#12395;&#32066;&#20102;&#12377;&#12427;(&#12481;&#12455;&#12483;&#12463;&#12450;&#12454;&#12488;&#26410;&#23436;&#20102;)</text></g><!--link Staff to UI--><g class="link" data-entity-1="ent0001" data-entity-2="ent0002" data-link-type="dependency" data-source-line="13" id="lnk10"><path d="M250.71,83.1094 C324.18,83.1094 483.72,83.1094 575.49,83.1094" fill="none" id="Staff-to-UI" style="stroke:#181818;stroke-width:1;"/><polygon fill="#181818" points="580.49,83.1094,571.49,79.1094,575.49,83.1094,571.49,87.1094,580.49,83.1094" style="stroke:#181818;stroke-width:1;stroke-linejoin:miter;stroke-miterlimit:10;"/><text fill="#000000" font-family="sans-serif" font-size="13" lengthAdjust="spacing" textLength="231.1118" x="300.4177" y="60.6045">1: &#12481;&#12455;&#12483;&#12463;&#12450;&#12454;&#12488;&#12434;&#25351;&#31034;&#12377;&#12427;(&#20104;&#32004;&#30058;&#21495;)</text><text fill="#000000" font-family="sans-serif" font-size="13" lengthAdjust="spacing" textLength="293.9473" x="269" y="76.9561">2: [&#25903;&#25173;&#12356;&#12434;&#21463;&#38936;&#12375;&#12383;] &#25903;&#25173;&#12356;&#12434;&#30331;&#37682;&#12377;&#12427;(&#25903;&#25173;&#26041;&#27861;)</text></g><!--reverse link Staff to UI--><g class="link" data-entity-1="ent0001" data-entity-2="ent0002" data-link-type="dependency" data-source-line="14" id="lnk12"><path d="M255.4174,91.8873 C280.4174,96.7673 309.33,101.6094 339.5,104.1094 C406.83,109.6794 424.1,108.6794 491.5,104.1094 C520.71,102.1294 552.82,98.0494 580.13,94.0194" fill="none" id="Staff-backto-UI" style="stroke:#181818;stroke-width:1;"/><polygon fill="#181818" points="250.51,90.9294,258.5769,96.5795,255.4174,91.8873,260.1096,88.7277,250.51,90.9294" style="stroke:#181818;stroke-width:1;stroke-linejoin:miter;stroke-miterlimit:10;"/><text fill="#000000" font-family="sans-serif" font-size="13" lengthAdjust="spacing" textLength="150.9536" x="340.5" y="100.6045">1.6: &#23487;&#27850;&#26009;&#37329;&#12434;&#34920;&#31034;&#12377;&#12427;()</text></g><!--link UI to Ctrl--><g class="link" data-entity-1="ent0002" data-entity-2="ent0003" data-link-type="dependency" data-source-line="15" id="lnk13"><path d="M710.66,83.1094 C788.2,83.1094 912.09,83.1094 991.34,83.1094" fill="none" id="UI-to-Ctrl" style="stroke:#181818;stroke-width:1;"/><polygon fill="#181818" points="996.34,83.1094,987.34,79.1094,991.34,83.1094,987.34,87.1094,996.34,83.1094" style="stroke:#181818;stroke-width:1;stroke-linejoin:miter;stroke-miterlimit:10;"/><text fill="#000000" font-family="sans-serif" font-size="13" lengthAdjust="spacing" textLength="247.3809" x="729.8982" y="60.6045">1.1: &#23487;&#27850;&#26009;&#37329; := &#26009;&#37329;&#12434;&#35336;&#31639;&#12377;&#12427;(&#20104;&#32004;&#30058;&#21495;)</text><text fill="#000000" font-family="sans-serif" font-size="13" lengthAdjust="spacing" textLength="249.1772" x="729" y="76.9561">2.1: &#25903;&#25173;&#12356;&#12434;&#35352;&#37682;&#12377;&#12427;(&#20104;&#32004;&#30058;&#21495;, &#25903;&#25173;&#26041;&#27861;)</text></g><!--link Ctrl to Rsv--><g class="link" data-entity-1="ent0003" data-entity-2="ent0004" data-link-type="dependency" data-source-line="16" id="lnk14"><path d="M996.46,90.5594 C876.24,102.3594 638.36,128.3694 608.5,152.1094 C589.05,167.5694 580.5893,189.5229 575.9393,210.9729" fill="none" id="Ctrl-to-Rsv" style="stroke:#181818;stroke-width:1;"/><polygon fill="#181818" points="574.88,215.8594,580.696,207.9111,575.9393,210.9729,572.8776,206.2162,574.88,215.8594" style="stroke:#181818;stroke-width:1;stroke-linejoin:miter;stroke-miterlimit:10;"/><text fill="#000000" font-family="sans-serif" font-size="13" lengthAdjust="spacing" textLength="124.9536" x="622.5" y="166.6045">1.2: &#20869;&#23481;&#12434;&#21462;&#24471;&#12377;&#12427;()</text><text fill="#000000" font-family="sans-serif" font-size="13" lengthAdjust="spacing" textLength="150.9536" x="609.5" y="182.9561">2.3: &#12481;&#12455;&#12483;&#12463;&#12450;&#12454;&#12488;&#12377;&#12427;()</text></g><!--link Ctrl to Rate--><g class="link" data-entity-1="ent0003" data-entity-2="ent0005" data-link-type="dependency" data-source-line="17" id="lnk15"><path d="M996.21,92.5994 C923.17,102.9494 814.71,122.7794 785.5,152.1094 C768.97,168.7094 763.863,189.9219 762.383,210.8319" fill="none" id="Ctrl-to-Rate" style="stroke:#181818;stroke-width:1;"/><polygon fill="#181818" points="762.03,215.8194,766.6554,207.1242,762.383,210.8319,758.6754,206.5594,762.03,215.8194" style="stroke:#181818;stroke-width:1;stroke-linejoin:miter;stroke-miterlimit:10;"/><text fill="#000000" font-family="sans-serif" font-size="13" lengthAdjust="spacing" textLength="189.9536" x="786.5" y="174.6045">1.3: &#21336;&#20385;&#12434;&#21462;&#24471;&#12377;&#12427;(&#23458;&#23460;&#12479;&#12452;&#12503;)</text></g><!--link Ctrl to Svc--><g class="link" data-entity-1="ent0003" data-entity-2="ent0006" data-link-type="dependency" data-source-line="18" id="lnk16"><path d="M1017.53,116.6694 C1006.61,126.6494 996.48,138.6094 990.5,152.1094 C981.67,172.0294 981.8048,191.6598 984.8448,211.0298" fill="none" id="Ctrl-to-Svc" style="stroke:#181818;stroke-width:1;"/><polygon fill="#181818" points="985.62,215.9694,988.1762,206.458,984.8448,211.0298,980.273,207.6984,985.62,215.9694" style="stroke:#181818;stroke-width:1;stroke-linejoin:miter;stroke-miterlimit:10;"/><text fill="#000000" font-family="sans-serif" font-size="13" lengthAdjust="spacing" textLength="239.7891" x="991.5" y="166.6045">1.4: [&#21033;&#29992;&#23653;&#27508;&#12354;&#12426;] &#36861;&#21152;&#26009;&#37329;&#12434;&#21462;&#24471;&#12377;&#12427;()</text><text fill="#000000" font-family="sans-serif" font-size="13" lengthAdjust="spacing" textLength="88.1182" x="1067.3354" y="182.9561">(&#20195;&#26367;&#12501;&#12525;&#12540;2a)</text></g><!--link Ctrl to Charge--><g class="link" data-entity-1="ent0003" data-entity-2="ent0007" data-link-type="dependency" data-source-line="19" id="lnk17"><path d="M1134.74,98.2494 C1168.79,108.2894 1208.25,124.9594 1235.5,152.1094 C1252.78,169.3294 1261.392,190.3881 1266.892,211.0181" fill="none" id="Ctrl-to-Charge" style="stroke:#181818;stroke-width:1;"/><polygon fill="#181818" points="1268.18,215.8494,1269.7266,206.1227,1266.892,211.0181,1261.9966,208.1835,1268.18,215.8494" style="stroke:#181818;stroke-width:1;stroke-linejoin:miter;stroke-miterlimit:10;"/><text fill="#000000" font-family="sans-serif" font-size="13" lengthAdjust="spacing" textLength="111.9536" x="1258.5" y="174.6045">1.5: &#29983;&#25104;&#12377;&#12427;(&#37329;&#38989;)</text></g><!--link Ctrl to Payment--><g class="link" data-entity-1="ent0003" data-entity-2="ent0008" data-link-type="dependency" data-source-line="20" id="lnk18"><path d="M1134.72,92.1494 C1214.97,102.6594 1341.03,123.1794 1378.5,152.1094 C1399.02,167.9594 1410.0437,190.0278 1417.3337,211.3678" fill="none" id="Ctrl-to-Payment" style="stroke:#181818;stroke-width:1;"/><polygon fill="#181818" points="1418.95,216.0994,1419.8258,206.2895,1417.3337,211.3678,1412.2553,208.8757,1418.95,216.0994" style="stroke:#181818;stroke-width:1;stroke-linejoin:miter;stroke-miterlimit:10;"/><text fill="#000000" font-family="sans-serif" font-size="13" lengthAdjust="spacing" textLength="197.1772" x="1407.5" y="166.6045">2.2: &#29983;&#25104;&#12377;&#12427;(&#23487;&#27850;&#26009;&#37329;, &#25903;&#25173;&#26041;&#27861;)</text><text fill="#000000" font-family="sans-serif" font-size="13" lengthAdjust="spacing" textLength="112.6582" x="1449.7595" y="182.9561">&#25903;&#25173;&#12356;&#28168;&#12415;&#12395;&#12377;&#12427;()</text></g><!--link Ctrl to Room--><g class="link" data-entity-1="ent0003" data-entity-2="ent0009" data-link-type="dependency" data-source-line="21" id="lnk19"><path d="M1134.57,84.9994 C1263.99,87.8794 1536.89,100.1494 1613.5,152.1094 C1635.49,167.0194 1647.4976,189.4954 1655.4676,211.2154" fill="none" id="Ctrl-to-Room" style="stroke:#181818;stroke-width:1;"/><polygon fill="#181818" points="1657.19,215.9094,1657.8448,206.0823,1655.4676,211.2154,1650.3345,208.8382,1657.19,215.9094" style="stroke:#181818;stroke-width:1;stroke-linejoin:miter;stroke-miterlimit:10;"/><text fill="#000000" font-family="sans-serif" font-size="13" lengthAdjust="spacing" textLength="98.9536" x="1643.5" y="174.6045">2.4: &#31354;&#23460;&#12395;&#25147;&#12377;()</text></g><?plantuml-src VLHRJnf167tVNp7n2PfYggrz86bVU39fqWRBK_LXHLHIt4rWjV6jEzCY5OdKSl7MYafLi48i6XKi_9YFsOL_qMyl25Bfsx1ppfapvpk34bH20GBq2kWDi2Ym78z5jHz9uiAF5M05OBl0VW6xDJ3i65Y5xrGSFizJDm6c0iKl36WPw07G8s0nKBU0nfs28FeLEKo6tC3ImCwGXvlD1XqYOeHCAEBih30jBqepOdZP13qWfQTgxUy7avB3Cn_mlt-zgFZ6dIRTDoxuPKa9ow51LCzRxwiUeiT2MsoF4Wu90Ka9AiR9pMfCl_Y4M6yW4WWlYKfGbYoSDxBKXMcPhVRArzR-YO6KvGMlg0Hi6Awwk5RZ3r_D0Rqq4cFVC5KUA-WfWpQ1ya5_m1SHvspgn9A_o-IbXbPPjSunhOlX3ivQzvX9bRKlQL0Dss_4vGNSi83sZrxH0rxAsvvjlxWI17C2n1KEpiqhhfUOA76JaK4ZfHlQsegUhrgpTLYHwUaYNxzoJagZRlBkpX5Y-NgsdTi4DGlgtXJftT6tQksrtxQAjQ5bRhHAsYcW0LSeC6juiQoXdU7dRjAR2YhW0Be-B5Rd2iPOJTR8VHPnlo1T_abCBsK7tCDWzjfjdMnsxVQ27vFxvisZNJFo1mbzO6rC6nWBZtxcfHipaWolTuurZ_h_yt7qQsB7J56aySHcixxVBseD6cW3Q1vOje-FHJFfpt1KLX_v-K_jx09K2dHrYbYjlKkftwwZMJlKTXgTbtmxAlRfMmKrZnXp4psrfyMIDXqLs_k9FhpTKoIC6ZdT8_JEhY_eIUbkFDerHjK0zNH0O5XoKnrlh1UgHZJggHQh8HgXWYHZdjEoeY1AdhNZuVdjzae2Q15O1kYrCHiS38ivdWmFFtB-mx5Rsgp7UJvp5ysOwEXwZ6_mv97JRTVFReDQuj64Vb1j5HEWbk_zyw8ExfRhhS8vVAIJKkluK3klcY-fY7eyTy6JU6sKZxTpqL7pFQm1NGTr6w-dNz9cDMhdyM2vjDqYBwqXo2dy1G00?></g></svg>