<svg xmlns="http://www.w3.org/2000/svg" xmlns:xlink="http://www.w3.org/1999/xlink" contentStyleType="text/css" data-diagram-type="CLASS" height="516px" preserveAspectRatio="none" style="width:710px;height:516px;background:#FFFFFF;" version="1.1" viewBox="0 0 710 516" width="710px" zoomAndPan="magnify"><?plantuml 1.2026.6?><defs/><g><g class="title" data-source-line="1"><text fill="#000000" font-family="sans-serif" font-size="14" font-weight="700" lengthAdjust="spacing" textLength="238.3281" x="232.3359" y="24.5332">&#12489;&#12513;&#12452;&#12531;&#20998;&#26512; - &#12463;&#12521;&#12473;&#22259;(&#27010;&#24565;&#12514;&#12487;&#12523;)</text></g><!--class ???--><g class="entity" data-qualified-name="..." data-source-line="3" id="ent0001"><rect fill="#F1F1F1" height="48" rx="2.5" ry="2.5" style="stroke:#181818;stroke-width:0.5;" width="74" x="258" y="45.6094"/><ellipse cx="273" cy="61.6094" fill="#ADD1B2" rx="11" ry="11" style="stroke:#181818;stroke-width:1;"/><path d="M275.7656,57.4844 Q275.9219,57.2656 276.1094,57.1563 Q276.2969,57.0469 276.5156,57.0469 Q276.8906,57.0469 277.125,57.3125 Q277.3594,57.5625 277.3594,58.1719 L277.3594,59.625 Q277.3594,60.2344 277.125,60.5 Q276.8906,60.7656 276.5156,60.7656 Q276.1719,60.7656 275.9688,60.5625 Q275.7656,60.375 275.6563,59.8594 Q275.6094,59.5 275.4219,59.3125 Q275.0938,58.9375 274.4844,58.7188 Q273.875,58.5 273.25,58.5 Q272.4844,58.5 271.8438,58.8281 Q271.2188,59.1563 270.7188,59.9063 Q270.2344,60.6563 270.2344,61.6875 L270.2344,62.7813 Q270.2344,64.0156 271.125,64.8438 Q272.0156,65.6563 273.6094,65.6563 Q274.5469,65.6563 275.2031,65.4063 Q275.5938,65.25 276.0156,64.8125 Q276.2813,64.5469 276.4219,64.4688 Q276.5781,64.3906 276.7813,64.3906 Q277.1094,64.3906 277.3594,64.6563 Q277.625,64.9063 277.625,65.25 Q277.625,65.5938 277.2813,66 Q276.7813,66.5781 275.9844,66.9063 Q274.9063,67.3594 273.6094,67.3594 Q272.0938,67.3594 270.8906,66.7344 Q269.9063,66.2344 269.2188,65.1719 Q268.5313,64.0938 268.5313,62.8125 L268.5313,61.6563 Q268.5313,60.3281 269.1406,59.1875 Q269.7656,58.0313 270.8594,57.4219 Q271.9531,56.7969 273.1875,56.7969 Q273.9219,56.7969 274.5625,56.9688 Q275.2188,57.125 275.7656,57.4844 Z " fill="#000000"/><text fill="#000000" font-family="sans-serif" font-size="14" lengthAdjust="spacing" textLength="42" x="287" y="67.3379">&#21033;&#29992;&#32773;</text><line style="stroke:#181818;stroke-width:0.5;" x1="259" x2="331" y1="77.6094" y2="77.6094"/><line style="stroke:#181818;stroke-width:0.5;" x1="259" x2="331" y1="85.6094" y2="85.6094"/></g><!--class ???--><g class="entity" data-qualified-name="..." data-source-line="4" id="ent0002"><rect fill="#F1F1F1" height="48" rx="2.5" ry="2.5" style="stroke:#181818;stroke-width:0.5;" width="74" x="99" y="45.6094"/><ellipse cx="114" cy="61.6094" fill="#ADD1B2" rx="11" ry="11" style="stroke:#181818;stroke-width:1;"/><path d="M116.7656,57.4844 Q116.9219,57.2656 117.1094,57.1563 Q117.2969,57.0469 117.5156,57.0469 Q117.8906,57.0469 118.125,57.3125 Q118.3594,57.5625 118.3594,58.1719 L118.3594,59.625 Q118.3594,60.2344 118.125,60.5 Q117.8906,60.7656 117.5156,60.7656 Q117.1719,60.7656 116.9688,60.5625 Q116.7656,60.375 116.6563,59.8594 Q116.6094,59.5 116.4219,59.3125 Q116.0938,58.9375 115.4844,58.7188 Q114.875,58.5 114.25,58.5 Q113.4844,58.5 112.8438,58.8281 Q112.2188,59.1563 111.7188,59.9063 Q111.2344,60.6563 111.2344,61.6875 L111.2344,62.7813 Q111.2344,64.0156 112.125,64.8438 Q113.0156,65.6563 114.6094,65.6563 Q115.5469,65.6563 116.2031,65.4063 Q116.5938,65.25 117.0156,64.8125 Q117.2813,64.5469 117.4219,64.4688 Q117.5781,64.3906 117.7813,64.3906 Q118.1094,64.3906 118.3594,64.6563 Q118.625,64.9063 118.625,65.25 Q118.625,65.5938 118.2813,66 Q117.7813,66.5781 116.9844,66.9063 Q115.9063,67.3594 114.6094,67.3594 Q113.0938,67.3594 111.8906,66.7344 Q110.9063,66.2344 110.2188,65.1719 Q109.5313,64.0938 109.5313,62.8125 L109.5313,61.6563 Q109.5313,60.3281 110.1406,59.1875 Q110.7656,58.0313 111.8594,57.4219 Q112.9531,56.7969 114.1875,56.7969 Q114.9219,56.7969 115.5625,56.9688 Q116.2188,57.125 116.7656,57.4844 Z " fill="#000000"/><text fill="#000000" font-family="sans-serif" font-size="14" lengthAdjust="spacing" textLength="42" x="128" y="67.3379">&#12507;&#12486;&#12523;</text><line style="stroke:#181818;stroke-width:0.5;" x1="100" x2="172" y1="77.6094" y2="77.6094"/><line style="stroke:#181818;stroke-width:0.5;" x1="100" x2="172" y1="85.6094" y2="85.6094"/></g><!--class ??--><g class="entity" data-qualified-name=".." data-source-line="5" id="ent0003"><rect fill="#F1F1F1" height="48" rx="2.5" ry="2.5" style="stroke:#181818;stroke-width:0.5;" width="60" x="7" y="327.6094"/><ellipse cx="22" cy="343.6094" fill="#ADD1B2" rx="11" ry="11" style="stroke:#181818;stroke-width:1;"/><path d="M24.7656,339.4844 Q24.9219,339.2656 25.1094,339.1563 Q25.2969,339.0469 25.5156,339.0469 Q25.8906,339.0469 26.125,339.3125 Q26.3594,339.5625 26.3594,340.1719 L26.3594,341.625 Q26.3594,342.2344 26.125,342.5 Q25.8906,342.7656 25.5156,342.7656 Q25.1719,342.7656 24.9688,342.5625 Q24.7656,342.375 24.6563,341.8594 Q24.6094,341.5 24.4219,341.3125 Q24.0938,340.9375 23.4844,340.7188 Q22.875,340.5 22.25,340.5 Q21.4844,340.5 20.8438,340.8281 Q20.2188,341.1563 19.7188,341.9063 Q19.2344,342.6563 19.2344,343.6875 L19.2344,344.7813 Q19.2344,346.0156 20.125,346.8438 Q21.0156,347.6563 22.6094,347.6563 Q23.5469,347.6563 24.2031,347.4063 Q24.5938,347.25 25.0156,346.8125 Q25.2813,346.5469 25.4219,346.4688 Q25.5781,346.3906 25.7813,346.3906 Q26.1094,346.3906 26.3594,346.6563 Q26.625,346.9063 26.625,347.25 Q26.625,347.5938 26.2813,348 Q25.7813,348.5781 24.9844,348.9063 Q23.9063,349.3594 22.6094,349.3594 Q21.0938,349.3594 19.8906,348.7344 Q18.9063,348.2344 18.2188,347.1719 Q17.5313,346.0938 17.5313,344.8125 L17.5313,343.6563 Q17.5313,342.3281 18.1406,341.1875 Q18.7656,340.0313 19.8594,339.4219 Q20.9531,338.7969 22.1875,338.7969 Q22.9219,338.7969 23.5625,338.9688 Q24.2188,339.125 24.7656,339.4844 Z " fill="#000000"/><text fill="#000000" font-family="sans-serif" font-size="14" lengthAdjust="spacing" textLength="28" x="36" y="349.3379">&#23458;&#23460;</text><line style="stroke:#181818;stroke-width:0.5;" x1="8" x2="66" y1="359.6094" y2="359.6094"/><line style="stroke:#181818;stroke-width:0.5;" x1="8" x2="66" y1="367.6094" y2="367.6094"/></g><!--class ??--><g class="entity" data-qualified-name=".." data-source-line="6" id="ent0004"><rect fill="#F1F1F1" height="48" rx="2.5" ry="2.5" style="stroke:#181818;stroke-width:0.5;" width="60" x="158" y="171.6094"/><ellipse cx="173" cy="187.6094" fill="#ADD1B2" rx="11" ry="11" style="stroke:#181818;stroke-width:1;"/><path d="M175.7656,183.4844 Q175.9219,183.2656 176.1094,183.1563 Q176.2969,183.0469 176.5156,183.0469 Q176.8906,183.0469 177.125,183.3125 Q177.3594,183.5625 177.3594,184.1719 L177.3594,185.625 Q177.3594,186.2344 177.125,186.5 Q176.8906,186.7656 176.5156,186.7656 Q176.1719,186.7656 175.9688,186.5625 Q175.7656,186.375 175.6563,185.8594 Q175.6094,185.5 175.4219,185.3125 Q175.0938,184.9375 174.4844,184.7188 Q173.875,184.5 173.25,184.5 Q172.4844,184.5 171.8438,184.8281 Q171.2188,185.1563 170.7188,185.9063 Q170.2344,186.6563 170.2344,187.6875 L170.2344,188.7813 Q170.2344,190.0156 171.125,190.8438 Q172.0156,191.6563 173.6094,191.6563 Q174.5469,191.6563 175.2031,191.4063 Q175.5938,191.25 176.0156,190.8125 Q176.2813,190.5469 176.4219,190.4688 Q176.5781,190.3906 176.7813,190.3906 Q177.1094,190.3906 177.3594,190.6563 Q177.625,190.9063 177.625,191.25 Q177.625,191.5938 177.2813,192 Q176.7813,192.5781 175.9844,192.9063 Q174.9063,193.3594 173.6094,193.3594 Q172.0938,193.3594 170.8906,192.7344 Q169.9063,192.2344 169.2188,191.1719 Q168.5313,190.0938 168.5313,188.8125 L168.5313,187.6563 Q168.5313,186.3281 169.1406,185.1875 Q169.7656,184.0313 170.8594,183.4219 Q171.9531,182.7969 173.1875,182.7969 Q173.9219,182.7969 174.5625,182.9688 Q175.2188,183.125 175.7656,183.4844 Z " fill="#000000"/><text fill="#000000" font-family="sans-serif" font-size="14" lengthAdjust="spacing" textLength="28" x="187" y="193.3379">&#20104;&#32004;</text><line style="stroke:#181818;stroke-width:0.5;" x1="159" x2="217" y1="203.6094" y2="203.6094"/><line style="stroke:#181818;stroke-width:0.5;" x1="159" x2="217" y1="211.6094" y2="211.6094"/></g><!--class ?????--><g class="entity" data-qualified-name="....." data-source-line="7" id="ent0005"><rect fill="#F1F1F1" height="48" rx="2.5" ry="2.5" style="stroke:#181818;stroke-width:0.5;" width="102" x="253" y="171.6094"/><ellipse cx="268" cy="187.6094" fill="#ADD1B2" rx="11" ry="11" style="stroke:#181818;stroke-width:1;"/><path d="M270.7656,183.4844 Q270.9219,183.2656 271.1094,183.1563 Q271.2969,183.0469 271.5156,183.0469 Q271.8906,183.0469 272.125,183.3125 Q272.3594,183.5625 272.3594,184.1719 L272.3594,185.625 Q272.3594,186.2344 272.125,186.5 Q271.8906,186.7656 271.5156,186.7656 Q271.1719,186.7656 270.9688,186.5625 Q270.7656,186.375 270.6563,185.8594 Q270.6094,185.5 270.4219,185.3125 Q270.0938,184.9375 269.4844,184.7188 Q268.875,184.5 268.25,184.5 Q267.4844,184.5 266.8438,184.8281 Q266.2188,185.1563 265.7188,185.9063 Q265.2344,186.6563 265.2344,187.6875 L265.2344,188.7813 Q265.2344,190.0156 266.125,190.8438 Q267.0156,191.6563 268.6094,191.6563 Q269.5469,191.6563 270.2031,191.4063 Q270.5938,191.25 271.0156,190.8125 Q271.2813,190.5469 271.4219,190.4688 Q271.5781,190.3906 271.7813,190.3906 Q272.1094,190.3906 272.3594,190.6563 Q272.625,190.9063 272.625,191.25 Q272.625,191.5938 272.2813,192 Q271.7813,192.5781 270.9844,192.9063 Q269.9063,193.3594 268.6094,193.3594 Q267.0938,193.3594 265.8906,192.7344 Q264.9063,192.2344 264.2188,191.1719 Q263.5313,190.0938 263.5313,188.8125 L263.5313,187.6563 Q263.5313,186.3281 264.1406,185.1875 Q264.7656,184.0313 265.8594,183.4219 Q266.9531,182.7969 268.1875,182.7969 Q268.9219,182.7969 269.5625,182.9688 Q270.2188,183.125 270.7656,183.4844 Z " fill="#000000"/><text fill="#000000" font-family="sans-serif" font-size="14" lengthAdjust="spacing" textLength="70" x="282" y="193.3379">&#12501;&#12525;&#12531;&#12488;&#20418;</text><line style="stroke:#181818;stroke-width:0.5;" x1="254" x2="354" y1="203.6094" y2="203.6094"/><line style="stroke:#181818;stroke-width:0.5;" x1="254" x2="354" y1="211.6094" y2="211.6094"/></g><!--class ??????--><g class="entity" data-qualified-name="......" data-source-line="8" id="ent0006"><rect fill="#F1F1F1" height="48" rx="2.5" ry="2.5" style="stroke:#181818;stroke-width:0.5;" width="116" x="183" y="327.6094"/><ellipse cx="198" cy="343.6094" fill="#ADD1B2" rx="11" ry="11" style="stroke:#181818;stroke-width:1;"/><path d="M200.7656,339.4844 Q200.9219,339.2656 201.1094,339.1563 Q201.2969,339.0469 201.5156,339.0469 Q201.8906,339.0469 202.125,339.3125 Q202.3594,339.5625 202.3594,340.1719 L202.3594,341.625 Q202.3594,342.2344 202.125,342.5 Q201.8906,342.7656 201.5156,342.7656 Q201.1719,342.7656 200.9688,342.5625 Q200.7656,342.375 200.6563,341.8594 Q200.6094,341.5 200.4219,341.3125 Q200.0938,340.9375 199.4844,340.7188 Q198.875,340.5 198.25,340.5 Q197.4844,340.5 196.8438,340.8281 Q196.2188,341.1563 195.7188,341.9063 Q195.2344,342.6563 195.2344,343.6875 L195.2344,344.7813 Q195.2344,346.0156 196.125,346.8438 Q197.0156,347.6563 198.6094,347.6563 Q199.5469,347.6563 200.2031,347.4063 Q200.5938,347.25 201.0156,346.8125 Q201.2813,346.5469 201.4219,346.4688 Q201.5781,346.3906 201.7813,346.3906 Q202.1094,346.3906 202.3594,346.6563 Q202.625,346.9063 202.625,347.25 Q202.625,347.5938 202.2813,348 Q201.7813,348.5781 200.9844,348.9063 Q199.9063,349.3594 198.6094,349.3594 Q197.0938,349.3594 195.8906,348.7344 Q194.9063,348.2344 194.2188,347.1719 Q193.5313,346.0938 193.5313,344.8125 L193.5313,343.6563 Q193.5313,342.3281 194.1406,341.1875 Q194.7656,340.0313 195.8594,339.4219 Q196.9531,338.7969 198.1875,338.7969 Q198.9219,338.7969 199.5625,338.9688 Q200.2188,339.125 200.7656,339.4844 Z " fill="#000000"/><text fill="#000000" font-family="sans-serif" font-size="14" lengthAdjust="spacing" textLength="84" x="212" y="349.3379">&#12481;&#12455;&#12483;&#12463;&#12452;&#12531;</text><line style="stroke:#181818;stroke-width:0.5;" x1="184" x2="298" y1="359.6094" y2="359.6094"/><line style="stroke:#181818;stroke-width:0.5;" x1="184" x2="298" y1="367.6094" y2="367.6094"/></g><!--class ???????--><g class="entity" data-qualified-name="......." data-source-line="9" id="ent0007"><rect fill="#F1F1F1" height="48" rx="2.5" ry="2.5" style="stroke:#181818;stroke-width:0.5;" width="130" x="418" y="327.6094"/><ellipse cx="433" cy="343.6094" fill="#ADD1B2" rx="11" ry="11" style="stroke:#181818;stroke-width:1;"/><path d="M435.7656,339.4844 Q435.9219,339.2656 436.1094,339.1563 Q436.2969,339.0469 436.5156,339.0469 Q436.8906,339.0469 437.125,339.3125 Q437.3594,339.5625 437.3594,340.1719 L437.3594,341.625 Q437.3594,342.2344 437.125,342.5 Q436.8906,342.7656 436.5156,342.7656 Q436.1719,342.7656 435.9688,342.5625 Q435.7656,342.375 435.6563,341.8594 Q435.6094,341.5 435.4219,341.3125 Q435.0938,340.9375 434.4844,340.7188 Q433.875,340.5 433.25,340.5 Q432.4844,340.5 431.8438,340.8281 Q431.2188,341.1563 430.7188,341.9063 Q430.2344,342.6563 430.2344,343.6875 L430.2344,344.7813 Q430.2344,346.0156 431.125,346.8438 Q432.0156,347.6563 433.6094,347.6563 Q434.5469,347.6563 435.2031,347.4063 Q435.5938,347.25 436.0156,346.8125 Q436.2813,346.5469 436.4219,346.4688 Q436.5781,346.3906 436.7813,346.3906 Q437.1094,346.3906 437.3594,346.6563 Q437.625,346.9063 437.625,347.25 Q437.625,347.5938 437.2813,348 Q436.7813,348.5781 435.9844,348.9063 Q434.9063,349.3594 433.6094,349.3594 Q432.0938,349.3594 430.8906,348.7344 Q429.9063,348.2344 429.2188,347.1719 Q428.5313,346.0938 428.5313,344.8125 L428.5313,343.6563 Q428.5313,342.3281 429.1406,341.1875 Q429.7656,340.0313 430.8594,339.4219 Q431.9531,338.7969 433.1875,338.7969 Q433.9219,338.7969 434.5625,338.9688 Q435.2188,339.125 435.7656,339.4844 Z " fill="#000000"/><text fill="#000000" font-family="sans-serif" font-size="14" lengthAdjust="spacing" textLength="98" x="447" y="349.3379">&#12481;&#12455;&#12483;&#12463;&#12450;&#12454;&#12488;</text><line style="stroke:#181818;stroke-width:0.5;" x1="419" x2="547" y1="359.6094" y2="359.6094"/><line style="stroke:#181818;stroke-width:0.5;" x1="419" x2="547" y1="367.6094" y2="367.6094"/></g><!--class ????--><g class="entity" data-qualified-name="...." data-source-line="10" id="ent0008"><rect fill="#F1F1F1" height="48" rx="2.5" ry="2.5" style="stroke:#181818;stroke-width:0.5;" width="88" x="517" y="453.6094"/><ellipse cx="532" cy="469.6094" fill="#ADD1B2" rx="11" ry="11" style="stroke:#181818;stroke-width:1;"/><path d="M534.7656,465.4844 Q534.9219,465.2656 535.1094,465.1563 Q535.2969,465.0469 535.5156,465.0469 Q535.8906,465.0469 536.125,465.3125 Q536.3594,465.5625 536.3594,466.1719 L536.3594,467.625 Q536.3594,468.2344 536.125,468.5 Q535.8906,468.7656 535.5156,468.7656 Q535.1719,468.7656 534.9688,468.5625 Q534.7656,468.375 534.6563,467.8594 Q534.6094,467.5 534.4219,467.3125 Q534.0938,466.9375 533.4844,466.7188 Q532.875,466.5 532.25,466.5 Q531.4844,466.5 530.8438,466.8281 Q530.2188,467.1563 529.7188,467.9063 Q529.2344,468.6563 529.2344,469.6875 L529.2344,470.7813 Q529.2344,472.0156 530.125,472.8438 Q531.0156,473.6563 532.6094,473.6563 Q533.5469,473.6563 534.2031,473.4063 Q534.5938,473.25 535.0156,472.8125 Q535.2813,472.5469 535.4219,472.4688 Q535.5781,472.3906 535.7813,472.3906 Q536.1094,472.3906 536.3594,472.6563 Q536.625,472.9063 536.625,473.25 Q536.625,473.5938 536.2813,474 Q535.7813,474.5781 534.9844,474.9063 Q533.9063,475.3594 532.6094,475.3594 Q531.0938,475.3594 529.8906,474.7344 Q528.9063,474.2344 528.2188,473.1719 Q527.5313,472.0938 527.5313,470.8125 L527.5313,469.6563 Q527.5313,468.3281 528.1406,467.1875 Q528.7656,466.0313 529.8594,465.4219 Q530.9531,464.7969 532.1875,464.7969 Q532.9219,464.7969 533.5625,464.9688 Q534.2188,465.125 534.7656,465.4844 Z " fill="#000000"/><text fill="#000000" font-family="sans-serif" font-size="14" lengthAdjust="spacing" textLength="56" x="546" y="475.3379">&#23487;&#27850;&#26009;&#37329;</text><line style="stroke:#181818;stroke-width:0.5;" x1="518" x2="604" y1="485.6094" y2="485.6094"/><line style="stroke:#181818;stroke-width:0.5;" x1="518" x2="604" y1="493.6094" y2="493.6094"/></g><!--class ???--><g class="entity" data-qualified-name="..." data-source-line="11" id="ent0009"><rect fill="#F1F1F1" height="48" rx="2.5" ry="2.5" style="stroke:#181818;stroke-width:0.5;" width="74" x="581" y="249.6094"/><ellipse cx="596" cy="265.6094" fill="#ADD1B2" rx="11" ry="11" style="stroke:#181818;stroke-width:1;"/><path d="M598.7656,261.4844 Q598.9219,261.2656 599.1094,261.1563 Q599.2969,261.0469 599.5156,261.0469 Q599.8906,261.0469 600.125,261.3125 Q600.3594,261.5625 600.3594,262.1719 L600.3594,263.625 Q600.3594,264.2344 600.125,264.5 Q599.8906,264.7656 599.5156,264.7656 Q599.1719,264.7656 598.9688,264.5625 Q598.7656,264.375 598.6563,263.8594 Q598.6094,263.5 598.4219,263.3125 Q598.0938,262.9375 597.4844,262.7188 Q596.875,262.5 596.25,262.5 Q595.4844,262.5 594.8438,262.8281 Q594.2188,263.1563 593.7188,263.9063 Q593.2344,264.6563 593.2344,265.6875 L593.2344,266.7813 Q593.2344,268.0156 594.125,268.8438 Q595.0156,269.6563 596.6094,269.6563 Q597.5469,269.6563 598.2031,269.4063 Q598.5938,269.25 599.0156,268.8125 Q599.2813,268.5469 599.4219,268.4688 Q599.5781,268.3906 599.7813,268.3906 Q600.1094,268.3906 600.3594,268.6563 Q600.625,268.9063 600.625,269.25 Q600.625,269.5938 600.2813,270 Q599.7813,270.5781 598.9844,270.9063 Q597.9063,271.3594 596.6094,271.3594 Q595.0938,271.3594 593.8906,270.7344 Q592.9063,270.2344 592.2188,269.1719 Q591.5313,268.0938 591.5313,266.8125 L591.5313,265.6563 Q591.5313,264.3281 592.1406,263.1875 Q592.7656,262.0313 593.8594,261.4219 Q594.9531,260.7969 596.1875,260.7969 Q596.9219,260.7969 597.5625,260.9688 Q598.2188,261.125 598.7656,261.4844 Z " fill="#000000"/><text fill="#000000" font-family="sans-serif" font-size="14" lengthAdjust="spacing" textLength="42" x="610" y="271.3379">&#25903;&#25173;&#12356;</text><line style="stroke:#181818;stroke-width:0.5;" x1="582" x2="654" y1="281.6094" y2="281.6094"/><line style="stroke:#181818;stroke-width:0.5;" x1="582" x2="654" y1="289.6094" y2="289.6094"/></g><!--link ??? to ??--><g class="link" data-entity-1="ent0001" data-entity-2="ent0004" data-link-type="association" data-source-line="13" id="lnk10"><path codeLine="13" d="M257.64,88.2994 C242.37,97.0994 225.6,108.9994 214,123.6094 C202.98,137.4894 196.35,156.4694 192.55,171.3194" fill="none" id="&#21033;&#29992;&#32773;-&#20104;&#32004;" style="stroke:#181818;stroke-width:1;"/><polygon fill="#000000" points="215.915,136.72,223.8086,131.4151,219.183,127.7885,215.915,136.72" style="stroke:#000000;stroke-width:1;stroke-linejoin:miter;stroke-miterlimit:10;"/><text fill="#000000" font-family="sans-serif" font-size="13" lengthAdjust="spacing" textLength="26" x="228" y="138.1045">&#34892;&#12358;</text><text fill="#000000" font-family="sans-serif" font-size="13" lengthAdjust="spacing" textLength="7.23" x="242.873" y="87.8658">1</text><text fill="#000000" font-family="sans-serif" font-size="13" lengthAdjust="spacing" textLength="19.5127" x="172.3473" y="160.5852">0..*</text></g><!--link ?? to ??--><g class="link" data-entity-1="ent0004" data-entity-2="ent0003" data-link-type="association" data-source-line="14" id="lnk11"><path codeLine="14" d="M157.59,207.5294 C136.55,216.2994 109.03,230.3394 90,249.6094 C68.02,271.8694 52.98,305.1294 44.69,327.3294" fill="none" id="&#20104;&#32004;-&#23458;&#23460;" style="stroke:#181818;stroke-width:1;"/><polygon fill="#000000" points="91.5708,277.4239,99.9131,272.857,95.6355,268.8257,91.5708,277.4239" style="stroke:#000000;stroke-width:1;stroke-linejoin:miter;stroke-miterlimit:10;"/><text fill="#000000" font-family="sans-serif" font-size="13" lengthAdjust="spacing" textLength="65" x="104" y="279.1045">&#23550;&#35937;&#12392;&#12377;&#12427;</text><text fill="#000000" font-family="sans-serif" font-size="13" lengthAdjust="spacing" textLength="19.5127" x="130.4114" y="225.1692">0..*</text><text fill="#000000" font-family="sans-serif" font-size="13" lengthAdjust="spacing" textLength="7.23" x="47.5869" y="316.5978">1</text></g><!--link ??? to ??--><g class="link" data-entity-1="ent0002" data-entity-2="ent0003" data-link-type="association" data-source-line="15" id="lnk12"><path codeLine="15" d="M118.99,93.6394 C105.01,113.4594 85.54,143.2594 73,171.6094 C58.43,204.5494 58.38,214.3494 51,249.6094 C45.45,276.1194 41.53,307.0194 39.28,327.5894" fill="none" id="&#12507;&#12486;&#12523;-&#23458;&#23460;" style="stroke:#181818;stroke-width:1;"/><polygon fill="#000000" points="76.3875,200.518,82.0865,192.904,76.5227,191.0084,76.3875,200.518" style="stroke:#000000;stroke-width:1;stroke-linejoin:miter;stroke-miterlimit:10;"/><text fill="#000000" font-family="sans-serif" font-size="13" lengthAdjust="spacing" textLength="52" x="87" y="201.1045">&#25152;&#26377;&#12377;&#12427;</text><text fill="#000000" font-family="sans-serif" font-size="13" lengthAdjust="spacing" textLength="7.23" x="107.0187" y="114.9847">1</text><text fill="#000000" font-family="sans-serif" font-size="13" lengthAdjust="spacing" textLength="19.5127" x="18.4956" y="316.9244">1..*</text></g><!--link ??? to ?????--><g class="link" data-entity-1="ent0002" data-entity-2="ent0005" data-link-type="association" data-source-line="16" id="lnk13"><path codeLine="16" d="M173.06,80.1994 C199.28,88.4094 234.06,102.3294 259,123.6094 C274.32,136.6794 286.2,156.2894 293.9,171.5894" fill="none" id="&#12507;&#12486;&#12523;-&#12501;&#12525;&#12531;&#12488;&#20418;" style="stroke:#181818;stroke-width:1;"/><polygon fill="#000000" points="283.9879,135.8012,278.5465,128.0011,275.0009,132.6892,283.9879,135.8012" style="stroke:#000000;stroke-width:1;stroke-linejoin:miter;stroke-miterlimit:10;"/><text fill="#000000" font-family="sans-serif" font-size="13" lengthAdjust="spacing" textLength="52" x="289" y="138.1045">&#38599;&#29992;&#12377;&#12427;</text><text fill="#000000" font-family="sans-serif" font-size="13" lengthAdjust="spacing" textLength="7.23" x="181.0679" y="78.239">1</text><text fill="#000000" font-family="sans-serif" font-size="13" lengthAdjust="spacing" textLength="19.5127" x="269.9432" y="160.9244">0..*</text></g><!--link ?? to ??????--><g class="link" data-entity-1="ent0004" data-entity-2="ent0006" data-link-type="association" data-source-line="18" id="lnk14"><path codeLine="18" d="M181.95,219.7094 C177.62,240.8794 174.25,272.6294 185,297.6094 C189.92,309.0394 198.66,319.1694 207.79,327.4194" fill="none" id="&#20104;&#32004;-&#12481;&#12455;&#12483;&#12463;&#12452;&#12531;" style="stroke:#181818;stroke-width:1;"/><polygon fill="#000000" points="191.1664,278.6472,191.9142,269.1661,186.1985,270.5373,191.1664,278.6472" style="stroke:#000000;stroke-width:1;stroke-linejoin:miter;stroke-miterlimit:10;"/><text fill="#000000" font-family="sans-serif" font-size="13" lengthAdjust="spacing" textLength="52" x="199" y="279.1045">&#30906;&#23450;&#12377;&#12427;</text><text fill="#000000" font-family="sans-serif" font-size="13" lengthAdjust="spacing" textLength="7.23" x="172.6502" y="241.0717">1</text><text fill="#000000" font-family="sans-serif" font-size="13" lengthAdjust="spacing" textLength="21.6836" x="175.6769" y="316.7108">0..1</text></g><!--link ?? to ???????--><g class="link" data-entity-1="ent0004" data-entity-2="ent0007" data-link-type="association" data-source-line="19" id="lnk15"><path codeLine="19" d="M218.18,212.5494 C223.69,215.1194 229.45,217.5994 235,219.6094 C287.49,238.6594 310.02,219.4194 357,249.6094 C379.89,264.3194 374.57,279.6394 395,297.6094 C407.72,308.7994 423.12,318.9894 437.45,327.3694" fill="none" id="&#20104;&#32004;-&#12481;&#12455;&#12483;&#12463;&#12450;&#12454;&#12488;" style="stroke:#181818;stroke-width:1;"/><polygon fill="#000000" points="404.4295,276.1046,397.7798,269.3051,395.0531,274.5122,404.4295,276.1046" style="stroke:#000000;stroke-width:1;stroke-linejoin:miter;stroke-miterlimit:10;"/><text fill="#000000" font-family="sans-serif" font-size="13" lengthAdjust="spacing" textLength="52" x="409" y="279.1045">&#23436;&#20102;&#12377;&#12427;</text><text fill="#000000" font-family="sans-serif" font-size="13" lengthAdjust="spacing" textLength="7.23" x="225.9951" y="212.1525">1</text><text fill="#000000" font-family="sans-serif" font-size="13" lengthAdjust="spacing" textLength="21.6836" x="402.1748" y="316.648">0..1</text></g><!--link ????? to ??????--><g class="link" data-entity-1="ent0005" data-entity-2="ent0006" data-link-type="association" data-source-line="20" id="lnk16"><path codeLine="20" d="M294.57,219.6694 C282.69,248.6994 262.4,298.2894 250.5,327.3994" fill="none" id="&#12501;&#12525;&#12531;&#12488;&#20418;-&#12481;&#12455;&#12483;&#12463;&#12452;&#12531;" style="stroke:#181818;stroke-width:1;"/><polygon fill="#000000" points="285.1069,278.4129,291.2517,271.154,285.8114,268.9285,285.1069,278.4129" style="stroke:#000000;stroke-width:1;stroke-linejoin:miter;stroke-miterlimit:10;"/><text fill="#000000" font-family="sans-serif" font-size="13" lengthAdjust="spacing" textLength="52" x="296" y="279.1045">&#25285;&#24403;&#12377;&#12427;</text><text fill="#000000" font-family="sans-serif" font-size="13" lengthAdjust="spacing" textLength="7.23" x="284.4463" y="241.022">1</text><text fill="#000000" font-family="sans-serif" font-size="13" lengthAdjust="spacing" textLength="19.5127" x="231.5657" y="316.6857">0..*</text></g><!--link ????? to ???????--><g class="link" data-entity-1="ent0005" data-entity-2="ent0007" data-link-type="association" data-source-line="21" id="lnk17"><path codeLine="21" d="M355.33,211.5494 C402.65,225.5394 466.14,244.9794 470,249.6094 C488,271.1994 488.65,304.9294 486.57,327.3994" fill="none" id="&#12501;&#12525;&#12531;&#12488;&#20418;-&#12481;&#12455;&#12483;&#12463;&#12450;&#12454;&#12488;" style="stroke:#181818;stroke-width:1;"/><polygon fill="#000000" points="494.7485,277.0941,489.9123,268.9049,486.0225,273.3115,494.7485,277.0941" style="stroke:#000000;stroke-width:1;stroke-linejoin:miter;stroke-miterlimit:10;"/><text fill="#000000" font-family="sans-serif" font-size="13" lengthAdjust="spacing" textLength="52" x="500" y="279.1045">&#25285;&#24403;&#12377;&#12427;</text><text fill="#000000" font-family="sans-serif" font-size="13" lengthAdjust="spacing" textLength="7.23" x="363.0566" y="210.1858">1</text><text fill="#000000" font-family="sans-serif" font-size="13" lengthAdjust="spacing" textLength="19.5127" x="466.1161" y="316.6857">0..*</text></g><!--link ??????? to ????--><g class="link" data-entity-1="ent0007" data-entity-2="ent0008" data-link-type="association" data-source-line="22" id="lnk18"><path codeLine="22" d="M496.26,375.8494 C504.35,389.8294 515.02,407.8894 525,423.6094 C531.32,433.5694 538.58,444.3594 544.91,453.5994" fill="none" id="&#12481;&#12455;&#12483;&#12463;&#12450;&#12454;&#12488;-&#23487;&#27850;&#26009;&#37329;" style="stroke:#181818;stroke-width:1;"/><polygon fill="#000000" points="532.6522,419.0238,530.3457,409.7971,525.3629,412.915,532.6522,419.0238" style="stroke:#000000;stroke-width:1;stroke-linejoin:miter;stroke-miterlimit:10;"/><text fill="#000000" font-family="sans-serif" font-size="13" lengthAdjust="spacing" textLength="52" x="539" y="420.1045">&#30906;&#23450;&#12377;&#12427;</text><text fill="#000000" font-family="sans-serif" font-size="13" lengthAdjust="spacing" textLength="7.23" x="491.667" y="397.2458">1</text><text fill="#000000" font-family="sans-serif" font-size="13" lengthAdjust="spacing" textLength="7.23" x="532.9195" y="442.937">1</text></g><!--link ??? to ???--><g class="link" data-entity-1="ent0001" data-entity-2="ent0009" data-link-type="association" data-source-line="23" id="lnk19"><path codeLine="23" d="M332.05,93.7794 C394.19,132.6394 518.7,210.5094 580.88,249.3994" fill="none" id="&#21033;&#29992;&#32773;-&#25903;&#25173;&#12356;" style="stroke:#181818;stroke-width:1;"/><polygon fill="#000000" points="411.2392,135.4364,405.1288,128.1485,402.012,133.132,411.2392,135.4364" style="stroke:#000000;stroke-width:1;stroke-linejoin:miter;stroke-miterlimit:10;"/><text fill="#000000" font-family="sans-serif" font-size="13" lengthAdjust="spacing" textLength="26" x="416" y="138.1045">&#34892;&#12358;</text><text fill="#000000" font-family="sans-serif" font-size="13" lengthAdjust="spacing" textLength="7.23" x="333.2558" y="115.1588">1</text><text fill="#000000" font-family="sans-serif" font-size="13" lengthAdjust="spacing" textLength="19.5127" x="553.6215" y="241.1884">0..*</text></g><!--link ??? to ????--><g class="link" data-entity-1="ent0009" data-entity-2="ent0008" data-link-type="association" data-source-line="24" id="lnk20"><path codeLine="24" d="M617.67,297.8594 C616.55,327.8594 612.2,381.2294 596,423.6094 C591.98,434.1194 585.61,444.6594 579.4,453.5494" fill="none" id="&#25903;&#25173;&#12356;-&#23487;&#27850;&#26009;&#37329;" style="stroke:#181818;stroke-width:1;"/><polygon fill="#000000" points="618.8065,356.6406,623.8195,348.5585,618.1116,347.1555,618.8065,356.6406" style="stroke:#000000;stroke-width:1;stroke-linejoin:miter;stroke-miterlimit:10;"/><text fill="#000000" font-family="sans-serif" font-size="13" lengthAdjust="spacing" textLength="65" x="629" y="357.1045">&#23550;&#35937;&#12392;&#12377;&#12427;</text><text fill="#000000" font-family="sans-serif" font-size="13" lengthAdjust="spacing" textLength="21.6836" x="594.1135" y="319.2583">0..1</text><text fill="#000000" font-family="sans-serif" font-size="13" lengthAdjust="spacing" textLength="7.23" x="576.2476" y="442.8742">1</text></g><?plantuml-src dLBBJi905DttAoQpKfCIktNXlnZZmeGTV02T2tq82unWWXYJDWGXnZQckh29yZ6tCvI_S0hZyAh6k9nxpxddt3EtVbclNX047o50Da98kEU8Xoun2R8OOOhidG-J0p5cVFQ642Au24-7Xd5UFQlL2FUcyzuaRxJK6s68u4Z4TpyAUJHIZoprvgzDZUmZF4j112-RCLsraJqYGA6-z5FQ296D9K-Bp4Ho9Mu72_TQbKGl5duVxQPXQ8k4MfIO9g77bSeHLMx82Sc33jeEEJLKHVKBf2IiDf0m7d_cBm7Q4xG7oDeIhvVLawqbKrE4tn3t_Y_ubT9E59Au6BhIioPgPskQHKkoainvcFBeJZF_G5HP5Xj6dInrDknkszerNQ8ksYt-SVEl2MiRUqFAO3fnklNz-mdyzFtwGZOlO5rKKPLBx9_25m00?></g></svg>