<svg xmlns="http://www.w3.org/2000/svg" xmlns:xlink="http://www.w3.org/1999/xlink" contentStyleType="text/css" data-diagram-type="CLASS" height="1358px" preserveAspectRatio="none" style="width:1236px;height:1358px;background:#FFFFFF;" version="1.1" viewBox="0 0 1236 1358" width="1236px" zoomAndPan="magnify"><?plantuml 1.2026.6?><defs/><g><g class="title" data-source-line="1"><text fill="#000000" font-family="sans-serif" font-size="14" font-weight="700" lengthAdjust="spacing" textLength="281.6406" x="473.9893" y="24.5332">&#12471;&#12473;&#12486;&#12512;&#20998;&#26512; - &#12463;&#12521;&#12473;&#22259;(&#12471;&#12473;&#12486;&#12512;&#20869;&#37096;&#27083;&#36896;)</text></g><!--class Guest--><g class="entity" data-qualified-name="Guest" data-source-line="3" id="ent0001"><rect fill="#F1F1F1" height="118.4375" rx="2.5" ry="2.5" style="stroke:#181818;stroke-width:0.5;" width="444.6191" x="777" y="421.6094"/><ellipse cx="976.3838" cy="437.6094" fill="#ADD1B2" rx="11" ry="11" style="stroke:#181818;stroke-width:1;"/><path d="M979.1494,433.4844 Q979.3057,433.2656 979.4932,433.1563 Q979.6807,433.0469 979.8994,433.0469 Q980.2744,433.0469 980.5088,433.3125 Q980.7432,433.5625 980.7432,434.1719 L980.7432,435.625 Q980.7432,436.2344 980.5088,436.5 Q980.2744,436.7656 979.8994,436.7656 Q979.5557,436.7656 979.3525,436.5625 Q979.1494,436.375 979.04,435.8594 Q978.9932,435.5 978.8057,435.3125 Q978.4775,434.9375 977.8682,434.7188 Q977.2588,434.5 976.6338,434.5 Q975.8682,434.5 975.2275,434.8281 Q974.6025,435.1563 974.1025,435.9063 Q973.6182,436.6563 973.6182,437.6875 L973.6182,438.7813 Q973.6182,440.0156 974.5088,440.8438 Q975.3994,441.6563 976.9932,441.6563 Q977.9307,441.6563 978.5869,441.4063 Q978.9775,441.25 979.3994,440.8125 Q979.665,440.5469 979.8057,440.4688 Q979.9619,440.3906 980.165,440.3906 Q980.4932,440.3906 980.7432,440.6563 Q981.0088,440.9063 981.0088,441.25 Q981.0088,441.5938 980.665,442 Q980.165,442.5781 979.3682,442.9063 Q978.29,443.3594 976.9932,443.3594 Q975.4775,443.3594 974.2744,442.7344 Q973.29,442.2344 972.6025,441.1719 Q971.915,440.0938 971.915,438.8125 L971.915,437.6563 Q971.915,436.3281 972.5244,435.1875 Q973.1494,434.0313 974.2432,433.4219 Q975.3369,432.7969 976.5713,432.7969 Q977.3057,432.7969 977.9463,432.9688 Q978.6025,433.125 979.1494,433.4844 Z " fill="#000000"/><text fill="#000000" font-family="sans-serif" font-size="14" lengthAdjust="spacing" textLength="37.3516" x="996.8838" y="443.3379">Guest</text><line style="stroke:#181818;stroke-width:0.5;" x1="778" x2="1220.6191" y1="453.6094" y2="453.6094"/><g data-visibility-modifier="PRIVATE_FIELD"><rect fill="none" height="6" style="stroke:#C82930;stroke-width:1;" width="6" x="785" y="464.9141"/></g><text fill="#000000" font-family="sans-serif" font-size="14" lengthAdjust="spacing" textLength="94.165" x="797" y="472.1426">guestId : String</text><g data-visibility-modifier="PRIVATE_FIELD"><rect fill="none" height="6" style="stroke:#C82930;stroke-width:1;" width="6" x="785" y="482.5234"/></g><text fill="#000000" font-family="sans-serif" font-size="14" lengthAdjust="spacing" textLength="83.2617" x="797" y="489.752">name : String</text><g data-visibility-modifier="PRIVATE_FIELD"><rect fill="none" height="6" style="stroke:#C82930;stroke-width:1;" width="6" x="785" y="500.1328"/></g><text fill="#000000" font-family="sans-serif" font-size="14" lengthAdjust="spacing" textLength="93.3789" x="797" y="507.3613">contact : String</text><line style="stroke:#181818;stroke-width:0.5;" x1="778" x2="1220.6191" y1="514.4375" y2="514.4375"/><g data-visibility-modifier="PUBLIC_METHOD"><ellipse cx="788" cy="528.7422" fill="#84BE84" rx="3" ry="3" style="stroke:#038048;stroke-width:1;"/></g><text fill="#000000" font-family="sans-serif" font-size="14" lengthAdjust="spacing" textLength="418.6191" x="797" y="532.9707">makeReservation(room, checkInDate, checkOutDate) : Reservation</text></g><!--class FrontDeskStaff--><g class="entity" data-qualified-name="FrontDeskStaff" data-source-line="10" id="ent0002"><rect fill="#F1F1F1" height="136.0469" rx="2.5" ry="2.5" style="stroke:#181818;stroke-width:0.5;" width="332.5781" x="290" y="207.6094"/><ellipse cx="405.3564" cy="223.6094" fill="#ADD1B2" rx="11" ry="11" style="stroke:#181818;stroke-width:1;"/><path d="M408.1221,219.4844 Q408.2783,219.2656 408.4658,219.1563 Q408.6533,219.0469 408.8721,219.0469 Q409.2471,219.0469 409.4814,219.3125 Q409.7158,219.5625 409.7158,220.1719 L409.7158,221.625 Q409.7158,222.2344 409.4814,222.5 Q409.2471,222.7656 408.8721,222.7656 Q408.5283,222.7656 408.3252,222.5625 Q408.1221,222.375 408.0127,221.8594 Q407.9658,221.5 407.7783,221.3125 Q407.4502,220.9375 406.8408,220.7188 Q406.2314,220.5 405.6064,220.5 Q404.8408,220.5 404.2002,220.8281 Q403.5752,221.1563 403.0752,221.9063 Q402.5908,222.6563 402.5908,223.6875 L402.5908,224.7813 Q402.5908,226.0156 403.4814,226.8438 Q404.3721,227.6563 405.9658,227.6563 Q406.9033,227.6563 407.5596,227.4063 Q407.9502,227.25 408.3721,226.8125 Q408.6377,226.5469 408.7783,226.4688 Q408.9346,226.3906 409.1377,226.3906 Q409.4658,226.3906 409.7158,226.6563 Q409.9814,226.9063 409.9814,227.25 Q409.9814,227.5938 409.6377,228 Q409.1377,228.5781 408.3408,228.9063 Q407.2627,229.3594 405.9658,229.3594 Q404.4502,229.3594 403.2471,228.7344 Q402.2627,228.2344 401.5752,227.1719 Q400.8877,226.0938 400.8877,224.8125 L400.8877,223.6563 Q400.8877,222.3281 401.4971,221.1875 Q402.1221,220.0313 403.2158,219.4219 Q404.3096,218.7969 405.5439,218.7969 Q406.2783,218.7969 406.9189,218.9688 Q407.5752,219.125 408.1221,219.4844 Z " fill="#000000"/><text fill="#000000" font-family="sans-serif" font-size="14" lengthAdjust="spacing" textLength="93.3652" x="425.8564" y="229.3379">FrontDeskStaff</text><line style="stroke:#181818;stroke-width:0.5;" x1="291" x2="621.5781" y1="239.6094" y2="239.6094"/><g data-visibility-modifier="PRIVATE_FIELD"><rect fill="none" height="6" style="stroke:#C82930;stroke-width:1;" width="6" x="298" y="250.9141"/></g><text fill="#000000" font-family="sans-serif" font-size="14" lengthAdjust="spacing" textLength="86.3721" x="310" y="258.1426">staffId : String</text><g data-visibility-modifier="PRIVATE_FIELD"><rect fill="none" height="6" style="stroke:#C82930;stroke-width:1;" width="6" x="298" y="268.5234"/></g><text fill="#000000" font-family="sans-serif" font-size="14" lengthAdjust="spacing" textLength="83.2617" x="310" y="275.752">name : String</text><line style="stroke:#181818;stroke-width:0.5;" x1="291" x2="621.5781" y1="282.8281" y2="282.8281"/><g data-visibility-modifier="PUBLIC_METHOD"><ellipse cx="301" cy="297.1328" fill="#84BE84" rx="3" ry="3" style="stroke:#038048;stroke-width:1;"/></g><text fill="#000000" font-family="sans-serif" font-size="14" lengthAdjust="spacing" textLength="187.5166" x="310" y="301.3613">checkIn(reservationId) : Room</text><g data-visibility-modifier="PUBLIC_METHOD"><ellipse cx="301" cy="314.7422" fill="#84BE84" rx="3" ry="3" style="stroke:#038048;stroke-width:1;"/></g><text fill="#000000" font-family="sans-serif" font-size="14" lengthAdjust="spacing" textLength="206.9785" x="310" y="318.9707">checkOut(reservationId) : Charge</text><g data-visibility-modifier="PUBLIC_METHOD"><ellipse cx="301" cy="332.3516" fill="#84BE84" rx="3" ry="3" style="stroke:#038048;stroke-width:1;"/></g><text fill="#000000" font-family="sans-serif" font-size="14" lengthAdjust="spacing" textLength="306.5781" x="310" y="336.5801">recordPayment(reservationId, method) : Payment</text></g><!--class Hotel--><g class="entity" data-qualified-name="Hotel" data-source-line="18" id="ent0003"><rect fill="#F1F1F1" height="100.8281" rx="2.5" ry="2.5" style="stroke:#181818;stroke-width:0.5;" width="420.5156" x="7" y="45.6094"/><ellipse cx="196.6665" cy="61.6094" fill="#ADD1B2" rx="11" ry="11" style="stroke:#181818;stroke-width:1;"/><path d="M199.4321,57.4844 Q199.5884,57.2656 199.7759,57.1563 Q199.9634,57.0469 200.1821,57.0469 Q200.5571,57.0469 200.7915,57.3125 Q201.0259,57.5625 201.0259,58.1719 L201.0259,59.625 Q201.0259,60.2344 200.7915,60.5 Q200.5571,60.7656 200.1821,60.7656 Q199.8384,60.7656 199.6353,60.5625 Q199.4321,60.375 199.3228,59.8594 Q199.2759,59.5 199.0884,59.3125 Q198.7603,58.9375 198.1509,58.7188 Q197.5415,58.5 196.9165,58.5 Q196.1509,58.5 195.5103,58.8281 Q194.8853,59.1563 194.3853,59.9063 Q193.9009,60.6563 193.9009,61.6875 L193.9009,62.7813 Q193.9009,64.0156 194.7915,64.8438 Q195.6821,65.6563 197.2759,65.6563 Q198.2134,65.6563 198.8696,65.4063 Q199.2603,65.25 199.6821,64.8125 Q199.9478,64.5469 200.0884,64.4688 Q200.2446,64.3906 200.4478,64.3906 Q200.7759,64.3906 201.0259,64.6563 Q201.2915,64.9063 201.2915,65.25 Q201.2915,65.5938 200.9478,66 Q200.4478,66.5781 199.6509,66.9063 Q198.5728,67.3594 197.2759,67.3594 Q195.7603,67.3594 194.5571,66.7344 Q193.5728,66.2344 192.8853,65.1719 Q192.1978,64.0938 192.1978,62.8125 L192.1978,61.6563 Q192.1978,60.3281 192.8071,59.1875 Q193.4321,58.0313 194.5259,57.4219 Q195.6196,56.7969 196.854,56.7969 Q197.5884,56.7969 198.229,56.9688 Q198.8853,57.125 199.4321,57.4844 Z " fill="#000000"/><text fill="#000000" font-family="sans-serif" font-size="14" lengthAdjust="spacing" textLength="32.6826" x="217.1665" y="67.3379">Hotel</text><line style="stroke:#181818;stroke-width:0.5;" x1="8" x2="426.5156" y1="77.6094" y2="77.6094"/><g data-visibility-modifier="PRIVATE_FIELD"><rect fill="none" height="6" style="stroke:#C82930;stroke-width:1;" width="6" x="15" y="88.9141"/></g><text fill="#000000" font-family="sans-serif" font-size="14" lengthAdjust="spacing" textLength="90.2754" x="27" y="96.1426">hotelId : String</text><g data-visibility-modifier="PRIVATE_FIELD"><rect fill="none" height="6" style="stroke:#C82930;stroke-width:1;" width="6" x="15" y="106.5234"/></g><text fill="#000000" font-family="sans-serif" font-size="14" lengthAdjust="spacing" textLength="83.2617" x="27" y="113.752">name : String</text><line style="stroke:#181818;stroke-width:0.5;" x1="8" x2="426.5156" y1="120.8281" y2="120.8281"/><g data-visibility-modifier="PUBLIC_METHOD"><ellipse cx="18" cy="135.1328" fill="#84BE84" rx="3" ry="3" style="stroke:#038048;stroke-width:1;"/></g><text fill="#000000" font-family="sans-serif" font-size="14" lengthAdjust="spacing" textLength="394.5156" x="27" y="139.3613">findAvailableRooms(checkInDate, checkOutDate) : List&lt;Room&gt;</text></g><!--class Room--><g class="entity" data-qualified-name="Room" data-source-line="24" id="ent0004"><rect fill="#F1F1F1" height="118.4375" rx="2.5" ry="2.5" style="stroke:#181818;stroke-width:0.5;" width="163.7441" x="239.5" y="866.6094"/><ellipse cx="298.4497" cy="882.6094" fill="#ADD1B2" rx="11" ry="11" style="stroke:#181818;stroke-width:1;"/><path d="M301.2153,878.4844 Q301.3716,878.2656 301.5591,878.1563 Q301.7466,878.0469 301.9653,878.0469 Q302.3403,878.0469 302.5747,878.3125 Q302.8091,878.5625 302.8091,879.1719 L302.8091,880.625 Q302.8091,881.2344 302.5747,881.5 Q302.3403,881.7656 301.9653,881.7656 Q301.6216,881.7656 301.4185,881.5625 Q301.2153,881.375 301.106,880.8594 Q301.0591,880.5 300.8716,880.3125 Q300.5435,879.9375 299.9341,879.7188 Q299.3247,879.5 298.6997,879.5 Q297.9341,879.5 297.2935,879.8281 Q296.6685,880.1563 296.1685,880.9063 Q295.6841,881.6563 295.6841,882.6875 L295.6841,883.7813 Q295.6841,885.0156 296.5747,885.8438 Q297.4653,886.6563 299.0591,886.6563 Q299.9966,886.6563 300.6528,886.4063 Q301.0435,886.25 301.4653,885.8125 Q301.731,885.5469 301.8716,885.4688 Q302.0278,885.3906 302.231,885.3906 Q302.5591,885.3906 302.8091,885.6563 Q303.0747,885.9063 303.0747,886.25 Q303.0747,886.5938 302.731,887 Q302.231,887.5781 301.4341,887.9063 Q300.356,888.3594 299.0591,888.3594 Q297.5435,888.3594 296.3403,887.7344 Q295.356,887.2344 294.6685,886.1719 Q293.981,885.0938 293.981,883.8125 L293.981,882.6563 Q293.981,881.3281 294.5903,880.1875 Q295.2153,879.0313 296.3091,878.4219 Q297.4028,877.7969 298.6372,877.7969 Q299.3716,877.7969 300.0122,877.9688 Q300.6685,878.125 301.2153,878.4844 Z " fill="#000000"/><text fill="#000000" font-family="sans-serif" font-size="14" lengthAdjust="spacing" textLength="37.3447" x="318.9497" y="888.3379">Room</text><line style="stroke:#181818;stroke-width:0.5;" x1="240.5" x2="402.2441" y1="898.6094" y2="898.6094"/><g data-visibility-modifier="PRIVATE_FIELD"><rect fill="none" height="6" style="stroke:#C82930;stroke-width:1;" width="6" x="247.5" y="909.9141"/></g><text fill="#000000" font-family="sans-serif" font-size="14" lengthAdjust="spacing" textLength="129.9307" x="259.5" y="917.1426">roomNumber : String</text><g data-visibility-modifier="PRIVATE_FIELD"><rect fill="none" height="6" style="stroke:#C82930;stroke-width:1;" width="6" x="247.5" y="927.5234"/></g><text fill="#000000" font-family="sans-serif" font-size="14" lengthAdjust="spacing" textLength="111.2617" x="259.5" y="934.752">roomType : String</text><g data-visibility-modifier="PRIVATE_FIELD"><rect fill="none" height="6" style="stroke:#C82930;stroke-width:1;" width="6" x="247.5" y="945.1328"/></g><text fill="#000000" font-family="sans-serif" font-size="14" lengthAdjust="spacing" textLength="126.0547" x="259.5" y="952.3613">status : RoomStatus</text><line style="stroke:#181818;stroke-width:0.5;" x1="240.5" x2="402.2441" y1="959.4375" y2="959.4375"/><g data-visibility-modifier="PUBLIC_METHOD"><ellipse cx="250.5" cy="973.7422" fill="#84BE84" rx="3" ry="3" style="stroke:#038048;stroke-width:1;"/></g><text fill="#000000" font-family="sans-serif" font-size="14" lengthAdjust="spacing" textLength="137.7441" x="259.5" y="977.9707">isAvailable() : boolean</text></g><!--class RoomStatus--><g class="entity" data-qualified-name="RoomStatus" data-source-line="31" id="ent0005"><rect fill="#F1F1F1" height="100.8281" rx="2.5" ry="2.5" style="stroke:#181818;stroke-width:0.5;" width="109.0342" x="267" y="1063.1094"/><ellipse cx="282" cy="1079.1094" fill="#EB937F" rx="11" ry="11" style="stroke:#181818;stroke-width:1;"/><path d="M280.8594,1079.9063 L280.8594,1082.4063 L285.1875,1082.4063 L285.1875,1081.4844 Q285.1875,1080.875 285.4219,1080.6094 Q285.6719,1080.3438 286.0469,1080.3438 Q286.4219,1080.3438 286.6563,1080.6094 Q286.8906,1080.875 286.8906,1081.4844 L286.8906,1084.1094 L278.8906,1084.1094 Q278.2656,1084.1094 278,1083.875 Q277.75,1083.6406 277.75,1083.25 Q277.75,1082.875 278.0156,1082.6406 Q278.2813,1082.4063 278.8906,1082.4063 L279.1563,1082.4063 L279.1563,1075.75 L278.8906,1075.75 Q278.2656,1075.75 278,1075.5156 Q277.75,1075.2813 277.75,1074.8906 Q277.75,1074.5156 278,1074.2813 Q278.2656,1074.0469 278.8906,1074.0469 L286.5156,1074.0469 L286.5156,1076.6406 Q286.5156,1077.25 286.2813,1077.5156 Q286.0625,1077.7656 285.6719,1077.7656 Q285.2969,1077.7656 285.0625,1077.5156 Q284.8281,1077.25 284.8281,1076.6406 L284.8281,1075.75 L280.8594,1075.75 L280.8594,1078.2031 L282.3438,1078.2031 Q282.3438,1077.5469 282.4688,1077.3594 Q282.7344,1076.9531 283.2031,1076.9531 Q283.5781,1076.9531 283.8125,1077.2188 Q284.0469,1077.4688 284.0469,1078.0781 L284.0469,1080.0469 Q284.0469,1080.5938 283.9219,1080.7813 Q283.6563,1081.1719 283.2031,1081.1719 Q282.7344,1081.1719 282.4688,1080.7656 Q282.3438,1080.5781 282.3438,1079.9063 L280.8594,1079.9063 Z " fill="#000000"/><text fill="#000000" font-family="sans-serif" font-size="14" lengthAdjust="spacing" textLength="77.0342" x="296" y="1084.8379">RoomStatus</text><line style="stroke:#181818;stroke-width:0.5;" x1="268" x2="375.0342" y1="1095.1094" y2="1095.1094"/><text fill="#000000" font-family="sans-serif" font-size="14" lengthAdjust="spacing" textLength="56.7861" x="273" y="1113.6426">VACANT</text><text fill="#000000" font-family="sans-serif" font-size="14" lengthAdjust="spacing" textLength="77.0205" x="273" y="1131.252">RESERVED</text><text fill="#000000" font-family="sans-serif" font-size="14" lengthAdjust="spacing" textLength="73.8965" x="273" y="1148.8613">OCCUPIED</text><line style="stroke:#181818;stroke-width:0.5;" x1="268" x2="375.0342" y1="1155.9375" y2="1155.9375"/></g><!--class ReservationManager--><g class="entity" data-qualified-name="ReservationManager" data-source-line="37" id="ent0006"><rect fill="#F1F1F1" height="118.4375" rx="2.5" ry="2.5" style="stroke:#181818;stroke-width:0.5;" width="491.3223" x="251" y="421.6094"/><ellipse cx="427.4321" cy="437.6094" fill="#ADD1B2" rx="11" ry="11" style="stroke:#181818;stroke-width:1;"/><path d="M430.1978,433.4844 Q430.354,433.2656 430.5415,433.1563 Q430.729,433.0469 430.9478,433.0469 Q431.3228,433.0469 431.5571,433.3125 Q431.7915,433.5625 431.7915,434.1719 L431.7915,435.625 Q431.7915,436.2344 431.5571,436.5 Q431.3228,436.7656 430.9478,436.7656 Q430.604,436.7656 430.4009,436.5625 Q430.1978,436.375 430.0884,435.8594 Q430.0415,435.5 429.854,435.3125 Q429.5259,434.9375 428.9165,434.7188 Q428.3071,434.5 427.6821,434.5 Q426.9165,434.5 426.2759,434.8281 Q425.6509,435.1563 425.1509,435.9063 Q424.6665,436.6563 424.6665,437.6875 L424.6665,438.7813 Q424.6665,440.0156 425.5571,440.8438 Q426.4478,441.6563 428.0415,441.6563 Q428.979,441.6563 429.6353,441.4063 Q430.0259,441.25 430.4478,440.8125 Q430.7134,440.5469 430.854,440.4688 Q431.0103,440.3906 431.2134,440.3906 Q431.5415,440.3906 431.7915,440.6563 Q432.0571,440.9063 432.0571,441.25 Q432.0571,441.5938 431.7134,442 Q431.2134,442.5781 430.4165,442.9063 Q429.3384,443.3594 428.0415,443.3594 Q426.5259,443.3594 425.3228,442.7344 Q424.3384,442.2344 423.6509,441.1719 Q422.9634,440.0938 422.9634,438.8125 L422.9634,437.6563 Q422.9634,436.3281 423.5728,435.1875 Q424.1978,434.0313 425.2915,433.4219 Q426.3853,432.7969 427.6196,432.7969 Q428.354,432.7969 428.9946,432.9688 Q429.6509,433.125 430.1978,433.4844 Z " fill="#000000"/><text fill="#000000" font-family="sans-serif" font-size="14" lengthAdjust="spacing" textLength="129.958" x="447.9321" y="443.3379">ReservationManager</text><line style="stroke:#181818;stroke-width:0.5;" x1="252" x2="741.3223" y1="453.6094" y2="453.6094"/><line style="stroke:#181818;stroke-width:0.5;" x1="252" x2="741.3223" y1="461.6094" y2="461.6094"/><g data-visibility-modifier="PUBLIC_METHOD"><ellipse cx="262" cy="475.9141" fill="#84BE84" rx="3" ry="3" style="stroke:#038048;stroke-width:1;"/></g><text fill="#000000" font-family="sans-serif" font-size="14" lengthAdjust="spacing" textLength="465.3223" x="271" y="480.1426">createReservation(guest, room, checkInDate, checkOutDate) : Reservation</text><g data-visibility-modifier="PUBLIC_METHOD"><ellipse cx="262" cy="493.5234" fill="#84BE84" rx="3" ry="3" style="stroke:#038048;stroke-width:1;"/></g><text fill="#000000" font-family="sans-serif" font-size="14" lengthAdjust="spacing" textLength="242.7783" x="271" y="497.752">cancelReservation(reservationId) : void</text><g data-visibility-modifier="PUBLIC_METHOD"><ellipse cx="262" cy="511.1328" fill="#84BE84" rx="3" ry="3" style="stroke:#038048;stroke-width:1;"/></g><text fill="#000000" font-family="sans-serif" font-size="14" lengthAdjust="spacing" textLength="273.9023" x="271" y="515.3613">findReservation(reservationId) : Reservation</text><g data-visibility-modifier="PUBLIC_METHOD"><ellipse cx="262" cy="528.7422" fill="#84BE84" rx="3" ry="3" style="stroke:#038048;stroke-width:1;"/></g><text fill="#000000" font-family="sans-serif" font-size="14" lengthAdjust="spacing" textLength="268.4541" x="271" y="532.9707">recordPayment(charge, method) : Payment</text></g><!--class Reservation--><g class="entity" data-qualified-name="Reservation" data-source-line="44" id="ent0007"><rect fill="#F1F1F1" height="171.2656" rx="2.5" ry="2.5" style="stroke:#181818;stroke-width:0.5;" width="189.4131" x="417" y="617.6094"/><ellipse cx="470.105" cy="633.6094" fill="#ADD1B2" rx="11" ry="11" style="stroke:#181818;stroke-width:1;"/><path d="M472.8706,629.4844 Q473.0269,629.2656 473.2144,629.1563 Q473.4019,629.0469 473.6206,629.0469 Q473.9956,629.0469 474.23,629.3125 Q474.4644,629.5625 474.4644,630.1719 L474.4644,631.625 Q474.4644,632.2344 474.23,632.5 Q473.9956,632.7656 473.6206,632.7656 Q473.2769,632.7656 473.0737,632.5625 Q472.8706,632.375 472.7612,631.8594 Q472.7144,631.5 472.5269,631.3125 Q472.1987,630.9375 471.5894,630.7188 Q470.98,630.5 470.355,630.5 Q469.5894,630.5 468.9487,630.8281 Q468.3237,631.1563 467.8237,631.9063 Q467.3394,632.6563 467.3394,633.6875 L467.3394,634.7813 Q467.3394,636.0156 468.23,636.8438 Q469.1206,637.6563 470.7144,637.6563 Q471.6519,637.6563 472.3081,637.4063 Q472.6987,637.25 473.1206,636.8125 Q473.3862,636.5469 473.5269,636.4688 Q473.6831,636.3906 473.8862,636.3906 Q474.2144,636.3906 474.4644,636.6563 Q474.73,636.9063 474.73,637.25 Q474.73,637.5938 474.3862,638 Q473.8862,638.5781 473.0894,638.9063 Q472.0112,639.3594 470.7144,639.3594 Q469.1987,639.3594 467.9956,638.7344 Q467.0112,638.2344 466.3237,637.1719 Q465.6362,636.0938 465.6362,634.8125 L465.6362,633.6563 Q465.6362,632.3281 466.2456,631.1875 Q466.8706,630.0313 467.9644,629.4219 Q469.0581,628.7969 470.2925,628.7969 Q471.0269,628.7969 471.6675,628.9688 Q472.3237,629.125 472.8706,629.4844 Z " fill="#000000"/><text fill="#000000" font-family="sans-serif" font-size="14" lengthAdjust="spacing" textLength="74.7031" x="490.605" y="639.3379">Reservation</text><line style="stroke:#181818;stroke-width:0.5;" x1="418" x2="605.4131" y1="649.6094" y2="649.6094"/><g data-visibility-modifier="PRIVATE_FIELD"><rect fill="none" height="6" style="stroke:#C82930;stroke-width:1;" width="6" x="425" y="660.9141"/></g><text fill="#000000" font-family="sans-serif" font-size="14" lengthAdjust="spacing" textLength="129.1719" x="437" y="668.1426">reservationId : String</text><g data-visibility-modifier="PRIVATE_FIELD"><rect fill="none" height="6" style="stroke:#C82930;stroke-width:1;" width="6" x="425" y="678.5234"/></g><text fill="#000000" font-family="sans-serif" font-size="14" lengthAdjust="spacing" textLength="119.0615" x="437" y="685.752">checkInDate : Date</text><g data-visibility-modifier="PRIVATE_FIELD"><rect fill="none" height="6" style="stroke:#C82930;stroke-width:1;" width="6" x="425" y="696.1328"/></g><text fill="#000000" font-family="sans-serif" font-size="14" lengthAdjust="spacing" textLength="129.9512" x="437" y="703.3613">checkOutDate : Date</text><g data-visibility-modifier="PRIVATE_FIELD"><rect fill="none" height="6" style="stroke:#C82930;stroke-width:1;" width="6" x="425" y="713.7422"/></g><text fill="#000000" font-family="sans-serif" font-size="14" lengthAdjust="spacing" textLength="163.4131" x="437" y="720.9707">status : ReservationStatus</text><line style="stroke:#181818;stroke-width:0.5;" x1="418" x2="605.4131" y1="728.0469" y2="728.0469"/><g data-visibility-modifier="PUBLIC_METHOD"><ellipse cx="428" cy="742.3516" fill="#84BE84" rx="3" ry="3" style="stroke:#038048;stroke-width:1;"/></g><text fill="#000000" font-family="sans-serif" font-size="14" lengthAdjust="spacing" textLength="94.9238" x="437" y="746.5801">checkIn() : void</text><g data-visibility-modifier="PUBLIC_METHOD"><ellipse cx="428" cy="759.9609" fill="#84BE84" rx="3" ry="3" style="stroke:#038048;stroke-width:1;"/></g><text fill="#000000" font-family="sans-serif" font-size="14" lengthAdjust="spacing" textLength="126.0479" x="437" y="764.1895">checkOut() : Charge</text><g data-visibility-modifier="PUBLIC_METHOD"><ellipse cx="428" cy="777.5703" fill="#84BE84" rx="3" ry="3" style="stroke:#038048;stroke-width:1;"/></g><text fill="#000000" font-family="sans-serif" font-size="14" lengthAdjust="spacing" textLength="87.1445" x="437" y="781.7988">cancel() : void</text></g><!--class ReservationStatus--><g class="entity" data-qualified-name="ReservationStatus" data-source-line="54" id="ent0008"><rect fill="#F1F1F1" height="118.4375" rx="2.5" ry="2.5" style="stroke:#181818;stroke-width:0.5;" width="146.3926" x="438.5" y="866.6094"/><ellipse cx="453.5" cy="882.6094" fill="#EB937F" rx="11" ry="11" style="stroke:#181818;stroke-width:1;"/><path d="M452.3594,883.4063 L452.3594,885.9063 L456.6875,885.9063 L456.6875,884.9844 Q456.6875,884.375 456.9219,884.1094 Q457.1719,883.8438 457.5469,883.8438 Q457.9219,883.8438 458.1563,884.1094 Q458.3906,884.375 458.3906,884.9844 L458.3906,887.6094 L450.3906,887.6094 Q449.7656,887.6094 449.5,887.375 Q449.25,887.1406 449.25,886.75 Q449.25,886.375 449.5156,886.1406 Q449.7813,885.9063 450.3906,885.9063 L450.6563,885.9063 L450.6563,879.25 L450.3906,879.25 Q449.7656,879.25 449.5,879.0156 Q449.25,878.7813 449.25,878.3906 Q449.25,878.0156 449.5,877.7813 Q449.7656,877.5469 450.3906,877.5469 L458.0156,877.5469 L458.0156,880.1406 Q458.0156,880.75 457.7813,881.0156 Q457.5625,881.2656 457.1719,881.2656 Q456.7969,881.2656 456.5625,881.0156 Q456.3281,880.75 456.3281,880.1406 L456.3281,879.25 L452.3594,879.25 L452.3594,881.7031 L453.8438,881.7031 Q453.8438,881.0469 453.9688,880.8594 Q454.2344,880.4531 454.7031,880.4531 Q455.0781,880.4531 455.3125,880.7188 Q455.5469,880.9688 455.5469,881.5781 L455.5469,883.5469 Q455.5469,884.0938 455.4219,884.2813 Q455.1563,884.6719 454.7031,884.6719 Q454.2344,884.6719 453.9688,884.2656 Q453.8438,884.0781 453.8438,883.4063 L452.3594,883.4063 Z " fill="#000000"/><text fill="#000000" font-family="sans-serif" font-size="14" lengthAdjust="spacing" textLength="114.3926" x="467.5" y="888.3379">ReservationStatus</text><line style="stroke:#181818;stroke-width:0.5;" x1="439.5" x2="583.8926" y1="898.6094" y2="898.6094"/><text fill="#000000" font-family="sans-serif" font-size="14" lengthAdjust="spacing" textLength="77.0205" x="444.5" y="917.1426">RESERVED</text><text fill="#000000" font-family="sans-serif" font-size="14" lengthAdjust="spacing" textLength="90.2412" x="444.5" y="934.752">CHECKED_IN</text><text fill="#000000" font-family="sans-serif" font-size="14" lengthAdjust="spacing" textLength="105.793" x="444.5" y="952.3613">CHECKED_OUT</text><text fill="#000000" font-family="sans-serif" font-size="14" lengthAdjust="spacing" textLength="84.0273" x="444.5" y="969.9707">CANCELLED</text><line style="stroke:#181818;stroke-width:0.5;" x1="439.5" x2="583.8926" y1="977.0469" y2="977.0469"/></g><!--class Charge--><g class="entity" data-qualified-name="Charge" data-source-line="61" id="ent0009"><rect fill="#F1F1F1" height="100.8281" rx="2.5" ry="2.5" style="stroke:#181818;stroke-width:0.5;" width="175.3926" x="620" y="875.1094"/><ellipse cx="680.4878" cy="891.1094" fill="#ADD1B2" rx="11" ry="11" style="stroke:#181818;stroke-width:1;"/><path d="M683.2534,886.9844 Q683.4097,886.7656 683.5972,886.6563 Q683.7847,886.5469 684.0034,886.5469 Q684.3784,886.5469 684.6128,886.8125 Q684.8472,887.0625 684.8472,887.6719 L684.8472,889.125 Q684.8472,889.7344 684.6128,890 Q684.3784,890.2656 684.0034,890.2656 Q683.6597,890.2656 683.4565,890.0625 Q683.2534,889.875 683.144,889.3594 Q683.0972,889 682.9097,888.8125 Q682.5815,888.4375 681.9722,888.2188 Q681.3628,888 680.7378,888 Q679.9722,888 679.3315,888.3281 Q678.7065,888.6563 678.2065,889.4063 Q677.7222,890.1563 677.7222,891.1875 L677.7222,892.2813 Q677.7222,893.5156 678.6128,894.3438 Q679.5034,895.1563 681.0972,895.1563 Q682.0347,895.1563 682.6909,894.9063 Q683.0815,894.75 683.5034,894.3125 Q683.769,894.0469 683.9097,893.9688 Q684.0659,893.8906 684.269,893.8906 Q684.5972,893.8906 684.8472,894.1563 Q685.1128,894.4063 685.1128,894.75 Q685.1128,895.0938 684.769,895.5 Q684.269,896.0781 683.4722,896.4063 Q682.394,896.8594 681.0972,896.8594 Q679.5815,896.8594 678.3784,896.2344 Q677.394,895.7344 676.7065,894.6719 Q676.019,893.5938 676.019,892.3125 L676.019,891.1563 Q676.019,889.8281 676.6284,888.6875 Q677.2534,887.5313 678.3472,886.9219 Q679.4409,886.2969 680.6753,886.2969 Q681.4097,886.2969 682.0503,886.4688 Q682.7065,886.625 683.2534,886.9844 Z " fill="#000000"/><text fill="#000000" font-family="sans-serif" font-size="14" lengthAdjust="spacing" textLength="45.917" x="700.9878" y="896.8379">Charge</text><line style="stroke:#181818;stroke-width:0.5;" x1="621" x2="794.3926" y1="907.1094" y2="907.1094"/><g data-visibility-modifier="PRIVATE_FIELD"><rect fill="none" height="6" style="stroke:#C82930;stroke-width:1;" width="6" x="628" y="918.4141"/></g><text fill="#000000" font-family="sans-serif" font-size="14" lengthAdjust="spacing" textLength="100.3857" x="640" y="925.6426">amount : Money</text><g data-visibility-modifier="PRIVATE_FIELD"><rect fill="none" height="6" style="stroke:#C82930;stroke-width:1;" width="6" x="628" y="936.0234"/></g><text fill="#000000" font-family="sans-serif" font-size="14" lengthAdjust="spacing" textLength="111.2822" x="640" y="943.252">issuedDate : Date</text><line style="stroke:#181818;stroke-width:0.5;" x1="621" x2="794.3926" y1="950.3281" y2="950.3281"/><g data-visibility-modifier="PUBLIC_METHOD"><ellipse cx="631" cy="964.6328" fill="#84BE84" rx="3" ry="3" style="stroke:#038048;stroke-width:1;"/></g><text fill="#000000" font-family="sans-serif" font-size="14" lengthAdjust="spacing" textLength="149.3926" x="640" y="968.8613">calculateTotal() : Money</text></g><!--class Payment--><g class="entity" data-qualified-name="Payment" data-source-line="67" id="ent0010"><rect fill="#F1F1F1" height="136.0469" rx="2.5" ry="2.5" style="stroke:#181818;stroke-width:0.5;" width="169.958" x="763.5" y="1045.6094"/><ellipse cx="816.605" cy="1061.6094" fill="#ADD1B2" rx="11" ry="11" style="stroke:#181818;stroke-width:1;"/><path d="M819.3706,1057.4844 Q819.5269,1057.2656 819.7144,1057.1563 Q819.9019,1057.0469 820.1206,1057.0469 Q820.4956,1057.0469 820.73,1057.3125 Q820.9644,1057.5625 820.9644,1058.1719 L820.9644,1059.625 Q820.9644,1060.2344 820.73,1060.5 Q820.4956,1060.7656 820.1206,1060.7656 Q819.7769,1060.7656 819.5737,1060.5625 Q819.3706,1060.375 819.2612,1059.8594 Q819.2144,1059.5 819.0269,1059.3125 Q818.6987,1058.9375 818.0894,1058.7188 Q817.48,1058.5 816.855,1058.5 Q816.0894,1058.5 815.4487,1058.8281 Q814.8237,1059.1563 814.3237,1059.9063 Q813.8394,1060.6563 813.8394,1061.6875 L813.8394,1062.7813 Q813.8394,1064.0156 814.73,1064.8438 Q815.6206,1065.6563 817.2144,1065.6563 Q818.1519,1065.6563 818.8081,1065.4063 Q819.1987,1065.25 819.6206,1064.8125 Q819.8862,1064.5469 820.0269,1064.4688 Q820.1831,1064.3906 820.3862,1064.3906 Q820.7144,1064.3906 820.9644,1064.6563 Q821.23,1064.9063 821.23,1065.25 Q821.23,1065.5938 820.8862,1066 Q820.3862,1066.5781 819.5894,1066.9063 Q818.5112,1067.3594 817.2144,1067.3594 Q815.6987,1067.3594 814.4956,1066.7344 Q813.5112,1066.2344 812.8237,1065.1719 Q812.1362,1064.0938 812.1362,1062.8125 L812.1362,1061.6563 Q812.1362,1060.3281 812.7456,1059.1875 Q813.3706,1058.0313 814.4644,1057.4219 Q815.5581,1056.7969 816.7925,1056.7969 Q817.5269,1056.7969 818.1675,1056.9688 Q818.8237,1057.125 819.3706,1057.4844 Z " fill="#000000"/><text fill="#000000" font-family="sans-serif" font-size="14" lengthAdjust="spacing" textLength="55.248" x="837.105" y="1067.3379">Payment</text><line style="stroke:#181818;stroke-width:0.5;" x1="764.5" x2="932.458" y1="1077.6094" y2="1077.6094"/><g data-visibility-modifier="PRIVATE_FIELD"><rect fill="none" height="6" style="stroke:#C82930;stroke-width:1;" width="6" x="771.5" y="1088.9141"/></g><text fill="#000000" font-family="sans-serif" font-size="14" lengthAdjust="spacing" textLength="113.6133" x="783.5" y="1096.1426">paymentId : String</text><g data-visibility-modifier="PRIVATE_FIELD"><rect fill="none" height="6" style="stroke:#C82930;stroke-width:1;" width="6" x="771.5" y="1106.5234"/></g><text fill="#000000" font-family="sans-serif" font-size="14" lengthAdjust="spacing" textLength="97.2822" x="783.5" y="1113.752">paidDate : Date</text><g data-visibility-modifier="PRIVATE_FIELD"><rect fill="none" height="6" style="stroke:#C82930;stroke-width:1;" width="6" x="771.5" y="1124.1328"/></g><text fill="#000000" font-family="sans-serif" font-size="14" lengthAdjust="spacing" textLength="94.9375" x="783.5" y="1131.3613">method : String</text><g data-visibility-modifier="PRIVATE_FIELD"><rect fill="none" height="6" style="stroke:#C82930;stroke-width:1;" width="6" x="771.5" y="1141.7422"/></g><text fill="#000000" font-family="sans-serif" font-size="14" lengthAdjust="spacing" textLength="143.958" x="783.5" y="1148.9707">status : PaymentStatus</text><line style="stroke:#181818;stroke-width:0.5;" x1="764.5" x2="932.458" y1="1156.0469" y2="1156.0469"/><g data-visibility-modifier="PUBLIC_METHOD"><ellipse cx="774.5" cy="1170.3516" fill="#84BE84" rx="3" ry="3" style="stroke:#038048;stroke-width:1;"/></g><text fill="#000000" font-family="sans-serif" font-size="14" lengthAdjust="spacing" textLength="103.4824" x="783.5" y="1174.5801">complete() : void</text></g><!--class PaymentStatus--><g class="entity" data-qualified-name="PaymentStatus" data-source-line="75" id="ent0011"><rect fill="#F1F1F1" height="100.8281" rx="2.5" ry="2.5" style="stroke:#181818;stroke-width:0.5;" width="126.9375" x="785" y="1242.6094"/><ellipse cx="800" cy="1258.6094" fill="#EB937F" rx="11" ry="11" style="stroke:#181818;stroke-width:1;"/><path d="M798.8594,1259.4063 L798.8594,1261.9063 L803.1875,1261.9063 L803.1875,1260.9844 Q803.1875,1260.375 803.4219,1260.1094 Q803.6719,1259.8438 804.0469,1259.8438 Q804.4219,1259.8438 804.6563,1260.1094 Q804.8906,1260.375 804.8906,1260.9844 L804.8906,1263.6094 L796.8906,1263.6094 Q796.2656,1263.6094 796,1263.375 Q795.75,1263.1406 795.75,1262.75 Q795.75,1262.375 796.0156,1262.1406 Q796.2813,1261.9063 796.8906,1261.9063 L797.1563,1261.9063 L797.1563,1255.25 L796.8906,1255.25 Q796.2656,1255.25 796,1255.0156 Q795.75,1254.7813 795.75,1254.3906 Q795.75,1254.0156 796,1253.7813 Q796.2656,1253.5469 796.8906,1253.5469 L804.5156,1253.5469 L804.5156,1256.1406 Q804.5156,1256.75 804.2813,1257.0156 Q804.0625,1257.2656 803.6719,1257.2656 Q803.2969,1257.2656 803.0625,1257.0156 Q802.8281,1256.75 802.8281,1256.1406 L802.8281,1255.25 L798.8594,1255.25 L798.8594,1257.7031 L800.3438,1257.7031 Q800.3438,1257.0469 800.4688,1256.8594 Q800.7344,1256.4531 801.2031,1256.4531 Q801.5781,1256.4531 801.8125,1256.7188 Q802.0469,1256.9688 802.0469,1257.5781 L802.0469,1259.5469 Q802.0469,1260.0938 801.9219,1260.2813 Q801.6563,1260.6719 801.2031,1260.6719 Q800.7344,1260.6719 800.4688,1260.2656 Q800.3438,1260.0781 800.3438,1259.4063 L798.8594,1259.4063 Z " fill="#000000"/><text fill="#000000" font-family="sans-serif" font-size="14" lengthAdjust="spacing" textLength="94.9375" x="814" y="1264.3379">PaymentStatus</text><line style="stroke:#181818;stroke-width:0.5;" x1="786" x2="910.9375" y1="1274.6094" y2="1274.6094"/><text fill="#000000" font-family="sans-serif" font-size="14" lengthAdjust="spacing" textLength="52.8965" x="791" y="1293.1426">UNPAID</text><text fill="#000000" font-family="sans-serif" font-size="14" lengthAdjust="spacing" textLength="32.6758" x="791" y="1310.752">PAID</text><text fill="#000000" font-family="sans-serif" font-size="14" lengthAdjust="spacing" textLength="49.0137" x="791" y="1328.3613">FAILED</text><line style="stroke:#181818;stroke-width:0.5;" x1="786" x2="910.9375" y1="1335.4375" y2="1335.4375"/></g><!--reverse link Hotel to Room--><g class="link" data-entity-1="ent0003" data-entity-2="ent0004" data-link-type="aggregation" data-source-line="81" id="lnk12"><path codeLine="81" d="M207.0894,158.532 C201.6694,194.042 197.5,231.1894 197.5,274.6094 C197.5,274.6094 197.5,274.6094 197.5,704.1094 C197.5,764.9394 233.79,824.4894 267.11,866.3394" fill="none" id="Hotel-backto-Room" style="stroke:#181818;stroke-width:1;"/><polygon fill="none" points="208.9,146.6694,204.0405,151.9971,207.0894,158.532,211.9489,153.2042,208.9,146.6694" style="stroke:#181818;stroke-width:1;stroke-linejoin:miter;stroke-miterlimit:10;"/><text fill="#000000" font-family="sans-serif" font-size="13" lengthAdjust="spacing" textLength="7.23" x="200.3221" y="168.0687">1</text><text fill="#000000" font-family="sans-serif" font-size="13" lengthAdjust="spacing" textLength="19.5127" x="240.3702" y="855.6307">1..*</text></g><!--reverse link Hotel to FrontDeskStaff--><g class="link" data-entity-1="ent0003" data-entity-2="ent0002" data-link-type="aggregation" data-source-line="82" id="lnk13"><path codeLine="82" d="M294.0233,153.9448 C319.2933,172.7148 338.86,187.2394 365.94,207.3494" fill="none" id="Hotel-backto-FrontDeskStaff" style="stroke:#181818;stroke-width:1;"/><polygon fill="none" points="284.39,146.7894,286.8215,153.5782,294.0233,153.9448,291.5918,147.156,284.39,146.7894" style="stroke:#181818;stroke-width:1;stroke-linejoin:miter;stroke-miterlimit:10;"/><text fill="#000000" font-family="sans-serif" font-size="13" lengthAdjust="spacing" textLength="7.23" x="285.5576" y="167.8364">1</text><text fill="#000000" font-family="sans-serif" font-size="13" lengthAdjust="spacing" textLength="19.5127" x="336.047" y="196.5202">0..*</text></g><!--link Guest to Reservation--><g class="link" data-entity-1="ent0001" data-entity-2="ent0007" data-link-type="association" data-source-line="83" id="lnk14"><path codeLine="83" d="M870.96,539.6894 C787.94,577.1994 681.74,625.1894 606.35,659.2494" fill="none" id="Guest-Reservation" style="stroke:#181818;stroke-width:1;"/><text fill="#000000" font-family="sans-serif" font-size="13" lengthAdjust="spacing" textLength="7.23" x="847.9048" y="561.3546">1</text><text fill="#000000" font-family="sans-serif" font-size="13" lengthAdjust="spacing" textLength="19.5127" x="614.3431" y="652.7773">0..*</text></g><!--link Guest to Payment--><g class="link" data-entity-1="ent0001" data-entity-2="ent0010" data-link-type="association" data-source-line="84" id="lnk15"><path codeLine="84" d="M986.51,539.8394 C964.44,638.1294 917.79,843.1494 874.5,1015.6094 C872.08,1025.2494 869.45,1035.3994 866.82,1045.3694" fill="none" id="Guest-Payment" style="stroke:#181818;stroke-width:1;"/><text fill="#000000" font-family="sans-serif" font-size="13" lengthAdjust="spacing" textLength="7.23" x="977.5375" y="561.5229">1</text><text fill="#000000" font-family="sans-serif" font-size="13" lengthAdjust="spacing" textLength="19.5127" x="848.815" y="1034.5424">0..*</text></g><!--link Reservation to Room--><g class="link" data-entity-1="ent0007" data-entity-2="ent0004" data-link-type="association" data-source-line="85" id="lnk16"><path codeLine="85" d="M438.58,788.7294 C416.19,814.7194 392.06,842.7194 371.56,866.5094" fill="none" id="Reservation-Room" style="stroke:#181818;stroke-width:1;"/><text fill="#000000" font-family="sans-serif" font-size="13" lengthAdjust="spacing" textLength="7.23" x="425.0048" y="810.2737">1</text><text fill="#000000" font-family="sans-serif" font-size="13" lengthAdjust="spacing" textLength="7.23" x="370.2641" y="855.8214">1</text></g><!--link Reservation to Charge--><g class="link" data-entity-1="ent0007" data-entity-2="ent0009" data-link-type="association" data-source-line="86" id="lnk17"><path codeLine="86" d="M586.72,788.7294 C612.63,817.8794 640.79,849.5594 663.39,874.9894" fill="none" id="Reservation-Charge" style="stroke:#181818;stroke-width:1;"/><text fill="#000000" font-family="sans-serif" font-size="13" lengthAdjust="spacing" textLength="7.23" x="585.8756" y="810.2737">1</text><text fill="#000000" font-family="sans-serif" font-size="13" lengthAdjust="spacing" textLength="21.6836" x="634.7309" y="864.2779">0..1</text></g><!--link Charge to Payment--><g class="link" data-entity-1="ent0009" data-entity-2="ent0010" data-link-type="association" data-source-line="87" id="lnk18"><path codeLine="87" d="M745.29,976.4494 C761.36,997.6494 780.34,1022.6994 797.62,1045.4894" fill="none" id="Charge-Payment" style="stroke:#181818;stroke-width:1;"/><text fill="#000000" font-family="sans-serif" font-size="13" lengthAdjust="spacing" textLength="7.23" x="742.673" y="997.5169">1</text><text fill="#000000" font-family="sans-serif" font-size="13" lengthAdjust="spacing" textLength="21.6836" x="769.9462" y="1034.6755">0..1</text></g><!--link Room to RoomStatus--><g class="link" data-entity-1="ent0004" data-entity-2="ent0005" data-link-type="association" data-source-line="88" id="lnk19"><path codeLine="88" d="M321.5,984.6994 C321.5,1009.8494 321.5,1038.9894 321.5,1063.0994" fill="none" id="Room-RoomStatus" style="stroke:#181818;stroke-width:1;"/><text fill="#000000" font-family="sans-serif" font-size="13" lengthAdjust="spacing" textLength="7.23" x="314.103" y="1006.3658">1</text><text fill="#000000" font-family="sans-serif" font-size="13" lengthAdjust="spacing" textLength="7.23" x="314.0216" y="1052.4033">1</text></g><!--link Reservation to ReservationStatus--><g class="link" data-entity-1="ent0007" data-entity-2="ent0008" data-link-type="association" data-source-line="89" id="lnk20"><path codeLine="89" d="M511.5,788.7294 C511.5,814.7194 511.5,842.7194 511.5,866.5094" fill="none" id="Reservation-ReservationStatus" style="stroke:#181818;stroke-width:1;"/><text fill="#000000" font-family="sans-serif" font-size="13" lengthAdjust="spacing" textLength="7.23" x="504.1914" y="810.2737">1</text><text fill="#000000" font-family="sans-serif" font-size="13" lengthAdjust="spacing" textLength="7.23" x="504.0635" y="855.8214">1</text></g><!--link Payment to PaymentStatus--><g class="link" data-entity-1="ent0010" data-entity-2="ent0011" data-link-type="association" data-source-line="90" id="lnk21"><path codeLine="90" d="M848.5,1181.7194 C848.5,1201.8394 848.5,1223.5494 848.5,1242.3394" fill="none" id="Payment-PaymentStatus" style="stroke:#181818;stroke-width:1;"/><text fill="#000000" font-family="sans-serif" font-size="13" lengthAdjust="spacing" textLength="7.23" x="841.1531" y="1203.079">1</text><text fill="#000000" font-family="sans-serif" font-size="13" lengthAdjust="spacing" textLength="7.23" x="841.0284" y="1231.6068">1</text></g><!--link ReservationManager to Reservation--><g class="link" data-entity-1="ent0006" data-entity-2="ent0007" data-link-type="dependency" data-source-line="91" id="lnk22"><path codeLine="91" d="M500.46,539.8294 C502.08,563.5594 503.6292,586.481 505.3992,612.391" fill="none" id="ReservationManager-to-Reservation" style="stroke:#181818;stroke-width:1;stroke-dasharray:7,7;"/><polygon fill="#181818" points="505.74,617.3794,509.1173,608.1277,505.3992,612.391,501.1359,608.6729,505.74,617.3794" style="stroke:#181818;stroke-width:1;stroke-linejoin:miter;stroke-miterlimit:10;"/><text fill="#000000" font-family="sans-serif" font-size="13" lengthAdjust="spacing" textLength="26" x="505.5" y="584.1045">&#31649;&#29702;</text></g><!--link ReservationManager to Room--><g class="link" data-entity-1="ent0006" data-entity-2="ent0004" data-link-type="dependency" data-source-line="92" id="lnk23"><path codeLine="92" d="M429.11,539.7694 C407.44,561.9794 385.45,588.9094 371.5,617.6094 C332.5,697.8694 323.152,797.4314 321.332,861.4814" fill="none" id="ReservationManager-to-Room" style="stroke:#181818;stroke-width:1;stroke-dasharray:7,7;"/><polygon fill="#181818" points="321.19,866.4794,325.444,857.5966,321.332,861.4814,317.4472,857.3694,321.19,866.4794" style="stroke:#181818;stroke-width:1;stroke-linejoin:miter;stroke-miterlimit:10;"/><text fill="#000000" font-family="sans-serif" font-size="13" lengthAdjust="spacing" textLength="26" x="372.5" y="708.6045">&#21442;&#29031;</text></g><!--link ReservationManager to Payment--><g class="link" data-entity-1="ent0006" data-entity-2="ent0010" data-link-type="dependency" data-source-line="93" id="lnk24"><path codeLine="93" d="M563.26,539.6394 C638.12,609.0794 756.38,732.8494 812.5,866.6094 C836.55,923.9194 844.661,989.6066 847.401,1040.4666" fill="none" id="ReservationManager-to-Payment" style="stroke:#181818;stroke-width:1;stroke-dasharray:7,7;"/><polygon fill="#181818" points="847.67,1045.4594,851.18,1036.2572,847.401,1040.4666,843.1916,1036.6876,847.67,1045.4594" style="stroke:#181818;stroke-width:1;stroke-linejoin:miter;stroke-miterlimit:10;"/><text fill="#000000" font-family="sans-serif" font-size="13" lengthAdjust="spacing" textLength="26" x="799.5" y="833.1045">&#35352;&#37682;</text></g><!--link FrontDeskStaff to ReservationManager--><g class="link" data-entity-1="ent0002" data-entity-2="ent0006" data-link-type="dependency" data-source-line="94" id="lnk25"><path codeLine="94" d="M469.71,343.6394 C474.67,368.8194 479.2926,392.3038 484.0826,416.5938" fill="none" id="FrontDeskStaff-to-ReservationManager" style="stroke:#181818;stroke-width:1;stroke-dasharray:7,7;"/><polygon fill="#181818" points="485.05,421.4994,487.2332,411.8955,484.0826,416.5938,479.3843,413.4433,485.05,421.4994" style="stroke:#181818;stroke-width:1;stroke-linejoin:miter;stroke-miterlimit:10;"/><text fill="#000000" font-family="sans-serif" font-size="13" lengthAdjust="spacing" textLength="26" x="480.5" y="388.1045">&#21033;&#29992;</text></g><?plantuml-src bLLDQzim6BxxLuYSqhK9wpMCGd3SrQnDGZvw7QgZ9gQs56mv4CfW93GKEbWFEmm6epirlMom7SP-JsYp_ej9bcnBRfAoawHNZzxtqVC-bgbBFGGMaz-BoP_5TBQOtjnVpXw-NeCI2_vOJEzO_FxBhwA6c5qyJkSFjrUFxs-s3CFnO1Y2rn4AAJWt02Zr-TJkWGfeqy35VHx3q4TQm26OGeUgiMqVdg4M2b4mWjGbk1WGuky0Pu2SCnlN84LoqOWeNssnmmhSU9TmsGzOyXeApzeKdfuAKY6VFaDgMvOg1bbMknUNOKnI02l_564EOD1771CWXmIz9Xpx2EU0Ey17T43Y0nAGiJuW57c2x81FdoDxwk9UTGHT3vvuY1CCYnkbEdH3-ehZzhAQV2bASgthaN-20gqg3tV6GxrtJ4iQXLAMThpWXDmmfLFa1Ky8yH2C-u9mv2lekEHnrQpMEspIijfMwzYgiMd3DBjDcqqpXfb-Hn33FkDt7dSYGEnUgbjYs-s0_pGDJmMnWppDUFdkZeZRIpJV2CobrhtWn1xPQ0BblEoBMa7_Wh8hiZWVqgYygnBEMfRbopgN-5wzQcfrtTr2h0oPDZUVDwQljDOyiCmtLksjNLSMZIut0FE1QHqUgcqN1OK4q2SHvY_54S5ep2Dk64Qefr-HCVESo6EB3g5GC1G7qgHIRP5rA1OvKOVGpUKjYMwj_W1aHaL9uWyzHD5JWJHeJA5RRrPjBeqSzgksr40y1ONT0Y2b4XlBvHS5yGRbTbx6E_fxPuYdc6CoYEhBLVk94LN_9OXTMNlL7ZlDPj8UicdwNfgPFpMvb5AtTKMVM3Lfe0BIEx3YjIYNzxIlgWAMtxyjhsThiPnd1Tn_d2mlRjU14Y8Ly7V--V73JoFtoyaLJOwoj9Ttoqzpuny0?></g></svg>