<svg xmlns="http://www.w3.org/2000/svg" xmlns:xlink="http://www.w3.org/1999/xlink" contentStyleType="text/css" data-diagram-type="CLASS" height="1517px" preserveAspectRatio="none" style="width:1795px;height:1517px;background:#FFFFFF;" version="1.1" viewBox="0 0 1795 1517" width="1795px" zoomAndPan="magnify"><?plantuml 1.2026.6?><defs/><g><g class="title" data-source-line="1"><text fill="#000000" font-family="sans-serif" font-size="14" font-weight="700" lengthAdjust="spacing" textLength="354.5117" x="716.7441" y="24.5332">&#12471;&#12473;&#12486;&#12512;&#20998;&#26512; - &#12463;&#12521;&#12473;&#22259;(&#12471;&#12473;&#12486;&#12512;&#20869;&#37096;&#27083;&#36896;&#12539;BCE&#20998;&#39006;)</text></g><!--class ReservationUI--><g class="entity" data-qualified-name="ReservationUI" data-source-line="8" id="ent0001"><rect fill="#F1F1F1" height="58.7031" rx="2.5" ry="2.5" style="stroke:#181818;stroke-width:0.5;" width="120.7031" x="128.5" y="183.1094"/><ellipse cx="143.5" cy="204.4609" fill="#ADD1B2" rx="11" ry="11" style="stroke:#181818;stroke-width:1;"/><path d="M146.2656,200.3359 Q146.4219,200.1172 146.6094,200.0078 Q146.7969,199.8984 147.0156,199.8984 Q147.3906,199.8984 147.625,200.1641 Q147.8594,200.4141 147.8594,201.0234 L147.8594,202.4766 Q147.8594,203.0859 147.625,203.3516 Q147.3906,203.6172 147.0156,203.6172 Q146.6719,203.6172 146.4688,203.4141 Q146.2656,203.2266 146.1563,202.7109 Q146.1094,202.3516 145.9219,202.1641 Q145.5938,201.7891 144.9844,201.5703 Q144.375,201.3516 143.75,201.3516 Q142.9844,201.3516 142.3438,201.6797 Q141.7188,202.0078 141.2188,202.7578 Q140.7344,203.5078 140.7344,204.5391 L140.7344,205.6328 Q140.7344,206.8672 141.625,207.6953 Q142.5156,208.5078 144.1094,208.5078 Q145.0469,208.5078 145.7031,208.2578 Q146.0938,208.1016 146.5156,207.6641 Q146.7813,207.3984 146.9219,207.3203 Q147.0781,207.2422 147.2813,207.2422 Q147.6094,207.2422 147.8594,207.5078 Q148.125,207.7578 148.125,208.1016 Q148.125,208.4453 147.7813,208.8516 Q147.2813,209.4297 146.4844,209.7578 Q145.4063,210.2109 144.1094,210.2109 Q142.5938,210.2109 141.3906,209.5859 Q140.4063,209.0859 139.7188,208.0234 Q139.0313,206.9453 139.0313,205.6641 L139.0313,204.5078 Q139.0313,203.1797 139.6406,202.0391 Q140.2656,200.8828 141.3594,200.2734 Q142.4531,199.6484 143.6875,199.6484 Q144.4219,199.6484 145.0625,199.8203 Q145.7188,199.9766 146.2656,200.3359 Z " fill="#000000"/><text fill="#000000" font-family="sans-serif" font-size="12" font-style="italic" lengthAdjust="spacing" textLength="63.3867" x="170.1582" y="200.5664">&#171;boundary&#187;</text><text fill="#000000" font-family="sans-serif" font-size="14" lengthAdjust="spacing" textLength="88.7031" x="157.5" y="217.7363">ReservationUI</text><line style="stroke:#181818;stroke-width:0.5;" x1="129.5" x2="248.2031" y1="225.8125" y2="225.8125"/><line style="stroke:#181818;stroke-width:0.5;" x1="129.5" x2="248.2031" y1="233.8125" y2="233.8125"/></g><!--class InquiryUI--><g class="entity" data-qualified-name="InquiryUI" data-source-line="9" id="ent0002"><rect fill="#F1F1F1" height="58.7031" rx="2.5" ry="2.5" style="stroke:#181818;stroke-width:0.5;" width="91.3867" x="710.5" y="347.1094"/><ellipse cx="725.5" cy="368.4609" fill="#ADD1B2" rx="11" ry="11" style="stroke:#181818;stroke-width:1;"/><path d="M728.2656,364.3359 Q728.4219,364.1172 728.6094,364.0078 Q728.7969,363.8984 729.0156,363.8984 Q729.3906,363.8984 729.625,364.1641 Q729.8594,364.4141 729.8594,365.0234 L729.8594,366.4766 Q729.8594,367.0859 729.625,367.3516 Q729.3906,367.6172 729.0156,367.6172 Q728.6719,367.6172 728.4688,367.4141 Q728.2656,367.2266 728.1563,366.7109 Q728.1094,366.3516 727.9219,366.1641 Q727.5938,365.7891 726.9844,365.5703 Q726.375,365.3516 725.75,365.3516 Q724.9844,365.3516 724.3438,365.6797 Q723.7188,366.0078 723.2188,366.7578 Q722.7344,367.5078 722.7344,368.5391 L722.7344,369.6328 Q722.7344,370.8672 723.625,371.6953 Q724.5156,372.5078 726.1094,372.5078 Q727.0469,372.5078 727.7031,372.2578 Q728.0938,372.1016 728.5156,371.6641 Q728.7813,371.3984 728.9219,371.3203 Q729.0781,371.2422 729.2813,371.2422 Q729.6094,371.2422 729.8594,371.5078 Q730.125,371.7578 730.125,372.1016 Q730.125,372.4453 729.7813,372.8516 Q729.2813,373.4297 728.4844,373.7578 Q727.4063,374.2109 726.1094,374.2109 Q724.5938,374.2109 723.3906,373.5859 Q722.4063,373.0859 721.7188,372.0234 Q721.0313,370.9453 721.0313,369.6641 L721.0313,368.5078 Q721.0313,367.1797 721.6406,366.0391 Q722.2656,364.8828 723.3594,364.2734 Q724.4531,363.6484 725.6875,363.6484 Q726.4219,363.6484 727.0625,363.8203 Q727.7188,363.9766 728.2656,364.3359 Z " fill="#000000"/><text fill="#000000" font-family="sans-serif" font-size="12" font-style="italic" lengthAdjust="spacing" textLength="63.3867" x="737.5" y="364.5664">&#171;boundary&#187;</text><text fill="#000000" font-family="sans-serif" font-size="14" lengthAdjust="spacing" textLength="56.0205" x="741.1831" y="381.7363">InquiryUI</text><line style="stroke:#181818;stroke-width:0.5;" x1="711.5" x2="800.8867" y1="389.8125" y2="389.8125"/><line style="stroke:#181818;stroke-width:0.5;" x1="711.5" x2="800.8867" y1="397.8125" y2="397.8125"/></g><!--class CheckInUI--><g class="entity" data-qualified-name="CheckInUI" data-source-line="10" id="ent0003"><rect fill="#F1F1F1" height="58.7031" rx="2.5" ry="2.5" style="stroke:#181818;stroke-width:0.5;" width="97.3584" x="944.5" y="183.1094"/><ellipse cx="959.5" cy="204.4609" fill="#ADD1B2" rx="11" ry="11" style="stroke:#181818;stroke-width:1;"/><path d="M962.2656,200.3359 Q962.4219,200.1172 962.6094,200.0078 Q962.7969,199.8984 963.0156,199.8984 Q963.3906,199.8984 963.625,200.1641 Q963.8594,200.4141 963.8594,201.0234 L963.8594,202.4766 Q963.8594,203.0859 963.625,203.3516 Q963.3906,203.6172 963.0156,203.6172 Q962.6719,203.6172 962.4688,203.4141 Q962.2656,203.2266 962.1563,202.7109 Q962.1094,202.3516 961.9219,202.1641 Q961.5938,201.7891 960.9844,201.5703 Q960.375,201.3516 959.75,201.3516 Q958.9844,201.3516 958.3438,201.6797 Q957.7188,202.0078 957.2188,202.7578 Q956.7344,203.5078 956.7344,204.5391 L956.7344,205.6328 Q956.7344,206.8672 957.625,207.6953 Q958.5156,208.5078 960.1094,208.5078 Q961.0469,208.5078 961.7031,208.2578 Q962.0938,208.1016 962.5156,207.6641 Q962.7813,207.3984 962.9219,207.3203 Q963.0781,207.2422 963.2813,207.2422 Q963.6094,207.2422 963.8594,207.5078 Q964.125,207.7578 964.125,208.1016 Q964.125,208.4453 963.7813,208.8516 Q963.2813,209.4297 962.4844,209.7578 Q961.4063,210.2109 960.1094,210.2109 Q958.5938,210.2109 957.3906,209.5859 Q956.4063,209.0859 955.7188,208.0234 Q955.0313,206.9453 955.0313,205.6641 L955.0313,204.5078 Q955.0313,203.1797 955.6406,202.0391 Q956.2656,200.8828 957.3594,200.2734 Q958.4531,199.6484 959.6875,199.6484 Q960.4219,199.6484 961.0625,199.8203 Q961.7188,199.9766 962.2656,200.3359 Z " fill="#000000"/><text fill="#000000" font-family="sans-serif" font-size="12" font-style="italic" lengthAdjust="spacing" textLength="63.3867" x="974.4858" y="200.5664">&#171;boundary&#187;</text><text fill="#000000" font-family="sans-serif" font-size="14" lengthAdjust="spacing" textLength="65.3584" x="973.5" y="217.7363">CheckInUI</text><line style="stroke:#181818;stroke-width:0.5;" x1="945.5" x2="1040.8584" y1="225.8125" y2="225.8125"/><line style="stroke:#181818;stroke-width:0.5;" x1="945.5" x2="1040.8584" y1="233.8125" y2="233.8125"/></g><!--class CheckOutUI--><g class="entity" data-qualified-name="CheckOutUI" data-source-line="11" id="ent0004"><rect fill="#F1F1F1" height="58.7031" rx="2.5" ry="2.5" style="stroke:#181818;stroke-width:0.5;" width="108.248" x="1549" y="45.6094"/><ellipse cx="1564" cy="66.9609" fill="#ADD1B2" rx="11" ry="11" style="stroke:#181818;stroke-width:1;"/><path d="M1566.7656,62.8359 Q1566.9219,62.6172 1567.1094,62.5078 Q1567.2969,62.3984 1567.5156,62.3984 Q1567.8906,62.3984 1568.125,62.6641 Q1568.3594,62.9141 1568.3594,63.5234 L1568.3594,64.9766 Q1568.3594,65.5859 1568.125,65.8516 Q1567.8906,66.1172 1567.5156,66.1172 Q1567.1719,66.1172 1566.9688,65.9141 Q1566.7656,65.7266 1566.6563,65.2109 Q1566.6094,64.8516 1566.4219,64.6641 Q1566.0938,64.2891 1565.4844,64.0703 Q1564.875,63.8516 1564.25,63.8516 Q1563.4844,63.8516 1562.8438,64.1797 Q1562.2188,64.5078 1561.7188,65.2578 Q1561.2344,66.0078 1561.2344,67.0391 L1561.2344,68.1328 Q1561.2344,69.3672 1562.125,70.1953 Q1563.0156,71.0078 1564.6094,71.0078 Q1565.5469,71.0078 1566.2031,70.7578 Q1566.5938,70.6016 1567.0156,70.1641 Q1567.2813,69.8984 1567.4219,69.8203 Q1567.5781,69.7422 1567.7813,69.7422 Q1568.1094,69.7422 1568.3594,70.0078 Q1568.625,70.2578 1568.625,70.6016 Q1568.625,70.9453 1568.2813,71.3516 Q1567.7813,71.9297 1566.9844,72.2578 Q1565.9063,72.7109 1564.6094,72.7109 Q1563.0938,72.7109 1561.8906,72.0859 Q1560.9063,71.5859 1560.2188,70.5234 Q1559.5313,69.4453 1559.5313,68.1641 L1559.5313,67.0078 Q1559.5313,65.6797 1560.1406,64.5391 Q1560.7656,63.3828 1561.8594,62.7734 Q1562.9531,62.1484 1564.1875,62.1484 Q1564.9219,62.1484 1565.5625,62.3203 Q1566.2188,62.4766 1566.7656,62.8359 Z " fill="#000000"/><text fill="#000000" font-family="sans-serif" font-size="12" font-style="italic" lengthAdjust="spacing" textLength="63.3867" x="1584.4307" y="63.0664">&#171;boundary&#187;</text><text fill="#000000" font-family="sans-serif" font-size="14" lengthAdjust="spacing" textLength="76.248" x="1578" y="80.2363">CheckOutUI</text><line style="stroke:#181818;stroke-width:0.5;" x1="1550" x2="1656.248" y1="88.3125" y2="88.3125"/><line style="stroke:#181818;stroke-width:0.5;" x1="1550" x2="1656.248" y1="96.3125" y2="96.3125"/></g><!--class CancellationUI--><g class="entity" data-qualified-name="CancellationUI" data-source-line="12" id="ent0005"><rect fill="#F1F1F1" height="58.7031" rx="2.5" ry="2.5" style="stroke:#181818;stroke-width:0.5;" width="123.0479" x="479.5" y="183.1094"/><ellipse cx="494.5" cy="204.4609" fill="#ADD1B2" rx="11" ry="11" style="stroke:#181818;stroke-width:1;"/><path d="M497.2656,200.3359 Q497.4219,200.1172 497.6094,200.0078 Q497.7969,199.8984 498.0156,199.8984 Q498.3906,199.8984 498.625,200.1641 Q498.8594,200.4141 498.8594,201.0234 L498.8594,202.4766 Q498.8594,203.0859 498.625,203.3516 Q498.3906,203.6172 498.0156,203.6172 Q497.6719,203.6172 497.4688,203.4141 Q497.2656,203.2266 497.1563,202.7109 Q497.1094,202.3516 496.9219,202.1641 Q496.5938,201.7891 495.9844,201.5703 Q495.375,201.3516 494.75,201.3516 Q493.9844,201.3516 493.3438,201.6797 Q492.7188,202.0078 492.2188,202.7578 Q491.7344,203.5078 491.7344,204.5391 L491.7344,205.6328 Q491.7344,206.8672 492.625,207.6953 Q493.5156,208.5078 495.1094,208.5078 Q496.0469,208.5078 496.7031,208.2578 Q497.0938,208.1016 497.5156,207.6641 Q497.7813,207.3984 497.9219,207.3203 Q498.0781,207.2422 498.2813,207.2422 Q498.6094,207.2422 498.8594,207.5078 Q499.125,207.7578 499.125,208.1016 Q499.125,208.4453 498.7813,208.8516 Q498.2813,209.4297 497.4844,209.7578 Q496.4063,210.2109 495.1094,210.2109 Q493.5938,210.2109 492.3906,209.5859 Q491.4063,209.0859 490.7188,208.0234 Q490.0313,206.9453 490.0313,205.6641 L490.0313,204.5078 Q490.0313,203.1797 490.6406,202.0391 Q491.2656,200.8828 492.3594,200.2734 Q493.4531,199.6484 494.6875,199.6484 Q495.4219,199.6484 496.0625,199.8203 Q496.7188,199.9766 497.2656,200.3359 Z " fill="#000000"/><text fill="#000000" font-family="sans-serif" font-size="12" font-style="italic" lengthAdjust="spacing" textLength="63.3867" x="522.3306" y="200.5664">&#171;boundary&#187;</text><text fill="#000000" font-family="sans-serif" font-size="14" lengthAdjust="spacing" textLength="91.0479" x="508.5" y="217.7363">CancellationUI</text><line style="stroke:#181818;stroke-width:0.5;" x1="480.5" x2="601.5479" y1="225.8125" y2="225.8125"/><line style="stroke:#181818;stroke-width:0.5;" x1="480.5" x2="601.5479" y1="233.8125" y2="233.8125"/></g><!--class ReservationControl--><g class="entity" data-qualified-name="ReservationControl" data-source-line="15" id="ent0006"><rect fill="#F1F1F1" height="93.9219" rx="2.5" ry="2.5" style="stroke:#181818;stroke-width:0.5;" width="364.3311" x="7" y="329.6094"/><ellipse cx="124.9985" cy="350.9609" fill="#ADD1B2" rx="11" ry="11" style="stroke:#181818;stroke-width:1;"/><path d="M127.7642,346.8359 Q127.9204,346.6172 128.1079,346.5078 Q128.2954,346.3984 128.5142,346.3984 Q128.8892,346.3984 129.1235,346.6641 Q129.3579,346.9141 129.3579,347.5234 L129.3579,348.9766 Q129.3579,349.5859 129.1235,349.8516 Q128.8892,350.1172 128.5142,350.1172 Q128.1704,350.1172 127.9673,349.9141 Q127.7642,349.7266 127.6548,349.2109 Q127.6079,348.8516 127.4204,348.6641 Q127.0923,348.2891 126.4829,348.0703 Q125.8735,347.8516 125.2485,347.8516 Q124.4829,347.8516 123.8423,348.1797 Q123.2173,348.5078 122.7173,349.2578 Q122.2329,350.0078 122.2329,351.0391 L122.2329,352.1328 Q122.2329,353.3672 123.1235,354.1953 Q124.0142,355.0078 125.6079,355.0078 Q126.5454,355.0078 127.2017,354.7578 Q127.5923,354.6016 128.0142,354.1641 Q128.2798,353.8984 128.4204,353.8203 Q128.5767,353.7422 128.7798,353.7422 Q129.1079,353.7422 129.3579,354.0078 Q129.6235,354.2578 129.6235,354.6016 Q129.6235,354.9453 129.2798,355.3516 Q128.7798,355.9297 127.9829,356.2578 Q126.9048,356.7109 125.6079,356.7109 Q124.0923,356.7109 122.8892,356.0859 Q121.9048,355.5859 121.2173,354.5234 Q120.5298,353.4453 120.5298,352.1641 L120.5298,351.0078 Q120.5298,349.6797 121.1392,348.5391 Q121.7642,347.3828 122.8579,346.7734 Q123.9517,346.1484 125.186,346.1484 Q125.9204,346.1484 126.561,346.3203 Q127.2173,346.4766 127.7642,346.8359 Z " fill="#000000"/><text fill="#000000" font-family="sans-serif" font-size="12" font-style="italic" lengthAdjust="spacing" textLength="49.3652" x="180.7329" y="347.0664">&#171;control&#187;</text><text fill="#000000" font-family="sans-serif" font-size="14" lengthAdjust="spacing" textLength="119.834" x="145.4985" y="364.2363">ReservationControl</text><line style="stroke:#181818;stroke-width:0.5;" x1="8" x2="370.3311" y1="372.3125" y2="372.3125"/><line style="stroke:#181818;stroke-width:0.5;" x1="8" x2="370.3311" y1="380.3125" y2="380.3125"/><g data-visibility-modifier="PUBLIC_METHOD"><ellipse cx="18" cy="394.6172" fill="#84BE84" rx="3" ry="3" style="stroke:#038048;stroke-width:1;"/></g><text fill="#000000" font-family="sans-serif" font-size="14" lengthAdjust="spacing" textLength="314.2549" x="27" y="398.8457">&#31354;&#23460;&#12434;&#26908;&#32034;&#12377;&#12427;(&#23487;&#27850;&#26085;, &#23458;&#23460;&#12479;&#12452;&#12503;) : List&lt;Room&gt;</text><g data-visibility-modifier="PUBLIC_METHOD"><ellipse cx="18" cy="412.2266" fill="#84BE84" rx="3" ry="3" style="stroke:#038048;stroke-width:1;"/></g><text fill="#000000" font-family="sans-serif" font-size="14" lengthAdjust="spacing" textLength="338.3311" x="27" y="416.4551">&#20104;&#32004;&#12434;&#30331;&#37682;&#12377;&#12427;(&#23458;&#23460;, &#23487;&#27850;&#26085;, &#27663;&#21517;, &#36899;&#32097;&#20808;) : &#20104;&#32004;&#30058;&#21495;</text></g><!--class InquiryControl--><g class="entity" data-qualified-name="InquiryControl" data-source-line="19" id="ent0007"><rect fill="#F1F1F1" height="93.9219" rx="2.5" ry="2.5" style="stroke:#181818;stroke-width:0.5;" width="297.4756" x="648.5" y="554.6094"/><ellipse cx="749.4121" cy="575.9609" fill="#ADD1B2" rx="11" ry="11" style="stroke:#181818;stroke-width:1;"/><path d="M752.1777,571.8359 Q752.334,571.6172 752.5215,571.5078 Q752.709,571.3984 752.9277,571.3984 Q753.3027,571.3984 753.5371,571.6641 Q753.7715,571.9141 753.7715,572.5234 L753.7715,573.9766 Q753.7715,574.5859 753.5371,574.8516 Q753.3027,575.1172 752.9277,575.1172 Q752.584,575.1172 752.3809,574.9141 Q752.1777,574.7266 752.0684,574.2109 Q752.0215,573.8516 751.834,573.6641 Q751.5059,573.2891 750.8965,573.0703 Q750.2871,572.8516 749.6621,572.8516 Q748.8965,572.8516 748.2559,573.1797 Q747.6309,573.5078 747.1309,574.2578 Q746.6465,575.0078 746.6465,576.0391 L746.6465,577.1328 Q746.6465,578.3672 747.5371,579.1953 Q748.4277,580.0078 750.0215,580.0078 Q750.959,580.0078 751.6152,579.7578 Q752.0059,579.6016 752.4277,579.1641 Q752.6934,578.8984 752.834,578.8203 Q752.9902,578.7422 753.1934,578.7422 Q753.5215,578.7422 753.7715,579.0078 Q754.0371,579.2578 754.0371,579.6016 Q754.0371,579.9453 753.6934,580.3516 Q753.1934,580.9297 752.3965,581.2578 Q751.3184,581.7109 750.0215,581.7109 Q748.5059,581.7109 747.3027,581.0859 Q746.3184,580.5859 745.6309,579.5234 Q744.9434,578.4453 744.9434,577.1641 L744.9434,576.0078 Q744.9434,574.6797 745.5527,573.5391 Q746.1777,572.3828 747.2715,571.7734 Q748.3652,571.1484 749.5996,571.1484 Q750.334,571.1484 750.9746,571.3203 Q751.6309,571.4766 752.1777,571.8359 Z " fill="#000000"/><text fill="#000000" font-family="sans-serif" font-size="12" font-style="italic" lengthAdjust="spacing" textLength="49.3652" x="788.8052" y="572.0664">&#171;control&#187;</text><text fill="#000000" font-family="sans-serif" font-size="14" lengthAdjust="spacing" textLength="87.1514" x="769.9121" y="589.2363">InquiryControl</text><line style="stroke:#181818;stroke-width:0.5;" x1="649.5" x2="944.9756" y1="597.3125" y2="597.3125"/><line style="stroke:#181818;stroke-width:0.5;" x1="649.5" x2="944.9756" y1="605.3125" y2="605.3125"/><g data-visibility-modifier="PUBLIC_METHOD"><ellipse cx="659.5" cy="619.6172" fill="#84BE84" rx="3" ry="3" style="stroke:#038048;stroke-width:1;"/></g><text fill="#000000" font-family="sans-serif" font-size="14" lengthAdjust="spacing" textLength="249.6963" x="668.5" y="623.8457">&#20104;&#32004;&#12434;&#26908;&#32034;&#12377;&#12427;(&#20104;&#32004;&#30058;&#21495;) : Reservation</text><g data-visibility-modifier="PUBLIC_METHOD"><ellipse cx="659.5" cy="637.2266" fill="#84BE84" rx="3" ry="3" style="stroke:#038048;stroke-width:1;"/></g><text fill="#000000" font-family="sans-serif" font-size="14" lengthAdjust="spacing" textLength="271.4756" x="668.5" y="641.4551">&#20104;&#32004;&#12434;&#26908;&#32034;&#12377;&#12427;(&#27663;&#21517;, &#23487;&#27850;&#26085;) : Reservation</text></g><!--class CheckInControl--><g class="entity" data-qualified-name="CheckInControl" data-source-line="23" id="ent0008"><rect fill="#F1F1F1" height="76.3125" rx="2.5" ry="2.5" style="stroke:#181818;stroke-width:0.5;" width="312.9932" x="836.5" y="338.6094"/><ellipse cx="940.502" cy="359.9609" fill="#ADD1B2" rx="11" ry="11" style="stroke:#181818;stroke-width:1;"/><path d="M943.2676,355.8359 Q943.4238,355.6172 943.6113,355.5078 Q943.7988,355.3984 944.0176,355.3984 Q944.3926,355.3984 944.627,355.6641 Q944.8613,355.9141 944.8613,356.5234 L944.8613,357.9766 Q944.8613,358.5859 944.627,358.8516 Q944.3926,359.1172 944.0176,359.1172 Q943.6738,359.1172 943.4707,358.9141 Q943.2676,358.7266 943.1582,358.2109 Q943.1113,357.8516 942.9238,357.6641 Q942.5957,357.2891 941.9863,357.0703 Q941.377,356.8516 940.752,356.8516 Q939.9863,356.8516 939.3457,357.1797 Q938.7207,357.5078 938.2207,358.2578 Q937.7363,359.0078 937.7363,360.0391 L937.7363,361.1328 Q937.7363,362.3672 938.627,363.1953 Q939.5176,364.0078 941.1113,364.0078 Q942.0488,364.0078 942.7051,363.7578 Q943.0957,363.6016 943.5176,363.1641 Q943.7832,362.8984 943.9238,362.8203 Q944.0801,362.7422 944.2832,362.7422 Q944.6113,362.7422 944.8613,363.0078 Q945.127,363.2578 945.127,363.6016 Q945.127,363.9453 944.7832,364.3516 Q944.2832,364.9297 943.4863,365.2578 Q942.4082,365.7109 941.1113,365.7109 Q939.5957,365.7109 938.3926,365.0859 Q937.4082,364.5859 936.7207,363.5234 Q936.0332,362.4453 936.0332,361.1641 L936.0332,360.0078 Q936.0332,358.6797 936.6426,357.5391 Q937.2676,356.3828 938.3613,355.7734 Q939.4551,355.1484 940.6895,355.1484 Q941.4238,355.1484 942.0645,355.3203 Q942.7207,355.4766 943.2676,355.8359 Z " fill="#000000"/><text fill="#000000" font-family="sans-serif" font-size="12" font-style="italic" lengthAdjust="spacing" textLength="49.3652" x="984.564" y="356.0664">&#171;control&#187;</text><text fill="#000000" font-family="sans-serif" font-size="14" lengthAdjust="spacing" textLength="96.4893" x="961.002" y="373.2363">CheckInControl</text><line style="stroke:#181818;stroke-width:0.5;" x1="837.5" x2="1148.4932" y1="381.3125" y2="381.3125"/><line style="stroke:#181818;stroke-width:0.5;" x1="837.5" x2="1148.4932" y1="389.3125" y2="389.3125"/><g data-visibility-modifier="PUBLIC_METHOD"><ellipse cx="847.5" cy="403.6172" fill="#84BE84" rx="3" ry="3" style="stroke:#038048;stroke-width:1;"/></g><text fill="#000000" font-family="sans-serif" font-size="14" lengthAdjust="spacing" textLength="286.9932" x="856.5" y="407.8457">&#12481;&#12455;&#12483;&#12463;&#12452;&#12531;&#12434;&#23455;&#34892;&#12377;&#12427;(&#20104;&#32004;&#30058;&#21495;) : &#37096;&#23627;&#30058;&#21495;</text></g><!--class CheckOutControl--><g class="entity" data-qualified-name="CheckOutControl" data-source-line="26" id="ent0009"><rect fill="#F1F1F1" height="93.9219" rx="2.5" ry="2.5" style="stroke:#181818;stroke-width:0.5;" width="334.0205" x="1436" y="165.6094"/><ellipse cx="1545.0708" cy="186.9609" fill="#ADD1B2" rx="11" ry="11" style="stroke:#181818;stroke-width:1;"/><path d="M1547.8364,182.8359 Q1547.9927,182.6172 1548.1802,182.5078 Q1548.3677,182.3984 1548.5864,182.3984 Q1548.9614,182.3984 1549.1958,182.6641 Q1549.4302,182.9141 1549.4302,183.5234 L1549.4302,184.9766 Q1549.4302,185.5859 1549.1958,185.8516 Q1548.9614,186.1172 1548.5864,186.1172 Q1548.2427,186.1172 1548.0396,185.9141 Q1547.8364,185.7266 1547.7271,185.2109 Q1547.6802,184.8516 1547.4927,184.6641 Q1547.1646,184.2891 1546.5552,184.0703 Q1545.9458,183.8516 1545.3208,183.8516 Q1544.5552,183.8516 1543.9146,184.1797 Q1543.2896,184.5078 1542.7896,185.2578 Q1542.3052,186.0078 1542.3052,187.0391 L1542.3052,188.1328 Q1542.3052,189.3672 1543.1958,190.1953 Q1544.0864,191.0078 1545.6802,191.0078 Q1546.6177,191.0078 1547.2739,190.7578 Q1547.6646,190.6016 1548.0864,190.1641 Q1548.3521,189.8984 1548.4927,189.8203 Q1548.6489,189.7422 1548.8521,189.7422 Q1549.1802,189.7422 1549.4302,190.0078 Q1549.6958,190.2578 1549.6958,190.6016 Q1549.6958,190.9453 1549.3521,191.3516 Q1548.8521,191.9297 1548.0552,192.2578 Q1546.9771,192.7109 1545.6802,192.7109 Q1544.1646,192.7109 1542.9614,192.0859 Q1541.9771,191.5859 1541.2896,190.5234 Q1540.6021,189.4453 1540.6021,188.1641 L1540.6021,187.0078 Q1540.6021,185.6797 1541.2114,184.5391 Q1541.8364,183.3828 1542.9302,182.7734 Q1544.0239,182.1484 1545.2583,182.1484 Q1545.9927,182.1484 1546.6333,182.3203 Q1547.2896,182.4766 1547.8364,182.8359 Z " fill="#000000"/><text fill="#000000" font-family="sans-serif" font-size="12" font-style="italic" lengthAdjust="spacing" textLength="49.3652" x="1594.5776" y="183.0664">&#171;control&#187;</text><text fill="#000000" font-family="sans-serif" font-size="14" lengthAdjust="spacing" textLength="107.3789" x="1565.5708" y="200.2363">CheckOutControl</text><line style="stroke:#181818;stroke-width:0.5;" x1="1437" x2="1769.0205" y1="208.3125" y2="208.3125"/><line style="stroke:#181818;stroke-width:0.5;" x1="1437" x2="1769.0205" y1="216.3125" y2="216.3125"/><g data-visibility-modifier="PUBLIC_METHOD"><ellipse cx="1447" cy="230.6172" fill="#84BE84" rx="3" ry="3" style="stroke:#038048;stroke-width:1;"/></g><text fill="#000000" font-family="sans-serif" font-size="14" lengthAdjust="spacing" textLength="217.0137" x="1456" y="234.8457">&#26009;&#37329;&#12434;&#35336;&#31639;&#12377;&#12427;(&#20104;&#32004;&#30058;&#21495;) : Money</text><g data-visibility-modifier="PUBLIC_METHOD"><ellipse cx="1447" cy="248.2266" fill="#84BE84" rx="3" ry="3" style="stroke:#038048;stroke-width:1;"/></g><text fill="#000000" font-family="sans-serif" font-size="14" lengthAdjust="spacing" textLength="308.0205" x="1456" y="252.4551">&#25903;&#25173;&#12356;&#12434;&#35352;&#37682;&#12377;&#12427;(&#20104;&#32004;&#30058;&#21495;, &#25903;&#25173;&#26041;&#27861;) : Payment</text></g><!--class CancellationControl--><g class="entity" data-qualified-name="CancellationControl" data-source-line="30" id="ent0010"><rect fill="#F1F1F1" height="76.3125" rx="2.5" ry="2.5" style="stroke:#181818;stroke-width:0.5;" width="268.6758" x="406.5" y="338.6094"/><ellipse cx="475.4985" cy="359.9609" fill="#ADD1B2" rx="11" ry="11" style="stroke:#181818;stroke-width:1;"/><path d="M478.2642,355.8359 Q478.4204,355.6172 478.6079,355.5078 Q478.7954,355.3984 479.0142,355.3984 Q479.3892,355.3984 479.6235,355.6641 Q479.8579,355.9141 479.8579,356.5234 L479.8579,357.9766 Q479.8579,358.5859 479.6235,358.8516 Q479.3892,359.1172 479.0142,359.1172 Q478.6704,359.1172 478.4673,358.9141 Q478.2642,358.7266 478.1548,358.2109 Q478.1079,357.8516 477.9204,357.6641 Q477.5923,357.2891 476.9829,357.0703 Q476.3735,356.8516 475.7485,356.8516 Q474.9829,356.8516 474.3423,357.1797 Q473.7173,357.5078 473.2173,358.2578 Q472.7329,359.0078 472.7329,360.0391 L472.7329,361.1328 Q472.7329,362.3672 473.6235,363.1953 Q474.5142,364.0078 476.1079,364.0078 Q477.0454,364.0078 477.7017,363.7578 Q478.0923,363.6016 478.5142,363.1641 Q478.7798,362.8984 478.9204,362.8203 Q479.0767,362.7422 479.2798,362.7422 Q479.6079,362.7422 479.8579,363.0078 Q480.1235,363.2578 480.1235,363.6016 Q480.1235,363.9453 479.7798,364.3516 Q479.2798,364.9297 478.4829,365.2578 Q477.4048,365.7109 476.1079,365.7109 Q474.5923,365.7109 473.3892,365.0859 Q472.4048,364.5859 471.7173,363.5234 Q471.0298,362.4453 471.0298,361.1641 L471.0298,360.0078 Q471.0298,358.6797 471.6392,357.5391 Q472.2642,356.3828 473.3579,355.7734 Q474.4517,355.1484 475.686,355.1484 Q476.4204,355.1484 477.061,355.3203 Q477.7173,355.4766 478.2642,355.8359 Z " fill="#000000"/><text fill="#000000" font-family="sans-serif" font-size="12" font-style="italic" lengthAdjust="spacing" textLength="49.3652" x="532.4053" y="356.0664">&#171;control&#187;</text><text fill="#000000" font-family="sans-serif" font-size="14" lengthAdjust="spacing" textLength="122.1787" x="495.9985" y="373.2363">CancellationControl</text><line style="stroke:#181818;stroke-width:0.5;" x1="407.5" x2="674.1758" y1="381.3125" y2="381.3125"/><line style="stroke:#181818;stroke-width:0.5;" x1="407.5" x2="674.1758" y1="389.3125" y2="389.3125"/><g data-visibility-modifier="PUBLIC_METHOD"><ellipse cx="417.5" cy="403.6172" fill="#84BE84" rx="3" ry="3" style="stroke:#038048;stroke-width:1;"/></g><text fill="#000000" font-family="sans-serif" font-size="14" lengthAdjust="spacing" textLength="242.6758" x="426.5" y="407.8457">&#12461;&#12515;&#12531;&#12475;&#12523;&#12434;&#23455;&#34892;&#12377;&#12427;(&#20104;&#32004;&#30058;&#21495;) : void</text></g><!--class Guest--><g class="entity" data-qualified-name="Guest" data-source-line="35" id="ent0011"><rect fill="#F1F1F1" height="111.5313" rx="2.5" ry="2.5" style="stroke:#181818;stroke-width:0.5;" width="120.165" x="415" y="545.6094"/><ellipse cx="452.5611" cy="566.9609" fill="#ADD1B2" rx="11" ry="11" style="stroke:#181818;stroke-width:1;"/><path d="M455.3267,562.8359 Q455.483,562.6172 455.6705,562.5078 Q455.858,562.3984 456.0767,562.3984 Q456.4517,562.3984 456.6861,562.6641 Q456.9205,562.9141 456.9205,563.5234 L456.9205,564.9766 Q456.9205,565.5859 456.6861,565.8516 Q456.4517,566.1172 456.0767,566.1172 Q455.733,566.1172 455.5298,565.9141 Q455.3267,565.7266 455.2173,565.2109 Q455.1705,564.8516 454.983,564.6641 Q454.6548,564.2891 454.0455,564.0703 Q453.4361,563.8516 452.8111,563.8516 Q452.0455,563.8516 451.4048,564.1797 Q450.7798,564.5078 450.2798,565.2578 Q449.7955,566.0078 449.7955,567.0391 L449.7955,568.1328 Q449.7955,569.3672 450.6861,570.1953 Q451.5767,571.0078 453.1705,571.0078 Q454.108,571.0078 454.7642,570.7578 Q455.1548,570.6016 455.5767,570.1641 Q455.8423,569.8984 455.983,569.8203 Q456.1392,569.7422 456.3423,569.7422 Q456.6705,569.7422 456.9205,570.0078 Q457.1861,570.2578 457.1861,570.6016 Q457.1861,570.9453 456.8423,571.3516 Q456.3423,571.9297 455.5455,572.2578 Q454.4673,572.7109 453.1705,572.7109 Q451.6548,572.7109 450.4517,572.0859 Q449.4673,571.5859 448.7798,570.5234 Q448.0923,569.4453 448.0923,568.1641 L448.0923,567.0078 Q448.0923,565.6797 448.7017,564.5391 Q449.3267,563.3828 450.4205,562.7734 Q451.5142,562.1484 452.7486,562.1484 Q453.483,562.1484 454.1236,562.3203 Q454.7798,562.4766 455.3267,562.8359 Z " fill="#000000"/><text fill="#000000" font-family="sans-serif" font-size="12" font-style="italic" lengthAdjust="spacing" textLength="42.0293" x="469.5747" y="563.0664">&#171;entity&#187;</text><text fill="#000000" font-family="sans-serif" font-size="14" lengthAdjust="spacing" textLength="37.3516" x="471.9135" y="580.2363">Guest</text><line style="stroke:#181818;stroke-width:0.5;" x1="416" x2="534.165" y1="588.3125" y2="588.3125"/><g data-visibility-modifier="PRIVATE_FIELD"><rect fill="none" height="6" style="stroke:#C82930;stroke-width:1;" width="6" x="423" y="599.6172"/></g><text fill="#000000" font-family="sans-serif" font-size="14" lengthAdjust="spacing" textLength="94.165" x="435" y="606.8457">guestId : String</text><g data-visibility-modifier="PRIVATE_FIELD"><rect fill="none" height="6" style="stroke:#C82930;stroke-width:1;" width="6" x="423" y="617.2266"/></g><text fill="#000000" font-family="sans-serif" font-size="14" lengthAdjust="spacing" textLength="83.2617" x="435" y="624.4551">name : String</text><g data-visibility-modifier="PRIVATE_FIELD"><rect fill="none" height="6" style="stroke:#C82930;stroke-width:1;" width="6" x="423" y="634.8359"/></g><text fill="#000000" font-family="sans-serif" font-size="14" lengthAdjust="spacing" textLength="93.3789" x="435" y="642.0645">contact : String</text><line style="stroke:#181818;stroke-width:0.5;" x1="416" x2="534.165" y1="649.1406" y2="649.1406"/></g><!--class Reservation--><g class="entity" data-qualified-name="Reservation" data-source-line="40" id="ent0012"><rect fill="#F1F1F1" height="199.5781" rx="2.5" ry="2.5" style="stroke:#181818;stroke-width:0.5;" width="200.9932" x="896.5" y="753.6094"/><ellipse cx="955.395" cy="774.9609" fill="#ADD1B2" rx="11" ry="11" style="stroke:#181818;stroke-width:1;"/><path d="M958.1606,770.8359 Q958.3169,770.6172 958.5044,770.5078 Q958.6919,770.3984 958.9106,770.3984 Q959.2856,770.3984 959.52,770.6641 Q959.7544,770.9141 959.7544,771.5234 L959.7544,772.9766 Q959.7544,773.5859 959.52,773.8516 Q959.2856,774.1172 958.9106,774.1172 Q958.5669,774.1172 958.3638,773.9141 Q958.1606,773.7266 958.0513,773.2109 Q958.0044,772.8516 957.8169,772.6641 Q957.4888,772.2891 956.8794,772.0703 Q956.27,771.8516 955.645,771.8516 Q954.8794,771.8516 954.2388,772.1797 Q953.6138,772.5078 953.1138,773.2578 Q952.6294,774.0078 952.6294,775.0391 L952.6294,776.1328 Q952.6294,777.3672 953.52,778.1953 Q954.4106,779.0078 956.0044,779.0078 Q956.9419,779.0078 957.5981,778.7578 Q957.9888,778.6016 958.4106,778.1641 Q958.6763,777.8984 958.8169,777.8203 Q958.9731,777.7422 959.1763,777.7422 Q959.5044,777.7422 959.7544,778.0078 Q960.02,778.2578 960.02,778.6016 Q960.02,778.9453 959.6763,779.3516 Q959.1763,779.9297 958.3794,780.2578 Q957.3013,780.7109 956.0044,780.7109 Q954.4888,780.7109 953.2856,780.0859 Q952.3013,779.5859 951.6138,778.5234 Q950.9263,777.4453 950.9263,776.1641 L950.9263,775.0078 Q950.9263,773.6797 951.5356,772.5391 Q952.1606,771.3828 953.2544,770.7734 Q954.3481,770.1484 955.5825,770.1484 Q956.3169,770.1484 956.9575,770.3203 Q957.6138,770.4766 958.1606,770.8359 Z " fill="#000000"/><text fill="#000000" font-family="sans-serif" font-size="12" font-style="italic" lengthAdjust="spacing" textLength="42.0293" x="992.2319" y="771.0664">&#171;entity&#187;</text><text fill="#000000" font-family="sans-serif" font-size="14" lengthAdjust="spacing" textLength="74.7031" x="975.895" y="788.2363">Reservation</text><line style="stroke:#181818;stroke-width:0.5;" x1="897.5" x2="1096.4932" y1="796.3125" y2="796.3125"/><g data-visibility-modifier="PRIVATE_FIELD"><rect fill="none" height="6" style="stroke:#C82930;stroke-width:1;" width="6" x="904.5" y="807.6172"/></g><text fill="#000000" font-family="sans-serif" font-size="14" lengthAdjust="spacing" textLength="129.1719" x="916.5" y="814.8457">reservationId : String</text><g data-visibility-modifier="PRIVATE_FIELD"><rect fill="none" height="6" style="stroke:#C82930;stroke-width:1;" width="6" x="904.5" y="825.2266"/></g><text fill="#000000" font-family="sans-serif" font-size="14" lengthAdjust="spacing" textLength="119.0615" x="916.5" y="832.4551">checkInDate : Date</text><g data-visibility-modifier="PRIVATE_FIELD"><rect fill="none" height="6" style="stroke:#C82930;stroke-width:1;" width="6" x="904.5" y="842.8359"/></g><text fill="#000000" font-family="sans-serif" font-size="14" lengthAdjust="spacing" textLength="129.9512" x="916.5" y="850.0645">checkOutDate : Date</text><g data-visibility-modifier="PRIVATE_FIELD"><rect fill="none" height="6" style="stroke:#C82930;stroke-width:1;" width="6" x="904.5" y="860.4453"/></g><text fill="#000000" font-family="sans-serif" font-size="14" lengthAdjust="spacing" textLength="163.4131" x="916.5" y="867.6738">status : ReservationStatus</text><line style="stroke:#181818;stroke-width:0.5;" x1="897.5" x2="1096.4932" y1="874.75" y2="874.75"/><g data-visibility-modifier="PUBLIC_METHOD"><ellipse cx="907.5" cy="889.0547" fill="#84BE84" rx="3" ry="3" style="stroke:#038048;stroke-width:1;"/></g><text fill="#000000" font-family="sans-serif" font-size="14" lengthAdjust="spacing" textLength="174.9932" x="916.5" y="893.2832">&#20869;&#23481;&#12434;&#21462;&#24471;&#12377;&#12427;() : &#20104;&#32004;&#20869;&#23481;</text><g data-visibility-modifier="PUBLIC_METHOD"><ellipse cx="907.5" cy="906.6641" fill="#84BE84" rx="3" ry="3" style="stroke:#038048;stroke-width:1;"/></g><text fill="#000000" font-family="sans-serif" font-size="14" lengthAdjust="spacing" textLength="158.6758" x="916.5" y="910.8926">&#12481;&#12455;&#12483;&#12463;&#12452;&#12531;&#12377;&#12427;() : void</text><g data-visibility-modifier="PUBLIC_METHOD"><ellipse cx="907.5" cy="924.2734" fill="#84BE84" rx="3" ry="3" style="stroke:#038048;stroke-width:1;"/></g><text fill="#000000" font-family="sans-serif" font-size="14" lengthAdjust="spacing" textLength="172.6758" x="916.5" y="928.502">&#12481;&#12455;&#12483;&#12463;&#12450;&#12454;&#12488;&#12377;&#12427;() : void</text><g data-visibility-modifier="PUBLIC_METHOD"><ellipse cx="907.5" cy="941.8828" fill="#84BE84" rx="3" ry="3" style="stroke:#038048;stroke-width:1;"/></g><text fill="#000000" font-family="sans-serif" font-size="14" lengthAdjust="spacing" textLength="144.6758" x="916.5" y="946.1113">&#12461;&#12515;&#12531;&#12475;&#12523;&#12377;&#12427;() : void</text></g><!--class Room--><g class="entity" data-qualified-name="Room" data-source-line="50" id="ent0013"><rect fill="#F1F1F1" height="181.9688" rx="2.5" ry="2.5" style="stroke:#181818;stroke-width:0.5;" width="236.8203" x="1059.5" y="510.6094"/><ellipse cx="1154.6455" cy="531.9609" fill="#ADD1B2" rx="11" ry="11" style="stroke:#181818;stroke-width:1;"/><path d="M1157.4111,527.8359 Q1157.5674,527.6172 1157.7549,527.5078 Q1157.9424,527.3984 1158.1611,527.3984 Q1158.5361,527.3984 1158.7705,527.6641 Q1159.0049,527.9141 1159.0049,528.5234 L1159.0049,529.9766 Q1159.0049,530.5859 1158.7705,530.8516 Q1158.5361,531.1172 1158.1611,531.1172 Q1157.8174,531.1172 1157.6143,530.9141 Q1157.4111,530.7266 1157.3018,530.2109 Q1157.2549,529.8516 1157.0674,529.6641 Q1156.7393,529.2891 1156.1299,529.0703 Q1155.5205,528.8516 1154.8955,528.8516 Q1154.1299,528.8516 1153.4893,529.1797 Q1152.8643,529.5078 1152.3643,530.2578 Q1151.8799,531.0078 1151.8799,532.0391 L1151.8799,533.1328 Q1151.8799,534.3672 1152.7705,535.1953 Q1153.6611,536.0078 1155.2549,536.0078 Q1156.1924,536.0078 1156.8486,535.7578 Q1157.2393,535.6016 1157.6611,535.1641 Q1157.9268,534.8984 1158.0674,534.8203 Q1158.2236,534.7422 1158.4268,534.7422 Q1158.7549,534.7422 1159.0049,535.0078 Q1159.2705,535.2578 1159.2705,535.6016 Q1159.2705,535.9453 1158.9268,536.3516 Q1158.4268,536.9297 1157.6299,537.2578 Q1156.5518,537.7109 1155.2549,537.7109 Q1153.7393,537.7109 1152.5361,537.0859 Q1151.5518,536.5859 1150.8643,535.5234 Q1150.1768,534.4453 1150.1768,533.1641 L1150.1768,532.0078 Q1150.1768,530.6797 1150.7861,529.5391 Q1151.4111,528.3828 1152.5049,527.7734 Q1153.5986,527.1484 1154.833,527.1484 Q1155.5674,527.1484 1156.208,527.3203 Q1156.8643,527.4766 1157.4111,527.8359 Z " fill="#000000"/><text fill="#000000" font-family="sans-serif" font-size="12" font-style="italic" lengthAdjust="spacing" textLength="42.0293" x="1173.1455" y="528.0664">&#171;entity&#187;</text><text fill="#000000" font-family="sans-serif" font-size="14" lengthAdjust="spacing" textLength="37.3447" x="1175.4878" y="545.2363">Room</text><line style="stroke:#181818;stroke-width:0.5;" x1="1060.5" x2="1295.3203" y1="553.3125" y2="553.3125"/><g data-visibility-modifier="PRIVATE_FIELD"><rect fill="none" height="6" style="stroke:#C82930;stroke-width:1;" width="6" x="1067.5" y="564.6172"/></g><text fill="#000000" font-family="sans-serif" font-size="14" lengthAdjust="spacing" textLength="129.9307" x="1079.5" y="571.8457">roomNumber : String</text><g data-visibility-modifier="PRIVATE_FIELD"><rect fill="none" height="6" style="stroke:#C82930;stroke-width:1;" width="6" x="1067.5" y="582.2266"/></g><text fill="#000000" font-family="sans-serif" font-size="14" lengthAdjust="spacing" textLength="111.2617" x="1079.5" y="589.4551">roomType : String</text><g data-visibility-modifier="PRIVATE_FIELD"><rect fill="none" height="6" style="stroke:#C82930;stroke-width:1;" width="6" x="1067.5" y="599.8359"/></g><text fill="#000000" font-family="sans-serif" font-size="14" lengthAdjust="spacing" textLength="126.0547" x="1079.5" y="607.0645">status : RoomStatus</text><line style="stroke:#181818;stroke-width:0.5;" x1="1060.5" x2="1295.3203" y1="614.1406" y2="614.1406"/><g data-visibility-modifier="PUBLIC_METHOD"><ellipse cx="1070.5" cy="628.4453" fill="#84BE84" rx="3" ry="3" style="stroke:#038048;stroke-width:1;"/></g><text fill="#000000" font-family="sans-serif" font-size="14" lengthAdjust="spacing" textLength="210.8203" x="1079.5" y="632.6738">&#31354;&#23460;&#12363;&#21028;&#23450;&#12377;&#12427;(&#23487;&#27850;&#26085;) : boolean</text><g data-visibility-modifier="PUBLIC_METHOD"><ellipse cx="1070.5" cy="646.0547" fill="#84BE84" rx="3" ry="3" style="stroke:#038048;stroke-width:1;"/></g><text fill="#000000" font-family="sans-serif" font-size="14" lengthAdjust="spacing" textLength="172.6758" x="1079.5" y="650.2832">&#20104;&#32004;&#28168;&#12415;&#12395;&#26356;&#26032;&#12377;&#12427;() : void</text><g data-visibility-modifier="PUBLIC_METHOD"><ellipse cx="1070.5" cy="663.6641" fill="#84BE84" rx="3" ry="3" style="stroke:#038048;stroke-width:1;"/></g><text fill="#000000" font-family="sans-serif" font-size="14" lengthAdjust="spacing" textLength="158.6758" x="1079.5" y="667.8926">&#20351;&#29992;&#20013;&#12395;&#26356;&#26032;&#12377;&#12427;() : void</text><g data-visibility-modifier="PUBLIC_METHOD"><ellipse cx="1070.5" cy="681.2734" fill="#84BE84" rx="3" ry="3" style="stroke:#038048;stroke-width:1;"/></g><text fill="#000000" font-family="sans-serif" font-size="14" lengthAdjust="spacing" textLength="116.6758" x="1079.5" y="685.502">&#31354;&#23460;&#12395;&#25147;&#12377;() : void</text></g><!--class RoomRate--><g class="entity" data-qualified-name="RoomRate" data-source-line="59" id="ent0014"><rect fill="#F1F1F1" height="111.5313" rx="2.5" ry="2.5" style="stroke:#181818;stroke-width:0.5;" width="257.0137" x="1256.5" y="320.6094"/><ellipse cx="1347.2983" cy="341.9609" fill="#ADD1B2" rx="11" ry="11" style="stroke:#181818;stroke-width:1;"/><path d="M1350.064,337.8359 Q1350.2202,337.6172 1350.4077,337.5078 Q1350.5952,337.3984 1350.814,337.3984 Q1351.189,337.3984 1351.4233,337.6641 Q1351.6577,337.9141 1351.6577,338.5234 L1351.6577,339.9766 Q1351.6577,340.5859 1351.4233,340.8516 Q1351.189,341.1172 1350.814,341.1172 Q1350.4702,341.1172 1350.2671,340.9141 Q1350.064,340.7266 1349.9546,340.2109 Q1349.9077,339.8516 1349.7202,339.6641 Q1349.3921,339.2891 1348.7827,339.0703 Q1348.1733,338.8516 1347.5483,338.8516 Q1346.7827,338.8516 1346.1421,339.1797 Q1345.5171,339.5078 1345.0171,340.2578 Q1344.5327,341.0078 1344.5327,342.0391 L1344.5327,343.1328 Q1344.5327,344.3672 1345.4233,345.1953 Q1346.314,346.0078 1347.9077,346.0078 Q1348.8452,346.0078 1349.5015,345.7578 Q1349.8921,345.6016 1350.314,345.1641 Q1350.5796,344.8984 1350.7202,344.8203 Q1350.8765,344.7422 1351.0796,344.7422 Q1351.4077,344.7422 1351.6577,345.0078 Q1351.9233,345.2578 1351.9233,345.6016 Q1351.9233,345.9453 1351.5796,346.3516 Q1351.0796,346.9297 1350.2827,347.2578 Q1349.2046,347.7109 1347.9077,347.7109 Q1346.3921,347.7109 1345.189,347.0859 Q1344.2046,346.5859 1343.5171,345.5234 Q1342.8296,344.4453 1342.8296,343.1641 L1342.8296,342.0078 Q1342.8296,340.6797 1343.439,339.5391 Q1344.064,338.3828 1345.1577,337.7734 Q1346.2515,337.1484 1347.4858,337.1484 Q1348.2202,337.1484 1348.8608,337.3203 Q1349.5171,337.4766 1350.064,337.8359 Z " fill="#000000"/><text fill="#000000" font-family="sans-serif" font-size="12" font-style="italic" lengthAdjust="spacing" textLength="42.0293" x="1380.2422" y="338.0664">&#171;entity&#187;</text><text fill="#000000" font-family="sans-serif" font-size="14" lengthAdjust="spacing" textLength="66.917" x="1367.7983" y="355.2363">RoomRate</text><line style="stroke:#181818;stroke-width:0.5;" x1="1257.5" x2="1512.5137" y1="363.3125" y2="363.3125"/><g data-visibility-modifier="PRIVATE_FIELD"><rect fill="none" height="6" style="stroke:#C82930;stroke-width:1;" width="6" x="1264.5" y="374.6172"/></g><text fill="#000000" font-family="sans-serif" font-size="14" lengthAdjust="spacing" textLength="111.2617" x="1276.5" y="381.8457">roomType : String</text><g data-visibility-modifier="PRIVATE_FIELD"><rect fill="none" height="6" style="stroke:#C82930;stroke-width:1;" width="6" x="1264.5" y="392.2266"/></g><text fill="#000000" font-family="sans-serif" font-size="14" lengthAdjust="spacing" textLength="138.5029" x="1276.5" y="399.4551">pricePerNight : Money</text><line style="stroke:#181818;stroke-width:0.5;" x1="1257.5" x2="1512.5137" y1="406.5313" y2="406.5313"/><g data-visibility-modifier="PUBLIC_METHOD"><ellipse cx="1267.5" cy="420.8359" fill="#84BE84" rx="3" ry="3" style="stroke:#038048;stroke-width:1;"/></g><text fill="#000000" font-family="sans-serif" font-size="14" lengthAdjust="spacing" textLength="231.0137" x="1276.5" y="425.0645">&#21336;&#20385;&#12434;&#21462;&#24471;&#12377;&#12427;(&#23458;&#23460;&#12479;&#12452;&#12503;) : Money</text></g><!--class ServiceUsage--><g class="entity" data-qualified-name="ServiceUsage" data-source-line="64" id="ent0015"><rect fill="#F1F1F1" height="111.5313" rx="2.5" ry="2.5" style="stroke:#181818;stroke-width:0.5;" width="215.0137" x="1226.5" y="1017.6094"/><ellipse cx="1286.1812" cy="1038.9609" fill="#ADD1B2" rx="11" ry="11" style="stroke:#181818;stroke-width:1;"/><path d="M1288.9468,1034.8359 Q1289.103,1034.6172 1289.2905,1034.5078 Q1289.478,1034.3984 1289.6968,1034.3984 Q1290.0718,1034.3984 1290.3062,1034.6641 Q1290.5405,1034.9141 1290.5405,1035.5234 L1290.5405,1036.9766 Q1290.5405,1037.5859 1290.3062,1037.8516 Q1290.0718,1038.1172 1289.6968,1038.1172 Q1289.353,1038.1172 1289.1499,1037.9141 Q1288.9468,1037.7266 1288.8374,1037.2109 Q1288.7905,1036.8516 1288.603,1036.6641 Q1288.2749,1036.2891 1287.6655,1036.0703 Q1287.0562,1035.8516 1286.4312,1035.8516 Q1285.6655,1035.8516 1285.0249,1036.1797 Q1284.3999,1036.5078 1283.8999,1037.2578 Q1283.4155,1038.0078 1283.4155,1039.0391 L1283.4155,1040.1328 Q1283.4155,1041.3672 1284.3062,1042.1953 Q1285.1968,1043.0078 1286.7905,1043.0078 Q1287.728,1043.0078 1288.3843,1042.7578 Q1288.7749,1042.6016 1289.1968,1042.1641 Q1289.4624,1041.8984 1289.603,1041.8203 Q1289.7593,1041.7422 1289.9624,1041.7422 Q1290.2905,1041.7422 1290.5405,1042.0078 Q1290.8062,1042.2578 1290.8062,1042.6016 Q1290.8062,1042.9453 1290.4624,1043.3516 Q1289.9624,1043.9297 1289.1655,1044.2578 Q1288.0874,1044.7109 1286.7905,1044.7109 Q1285.2749,1044.7109 1284.0718,1044.0859 Q1283.0874,1043.5859 1282.3999,1042.5234 Q1281.7124,1041.4453 1281.7124,1040.1641 L1281.7124,1039.0078 Q1281.7124,1037.6797 1282.3218,1036.5391 Q1282.9468,1035.3828 1284.0405,1034.7734 Q1285.1343,1034.1484 1286.3687,1034.1484 Q1287.103,1034.1484 1287.7437,1034.3203 Q1288.3999,1034.4766 1288.9468,1034.8359 Z " fill="#000000"/><text fill="#000000" font-family="sans-serif" font-size="12" font-style="italic" lengthAdjust="spacing" textLength="42.0293" x="1329.2422" y="1035.0664">&#171;entity&#187;</text><text fill="#000000" font-family="sans-serif" font-size="14" lengthAdjust="spacing" textLength="87.1514" x="1306.6812" y="1052.2363">ServiceUsage</text><line style="stroke:#181818;stroke-width:0.5;" x1="1227.5" x2="1440.5137" y1="1060.3125" y2="1060.3125"/><g data-visibility-modifier="PRIVATE_FIELD"><rect fill="none" height="6" style="stroke:#C82930;stroke-width:1;" width="6" x="1234.5" y="1071.6172"/></g><text fill="#000000" font-family="sans-serif" font-size="14" lengthAdjust="spacing" textLength="129.9307" x="1246.5" y="1078.8457">serviceName : String</text><g data-visibility-modifier="PRIVATE_FIELD"><rect fill="none" height="6" style="stroke:#C82930;stroke-width:1;" width="6" x="1234.5" y="1089.2266"/></g><text fill="#000000" font-family="sans-serif" font-size="14" lengthAdjust="spacing" textLength="73.1514" x="1246.5" y="1096.4551">fee : Money</text><line style="stroke:#181818;stroke-width:0.5;" x1="1227.5" x2="1440.5137" y1="1103.5313" y2="1103.5313"/><g data-visibility-modifier="PUBLIC_METHOD"><ellipse cx="1237.5" cy="1117.8359" fill="#84BE84" rx="3" ry="3" style="stroke:#038048;stroke-width:1;"/></g><text fill="#000000" font-family="sans-serif" font-size="14" lengthAdjust="spacing" textLength="189.0137" x="1246.5" y="1122.0645">&#36861;&#21152;&#26009;&#37329;&#12434;&#21462;&#24471;&#12377;&#12427;() : Money</text></g><!--class Charge--><g class="entity" data-qualified-name="Charge" data-source-line="69" id="ent0016"><rect fill="#F1F1F1" height="93.9219" rx="2.5" ry="2.5" style="stroke:#181818;stroke-width:0.5;" width="137.2822" x="1537.5" y="1026.6094"/><ellipse cx="1579.2144" cy="1047.9609" fill="#ADD1B2" rx="11" ry="11" style="stroke:#181818;stroke-width:1;"/><path d="M1581.98,1043.8359 Q1582.1362,1043.6172 1582.3237,1043.5078 Q1582.5112,1043.3984 1582.73,1043.3984 Q1583.105,1043.3984 1583.3394,1043.6641 Q1583.5737,1043.9141 1583.5737,1044.5234 L1583.5737,1045.9766 Q1583.5737,1046.5859 1583.3394,1046.8516 Q1583.105,1047.1172 1582.73,1047.1172 Q1582.3862,1047.1172 1582.1831,1046.9141 Q1581.98,1046.7266 1581.8706,1046.2109 Q1581.8237,1045.8516 1581.6362,1045.6641 Q1581.3081,1045.2891 1580.6987,1045.0703 Q1580.0894,1044.8516 1579.4644,1044.8516 Q1578.6987,1044.8516 1578.0581,1045.1797 Q1577.4331,1045.5078 1576.9331,1046.2578 Q1576.4487,1047.0078 1576.4487,1048.0391 L1576.4487,1049.1328 Q1576.4487,1050.3672 1577.3394,1051.1953 Q1578.23,1052.0078 1579.8237,1052.0078 Q1580.7612,1052.0078 1581.4175,1051.7578 Q1581.8081,1051.6016 1582.23,1051.1641 Q1582.4956,1050.8984 1582.6362,1050.8203 Q1582.7925,1050.7422 1582.9956,1050.7422 Q1583.3237,1050.7422 1583.5737,1051.0078 Q1583.8394,1051.2578 1583.8394,1051.6016 Q1583.8394,1051.9453 1583.4956,1052.3516 Q1582.9956,1052.9297 1582.1987,1053.2578 Q1581.1206,1053.7109 1579.8237,1053.7109 Q1578.3081,1053.7109 1577.105,1053.0859 Q1576.1206,1052.5859 1575.4331,1051.5234 Q1574.7456,1050.4453 1574.7456,1049.1641 L1574.7456,1048.0078 Q1574.7456,1046.6797 1575.355,1045.5391 Q1575.98,1044.3828 1577.0737,1043.7734 Q1578.1675,1043.1484 1579.4019,1043.1484 Q1580.1362,1043.1484 1580.7769,1043.3203 Q1581.4331,1043.4766 1581.98,1043.8359 Z " fill="#000000"/><text fill="#000000" font-family="sans-serif" font-size="12" font-style="italic" lengthAdjust="spacing" textLength="42.0293" x="1601.0947" y="1044.0664">&#171;entity&#187;</text><text fill="#000000" font-family="sans-serif" font-size="14" lengthAdjust="spacing" textLength="45.917" x="1599.1509" y="1061.2363">Charge</text><line style="stroke:#181818;stroke-width:0.5;" x1="1538.5" x2="1673.7822" y1="1069.3125" y2="1069.3125"/><g data-visibility-modifier="PRIVATE_FIELD"><rect fill="none" height="6" style="stroke:#C82930;stroke-width:1;" width="6" x="1545.5" y="1080.6172"/></g><text fill="#000000" font-family="sans-serif" font-size="14" lengthAdjust="spacing" textLength="100.3857" x="1557.5" y="1087.8457">amount : Money</text><g data-visibility-modifier="PRIVATE_FIELD"><rect fill="none" height="6" style="stroke:#C82930;stroke-width:1;" width="6" x="1545.5" y="1098.2266"/></g><text fill="#000000" font-family="sans-serif" font-size="14" lengthAdjust="spacing" textLength="111.2822" x="1557.5" y="1105.4551">issuedDate : Date</text><line style="stroke:#181818;stroke-width:0.5;" x1="1538.5" x2="1673.7822" y1="1112.5313" y2="1112.5313"/></g><!--class Payment--><g class="entity" data-qualified-name="Payment" data-source-line="73" id="ent0017"><rect fill="#F1F1F1" height="146.75" rx="2.5" ry="2.5" style="stroke:#181818;stroke-width:0.5;" width="184.6758" x="1513.5" y="1193.6094"/><ellipse cx="1573.9639" cy="1214.9609" fill="#ADD1B2" rx="11" ry="11" style="stroke:#181818;stroke-width:1;"/><path d="M1576.7295,1210.8359 Q1576.8857,1210.6172 1577.0732,1210.5078 Q1577.2607,1210.3984 1577.4795,1210.3984 Q1577.8545,1210.3984 1578.0889,1210.6641 Q1578.3232,1210.9141 1578.3232,1211.5234 L1578.3232,1212.9766 Q1578.3232,1213.5859 1578.0889,1213.8516 Q1577.8545,1214.1172 1577.4795,1214.1172 Q1577.1357,1214.1172 1576.9326,1213.9141 Q1576.7295,1213.7266 1576.6201,1213.2109 Q1576.5732,1212.8516 1576.3857,1212.6641 Q1576.0576,1212.2891 1575.4482,1212.0703 Q1574.8389,1211.8516 1574.2139,1211.8516 Q1573.4482,1211.8516 1572.8076,1212.1797 Q1572.1826,1212.5078 1571.6826,1213.2578 Q1571.1982,1214.0078 1571.1982,1215.0391 L1571.1982,1216.1328 Q1571.1982,1217.3672 1572.0889,1218.1953 Q1572.9795,1219.0078 1574.5732,1219.0078 Q1575.5107,1219.0078 1576.167,1218.7578 Q1576.5576,1218.6016 1576.9795,1218.1641 Q1577.2451,1217.8984 1577.3857,1217.8203 Q1577.542,1217.7422 1577.7451,1217.7422 Q1578.0732,1217.7422 1578.3232,1218.0078 Q1578.5889,1218.2578 1578.5889,1218.6016 Q1578.5889,1218.9453 1578.2451,1219.3516 Q1577.7451,1219.9297 1576.9482,1220.2578 Q1575.8701,1220.7109 1574.5732,1220.7109 Q1573.0576,1220.7109 1571.8545,1220.0859 Q1570.8701,1219.5859 1570.1826,1218.5234 Q1569.4951,1217.4453 1569.4951,1216.1641 L1569.4951,1215.0078 Q1569.4951,1213.6797 1570.1045,1212.5391 Q1570.7295,1211.3828 1571.8232,1210.7734 Q1572.917,1210.1484 1574.1514,1210.1484 Q1574.8857,1210.1484 1575.5264,1210.3203 Q1576.1826,1210.4766 1576.7295,1210.8359 Z " fill="#000000"/><text fill="#000000" font-family="sans-serif" font-size="12" font-style="italic" lengthAdjust="spacing" textLength="42.0293" x="1601.0732" y="1211.0664">&#171;entity&#187;</text><text fill="#000000" font-family="sans-serif" font-size="14" lengthAdjust="spacing" textLength="55.248" x="1594.4639" y="1228.2363">Payment</text><line style="stroke:#181818;stroke-width:0.5;" x1="1514.5" x2="1697.1758" y1="1236.3125" y2="1236.3125"/><g data-visibility-modifier="PRIVATE_FIELD"><rect fill="none" height="6" style="stroke:#C82930;stroke-width:1;" width="6" x="1521.5" y="1247.6172"/></g><text fill="#000000" font-family="sans-serif" font-size="14" lengthAdjust="spacing" textLength="113.6133" x="1533.5" y="1254.8457">paymentId : String</text><g data-visibility-modifier="PRIVATE_FIELD"><rect fill="none" height="6" style="stroke:#C82930;stroke-width:1;" width="6" x="1521.5" y="1265.2266"/></g><text fill="#000000" font-family="sans-serif" font-size="14" lengthAdjust="spacing" textLength="97.2822" x="1533.5" y="1272.4551">paidDate : Date</text><g data-visibility-modifier="PRIVATE_FIELD"><rect fill="none" height="6" style="stroke:#C82930;stroke-width:1;" width="6" x="1521.5" y="1282.8359"/></g><text fill="#000000" font-family="sans-serif" font-size="14" lengthAdjust="spacing" textLength="94.9375" x="1533.5" y="1290.0645">method : String</text><g data-visibility-modifier="PRIVATE_FIELD"><rect fill="none" height="6" style="stroke:#C82930;stroke-width:1;" width="6" x="1521.5" y="1300.4453"/></g><text fill="#000000" font-family="sans-serif" font-size="14" lengthAdjust="spacing" textLength="143.958" x="1533.5" y="1307.6738">status : PaymentStatus</text><line style="stroke:#181818;stroke-width:0.5;" x1="1514.5" x2="1697.1758" y1="1314.75" y2="1314.75"/><g data-visibility-modifier="PUBLIC_METHOD"><ellipse cx="1524.5" cy="1329.0547" fill="#84BE84" rx="3" ry="3" style="stroke:#038048;stroke-width:1;"/></g><text fill="#000000" font-family="sans-serif" font-size="14" lengthAdjust="spacing" textLength="158.6758" x="1533.5" y="1333.2832">&#25903;&#25173;&#12356;&#28168;&#12415;&#12395;&#12377;&#12427;() : void</text></g><!--class RoomStatus--><g class="entity" data-qualified-name="RoomStatus" data-source-line="81" id="ent0018"><rect fill="#F1F1F1" height="100.8281" rx="2.5" ry="2.5" style="stroke:#181818;stroke-width:0.5;" width="109.0342" x="1132.5" y="803.1094"/><ellipse cx="1147.5" cy="819.1094" fill="#EB937F" rx="11" ry="11" style="stroke:#181818;stroke-width:1;"/><path d="M1146.3594,819.9063 L1146.3594,822.4063 L1150.6875,822.4063 L1150.6875,821.4844 Q1150.6875,820.875 1150.9219,820.6094 Q1151.1719,820.3438 1151.5469,820.3438 Q1151.9219,820.3438 1152.1563,820.6094 Q1152.3906,820.875 1152.3906,821.4844 L1152.3906,824.1094 L1144.3906,824.1094 Q1143.7656,824.1094 1143.5,823.875 Q1143.25,823.6406 1143.25,823.25 Q1143.25,822.875 1143.5156,822.6406 Q1143.7813,822.4063 1144.3906,822.4063 L1144.6563,822.4063 L1144.6563,815.75 L1144.3906,815.75 Q1143.7656,815.75 1143.5,815.5156 Q1143.25,815.2813 1143.25,814.8906 Q1143.25,814.5156 1143.5,814.2813 Q1143.7656,814.0469 1144.3906,814.0469 L1152.0156,814.0469 L1152.0156,816.6406 Q1152.0156,817.25 1151.7813,817.5156 Q1151.5625,817.7656 1151.1719,817.7656 Q1150.7969,817.7656 1150.5625,817.5156 Q1150.3281,817.25 1150.3281,816.6406 L1150.3281,815.75 L1146.3594,815.75 L1146.3594,818.2031 L1147.8438,818.2031 Q1147.8438,817.5469 1147.9688,817.3594 Q1148.2344,816.9531 1148.7031,816.9531 Q1149.0781,816.9531 1149.3125,817.2188 Q1149.5469,817.4688 1149.5469,818.0781 L1149.5469,820.0469 Q1149.5469,820.5938 1149.4219,820.7813 Q1149.1563,821.1719 1148.7031,821.1719 Q1148.2344,821.1719 1147.9688,820.7656 Q1147.8438,820.5781 1147.8438,819.9063 L1146.3594,819.9063 Z " fill="#000000"/><text fill="#000000" font-family="sans-serif" font-size="14" lengthAdjust="spacing" textLength="77.0342" x="1161.5" y="824.8379">RoomStatus</text><line style="stroke:#181818;stroke-width:0.5;" x1="1133.5" x2="1240.5342" y1="835.1094" y2="835.1094"/><text fill="#000000" font-family="sans-serif" font-size="14" lengthAdjust="spacing" textLength="56.7861" x="1138.5" y="853.6426">VACANT</text><text fill="#000000" font-family="sans-serif" font-size="14" lengthAdjust="spacing" textLength="77.0205" x="1138.5" y="871.252">RESERVED</text><text fill="#000000" font-family="sans-serif" font-size="14" lengthAdjust="spacing" textLength="73.8965" x="1138.5" y="888.8613">OCCUPIED</text><line style="stroke:#181818;stroke-width:0.5;" x1="1133.5" x2="1240.5342" y1="895.9375" y2="895.9375"/></g><!--class ReservationStatus--><g class="entity" data-qualified-name="ReservationStatus" data-source-line="86" id="ent0019"><rect fill="#F1F1F1" height="118.4375" rx="2.5" ry="2.5" style="stroke:#181818;stroke-width:0.5;" width="146.3926" x="924" y="1014.6094"/><ellipse cx="939" cy="1030.6094" fill="#EB937F" rx="11" ry="11" style="stroke:#181818;stroke-width:1;"/><path d="M937.8594,1031.4063 L937.8594,1033.9063 L942.1875,1033.9063 L942.1875,1032.9844 Q942.1875,1032.375 942.4219,1032.1094 Q942.6719,1031.8438 943.0469,1031.8438 Q943.4219,1031.8438 943.6563,1032.1094 Q943.8906,1032.375 943.8906,1032.9844 L943.8906,1035.6094 L935.8906,1035.6094 Q935.2656,1035.6094 935,1035.375 Q934.75,1035.1406 934.75,1034.75 Q934.75,1034.375 935.0156,1034.1406 Q935.2813,1033.9063 935.8906,1033.9063 L936.1563,1033.9063 L936.1563,1027.25 L935.8906,1027.25 Q935.2656,1027.25 935,1027.0156 Q934.75,1026.7813 934.75,1026.3906 Q934.75,1026.0156 935,1025.7813 Q935.2656,1025.5469 935.8906,1025.5469 L943.5156,1025.5469 L943.5156,1028.1406 Q943.5156,1028.75 943.2813,1029.0156 Q943.0625,1029.2656 942.6719,1029.2656 Q942.2969,1029.2656 942.0625,1029.0156 Q941.8281,1028.75 941.8281,1028.1406 L941.8281,1027.25 L937.8594,1027.25 L937.8594,1029.7031 L939.3438,1029.7031 Q939.3438,1029.0469 939.4688,1028.8594 Q939.7344,1028.4531 940.2031,1028.4531 Q940.5781,1028.4531 940.8125,1028.7188 Q941.0469,1028.9688 941.0469,1029.5781 L941.0469,1031.5469 Q941.0469,1032.0938 940.9219,1032.2813 Q940.6563,1032.6719 940.2031,1032.6719 Q939.7344,1032.6719 939.4688,1032.2656 Q939.3438,1032.0781 939.3438,1031.4063 L937.8594,1031.4063 Z " fill="#000000"/><text fill="#000000" font-family="sans-serif" font-size="14" lengthAdjust="spacing" textLength="114.3926" x="953" y="1036.3379">ReservationStatus</text><line style="stroke:#181818;stroke-width:0.5;" x1="925" x2="1069.3926" y1="1046.6094" y2="1046.6094"/><text fill="#000000" font-family="sans-serif" font-size="14" lengthAdjust="spacing" textLength="77.0205" x="930" y="1065.1426">RESERVED</text><text fill="#000000" font-family="sans-serif" font-size="14" lengthAdjust="spacing" textLength="90.2412" x="930" y="1082.752">CHECKED_IN</text><text fill="#000000" font-family="sans-serif" font-size="14" lengthAdjust="spacing" textLength="105.793" x="930" y="1100.3613">CHECKED_OUT</text><text fill="#000000" font-family="sans-serif" font-size="14" lengthAdjust="spacing" textLength="84.0273" x="930" y="1117.9707">CANCELLED</text><line style="stroke:#181818;stroke-width:0.5;" x1="925" x2="1069.3926" y1="1125.0469" y2="1125.0469"/></g><!--class PaymentStatus--><g class="entity" data-qualified-name="PaymentStatus" data-source-line="92" id="ent0020"><rect fill="#F1F1F1" height="100.8281" rx="2.5" ry="2.5" style="stroke:#181818;stroke-width:0.5;" width="126.9375" x="1542.5" y="1401.6094"/><ellipse cx="1557.5" cy="1417.6094" fill="#EB937F" rx="11" ry="11" style="stroke:#181818;stroke-width:1;"/><path d="M1556.3594,1418.4063 L1556.3594,1420.9063 L1560.6875,1420.9063 L1560.6875,1419.9844 Q1560.6875,1419.375 1560.9219,1419.1094 Q1561.1719,1418.8438 1561.5469,1418.8438 Q1561.9219,1418.8438 1562.1563,1419.1094 Q1562.3906,1419.375 1562.3906,1419.9844 L1562.3906,1422.6094 L1554.3906,1422.6094 Q1553.7656,1422.6094 1553.5,1422.375 Q1553.25,1422.1406 1553.25,1421.75 Q1553.25,1421.375 1553.5156,1421.1406 Q1553.7813,1420.9063 1554.3906,1420.9063 L1554.6563,1420.9063 L1554.6563,1414.25 L1554.3906,1414.25 Q1553.7656,1414.25 1553.5,1414.0156 Q1553.25,1413.7813 1553.25,1413.3906 Q1553.25,1413.0156 1553.5,1412.7813 Q1553.7656,1412.5469 1554.3906,1412.5469 L1562.0156,1412.5469 L1562.0156,1415.1406 Q1562.0156,1415.75 1561.7813,1416.0156 Q1561.5625,1416.2656 1561.1719,1416.2656 Q1560.7969,1416.2656 1560.5625,1416.0156 Q1560.3281,1415.75 1560.3281,1415.1406 L1560.3281,1414.25 L1556.3594,1414.25 L1556.3594,1416.7031 L1557.8438,1416.7031 Q1557.8438,1416.0469 1557.9688,1415.8594 Q1558.2344,1415.4531 1558.7031,1415.4531 Q1559.0781,1415.4531 1559.3125,1415.7188 Q1559.5469,1415.9688 1559.5469,1416.5781 L1559.5469,1418.5469 Q1559.5469,1419.0938 1559.4219,1419.2813 Q1559.1563,1419.6719 1558.7031,1419.6719 Q1558.2344,1419.6719 1557.9688,1419.2656 Q1557.8438,1419.0781 1557.8438,1418.4063 L1556.3594,1418.4063 Z " fill="#000000"/><text fill="#000000" font-family="sans-serif" font-size="14" lengthAdjust="spacing" textLength="94.9375" x="1571.5" y="1423.3379">PaymentStatus</text><line style="stroke:#181818;stroke-width:0.5;" x1="1543.5" x2="1668.4375" y1="1433.6094" y2="1433.6094"/><text fill="#000000" font-family="sans-serif" font-size="14" lengthAdjust="spacing" textLength="52.8965" x="1548.5" y="1452.1426">UNPAID</text><text fill="#000000" font-family="sans-serif" font-size="14" lengthAdjust="spacing" textLength="32.6758" x="1548.5" y="1469.752">PAID</text><text fill="#000000" font-family="sans-serif" font-size="14" lengthAdjust="spacing" textLength="49.0137" x="1548.5" y="1487.3613">FAILED</text><line style="stroke:#181818;stroke-width:0.5;" x1="1543.5" x2="1668.4375" y1="1494.4375" y2="1494.4375"/></g><!--link Guest to Reservation--><g class="link" data-entity-1="ent0011" data-entity-2="ent0012" data-link-type="association" data-source-line="99" id="lnk21"><path codeLine="99" d="M503.8,657.8394 C518.42,681.1094 538.17,706.6694 562,723.6094 C662.49,795.0194 802.68,827.3294 896.48,841.6594" fill="none" id="Guest-Reservation" style="stroke:#181818;stroke-width:1;"/><text fill="#000000" font-family="sans-serif" font-size="13" lengthAdjust="spacing" textLength="7.23" x="507.5384" y="678.8085">1</text><text fill="#000000" font-family="sans-serif" font-size="13" lengthAdjust="spacing" textLength="19.5127" x="869.0765" y="837.6567">0..*</text></g><!--link Guest to Payment--><g class="link" data-entity-1="ent0011" data-entity-2="ent0017" data-link-type="association" data-source-line="100" id="lnk22"><path codeLine="100" d="M502.31,657.9794 C560.07,768.6594 706.03,1016.5494 907,1132.6094 C1009.17,1191.6194 1347.99,1236.8894 1513.45,1256.0694" fill="none" id="Guest-Payment" style="stroke:#181818;stroke-width:1;"/><text fill="#000000" font-family="sans-serif" font-size="13" lengthAdjust="spacing" textLength="7.23" x="497.9178" y="678.5598">1</text><text fill="#000000" font-family="sans-serif" font-size="13" lengthAdjust="spacing" textLength="19.5127" x="1486.0336" y="1252.0127">0..*</text></g><!--link Room to Reservation--><g class="link" data-entity-1="ent0013" data-entity-2="ent0012" data-link-type="association" data-source-line="101" id="lnk23"><path codeLine="101" d="M1112.65,692.8694 C1098.38,712.5894 1083.19,733.5594 1068.68,753.5994" fill="none" id="Room-Reservation" style="stroke:#181818;stroke-width:1;"/><text fill="#000000" font-family="sans-serif" font-size="13" lengthAdjust="spacing" textLength="7.23" x="1100.3944" y="713.9787">1</text><text fill="#000000" font-family="sans-serif" font-size="13" lengthAdjust="spacing" textLength="19.5127" x="1054.4605" y="742.8546">0..*</text></g><!--link Reservation to Charge--><g class="link" data-entity-1="ent0012" data-entity-2="ent0016" data-link-type="association" data-source-line="102" id="lnk24"><path codeLine="102" d="M1097.75,944.4694 C1103.42,947.8194 1109.18,950.8994 1115,953.6094 C1255.7,1019.2894 1309.59,972.3494 1459,1014.6094 C1485.14,1021.9994 1513.04,1032.3494 1537.44,1042.2594" fill="none" id="Reservation-Charge" style="stroke:#181818;stroke-width:1;"/><text fill="#000000" font-family="sans-serif" font-size="13" lengthAdjust="spacing" textLength="7.23" x="1105.4146" y="965.2529">1</text><text fill="#000000" font-family="sans-serif" font-size="13" lengthAdjust="spacing" textLength="21.6836" x="1507.8148" y="1035.4741">0..1</text></g><!--link Charge to Payment--><g class="link" data-entity-1="ent0016" data-entity-2="ent0017" data-link-type="association" data-source-line="103" id="lnk25"><path codeLine="103" d="M1606,1120.9694 C1606,1142.6594 1606,1169.0194 1606,1193.2894" fill="none" id="Charge-Payment" style="stroke:#181818;stroke-width:1;"/><text fill="#000000" font-family="sans-serif" font-size="13" lengthAdjust="spacing" textLength="7.23" x="1598.5262" y="1141.9324">1</text><text fill="#000000" font-family="sans-serif" font-size="13" lengthAdjust="spacing" textLength="21.6836" x="1584.016" y="1182.7599">0..1</text></g><!--link Reservation to ServiceUsage--><g class="link" data-entity-1="ent0012" data-entity-2="ent0015" data-link-type="association" data-source-line="104" id="lnk26"><path codeLine="104" d="M1097.68,941.2794 C1103.46,945.5594 1109.25,949.6994 1115,953.6094 C1149.96,977.4194 1190.15,1000.3994 1226.48,1019.7094" fill="none" id="Reservation-ServiceUsage" style="stroke:#181818;stroke-width:1;"/><text fill="#000000" font-family="sans-serif" font-size="13" lengthAdjust="spacing" textLength="7.23" x="1105.3394" y="944.6537">1</text><text fill="#000000" font-family="sans-serif" font-size="13" lengthAdjust="spacing" textLength="19.5127" x="1198.9047" y="1012.6888">0..*</text></g><!--link RoomRate to Room--><g class="link" data-entity-1="ent0014" data-entity-2="ent0013" data-link-type="association" data-source-line="105" id="lnk27"><path codeLine="105" d="M1333.83,432.7294 C1312.04,456.2094 1286.05,484.2094 1261.6,510.5494" fill="none" id="RoomRate-Room" style="stroke:#181818;stroke-width:1;"/><polygon fill="#000000" points="1301.5985,475.4499,1309.9059,470.8197,1305.5978,466.821,1301.5985,475.4499" style="stroke:#000000;stroke-width:1;stroke-linejoin:miter;stroke-miterlimit:10;"/><text fill="#000000" font-family="sans-serif" font-size="13" lengthAdjust="spacing" textLength="104" x="1314" y="477.1045">&#23458;&#23460;&#12479;&#12452;&#12503;&#21029;&#21336;&#20385;</text><text fill="#000000" font-family="sans-serif" font-size="13" lengthAdjust="spacing" textLength="7.23" x="1320.5213" y="453.6858">1</text><text fill="#000000" font-family="sans-serif" font-size="13" lengthAdjust="spacing" textLength="19.5127" x="1248.7651" y="499.8569">0..*</text></g><!--link Room to RoomStatus--><g class="link" data-entity-1="ent0013" data-entity-2="ent0018" data-link-type="dependency" data-source-line="106" id="lnk28"><path codeLine="106" d="M1181.25,692.8694 C1182.58,729.9294 1183.9002,766.4226 1185.0302,797.8326" fill="none" id="Room-to-RoomStatus" style="stroke:#181818;stroke-width:1;stroke-dasharray:7,7;"/><polygon fill="#181818" points="1185.21,802.8294,1188.8838,793.6914,1185.0302,797.8326,1180.889,793.979,1185.21,802.8294" style="stroke:#181818;stroke-width:1;stroke-linejoin:miter;stroke-miterlimit:10;"/></g><!--link Reservation to ReservationStatus--><g class="link" data-entity-1="ent0012" data-entity-2="ent0019" data-link-type="dependency" data-source-line="107" id="lnk29"><path codeLine="107" d="M997,953.7194 C997,974.5294 997,990.8194 997,1009.5294" fill="none" id="Reservation-to-ReservationStatus" style="stroke:#181818;stroke-width:1;stroke-dasharray:7,7;"/><polygon fill="#181818" points="997,1014.5294,1001,1005.5294,997,1009.5294,993,1005.5294,997,1014.5294" style="stroke:#181818;stroke-width:1;stroke-linejoin:miter;stroke-miterlimit:10;"/></g><!--link Payment to PaymentStatus--><g class="link" data-entity-1="ent0017" data-entity-2="ent0020" data-link-type="dependency" data-source-line="108" id="lnk30"><path codeLine="108" d="M1606,1340.6994 C1606,1361.0594 1606,1377.7194 1606,1396.4194" fill="none" id="Payment-to-PaymentStatus" style="stroke:#181818;stroke-width:1;stroke-dasharray:7,7;"/><polygon fill="#181818" points="1606,1401.4194,1610,1392.4194,1606,1396.4194,1602,1392.4194,1606,1401.4194" style="stroke:#181818;stroke-width:1;stroke-linejoin:miter;stroke-miterlimit:10;"/></g><!--link ReservationUI to ReservationControl--><g class="link" data-entity-1="ent0001" data-entity-2="ent0006" data-link-type="dependency" data-source-line="111" id="lnk31"><path codeLine="111" d="M189,242.1994 C189,266.3594 189,296.4294 189,324.5394" fill="none" id="ReservationUI-to-ReservationControl" style="stroke:#181818;stroke-width:1;stroke-dasharray:7,7;"/><polygon fill="#181818" points="189,329.5394,193,320.5394,189,324.5394,185,320.5394,189,329.5394" style="stroke:#181818;stroke-width:1;stroke-linejoin:miter;stroke-miterlimit:10;"/></g><!--link InquiryUI to InquiryControl--><g class="link" data-entity-1="ent0002" data-entity-2="ent0007" data-link-type="dependency" data-source-line="112" id="lnk32"><path codeLine="112" d="M761.28,406.3094 C768.18,443.8294 779.4464,505.1017 787.6364,549.6717" fill="none" id="InquiryUI-to-InquiryControl" style="stroke:#181818;stroke-width:1;stroke-dasharray:7,7;"/><polygon fill="#181818" points="788.54,554.5894,790.8476,545.0147,787.6364,549.6717,782.9793,546.4605,788.54,554.5894" style="stroke:#181818;stroke-width:1;stroke-linejoin:miter;stroke-miterlimit:10;"/></g><!--link CheckInUI to CheckInControl--><g class="link" data-entity-1="ent0003" data-entity-2="ent0008" data-link-type="dependency" data-source-line="113" id="lnk33"><path codeLine="113" d="M993,242.1994 C993,268.9994 993,304.1994 993,333.4694" fill="none" id="CheckInUI-to-CheckInControl" style="stroke:#181818;stroke-width:1;stroke-dasharray:7,7;"/><polygon fill="#181818" points="993,338.4694,997,329.4694,993,333.4694,989,329.4694,993,338.4694" style="stroke:#181818;stroke-width:1;stroke-linejoin:miter;stroke-miterlimit:10;"/></g><!--link CheckOutUI to CheckOutControl--><g class="link" data-entity-1="ent0004" data-entity-2="ent0009" data-link-type="dependency" data-source-line="114" id="lnk34"><path codeLine="114" d="M1603,104.8494 C1603,122.4794 1603,140.4594 1603,160.5894" fill="none" id="CheckOutUI-to-CheckOutControl" style="stroke:#181818;stroke-width:1;stroke-dasharray:7,7;"/><polygon fill="#181818" points="1603,165.5894,1607,156.5894,1603,160.5894,1599,156.5894,1603,165.5894" style="stroke:#181818;stroke-width:1;stroke-linejoin:miter;stroke-miterlimit:10;"/></g><!--link CancellationUI to CancellationControl--><g class="link" data-entity-1="ent0005" data-entity-2="ent0010" data-link-type="dependency" data-source-line="115" id="lnk35"><path codeLine="115" d="M541,242.1994 C541,268.9994 541,304.1994 541,333.4694" fill="none" id="CancellationUI-to-CancellationControl" style="stroke:#181818;stroke-width:1;stroke-dasharray:7,7;"/><polygon fill="#181818" points="541,338.4694,545,329.4694,541,333.4694,537,329.4694,541,338.4694" style="stroke:#181818;stroke-width:1;stroke-linejoin:miter;stroke-miterlimit:10;"/></g><!--link CheckInControl to InquiryControl--><g class="link" data-entity-1="ent0008" data-entity-2="ent0007" data-link-type="dependency" data-source-line="118" id="lnk36"><path codeLine="118" d="M944.43,414.6194 C927.3,428.7394 908.47,445.5694 893,462.6094 C867.21,491.0294 845.2719,522.4459 827.4219,550.3859" fill="none" id="CheckInControl-to-InquiryControl" style="stroke:#181818;stroke-width:1;stroke-dasharray:7,7;"/><polygon fill="#181818" points="824.73,554.5994,832.9462,549.1685,827.4219,550.3859,826.2046,544.8615,824.73,554.5994" style="stroke:#181818;stroke-width:1;stroke-linejoin:miter;stroke-miterlimit:10;"/><text fill="#000000" font-family="sans-serif" font-size="13" lengthAdjust="spacing" textLength="85.2744" x="894" y="477.1045">&#171;include&#187; UC4</text></g><!--link CancellationControl to InquiryControl--><g class="link" data-entity-1="ent0010" data-entity-2="ent0007" data-link-type="dependency" data-source-line="119" id="lnk37"><path codeLine="119" d="M583.56,414.6794 C627.64,453.0794 692.8094,509.8557 740.3594,551.2657" fill="none" id="CancellationControl-to-InquiryControl" style="stroke:#181818;stroke-width:1;stroke-dasharray:7,7;"/><polygon fill="#181818" points="744.13,554.5494,739.9699,545.6222,740.3594,551.2657,734.716,551.6552,744.13,554.5494" style="stroke:#181818;stroke-width:1;stroke-linejoin:miter;stroke-miterlimit:10;"/><text fill="#000000" font-family="sans-serif" font-size="13" lengthAdjust="spacing" textLength="85.2744" x="654" y="477.1045">&#171;include&#187; UC4</text></g><!--link ReservationControl to Room--><g class="link" data-entity-1="ent0006" data-entity-2="ent0013" data-link-type="dependency" data-source-line="122" id="lnk38"><path codeLine="122" d="M343.88,423.6194 C359.03,427.0894 374.25,430.1794 389,432.6094 C614.35,469.7594 681.35,403.6694 902,462.6094 C919.14,467.1894 988.0364,501.707 1054.7964,536.147" fill="none" id="ReservationControl-to-Room" style="stroke:#181818;stroke-width:1;stroke-dasharray:7,7;"/><polygon fill="#181818" points="1059.24,538.4394,1053.0755,530.7583,1054.7964,536.147,1049.4077,537.868,1059.24,538.4394" style="stroke:#181818;stroke-width:1;stroke-linejoin:miter;stroke-miterlimit:10;"/></g><!--link ReservationControl to Guest--><g class="link" data-entity-1="ent0006" data-entity-2="ent0011" data-link-type="dependency" data-source-line="123" id="lnk39"><path codeLine="123" d="M250.82,423.6194 C267.51,436.1694 285.5,449.8294 302,462.6094 C339.81,491.8994 377.8629,522.2069 410.9929,548.8369" fill="none" id="ReservationControl-to-Guest" style="stroke:#181818;stroke-width:1;stroke-dasharray:7,7;"/><polygon fill="#181818" points="414.89,551.9694,410.3812,543.2132,410.9929,548.8369,405.3692,549.4486,414.89,551.9694" style="stroke:#181818;stroke-width:1;stroke-linejoin:miter;stroke-miterlimit:10;"/></g><!--link ReservationControl to Reservation--><g class="link" data-entity-1="ent0006" data-entity-2="ent0012" data-link-type="dependency" data-source-line="124" id="lnk40"><path codeLine="124" d="M206.98,423.8794 C236.28,493.1094 300.99,622.9194 398,692.6094 C549.12,801.1794 764.3194,835.6395 891.3694,846.8595" fill="none" id="ReservationControl-to-Reservation" style="stroke:#181818;stroke-width:1;stroke-dasharray:7,7;"/><polygon fill="#181818" points="896.35,847.2994,887.7368,842.5232,891.3694,846.8595,887.033,850.4921,896.35,847.2994" style="stroke:#181818;stroke-width:1;stroke-linejoin:miter;stroke-miterlimit:10;"/></g><!--link InquiryControl to Reservation--><g class="link" data-entity-1="ent0007" data-entity-2="ent0012" data-link-type="dependency" data-source-line="125" id="lnk41"><path codeLine="125" d="M833.92,648.7594 C857.39,678.0994 885.5867,713.3449 914.4967,749.4849" fill="none" id="InquiryControl-to-Reservation" style="stroke:#181818;stroke-width:1;stroke-dasharray:7,7;"/><polygon fill="#181818" points="917.62,753.3894,915.1215,743.8627,914.4967,749.4849,908.8744,748.86,917.62,753.3894" style="stroke:#181818;stroke-width:1;stroke-linejoin:miter;stroke-miterlimit:10;"/></g><!--link CheckInControl to Reservation--><g class="link" data-entity-1="ent0008" data-entity-2="ent0012" data-link-type="dependency" data-source-line="126" id="lnk42"><path codeLine="126" d="M993.31,414.8794 C993.92,487.0594 995.2382,643.0295 996.1182,748.3595" fill="none" id="CheckInControl-to-Reservation" style="stroke:#181818;stroke-width:1;stroke-dasharray:7,7;"/><polygon fill="#181818" points="996.16,753.3594,1000.0847,744.3263,996.1182,748.3595,992.0849,744.3931,996.16,753.3594" style="stroke:#181818;stroke-width:1;stroke-linejoin:miter;stroke-miterlimit:10;"/></g><!--link CheckInControl to Room--><g class="link" data-entity-1="ent0008" data-entity-2="ent0013" data-link-type="dependency" data-source-line="127" id="lnk43"><path codeLine="127" d="M1023.76,414.6794 C1045.44,440.8194 1072.2471,473.1416 1100.0371,506.6316" fill="none" id="CheckInControl-to-Room" style="stroke:#181818;stroke-width:1;stroke-dasharray:7,7;"/><polygon fill="#181818" points="1103.23,510.4794,1100.561,500.999,1100.0371,506.6316,1094.4046,506.1077,1103.23,510.4794" style="stroke:#181818;stroke-width:1;stroke-linejoin:miter;stroke-miterlimit:10;"/></g><!--link CheckOutControl to Reservation--><g class="link" data-entity-1="ent0009" data-entity-2="ent0012" data-link-type="dependency" data-source-line="128" id="lnk44"><path codeLine="128" d="M1593.22,259.7094 C1582.3,305.5094 1561.97,376.7894 1531,432.6094 C1457.97,564.2194 1439.37,609.3194 1314,692.6094 C1236.95,743.7994 1196.28,709.4394 1115,753.6094 C1109.24,756.7394 1107.7108,757.4577 1102.0408,761.1177" fill="none" id="CheckOutControl-to-Reservation" style="stroke:#181818;stroke-width:1;stroke-dasharray:7,7;"/><polygon fill="#181818" points="1097.84,763.8294,1107.5708,762.3091,1102.0408,761.1177,1103.2322,755.5877,1097.84,763.8294" style="stroke:#181818;stroke-width:1;stroke-linejoin:miter;stroke-miterlimit:10;"/></g><!--link CheckOutControl to RoomRate--><g class="link" data-entity-1="ent0009" data-entity-2="ent0014" data-link-type="dependency" data-source-line="129" id="lnk45"><path codeLine="129" d="M1540.82,259.8194 C1515.4,278.7094 1489.7934,297.7373 1463.2534,317.4573" fill="none" id="CheckOutControl-to-RoomRate" style="stroke:#181818;stroke-width:1;stroke-dasharray:7,7;"/><polygon fill="#181818" points="1459.24,320.4394,1468.8498,318.2824,1463.2534,317.4573,1464.0784,311.8609,1459.24,320.4394" style="stroke:#181818;stroke-width:1;stroke-linejoin:miter;stroke-miterlimit:10;"/></g><!--link CheckOutControl to ServiceUsage--><g class="link" data-entity-1="ent0009" data-entity-2="ent0015" data-link-type="dependency" data-source-line="130" id="lnk46"><path codeLine="130" d="M1618.45,259.8294 C1627.83,291.9294 1638,335.8994 1638,375.6094 C1638,375.6094 1638,375.6094 1638,854.6094 C1638,954.1394 1533.774,1010.9626 1446.324,1041.8826" fill="none" id="CheckOutControl-to-ServiceUsage" style="stroke:#181818;stroke-width:1;stroke-dasharray:7,7;"/><polygon fill="#181818" points="1441.61,1043.5494,1451.4286,1044.3204,1446.324,1041.8826,1448.7618,1036.778,1441.61,1043.5494" style="stroke:#181818;stroke-width:1;stroke-linejoin:miter;stroke-miterlimit:10;"/></g><!--link CheckOutControl to Charge--><g class="link" data-entity-1="ent0009" data-entity-2="ent0016" data-link-type="dependency" data-source-line="131" id="lnk47"><path codeLine="131" d="M1653.83,259.9294 C1681.03,289.8794 1709,331.4094 1709,375.6094 C1709,375.6094 1709,375.6094 1709,854.6094 C1709,918.6494 1675.0805,979.9154 1645.4705,1022.1454" fill="none" id="CheckOutControl-to-Charge" style="stroke:#181818;stroke-width:1;stroke-dasharray:7,7;"/><polygon fill="#181818" points="1642.6,1026.2394,1651.042,1021.1667,1645.4705,1022.1454,1644.4918,1016.5739,1642.6,1026.2394" style="stroke:#181818;stroke-width:1;stroke-linejoin:miter;stroke-miterlimit:10;"/></g><!--link CheckOutControl to Payment--><g class="link" data-entity-1="ent0009" data-entity-2="ent0017" data-link-type="dependency" data-source-line="132" id="lnk48"><path codeLine="132" d="M1699.53,259.6994 C1740.95,286.7394 1780,325.5194 1780,375.6094 C1780,375.6094 1780,375.6094 1780,1074.6094 C1780,1129.6394 1744.0647,1172.7264 1702.5047,1205.9664" fill="none" id="CheckOutControl-to-Payment" style="stroke:#181818;stroke-width:1;stroke-dasharray:7,7;"/><polygon fill="#181818" points="1698.6,1209.0894,1708.1269,1206.5917,1702.5047,1205.9664,1703.1301,1200.3442,1698.6,1209.0894" style="stroke:#181818;stroke-width:1;stroke-linejoin:miter;stroke-miterlimit:10;"/></g><!--link CheckOutControl to Room--><g class="link" data-entity-1="ent0009" data-entity-2="ent0013" data-link-type="dependency" data-source-line="133" id="lnk49"><path codeLine="133" d="M1435.7,225.6594 C1365.9,239.1394 1289.49,266.3794 1239,320.6094 C1191.88,371.2194 1178.177,444.425 1175.287,505.335" fill="none" id="CheckOutControl-to-Room" style="stroke:#181818;stroke-width:1;stroke-dasharray:7,7;"/><polygon fill="#181818" points="1175.05,510.3294,1179.472,501.5291,1175.287,505.335,1171.481,501.1499,1175.05,510.3294" style="stroke:#181818;stroke-width:1;stroke-linejoin:miter;stroke-miterlimit:10;"/></g><!--link CancellationControl to Reservation--><g class="link" data-entity-1="ent0010" data-entity-2="ent0012" data-link-type="dependency" data-source-line="134" id="lnk50"><path codeLine="134" d="M547.52,414.7794 C561.13,488.7094 594.36,650.6994 631,692.6094 C699.59,771.0494 808.8924,811.3041 891.5024,832.1841" fill="none" id="CancellationControl-to-Reservation" style="stroke:#181818;stroke-width:1;stroke-dasharray:7,7;"/><polygon fill="#181818" points="896.35,833.4094,888.6046,827.3259,891.5024,832.1841,886.6442,835.082,896.35,833.4094" style="stroke:#181818;stroke-width:1;stroke-linejoin:miter;stroke-miterlimit:10;"/></g><!--link CancellationControl to Room--><g class="link" data-entity-1="ent0010" data-entity-2="ent0013" data-link-type="dependency" data-source-line="135" id="lnk51"><path codeLine="135" d="M632.82,414.6194 C652.43,421.4594 673.21,427.9094 693,432.6094 C801.88,458.4794 836.96,426.8594 943,462.6094 C982.9,476.0594 1019.1634,494.2822 1055.1034,515.6722" fill="none" id="CancellationControl-to-Room" style="stroke:#181818;stroke-width:1;stroke-dasharray:7,7;"/><polygon fill="#181818" points="1059.4,518.2294,1053.7118,510.1892,1055.1034,515.6722,1049.6204,517.0638,1059.4,518.2294" style="stroke:#181818;stroke-width:1;stroke-linejoin:miter;stroke-miterlimit:10;"/></g><?plantuml-src ZLPRJnjN47xVNx7YfT06HAK-H16rH8tRMgK6GPpNQh6tiAgzflOwabKXUNS3sGOGD8aD19fmSS10Oq9D5IuX_YyztZN-5vrpzdw3-i4-diitCsSkPmHEoB0qaZuWwGB92qZULfK5xVKgtG_44oGV0btTRFQw91Rckt9TErZibhUHVFLDD0OwtPtNVHJr6MZjOaMfXUIFlQfos7bPlodFWnYIAqX-X-GcafLsI-f3ueaBj5O5K2GsaFW6IQ9b78b0N4FYFiXhlvyYQGM9HqXyWieIMFkko1O4uDY60A2yT5DVxoxzZShBI7hURlsfBOb8t43I8fBgn8459EqPtmH6Ux7SljvILvU9KqriMTv2ybyG0_PHFW0jV0k3znbKtXgyp_PXE_8EacKaNH6fSw9TRv-NrPDFy8t4OpYehIqaLf2uYOs3AR3rDVxGI5v5qZvnfepa8vrAfJ9CeK1Fi0Ks_vWHk1oVZDD3GrEv8fzcygL8n128yxyMkNmfc1cTOLE_nFbRc6D58OJBy2asamcqR7kExmSdaMJp8vAFmvoFvdWXdyi0Jae_HIBqRnHDVz4vl5GRDSYDLjlgdEtgkUbL6osj-KnRUtkFLXkxHA25f1gIr_he1_GeLn269dAvR0GZj2-LpjaJGEXiNE5CcmXO3QjRIDhx5KZCFRfRtklyiwFEAnXBr-vKZjIL3zIS-r93dRPCkfnsGc5eH_ZXIgPJbfzUpJbtBaDzGZ8qoW6fmXDoLKqmfJRUtEmiXVW7FQQUBdf2DwiYr8vMtUW-_GEmR-fAfx4MWlrZZcTBHFmbj6e5DodMMBSJvDI0t10nhNgXDIjOVvmfPLbUiDrob6Fu5KXGXNiaScZ4uxlYVvpZqc30KStUYU2gPZ9Vm2YunGabmsR_DAR6qm0tAUGvVXhJU2RBkWZOJoObsBGvVuVuaFCspuEVqajXX16m6VnZKI5p7d91O8HYmLrKauI6hmpcjzgum3UrKbK_cTcq6qFdXzINBKokqYUqIyQQ4YJdoPH7mheUw77_lG0nKSnEiNdNfM3omzAi--Bju85hHsqC7N5HLMfguvLtw60_fdAv3Ciu6bSxXq1QCCgrpJEj-ZuWgFPr2nwUzlcxsuHCqyUQSWNiu9WdS0g3ulO5E9ldKkmucqzmqpE2i-_KvVNsfnrlOWE6gQvXMf-44W74P86PzdjGq9a9Rtd_pB9EqpUjQ_NPjZKdV9NbjXYTOV81jfWil3VEYFgvGg78fftLRK8OmyA7CQlJFTqpot1fJuzaMM4cbmwk70FSBXvhebaLuIzVYkMBMKVH4NyU3KU74m_XC16RZ4qyYet0SImQJOx7uJXdg7YRb6Ww5ABVnw8_n4P-YYSSVyQI61RGex7HKHlCvJe1IYR6X-COnlZvTZYkozyo1BlL5x3XTAkxy6xsghLNtQVBwkN-xTiHNeca8oHNOHd20m5lS8fMWOQewvjGdp5QzQ7QysKFtTzFzmmE37pUuthzWlZcsq2cGxYgSxOwfE2abnnbL9wRPu47QuCDPujGLhTw_C2kFV3kBghoLczBEg8xFp0GSKucfqt2yariiz8nrrsOeTlalmlFm_SqzthfiMcyivIzOc81zsv4sIicPhgN5CgnObfSUxUWF3ic4V6_yxUkcy7HzI9vdrGal6odna5iS7mgKqopPkbv5Yf_R930eI532KPACleL5RI6_2_5ksC8sJq2TcYpQi9uf6T25HqTul7QomwueBlOs2ll1Xcev-KRRHJ8T3LSa83LptwMsSvXHaCpwl8uJ0O3_0S0?></g></svg>