<svg xmlns="http://www.w3.org/2000/svg" xmlns:xlink="http://www.w3.org/1999/xlink" contentStyleType="text/css" data-diagram-type="CLASS" height="1158px" preserveAspectRatio="none" style="width:1819px;height:1158px;background:#FFFFFF;" version="1.1" viewBox="0 0 1819 1158" width="1819px" zoomAndPan="magnify"><?plantuml 1.2026.6?><defs/><g><g class="title" data-source-line="1"><text fill="#000000" font-family="sans-serif" font-size="14" font-weight="700" lengthAdjust="spacing" textLength="354.5117" x="729.0957" y="24.5332">&#12471;&#12473;&#12486;&#12512;&#20998;&#26512; - &#12463;&#12521;&#12473;&#22259;(&#12471;&#12473;&#12486;&#12512;&#20869;&#37096;&#27083;&#36896;&#12539;BCE&#20998;&#39006;)</text></g><!--class ReservationUI--><g class="entity" data-qualified-name="ReservationUI" data-source-line="8" id="ent0001"><rect fill="#F1F1F1" height="58.7031" rx="2.5" ry="2.5" style="stroke:#181818;stroke-width:0.5;" width="120.7031" x="1684" y="183.1094"/><ellipse cx="1699" cy="204.4609" fill="#ADD1B2" rx="11" ry="11" style="stroke:#181818;stroke-width:1;"/><path d="M1701.7656,200.3359 Q1701.9219,200.1172 1702.1094,200.0078 Q1702.2969,199.8984 1702.5156,199.8984 Q1702.8906,199.8984 1703.125,200.1641 Q1703.3594,200.4141 1703.3594,201.0234 L1703.3594,202.4766 Q1703.3594,203.0859 1703.125,203.3516 Q1702.8906,203.6172 1702.5156,203.6172 Q1702.1719,203.6172 1701.9688,203.4141 Q1701.7656,203.2266 1701.6563,202.7109 Q1701.6094,202.3516 1701.4219,202.1641 Q1701.0938,201.7891 1700.4844,201.5703 Q1699.875,201.3516 1699.25,201.3516 Q1698.4844,201.3516 1697.8438,201.6797 Q1697.2188,202.0078 1696.7188,202.7578 Q1696.2344,203.5078 1696.2344,204.5391 L1696.2344,205.6328 Q1696.2344,206.8672 1697.125,207.6953 Q1698.0156,208.5078 1699.6094,208.5078 Q1700.5469,208.5078 1701.2031,208.2578 Q1701.5938,208.1016 1702.0156,207.6641 Q1702.2813,207.3984 1702.4219,207.3203 Q1702.5781,207.2422 1702.7813,207.2422 Q1703.1094,207.2422 1703.3594,207.5078 Q1703.625,207.7578 1703.625,208.1016 Q1703.625,208.4453 1703.2813,208.8516 Q1702.7813,209.4297 1701.9844,209.7578 Q1700.9063,210.2109 1699.6094,210.2109 Q1698.0938,210.2109 1696.8906,209.5859 Q1695.9063,209.0859 1695.2188,208.0234 Q1694.5313,206.9453 1694.5313,205.6641 L1694.5313,204.5078 Q1694.5313,203.1797 1695.1406,202.0391 Q1695.7656,200.8828 1696.8594,200.2734 Q1697.9531,199.6484 1699.1875,199.6484 Q1699.9219,199.6484 1700.5625,199.8203 Q1701.2188,199.9766 1701.7656,200.3359 Z " fill="#000000"/><text fill="#000000" font-family="sans-serif" font-size="12" font-style="italic" lengthAdjust="spacing" textLength="63.3867" x="1725.6582" y="200.5664">&#171;boundary&#187;</text><text fill="#000000" font-family="sans-serif" font-size="14" lengthAdjust="spacing" textLength="88.7031" x="1713" y="217.7363">ReservationUI</text><line style="stroke:#181818;stroke-width:0.5;" x1="1685" x2="1803.7031" y1="225.8125" y2="225.8125"/><line style="stroke:#181818;stroke-width:0.5;" x1="1685" x2="1803.7031" y1="233.8125" y2="233.8125"/></g><!--class InquiryUI--><g class="entity" data-qualified-name="InquiryUI" data-source-line="9" id="ent0002"><rect fill="#F1F1F1" height="58.7031" rx="2.5" ry="2.5" style="stroke:#181818;stroke-width:0.5;" width="91.3867" x="144" y="347.1094"/><ellipse cx="159" cy="368.4609" fill="#ADD1B2" rx="11" ry="11" style="stroke:#181818;stroke-width:1;"/><path d="M161.7656,364.3359 Q161.9219,364.1172 162.1094,364.0078 Q162.2969,363.8984 162.5156,363.8984 Q162.8906,363.8984 163.125,364.1641 Q163.3594,364.4141 163.3594,365.0234 L163.3594,366.4766 Q163.3594,367.0859 163.125,367.3516 Q162.8906,367.6172 162.5156,367.6172 Q162.1719,367.6172 161.9688,367.4141 Q161.7656,367.2266 161.6563,366.7109 Q161.6094,366.3516 161.4219,366.1641 Q161.0938,365.7891 160.4844,365.5703 Q159.875,365.3516 159.25,365.3516 Q158.4844,365.3516 157.8438,365.6797 Q157.2188,366.0078 156.7188,366.7578 Q156.2344,367.5078 156.2344,368.5391 L156.2344,369.6328 Q156.2344,370.8672 157.125,371.6953 Q158.0156,372.5078 159.6094,372.5078 Q160.5469,372.5078 161.2031,372.2578 Q161.5938,372.1016 162.0156,371.6641 Q162.2813,371.3984 162.4219,371.3203 Q162.5781,371.2422 162.7813,371.2422 Q163.1094,371.2422 163.3594,371.5078 Q163.625,371.7578 163.625,372.1016 Q163.625,372.4453 163.2813,372.8516 Q162.7813,373.4297 161.9844,373.7578 Q160.9063,374.2109 159.6094,374.2109 Q158.0938,374.2109 156.8906,373.5859 Q155.9063,373.0859 155.2188,372.0234 Q154.5313,370.9453 154.5313,369.6641 L154.5313,368.5078 Q154.5313,367.1797 155.1406,366.0391 Q155.7656,364.8828 156.8594,364.2734 Q157.9531,363.6484 159.1875,363.6484 Q159.9219,363.6484 160.5625,363.8203 Q161.2188,363.9766 161.7656,364.3359 Z " fill="#000000"/><text fill="#000000" font-family="sans-serif" font-size="12" font-style="italic" lengthAdjust="spacing" textLength="63.3867" x="171" y="364.5664">&#171;boundary&#187;</text><text fill="#000000" font-family="sans-serif" font-size="14" lengthAdjust="spacing" textLength="56.0205" x="174.6831" y="381.7363">InquiryUI</text><line style="stroke:#181818;stroke-width:0.5;" x1="145" x2="234.3867" y1="389.8125" y2="389.8125"/><line style="stroke:#181818;stroke-width:0.5;" x1="145" x2="234.3867" y1="397.8125" y2="397.8125"/></g><!--class CheckInUI--><g class="entity" data-qualified-name="CheckInUI" data-source-line="10" id="ent0003"><rect fill="#F1F1F1" height="58.7031" rx="2.5" ry="2.5" style="stroke:#181818;stroke-width:0.5;" width="97.3584" x="7" y="183.1094"/><ellipse cx="22" cy="204.4609" fill="#ADD1B2" rx="11" ry="11" style="stroke:#181818;stroke-width:1;"/><path d="M24.7656,200.3359 Q24.9219,200.1172 25.1094,200.0078 Q25.2969,199.8984 25.5156,199.8984 Q25.8906,199.8984 26.125,200.1641 Q26.3594,200.4141 26.3594,201.0234 L26.3594,202.4766 Q26.3594,203.0859 26.125,203.3516 Q25.8906,203.6172 25.5156,203.6172 Q25.1719,203.6172 24.9688,203.4141 Q24.7656,203.2266 24.6563,202.7109 Q24.6094,202.3516 24.4219,202.1641 Q24.0938,201.7891 23.4844,201.5703 Q22.875,201.3516 22.25,201.3516 Q21.4844,201.3516 20.8438,201.6797 Q20.2188,202.0078 19.7188,202.7578 Q19.2344,203.5078 19.2344,204.5391 L19.2344,205.6328 Q19.2344,206.8672 20.125,207.6953 Q21.0156,208.5078 22.6094,208.5078 Q23.5469,208.5078 24.2031,208.2578 Q24.5938,208.1016 25.0156,207.6641 Q25.2813,207.3984 25.4219,207.3203 Q25.5781,207.2422 25.7813,207.2422 Q26.1094,207.2422 26.3594,207.5078 Q26.625,207.7578 26.625,208.1016 Q26.625,208.4453 26.2813,208.8516 Q25.7813,209.4297 24.9844,209.7578 Q23.9063,210.2109 22.6094,210.2109 Q21.0938,210.2109 19.8906,209.5859 Q18.9063,209.0859 18.2188,208.0234 Q17.5313,206.9453 17.5313,205.6641 L17.5313,204.5078 Q17.5313,203.1797 18.1406,202.0391 Q18.7656,200.8828 19.8594,200.2734 Q20.9531,199.6484 22.1875,199.6484 Q22.9219,199.6484 23.5625,199.8203 Q24.2188,199.9766 24.7656,200.3359 Z " fill="#000000"/><text fill="#000000" font-family="sans-serif" font-size="12" font-style="italic" lengthAdjust="spacing" textLength="63.3867" x="36.9858" y="200.5664">&#171;boundary&#187;</text><text fill="#000000" font-family="sans-serif" font-size="14" lengthAdjust="spacing" textLength="65.3584" x="36" y="217.7363">CheckInUI</text><line style="stroke:#181818;stroke-width:0.5;" x1="8" x2="103.3584" y1="225.8125" y2="225.8125"/><line style="stroke:#181818;stroke-width:0.5;" x1="8" x2="103.3584" y1="233.8125" y2="233.8125"/></g><!--class CheckOutUI--><g class="entity" data-qualified-name="CheckOutUI" data-source-line="11" id="ent0004"><rect fill="#F1F1F1" height="58.7031" rx="2.5" ry="2.5" style="stroke:#181818;stroke-width:0.5;" width="108.248" x="692.5" y="45.6094"/><ellipse cx="707.5" cy="66.9609" fill="#ADD1B2" rx="11" ry="11" style="stroke:#181818;stroke-width:1;"/><path d="M710.2656,62.8359 Q710.4219,62.6172 710.6094,62.5078 Q710.7969,62.3984 711.0156,62.3984 Q711.3906,62.3984 711.625,62.6641 Q711.8594,62.9141 711.8594,63.5234 L711.8594,64.9766 Q711.8594,65.5859 711.625,65.8516 Q711.3906,66.1172 711.0156,66.1172 Q710.6719,66.1172 710.4688,65.9141 Q710.2656,65.7266 710.1563,65.2109 Q710.1094,64.8516 709.9219,64.6641 Q709.5938,64.2891 708.9844,64.0703 Q708.375,63.8516 707.75,63.8516 Q706.9844,63.8516 706.3438,64.1797 Q705.7188,64.5078 705.2188,65.2578 Q704.7344,66.0078 704.7344,67.0391 L704.7344,68.1328 Q704.7344,69.3672 705.625,70.1953 Q706.5156,71.0078 708.1094,71.0078 Q709.0469,71.0078 709.7031,70.7578 Q710.0938,70.6016 710.5156,70.1641 Q710.7813,69.8984 710.9219,69.8203 Q711.0781,69.7422 711.2813,69.7422 Q711.6094,69.7422 711.8594,70.0078 Q712.125,70.2578 712.125,70.6016 Q712.125,70.9453 711.7813,71.3516 Q711.2813,71.9297 710.4844,72.2578 Q709.4063,72.7109 708.1094,72.7109 Q706.5938,72.7109 705.3906,72.0859 Q704.4063,71.5859 703.7188,70.5234 Q703.0313,69.4453 703.0313,68.1641 L703.0313,67.0078 Q703.0313,65.6797 703.6406,64.5391 Q704.2656,63.3828 705.3594,62.7734 Q706.4531,62.1484 707.6875,62.1484 Q708.4219,62.1484 709.0625,62.3203 Q709.7188,62.4766 710.2656,62.8359 Z " fill="#000000"/><text fill="#000000" font-family="sans-serif" font-size="12" font-style="italic" lengthAdjust="spacing" textLength="63.3867" x="727.9307" y="63.0664">&#171;boundary&#187;</text><text fill="#000000" font-family="sans-serif" font-size="14" lengthAdjust="spacing" textLength="76.248" x="721.5" y="80.2363">CheckOutUI</text><line style="stroke:#181818;stroke-width:0.5;" x1="693.5" x2="799.748" y1="88.3125" y2="88.3125"/><line style="stroke:#181818;stroke-width:0.5;" x1="693.5" x2="799.748" y1="96.3125" y2="96.3125"/></g><!--class CancellationUI--><g class="entity" data-qualified-name="CancellationUI" data-source-line="12" id="ent0005"><rect fill="#F1F1F1" height="58.7031" rx="2.5" ry="2.5" style="stroke:#181818;stroke-width:0.5;" width="123.0479" x="1055" y="183.1094"/><ellipse cx="1070" cy="204.4609" fill="#ADD1B2" rx="11" ry="11" style="stroke:#181818;stroke-width:1;"/><path d="M1072.7656,200.3359 Q1072.9219,200.1172 1073.1094,200.0078 Q1073.2969,199.8984 1073.5156,199.8984 Q1073.8906,199.8984 1074.125,200.1641 Q1074.3594,200.4141 1074.3594,201.0234 L1074.3594,202.4766 Q1074.3594,203.0859 1074.125,203.3516 Q1073.8906,203.6172 1073.5156,203.6172 Q1073.1719,203.6172 1072.9688,203.4141 Q1072.7656,203.2266 1072.6563,202.7109 Q1072.6094,202.3516 1072.4219,202.1641 Q1072.0938,201.7891 1071.4844,201.5703 Q1070.875,201.3516 1070.25,201.3516 Q1069.4844,201.3516 1068.8438,201.6797 Q1068.2188,202.0078 1067.7188,202.7578 Q1067.2344,203.5078 1067.2344,204.5391 L1067.2344,205.6328 Q1067.2344,206.8672 1068.125,207.6953 Q1069.0156,208.5078 1070.6094,208.5078 Q1071.5469,208.5078 1072.2031,208.2578 Q1072.5938,208.1016 1073.0156,207.6641 Q1073.2813,207.3984 1073.4219,207.3203 Q1073.5781,207.2422 1073.7813,207.2422 Q1074.1094,207.2422 1074.3594,207.5078 Q1074.625,207.7578 1074.625,208.1016 Q1074.625,208.4453 1074.2813,208.8516 Q1073.7813,209.4297 1072.9844,209.7578 Q1071.9063,210.2109 1070.6094,210.2109 Q1069.0938,210.2109 1067.8906,209.5859 Q1066.9063,209.0859 1066.2188,208.0234 Q1065.5313,206.9453 1065.5313,205.6641 L1065.5313,204.5078 Q1065.5313,203.1797 1066.1406,202.0391 Q1066.7656,200.8828 1067.8594,200.2734 Q1068.9531,199.6484 1070.1875,199.6484 Q1070.9219,199.6484 1071.5625,199.8203 Q1072.2188,199.9766 1072.7656,200.3359 Z " fill="#000000"/><text fill="#000000" font-family="sans-serif" font-size="12" font-style="italic" lengthAdjust="spacing" textLength="63.3867" x="1097.8306" y="200.5664">&#171;boundary&#187;</text><text fill="#000000" font-family="sans-serif" font-size="14" lengthAdjust="spacing" textLength="91.0479" x="1084" y="217.7363">CancellationUI</text><line style="stroke:#181818;stroke-width:0.5;" x1="1056" x2="1177.0479" y1="225.8125" y2="225.8125"/><line style="stroke:#181818;stroke-width:0.5;" x1="1056" x2="1177.0479" y1="233.8125" y2="233.8125"/></g><!--class ReservationControl--><g class="entity" data-qualified-name="ReservationControl" data-source-line="15" id="ent0006"><rect fill="#F1F1F1" height="93.9219" rx="2.5" ry="2.5" style="stroke:#181818;stroke-width:0.5;" width="364.3311" x="1286.5" y="329.6094"/><ellipse cx="1404.4985" cy="350.9609" fill="#ADD1B2" rx="11" ry="11" style="stroke:#181818;stroke-width:1;"/><path d="M1407.2642,346.8359 Q1407.4204,346.6172 1407.6079,346.5078 Q1407.7954,346.3984 1408.0142,346.3984 Q1408.3892,346.3984 1408.6235,346.6641 Q1408.8579,346.9141 1408.8579,347.5234 L1408.8579,348.9766 Q1408.8579,349.5859 1408.6235,349.8516 Q1408.3892,350.1172 1408.0142,350.1172 Q1407.6704,350.1172 1407.4673,349.9141 Q1407.2642,349.7266 1407.1548,349.2109 Q1407.1079,348.8516 1406.9204,348.6641 Q1406.5923,348.2891 1405.9829,348.0703 Q1405.3735,347.8516 1404.7485,347.8516 Q1403.9829,347.8516 1403.3423,348.1797 Q1402.7173,348.5078 1402.2173,349.2578 Q1401.7329,350.0078 1401.7329,351.0391 L1401.7329,352.1328 Q1401.7329,353.3672 1402.6235,354.1953 Q1403.5142,355.0078 1405.1079,355.0078 Q1406.0454,355.0078 1406.7017,354.7578 Q1407.0923,354.6016 1407.5142,354.1641 Q1407.7798,353.8984 1407.9204,353.8203 Q1408.0767,353.7422 1408.2798,353.7422 Q1408.6079,353.7422 1408.8579,354.0078 Q1409.1235,354.2578 1409.1235,354.6016 Q1409.1235,354.9453 1408.7798,355.3516 Q1408.2798,355.9297 1407.4829,356.2578 Q1406.4048,356.7109 1405.1079,356.7109 Q1403.5923,356.7109 1402.3892,356.0859 Q1401.4048,355.5859 1400.7173,354.5234 Q1400.0298,353.4453 1400.0298,352.1641 L1400.0298,351.0078 Q1400.0298,349.6797 1400.6392,348.5391 Q1401.2642,347.3828 1402.3579,346.7734 Q1403.4517,346.1484 1404.686,346.1484 Q1405.4204,346.1484 1406.061,346.3203 Q1406.7173,346.4766 1407.2642,346.8359 Z " fill="#000000"/><text fill="#000000" font-family="sans-serif" font-size="12" font-style="italic" lengthAdjust="spacing" textLength="49.3652" x="1460.2329" y="347.0664">&#171;control&#187;</text><text fill="#000000" font-family="sans-serif" font-size="14" lengthAdjust="spacing" textLength="119.834" x="1424.9985" y="364.2363">ReservationControl</text><line style="stroke:#181818;stroke-width:0.5;" x1="1287.5" x2="1649.8311" y1="372.3125" y2="372.3125"/><line style="stroke:#181818;stroke-width:0.5;" x1="1287.5" x2="1649.8311" y1="380.3125" y2="380.3125"/><g data-visibility-modifier="PUBLIC_METHOD"><ellipse cx="1297.5" cy="394.6172" fill="#84BE84" rx="3" ry="3" style="stroke:#038048;stroke-width:1;"/></g><text fill="#000000" font-family="sans-serif" font-size="14" lengthAdjust="spacing" textLength="314.2549" x="1306.5" y="398.8457">&#31354;&#23460;&#12434;&#26908;&#32034;&#12377;&#12427;(&#23487;&#27850;&#26085;, &#23458;&#23460;&#12479;&#12452;&#12503;) : List&lt;Room&gt;</text><g data-visibility-modifier="PUBLIC_METHOD"><ellipse cx="1297.5" cy="412.2266" fill="#84BE84" rx="3" ry="3" style="stroke:#038048;stroke-width:1;"/></g><text fill="#000000" font-family="sans-serif" font-size="14" lengthAdjust="spacing" textLength="338.3311" x="1306.5" y="416.4551">&#20104;&#32004;&#12434;&#30331;&#37682;&#12377;&#12427;(&#23458;&#23460;, &#23487;&#27850;&#26085;, &#27663;&#21517;, &#36899;&#32097;&#20808;) : &#20104;&#32004;&#30058;&#21495;</text></g><!--class InquiryControl--><g class="entity" data-qualified-name="InquiryControl" data-source-line="19" id="ent0007"><rect fill="#F1F1F1" height="93.9219" rx="2.5" ry="2.5" style="stroke:#181818;stroke-width:0.5;" width="297.4756" x="210" y="554.6094"/><ellipse cx="310.9121" cy="575.9609" fill="#ADD1B2" rx="11" ry="11" style="stroke:#181818;stroke-width:1;"/><path d="M313.6777,571.8359 Q313.834,571.6172 314.0215,571.5078 Q314.209,571.3984 314.4277,571.3984 Q314.8027,571.3984 315.0371,571.6641 Q315.2715,571.9141 315.2715,572.5234 L315.2715,573.9766 Q315.2715,574.5859 315.0371,574.8516 Q314.8027,575.1172 314.4277,575.1172 Q314.084,575.1172 313.8809,574.9141 Q313.6777,574.7266 313.5684,574.2109 Q313.5215,573.8516 313.334,573.6641 Q313.0059,573.2891 312.3965,573.0703 Q311.7871,572.8516 311.1621,572.8516 Q310.3965,572.8516 309.7559,573.1797 Q309.1309,573.5078 308.6309,574.2578 Q308.1465,575.0078 308.1465,576.0391 L308.1465,577.1328 Q308.1465,578.3672 309.0371,579.1953 Q309.9277,580.0078 311.5215,580.0078 Q312.459,580.0078 313.1152,579.7578 Q313.5059,579.6016 313.9277,579.1641 Q314.1934,578.8984 314.334,578.8203 Q314.4902,578.7422 314.6934,578.7422 Q315.0215,578.7422 315.2715,579.0078 Q315.5371,579.2578 315.5371,579.6016 Q315.5371,579.9453 315.1934,580.3516 Q314.6934,580.9297 313.8965,581.2578 Q312.8184,581.7109 311.5215,581.7109 Q310.0059,581.7109 308.8027,581.0859 Q307.8184,580.5859 307.1309,579.5234 Q306.4434,578.4453 306.4434,577.1641 L306.4434,576.0078 Q306.4434,574.6797 307.0527,573.5391 Q307.6777,572.3828 308.7715,571.7734 Q309.8652,571.1484 311.0996,571.1484 Q311.834,571.1484 312.4746,571.3203 Q313.1309,571.4766 313.6777,571.8359 Z " fill="#000000"/><text fill="#000000" font-family="sans-serif" font-size="12" font-style="italic" lengthAdjust="spacing" textLength="49.3652" x="350.3052" y="572.0664">&#171;control&#187;</text><text fill="#000000" font-family="sans-serif" font-size="14" lengthAdjust="spacing" textLength="87.1514" x="331.4121" y="589.2363">InquiryControl</text><line style="stroke:#181818;stroke-width:0.5;" x1="211" x2="506.4756" y1="597.3125" y2="597.3125"/><line style="stroke:#181818;stroke-width:0.5;" x1="211" x2="506.4756" y1="605.3125" y2="605.3125"/><g data-visibility-modifier="PUBLIC_METHOD"><ellipse cx="221" cy="619.6172" fill="#84BE84" rx="3" ry="3" style="stroke:#038048;stroke-width:1;"/></g><text fill="#000000" font-family="sans-serif" font-size="14" lengthAdjust="spacing" textLength="249.6963" x="230" y="623.8457">&#20104;&#32004;&#12434;&#26908;&#32034;&#12377;&#12427;(&#20104;&#32004;&#30058;&#21495;) : Reservation</text><g data-visibility-modifier="PUBLIC_METHOD"><ellipse cx="221" cy="637.2266" fill="#84BE84" rx="3" ry="3" style="stroke:#038048;stroke-width:1;"/></g><text fill="#000000" font-family="sans-serif" font-size="14" lengthAdjust="spacing" textLength="271.4756" x="230" y="641.4551">&#20104;&#32004;&#12434;&#26908;&#32034;&#12377;&#12427;(&#27663;&#21517;, &#23487;&#27850;&#26085;) : Reservation</text></g><!--class CheckInControl--><g class="entity" data-qualified-name="CheckInControl" data-source-line="23" id="ent0008"><rect fill="#F1F1F1" height="76.3125" rx="2.5" ry="2.5" style="stroke:#181818;stroke-width:0.5;" width="312.9932" x="270" y="338.6094"/><ellipse cx="374.002" cy="359.9609" fill="#ADD1B2" rx="11" ry="11" style="stroke:#181818;stroke-width:1;"/><path d="M376.7676,355.8359 Q376.9238,355.6172 377.1113,355.5078 Q377.2988,355.3984 377.5176,355.3984 Q377.8926,355.3984 378.127,355.6641 Q378.3613,355.9141 378.3613,356.5234 L378.3613,357.9766 Q378.3613,358.5859 378.127,358.8516 Q377.8926,359.1172 377.5176,359.1172 Q377.1738,359.1172 376.9707,358.9141 Q376.7676,358.7266 376.6582,358.2109 Q376.6113,357.8516 376.4238,357.6641 Q376.0957,357.2891 375.4863,357.0703 Q374.877,356.8516 374.252,356.8516 Q373.4863,356.8516 372.8457,357.1797 Q372.2207,357.5078 371.7207,358.2578 Q371.2363,359.0078 371.2363,360.0391 L371.2363,361.1328 Q371.2363,362.3672 372.127,363.1953 Q373.0176,364.0078 374.6113,364.0078 Q375.5488,364.0078 376.2051,363.7578 Q376.5957,363.6016 377.0176,363.1641 Q377.2832,362.8984 377.4238,362.8203 Q377.5801,362.7422 377.7832,362.7422 Q378.1113,362.7422 378.3613,363.0078 Q378.627,363.2578 378.627,363.6016 Q378.627,363.9453 378.2832,364.3516 Q377.7832,364.9297 376.9863,365.2578 Q375.9082,365.7109 374.6113,365.7109 Q373.0957,365.7109 371.8926,365.0859 Q370.9082,364.5859 370.2207,363.5234 Q369.5332,362.4453 369.5332,361.1641 L369.5332,360.0078 Q369.5332,358.6797 370.1426,357.5391 Q370.7676,356.3828 371.8613,355.7734 Q372.9551,355.1484 374.1895,355.1484 Q374.9238,355.1484 375.5645,355.3203 Q376.2207,355.4766 376.7676,355.8359 Z " fill="#000000"/><text fill="#000000" font-family="sans-serif" font-size="12" font-style="italic" lengthAdjust="spacing" textLength="49.3652" x="418.064" y="356.0664">&#171;control&#187;</text><text fill="#000000" font-family="sans-serif" font-size="14" lengthAdjust="spacing" textLength="96.4893" x="394.502" y="373.2363">CheckInControl</text><line style="stroke:#181818;stroke-width:0.5;" x1="271" x2="581.9932" y1="381.3125" y2="381.3125"/><line style="stroke:#181818;stroke-width:0.5;" x1="271" x2="581.9932" y1="389.3125" y2="389.3125"/><g data-visibility-modifier="PUBLIC_METHOD"><ellipse cx="281" cy="403.6172" fill="#84BE84" rx="3" ry="3" style="stroke:#038048;stroke-width:1;"/></g><text fill="#000000" font-family="sans-serif" font-size="14" lengthAdjust="spacing" textLength="286.9932" x="290" y="407.8457">&#12481;&#12455;&#12483;&#12463;&#12452;&#12531;&#12434;&#23455;&#34892;&#12377;&#12427;(&#20104;&#32004;&#30058;&#21495;) : &#37096;&#23627;&#30058;&#21495;</text></g><!--class CheckOutControl--><g class="entity" data-qualified-name="CheckOutControl" data-source-line="26" id="ent0009"><rect fill="#F1F1F1" height="93.9219" rx="2.5" ry="2.5" style="stroke:#181818;stroke-width:0.5;" width="243.0137" x="625" y="165.6094"/><ellipse cx="688.5674" cy="186.9609" fill="#ADD1B2" rx="11" ry="11" style="stroke:#181818;stroke-width:1;"/><path d="M691.333,182.8359 Q691.4893,182.6172 691.6768,182.5078 Q691.8643,182.3984 692.083,182.3984 Q692.458,182.3984 692.6924,182.6641 Q692.9268,182.9141 692.9268,183.5234 L692.9268,184.9766 Q692.9268,185.5859 692.6924,185.8516 Q692.458,186.1172 692.083,186.1172 Q691.7393,186.1172 691.5361,185.9141 Q691.333,185.7266 691.2236,185.2109 Q691.1768,184.8516 690.9893,184.6641 Q690.6611,184.2891 690.0518,184.0703 Q689.4424,183.8516 688.8174,183.8516 Q688.0518,183.8516 687.4111,184.1797 Q686.7861,184.5078 686.2861,185.2578 Q685.8018,186.0078 685.8018,187.0391 L685.8018,188.1328 Q685.8018,189.3672 686.6924,190.1953 Q687.583,191.0078 689.1768,191.0078 Q690.1143,191.0078 690.7705,190.7578 Q691.1611,190.6016 691.583,190.1641 Q691.8486,189.8984 691.9893,189.8203 Q692.1455,189.7422 692.3486,189.7422 Q692.6768,189.7422 692.9268,190.0078 Q693.1924,190.2578 693.1924,190.6016 Q693.1924,190.9453 692.8486,191.3516 Q692.3486,191.9297 691.5518,192.2578 Q690.4736,192.7109 689.1768,192.7109 Q687.6611,192.7109 686.458,192.0859 Q685.4736,191.5859 684.7861,190.5234 Q684.0986,189.4453 684.0986,188.1641 L684.0986,187.0078 Q684.0986,185.6797 684.708,184.5391 Q685.333,183.3828 686.4268,182.7734 Q687.5205,182.1484 688.7549,182.1484 Q689.4893,182.1484 690.1299,182.3203 Q690.7861,182.4766 691.333,182.8359 Z " fill="#000000"/><text fill="#000000" font-family="sans-serif" font-size="12" font-style="italic" lengthAdjust="spacing" textLength="49.3652" x="738.0742" y="183.0664">&#171;control&#187;</text><text fill="#000000" font-family="sans-serif" font-size="14" lengthAdjust="spacing" textLength="107.3789" x="709.0674" y="200.2363">CheckOutControl</text><line style="stroke:#181818;stroke-width:0.5;" x1="626" x2="867.0137" y1="208.3125" y2="208.3125"/><line style="stroke:#181818;stroke-width:0.5;" x1="626" x2="867.0137" y1="216.3125" y2="216.3125"/><g data-visibility-modifier="PUBLIC_METHOD"><ellipse cx="636" cy="230.6172" fill="#84BE84" rx="3" ry="3" style="stroke:#038048;stroke-width:1;"/></g><text fill="#000000" font-family="sans-serif" font-size="14" lengthAdjust="spacing" textLength="217.0137" x="645" y="234.8457">&#26009;&#37329;&#12434;&#35336;&#31639;&#12377;&#12427;(&#20104;&#32004;&#30058;&#21495;) : Money</text><g data-visibility-modifier="PUBLIC_METHOD"><ellipse cx="636" cy="248.2266" fill="#84BE84" rx="3" ry="3" style="stroke:#038048;stroke-width:1;"/></g><text fill="#000000" font-family="sans-serif" font-size="14" lengthAdjust="spacing" textLength="214.6758" x="645" y="252.4551">&#25903;&#25173;&#12356;&#12434;&#35352;&#37682;&#12377;&#12427;(&#20104;&#32004;&#30058;&#21495;) : void</text></g><!--class CancellationControl--><g class="entity" data-qualified-name="CancellationControl" data-source-line="30" id="ent0010"><rect fill="#F1F1F1" height="76.3125" rx="2.5" ry="2.5" style="stroke:#181818;stroke-width:0.5;" width="268.6758" x="982" y="338.6094"/><ellipse cx="1050.9985" cy="359.9609" fill="#ADD1B2" rx="11" ry="11" style="stroke:#181818;stroke-width:1;"/><path d="M1053.7642,355.8359 Q1053.9204,355.6172 1054.1079,355.5078 Q1054.2954,355.3984 1054.5142,355.3984 Q1054.8892,355.3984 1055.1235,355.6641 Q1055.3579,355.9141 1055.3579,356.5234 L1055.3579,357.9766 Q1055.3579,358.5859 1055.1235,358.8516 Q1054.8892,359.1172 1054.5142,359.1172 Q1054.1704,359.1172 1053.9673,358.9141 Q1053.7642,358.7266 1053.6548,358.2109 Q1053.6079,357.8516 1053.4204,357.6641 Q1053.0923,357.2891 1052.4829,357.0703 Q1051.8735,356.8516 1051.2485,356.8516 Q1050.4829,356.8516 1049.8423,357.1797 Q1049.2173,357.5078 1048.7173,358.2578 Q1048.2329,359.0078 1048.2329,360.0391 L1048.2329,361.1328 Q1048.2329,362.3672 1049.1235,363.1953 Q1050.0142,364.0078 1051.6079,364.0078 Q1052.5454,364.0078 1053.2017,363.7578 Q1053.5923,363.6016 1054.0142,363.1641 Q1054.2798,362.8984 1054.4204,362.8203 Q1054.5767,362.7422 1054.7798,362.7422 Q1055.1079,362.7422 1055.3579,363.0078 Q1055.6235,363.2578 1055.6235,363.6016 Q1055.6235,363.9453 1055.2798,364.3516 Q1054.7798,364.9297 1053.9829,365.2578 Q1052.9048,365.7109 1051.6079,365.7109 Q1050.0923,365.7109 1048.8892,365.0859 Q1047.9048,364.5859 1047.2173,363.5234 Q1046.5298,362.4453 1046.5298,361.1641 L1046.5298,360.0078 Q1046.5298,358.6797 1047.1392,357.5391 Q1047.7642,356.3828 1048.8579,355.7734 Q1049.9517,355.1484 1051.186,355.1484 Q1051.9204,355.1484 1052.561,355.3203 Q1053.2173,355.4766 1053.7642,355.8359 Z " fill="#000000"/><text fill="#000000" font-family="sans-serif" font-size="12" font-style="italic" lengthAdjust="spacing" textLength="49.3652" x="1107.9053" y="356.0664">&#171;control&#187;</text><text fill="#000000" font-family="sans-serif" font-size="14" lengthAdjust="spacing" textLength="122.1787" x="1071.4985" y="373.2363">CancellationControl</text><line style="stroke:#181818;stroke-width:0.5;" x1="983" x2="1249.6758" y1="381.3125" y2="381.3125"/><line style="stroke:#181818;stroke-width:0.5;" x1="983" x2="1249.6758" y1="389.3125" y2="389.3125"/><g data-visibility-modifier="PUBLIC_METHOD"><ellipse cx="993" cy="403.6172" fill="#84BE84" rx="3" ry="3" style="stroke:#038048;stroke-width:1;"/></g><text fill="#000000" font-family="sans-serif" font-size="14" lengthAdjust="spacing" textLength="242.6758" x="1002" y="407.8457">&#12461;&#12515;&#12531;&#12475;&#12523;&#12434;&#23455;&#34892;&#12377;&#12427;(&#20104;&#32004;&#30058;&#21495;) : void</text></g><!--class Guest--><g class="entity" data-qualified-name="Guest" data-source-line="35" id="ent0011"><rect fill="#F1F1F1" height="111.5313" rx="2.5" ry="2.5" style="stroke:#181818;stroke-width:0.5;" width="120.165" x="1270.5" y="545.6094"/><ellipse cx="1308.0611" cy="566.9609" fill="#ADD1B2" rx="11" ry="11" style="stroke:#181818;stroke-width:1;"/><path d="M1310.8267,562.8359 Q1310.983,562.6172 1311.1705,562.5078 Q1311.358,562.3984 1311.5767,562.3984 Q1311.9517,562.3984 1312.1861,562.6641 Q1312.4205,562.9141 1312.4205,563.5234 L1312.4205,564.9766 Q1312.4205,565.5859 1312.1861,565.8516 Q1311.9517,566.1172 1311.5767,566.1172 Q1311.233,566.1172 1311.0298,565.9141 Q1310.8267,565.7266 1310.7173,565.2109 Q1310.6705,564.8516 1310.483,564.6641 Q1310.1548,564.2891 1309.5455,564.0703 Q1308.9361,563.8516 1308.3111,563.8516 Q1307.5455,563.8516 1306.9048,564.1797 Q1306.2798,564.5078 1305.7798,565.2578 Q1305.2955,566.0078 1305.2955,567.0391 L1305.2955,568.1328 Q1305.2955,569.3672 1306.1861,570.1953 Q1307.0767,571.0078 1308.6705,571.0078 Q1309.608,571.0078 1310.2642,570.7578 Q1310.6548,570.6016 1311.0767,570.1641 Q1311.3423,569.8984 1311.483,569.8203 Q1311.6392,569.7422 1311.8423,569.7422 Q1312.1705,569.7422 1312.4205,570.0078 Q1312.6861,570.2578 1312.6861,570.6016 Q1312.6861,570.9453 1312.3423,571.3516 Q1311.8423,571.9297 1311.0455,572.2578 Q1309.9673,572.7109 1308.6705,572.7109 Q1307.1548,572.7109 1305.9517,572.0859 Q1304.9673,571.5859 1304.2798,570.5234 Q1303.5923,569.4453 1303.5923,568.1641 L1303.5923,567.0078 Q1303.5923,565.6797 1304.2017,564.5391 Q1304.8267,563.3828 1305.9205,562.7734 Q1307.0142,562.1484 1308.2486,562.1484 Q1308.983,562.1484 1309.6236,562.3203 Q1310.2798,562.4766 1310.8267,562.8359 Z " fill="#000000"/><text fill="#000000" font-family="sans-serif" font-size="12" font-style="italic" lengthAdjust="spacing" textLength="42.0293" x="1325.0747" y="563.0664">&#171;entity&#187;</text><text fill="#000000" font-family="sans-serif" font-size="14" lengthAdjust="spacing" textLength="37.3516" x="1327.4135" y="580.2363">Guest</text><line style="stroke:#181818;stroke-width:0.5;" x1="1271.5" x2="1389.665" y1="588.3125" y2="588.3125"/><g data-visibility-modifier="PRIVATE_FIELD"><rect fill="none" height="6" style="stroke:#C82930;stroke-width:1;" width="6" x="1278.5" y="599.6172"/></g><text fill="#000000" font-family="sans-serif" font-size="14" lengthAdjust="spacing" textLength="94.165" x="1290.5" y="606.8457">guestId : String</text><g data-visibility-modifier="PRIVATE_FIELD"><rect fill="none" height="6" style="stroke:#C82930;stroke-width:1;" width="6" x="1278.5" y="617.2266"/></g><text fill="#000000" font-family="sans-serif" font-size="14" lengthAdjust="spacing" textLength="83.2617" x="1290.5" y="624.4551">name : String</text><g data-visibility-modifier="PRIVATE_FIELD"><rect fill="none" height="6" style="stroke:#C82930;stroke-width:1;" width="6" x="1278.5" y="634.8359"/></g><text fill="#000000" font-family="sans-serif" font-size="14" lengthAdjust="spacing" textLength="93.3789" x="1290.5" y="642.0645">contact : String</text><line style="stroke:#181818;stroke-width:0.5;" x1="1271.5" x2="1389.665" y1="649.1406" y2="649.1406"/></g><!--class Reservation--><g class="entity" data-qualified-name="Reservation" data-source-line="40" id="ent0012"><rect fill="#F1F1F1" height="199.5781" rx="2.5" ry="2.5" style="stroke:#181818;stroke-width:0.5;" width="200.9932" x="828" y="753.6094"/><ellipse cx="886.895" cy="774.9609" fill="#ADD1B2" rx="11" ry="11" style="stroke:#181818;stroke-width:1;"/><path d="M889.6606,770.8359 Q889.8169,770.6172 890.0044,770.5078 Q890.1919,770.3984 890.4106,770.3984 Q890.7856,770.3984 891.02,770.6641 Q891.2544,770.9141 891.2544,771.5234 L891.2544,772.9766 Q891.2544,773.5859 891.02,773.8516 Q890.7856,774.1172 890.4106,774.1172 Q890.0669,774.1172 889.8638,773.9141 Q889.6606,773.7266 889.5513,773.2109 Q889.5044,772.8516 889.3169,772.6641 Q888.9888,772.2891 888.3794,772.0703 Q887.77,771.8516 887.145,771.8516 Q886.3794,771.8516 885.7388,772.1797 Q885.1138,772.5078 884.6138,773.2578 Q884.1294,774.0078 884.1294,775.0391 L884.1294,776.1328 Q884.1294,777.3672 885.02,778.1953 Q885.9106,779.0078 887.5044,779.0078 Q888.4419,779.0078 889.0981,778.7578 Q889.4888,778.6016 889.9106,778.1641 Q890.1763,777.8984 890.3169,777.8203 Q890.4731,777.7422 890.6763,777.7422 Q891.0044,777.7422 891.2544,778.0078 Q891.52,778.2578 891.52,778.6016 Q891.52,778.9453 891.1763,779.3516 Q890.6763,779.9297 889.8794,780.2578 Q888.8013,780.7109 887.5044,780.7109 Q885.9888,780.7109 884.7856,780.0859 Q883.8013,779.5859 883.1138,778.5234 Q882.4263,777.4453 882.4263,776.1641 L882.4263,775.0078 Q882.4263,773.6797 883.0356,772.5391 Q883.6606,771.3828 884.7544,770.7734 Q885.8481,770.1484 887.0825,770.1484 Q887.8169,770.1484 888.4575,770.3203 Q889.1138,770.4766 889.6606,770.8359 Z " fill="#000000"/><text fill="#000000" font-family="sans-serif" font-size="12" font-style="italic" lengthAdjust="spacing" textLength="42.0293" x="923.7319" y="771.0664">&#171;entity&#187;</text><text fill="#000000" font-family="sans-serif" font-size="14" lengthAdjust="spacing" textLength="74.7031" x="907.395" y="788.2363">Reservation</text><line style="stroke:#181818;stroke-width:0.5;" x1="829" x2="1027.9932" y1="796.3125" y2="796.3125"/><g data-visibility-modifier="PRIVATE_FIELD"><rect fill="none" height="6" style="stroke:#C82930;stroke-width:1;" width="6" x="836" y="807.6172"/></g><text fill="#000000" font-family="sans-serif" font-size="14" lengthAdjust="spacing" textLength="129.1719" x="848" y="814.8457">reservationId : String</text><g data-visibility-modifier="PRIVATE_FIELD"><rect fill="none" height="6" style="stroke:#C82930;stroke-width:1;" width="6" x="836" y="825.2266"/></g><text fill="#000000" font-family="sans-serif" font-size="14" lengthAdjust="spacing" textLength="119.0615" x="848" y="832.4551">checkInDate : Date</text><g data-visibility-modifier="PRIVATE_FIELD"><rect fill="none" height="6" style="stroke:#C82930;stroke-width:1;" width="6" x="836" y="842.8359"/></g><text fill="#000000" font-family="sans-serif" font-size="14" lengthAdjust="spacing" textLength="129.9512" x="848" y="850.0645">checkOutDate : Date</text><g data-visibility-modifier="PRIVATE_FIELD"><rect fill="none" height="6" style="stroke:#C82930;stroke-width:1;" width="6" x="836" y="860.4453"/></g><text fill="#000000" font-family="sans-serif" font-size="14" lengthAdjust="spacing" textLength="163.4131" x="848" y="867.6738">status : ReservationStatus</text><line style="stroke:#181818;stroke-width:0.5;" x1="829" x2="1027.9932" y1="874.75" y2="874.75"/><g data-visibility-modifier="PUBLIC_METHOD"><ellipse cx="839" cy="889.0547" fill="#84BE84" rx="3" ry="3" style="stroke:#038048;stroke-width:1;"/></g><text fill="#000000" font-family="sans-serif" font-size="14" lengthAdjust="spacing" textLength="174.9932" x="848" y="893.2832">&#20869;&#23481;&#12434;&#21462;&#24471;&#12377;&#12427;() : &#20104;&#32004;&#20869;&#23481;</text><g data-visibility-modifier="PUBLIC_METHOD"><ellipse cx="839" cy="906.6641" fill="#84BE84" rx="3" ry="3" style="stroke:#038048;stroke-width:1;"/></g><text fill="#000000" font-family="sans-serif" font-size="14" lengthAdjust="spacing" textLength="158.6758" x="848" y="910.8926">&#12481;&#12455;&#12483;&#12463;&#12452;&#12531;&#12377;&#12427;() : void</text><g data-visibility-modifier="PUBLIC_METHOD"><ellipse cx="839" cy="924.2734" fill="#84BE84" rx="3" ry="3" style="stroke:#038048;stroke-width:1;"/></g><text fill="#000000" font-family="sans-serif" font-size="14" lengthAdjust="spacing" textLength="172.6758" x="848" y="928.502">&#12481;&#12455;&#12483;&#12463;&#12450;&#12454;&#12488;&#12377;&#12427;() : void</text><g data-visibility-modifier="PUBLIC_METHOD"><ellipse cx="839" cy="941.8828" fill="#84BE84" rx="3" ry="3" style="stroke:#038048;stroke-width:1;"/></g><text fill="#000000" font-family="sans-serif" font-size="14" lengthAdjust="spacing" textLength="144.6758" x="848" y="946.1113">&#12461;&#12515;&#12531;&#12475;&#12523;&#12377;&#12427;() : void</text></g><!--class Room--><g class="entity" data-qualified-name="Room" data-source-line="50" id="ent0013"><rect fill="#F1F1F1" height="181.9688" rx="2.5" ry="2.5" style="stroke:#181818;stroke-width:0.5;" width="236.8203" x="810" y="510.6094"/><ellipse cx="905.1455" cy="531.9609" fill="#ADD1B2" rx="11" ry="11" style="stroke:#181818;stroke-width:1;"/><path d="M907.9111,527.8359 Q908.0674,527.6172 908.2549,527.5078 Q908.4424,527.3984 908.6611,527.3984 Q909.0361,527.3984 909.2705,527.6641 Q909.5049,527.9141 909.5049,528.5234 L909.5049,529.9766 Q909.5049,530.5859 909.2705,530.8516 Q909.0361,531.1172 908.6611,531.1172 Q908.3174,531.1172 908.1143,530.9141 Q907.9111,530.7266 907.8018,530.2109 Q907.7549,529.8516 907.5674,529.6641 Q907.2393,529.2891 906.6299,529.0703 Q906.0205,528.8516 905.3955,528.8516 Q904.6299,528.8516 903.9893,529.1797 Q903.3643,529.5078 902.8643,530.2578 Q902.3799,531.0078 902.3799,532.0391 L902.3799,533.1328 Q902.3799,534.3672 903.2705,535.1953 Q904.1611,536.0078 905.7549,536.0078 Q906.6924,536.0078 907.3486,535.7578 Q907.7393,535.6016 908.1611,535.1641 Q908.4268,534.8984 908.5674,534.8203 Q908.7236,534.7422 908.9268,534.7422 Q909.2549,534.7422 909.5049,535.0078 Q909.7705,535.2578 909.7705,535.6016 Q909.7705,535.9453 909.4268,536.3516 Q908.9268,536.9297 908.1299,537.2578 Q907.0518,537.7109 905.7549,537.7109 Q904.2393,537.7109 903.0361,537.0859 Q902.0518,536.5859 901.3643,535.5234 Q900.6768,534.4453 900.6768,533.1641 L900.6768,532.0078 Q900.6768,530.6797 901.2861,529.5391 Q901.9111,528.3828 903.0049,527.7734 Q904.0986,527.1484 905.333,527.1484 Q906.0674,527.1484 906.708,527.3203 Q907.3643,527.4766 907.9111,527.8359 Z " fill="#000000"/><text fill="#000000" font-family="sans-serif" font-size="12" font-style="italic" lengthAdjust="spacing" textLength="42.0293" x="923.6455" y="528.0664">&#171;entity&#187;</text><text fill="#000000" font-family="sans-serif" font-size="14" lengthAdjust="spacing" textLength="37.3447" x="925.9878" y="545.2363">Room</text><line style="stroke:#181818;stroke-width:0.5;" x1="811" x2="1045.8203" y1="553.3125" y2="553.3125"/><g data-visibility-modifier="PRIVATE_FIELD"><rect fill="none" height="6" style="stroke:#C82930;stroke-width:1;" width="6" x="818" y="564.6172"/></g><text fill="#000000" font-family="sans-serif" font-size="14" lengthAdjust="spacing" textLength="129.9307" x="830" y="571.8457">roomNumber : String</text><g data-visibility-modifier="PRIVATE_FIELD"><rect fill="none" height="6" style="stroke:#C82930;stroke-width:1;" width="6" x="818" y="582.2266"/></g><text fill="#000000" font-family="sans-serif" font-size="14" lengthAdjust="spacing" textLength="111.2617" x="830" y="589.4551">roomType : String</text><g data-visibility-modifier="PRIVATE_FIELD"><rect fill="none" height="6" style="stroke:#C82930;stroke-width:1;" width="6" x="818" y="599.8359"/></g><text fill="#000000" font-family="sans-serif" font-size="14" lengthAdjust="spacing" textLength="126.0547" x="830" y="607.0645">status : RoomStatus</text><line style="stroke:#181818;stroke-width:0.5;" x1="811" x2="1045.8203" y1="614.1406" y2="614.1406"/><g data-visibility-modifier="PUBLIC_METHOD"><ellipse cx="821" cy="628.4453" fill="#84BE84" rx="3" ry="3" style="stroke:#038048;stroke-width:1;"/></g><text fill="#000000" font-family="sans-serif" font-size="14" lengthAdjust="spacing" textLength="210.8203" x="830" y="632.6738">&#31354;&#23460;&#12363;&#21028;&#23450;&#12377;&#12427;(&#23487;&#27850;&#26085;) : boolean</text><g data-visibility-modifier="PUBLIC_METHOD"><ellipse cx="821" cy="646.0547" fill="#84BE84" rx="3" ry="3" style="stroke:#038048;stroke-width:1;"/></g><text fill="#000000" font-family="sans-serif" font-size="14" lengthAdjust="spacing" textLength="172.6758" x="830" y="650.2832">&#20104;&#32004;&#28168;&#12415;&#12395;&#26356;&#26032;&#12377;&#12427;() : void</text><g data-visibility-modifier="PUBLIC_METHOD"><ellipse cx="821" cy="663.6641" fill="#84BE84" rx="3" ry="3" style="stroke:#038048;stroke-width:1;"/></g><text fill="#000000" font-family="sans-serif" font-size="14" lengthAdjust="spacing" textLength="158.6758" x="830" y="667.8926">&#20351;&#29992;&#20013;&#12395;&#26356;&#26032;&#12377;&#12427;() : void</text><g data-visibility-modifier="PUBLIC_METHOD"><ellipse cx="821" cy="681.2734" fill="#84BE84" rx="3" ry="3" style="stroke:#038048;stroke-width:1;"/></g><text fill="#000000" font-family="sans-serif" font-size="14" lengthAdjust="spacing" textLength="116.6758" x="830" y="685.502">&#31354;&#23460;&#12395;&#25147;&#12377;() : void</text></g><!--class RoomRate--><g class="entity" data-qualified-name="RoomRate" data-source-line="59" id="ent0014"><rect fill="#F1F1F1" height="111.5313" rx="2.5" ry="2.5" style="stroke:#181818;stroke-width:0.5;" width="257.0137" x="618" y="320.6094"/><ellipse cx="708.7983" cy="341.9609" fill="#ADD1B2" rx="11" ry="11" style="stroke:#181818;stroke-width:1;"/><path d="M711.564,337.8359 Q711.7202,337.6172 711.9077,337.5078 Q712.0952,337.3984 712.314,337.3984 Q712.689,337.3984 712.9233,337.6641 Q713.1577,337.9141 713.1577,338.5234 L713.1577,339.9766 Q713.1577,340.5859 712.9233,340.8516 Q712.689,341.1172 712.314,341.1172 Q711.9702,341.1172 711.7671,340.9141 Q711.564,340.7266 711.4546,340.2109 Q711.4077,339.8516 711.2202,339.6641 Q710.8921,339.2891 710.2827,339.0703 Q709.6733,338.8516 709.0483,338.8516 Q708.2827,338.8516 707.6421,339.1797 Q707.0171,339.5078 706.5171,340.2578 Q706.0327,341.0078 706.0327,342.0391 L706.0327,343.1328 Q706.0327,344.3672 706.9233,345.1953 Q707.814,346.0078 709.4077,346.0078 Q710.3452,346.0078 711.0015,345.7578 Q711.3921,345.6016 711.814,345.1641 Q712.0796,344.8984 712.2202,344.8203 Q712.3765,344.7422 712.5796,344.7422 Q712.9077,344.7422 713.1577,345.0078 Q713.4233,345.2578 713.4233,345.6016 Q713.4233,345.9453 713.0796,346.3516 Q712.5796,346.9297 711.7827,347.2578 Q710.7046,347.7109 709.4077,347.7109 Q707.8921,347.7109 706.689,347.0859 Q705.7046,346.5859 705.0171,345.5234 Q704.3296,344.4453 704.3296,343.1641 L704.3296,342.0078 Q704.3296,340.6797 704.939,339.5391 Q705.564,338.3828 706.6577,337.7734 Q707.7515,337.1484 708.9858,337.1484 Q709.7202,337.1484 710.3608,337.3203 Q711.0171,337.4766 711.564,337.8359 Z " fill="#000000"/><text fill="#000000" font-family="sans-serif" font-size="12" font-style="italic" lengthAdjust="spacing" textLength="42.0293" x="741.7422" y="338.0664">&#171;entity&#187;</text><text fill="#000000" font-family="sans-serif" font-size="14" lengthAdjust="spacing" textLength="66.917" x="729.2983" y="355.2363">RoomRate</text><line style="stroke:#181818;stroke-width:0.5;" x1="619" x2="874.0137" y1="363.3125" y2="363.3125"/><g data-visibility-modifier="PRIVATE_FIELD"><rect fill="none" height="6" style="stroke:#C82930;stroke-width:1;" width="6" x="626" y="374.6172"/></g><text fill="#000000" font-family="sans-serif" font-size="14" lengthAdjust="spacing" textLength="111.2617" x="638" y="381.8457">roomType : String</text><g data-visibility-modifier="PRIVATE_FIELD"><rect fill="none" height="6" style="stroke:#C82930;stroke-width:1;" width="6" x="626" y="392.2266"/></g><text fill="#000000" font-family="sans-serif" font-size="14" lengthAdjust="spacing" textLength="138.5029" x="638" y="399.4551">pricePerNight : Money</text><line style="stroke:#181818;stroke-width:0.5;" x1="619" x2="874.0137" y1="406.5313" y2="406.5313"/><g data-visibility-modifier="PUBLIC_METHOD"><ellipse cx="629" cy="420.8359" fill="#84BE84" rx="3" ry="3" style="stroke:#038048;stroke-width:1;"/></g><text fill="#000000" font-family="sans-serif" font-size="14" lengthAdjust="spacing" textLength="231.0137" x="638" y="425.0645">&#21336;&#20385;&#12434;&#21462;&#24471;&#12377;&#12427;(&#23458;&#23460;&#12479;&#12452;&#12503;) : Money</text></g><!--class ServiceUsage--><g class="entity" data-qualified-name="ServiceUsage" data-source-line="64" id="ent0015"><rect fill="#F1F1F1" height="111.5313" rx="2.5" ry="2.5" style="stroke:#181818;stroke-width:0.5;" width="215.0137" x="1403" y="1023.1094"/><ellipse cx="1462.6812" cy="1044.4609" fill="#ADD1B2" rx="11" ry="11" style="stroke:#181818;stroke-width:1;"/><path d="M1465.4468,1040.3359 Q1465.603,1040.1172 1465.7905,1040.0078 Q1465.978,1039.8984 1466.1968,1039.8984 Q1466.5718,1039.8984 1466.8062,1040.1641 Q1467.0405,1040.4141 1467.0405,1041.0234 L1467.0405,1042.4766 Q1467.0405,1043.0859 1466.8062,1043.3516 Q1466.5718,1043.6172 1466.1968,1043.6172 Q1465.853,1043.6172 1465.6499,1043.4141 Q1465.4468,1043.2266 1465.3374,1042.7109 Q1465.2905,1042.3516 1465.103,1042.1641 Q1464.7749,1041.7891 1464.1655,1041.5703 Q1463.5562,1041.3516 1462.9312,1041.3516 Q1462.1655,1041.3516 1461.5249,1041.6797 Q1460.8999,1042.0078 1460.3999,1042.7578 Q1459.9155,1043.5078 1459.9155,1044.5391 L1459.9155,1045.6328 Q1459.9155,1046.8672 1460.8062,1047.6953 Q1461.6968,1048.5078 1463.2905,1048.5078 Q1464.228,1048.5078 1464.8843,1048.2578 Q1465.2749,1048.1016 1465.6968,1047.6641 Q1465.9624,1047.3984 1466.103,1047.3203 Q1466.2593,1047.2422 1466.4624,1047.2422 Q1466.7905,1047.2422 1467.0405,1047.5078 Q1467.3062,1047.7578 1467.3062,1048.1016 Q1467.3062,1048.4453 1466.9624,1048.8516 Q1466.4624,1049.4297 1465.6655,1049.7578 Q1464.5874,1050.2109 1463.2905,1050.2109 Q1461.7749,1050.2109 1460.5718,1049.5859 Q1459.5874,1049.0859 1458.8999,1048.0234 Q1458.2124,1046.9453 1458.2124,1045.6641 L1458.2124,1044.5078 Q1458.2124,1043.1797 1458.8218,1042.0391 Q1459.4468,1040.8828 1460.5405,1040.2734 Q1461.6343,1039.6484 1462.8687,1039.6484 Q1463.603,1039.6484 1464.2437,1039.8203 Q1464.8999,1039.9766 1465.4468,1040.3359 Z " fill="#000000"/><text fill="#000000" font-family="sans-serif" font-size="12" font-style="italic" lengthAdjust="spacing" textLength="42.0293" x="1505.7422" y="1040.5664">&#171;entity&#187;</text><text fill="#000000" font-family="sans-serif" font-size="14" lengthAdjust="spacing" textLength="87.1514" x="1483.1812" y="1057.7363">ServiceUsage</text><line style="stroke:#181818;stroke-width:0.5;" x1="1404" x2="1617.0137" y1="1065.8125" y2="1065.8125"/><g data-visibility-modifier="PRIVATE_FIELD"><rect fill="none" height="6" style="stroke:#C82930;stroke-width:1;" width="6" x="1411" y="1077.1172"/></g><text fill="#000000" font-family="sans-serif" font-size="14" lengthAdjust="spacing" textLength="129.9307" x="1423" y="1084.3457">serviceName : String</text><g data-visibility-modifier="PRIVATE_FIELD"><rect fill="none" height="6" style="stroke:#C82930;stroke-width:1;" width="6" x="1411" y="1094.7266"/></g><text fill="#000000" font-family="sans-serif" font-size="14" lengthAdjust="spacing" textLength="73.1514" x="1423" y="1101.9551">fee : Money</text><line style="stroke:#181818;stroke-width:0.5;" x1="1404" x2="1617.0137" y1="1109.0313" y2="1109.0313"/><g data-visibility-modifier="PUBLIC_METHOD"><ellipse cx="1414" cy="1123.3359" fill="#84BE84" rx="3" ry="3" style="stroke:#038048;stroke-width:1;"/></g><text fill="#000000" font-family="sans-serif" font-size="14" lengthAdjust="spacing" textLength="189.0137" x="1423" y="1127.5645">&#36861;&#21152;&#26009;&#37329;&#12434;&#21462;&#24471;&#12377;&#12427;() : Money</text></g><!--class Charge--><g class="entity" data-qualified-name="Charge" data-source-line="69" id="ent0016"><rect fill="#F1F1F1" height="129.1406" rx="2.5" ry="2.5" style="stroke:#181818;stroke-width:0.5;" width="184.6758" x="279" y="1014.6094"/><ellipse cx="344.1294" cy="1035.9609" fill="#ADD1B2" rx="11" ry="11" style="stroke:#181818;stroke-width:1;"/><path d="M346.895,1031.8359 Q347.0513,1031.6172 347.2388,1031.5078 Q347.4263,1031.3984 347.645,1031.3984 Q348.02,1031.3984 348.2544,1031.6641 Q348.4888,1031.9141 348.4888,1032.5234 L348.4888,1033.9766 Q348.4888,1034.5859 348.2544,1034.8516 Q348.02,1035.1172 347.645,1035.1172 Q347.3013,1035.1172 347.0981,1034.9141 Q346.895,1034.7266 346.7856,1034.2109 Q346.7388,1033.8516 346.5513,1033.6641 Q346.2231,1033.2891 345.6138,1033.0703 Q345.0044,1032.8516 344.3794,1032.8516 Q343.6138,1032.8516 342.9731,1033.1797 Q342.3481,1033.5078 341.8481,1034.2578 Q341.3638,1035.0078 341.3638,1036.0391 L341.3638,1037.1328 Q341.3638,1038.3672 342.2544,1039.1953 Q343.145,1040.0078 344.7388,1040.0078 Q345.6763,1040.0078 346.3325,1039.7578 Q346.7231,1039.6016 347.145,1039.1641 Q347.4106,1038.8984 347.5513,1038.8203 Q347.7075,1038.7422 347.9106,1038.7422 Q348.2388,1038.7422 348.4888,1039.0078 Q348.7544,1039.2578 348.7544,1039.6016 Q348.7544,1039.9453 348.4106,1040.3516 Q347.9106,1040.9297 347.1138,1041.2578 Q346.0356,1041.7109 344.7388,1041.7109 Q343.2231,1041.7109 342.02,1041.0859 Q341.0356,1040.5859 340.3481,1039.5234 Q339.6606,1038.4453 339.6606,1037.1641 L339.6606,1036.0078 Q339.6606,1034.6797 340.27,1033.5391 Q340.895,1032.3828 341.9888,1031.7734 Q343.0825,1031.1484 344.3169,1031.1484 Q345.0513,1031.1484 345.6919,1031.3203 Q346.3481,1031.4766 346.895,1031.8359 Z " fill="#000000"/><text fill="#000000" font-family="sans-serif" font-size="12" font-style="italic" lengthAdjust="spacing" textLength="42.0293" x="366.5732" y="1032.0664">&#171;entity&#187;</text><text fill="#000000" font-family="sans-serif" font-size="14" lengthAdjust="spacing" textLength="45.917" x="364.6294" y="1049.2363">Charge</text><line style="stroke:#181818;stroke-width:0.5;" x1="280" x2="462.6758" y1="1057.3125" y2="1057.3125"/><g data-visibility-modifier="PRIVATE_FIELD"><rect fill="none" height="6" style="stroke:#C82930;stroke-width:1;" width="6" x="287" y="1068.6172"/></g><text fill="#000000" font-family="sans-serif" font-size="14" lengthAdjust="spacing" textLength="100.3857" x="299" y="1075.8457">amount : Money</text><g data-visibility-modifier="PRIVATE_FIELD"><rect fill="none" height="6" style="stroke:#C82930;stroke-width:1;" width="6" x="287" y="1086.2266"/></g><text fill="#000000" font-family="sans-serif" font-size="14" lengthAdjust="spacing" textLength="111.2822" x="299" y="1093.4551">issuedDate : Date</text><g data-visibility-modifier="PRIVATE_FIELD"><rect fill="none" height="6" style="stroke:#C82930;stroke-width:1;" width="6" x="287" y="1103.8359"/></g><text fill="#000000" font-family="sans-serif" font-size="14" lengthAdjust="spacing" textLength="87.9648" x="299" y="1111.0645">paid : boolean</text><line style="stroke:#181818;stroke-width:0.5;" x1="280" x2="462.6758" y1="1118.1406" y2="1118.1406"/><g data-visibility-modifier="PUBLIC_METHOD"><ellipse cx="290" cy="1132.4453" fill="#84BE84" rx="3" ry="3" style="stroke:#038048;stroke-width:1;"/></g><text fill="#000000" font-family="sans-serif" font-size="14" lengthAdjust="spacing" textLength="158.6758" x="299" y="1136.6738">&#25903;&#25173;&#12356;&#28168;&#12415;&#12395;&#12377;&#12427;() : void</text></g><!--class RoomStatus--><g class="entity" data-qualified-name="RoomStatus" data-source-line="76" id="ent0017"><rect fill="#F1F1F1" height="100.8281" rx="2.5" ry="2.5" style="stroke:#181818;stroke-width:0.5;" width="109.0342" x="1199" y="803.1094"/><ellipse cx="1214" cy="819.1094" fill="#EB937F" rx="11" ry="11" style="stroke:#181818;stroke-width:1;"/><path d="M1212.8594,819.9063 L1212.8594,822.4063 L1217.1875,822.4063 L1217.1875,821.4844 Q1217.1875,820.875 1217.4219,820.6094 Q1217.6719,820.3438 1218.0469,820.3438 Q1218.4219,820.3438 1218.6563,820.6094 Q1218.8906,820.875 1218.8906,821.4844 L1218.8906,824.1094 L1210.8906,824.1094 Q1210.2656,824.1094 1210,823.875 Q1209.75,823.6406 1209.75,823.25 Q1209.75,822.875 1210.0156,822.6406 Q1210.2813,822.4063 1210.8906,822.4063 L1211.1563,822.4063 L1211.1563,815.75 L1210.8906,815.75 Q1210.2656,815.75 1210,815.5156 Q1209.75,815.2813 1209.75,814.8906 Q1209.75,814.5156 1210,814.2813 Q1210.2656,814.0469 1210.8906,814.0469 L1218.5156,814.0469 L1218.5156,816.6406 Q1218.5156,817.25 1218.2813,817.5156 Q1218.0625,817.7656 1217.6719,817.7656 Q1217.2969,817.7656 1217.0625,817.5156 Q1216.8281,817.25 1216.8281,816.6406 L1216.8281,815.75 L1212.8594,815.75 L1212.8594,818.2031 L1214.3438,818.2031 Q1214.3438,817.5469 1214.4688,817.3594 Q1214.7344,816.9531 1215.2031,816.9531 Q1215.5781,816.9531 1215.8125,817.2188 Q1216.0469,817.4688 1216.0469,818.0781 L1216.0469,820.0469 Q1216.0469,820.5938 1215.9219,820.7813 Q1215.6563,821.1719 1215.2031,821.1719 Q1214.7344,821.1719 1214.4688,820.7656 Q1214.3438,820.5781 1214.3438,819.9063 L1212.8594,819.9063 Z " fill="#000000"/><text fill="#000000" font-family="sans-serif" font-size="14" lengthAdjust="spacing" textLength="77.0342" x="1228" y="824.8379">RoomStatus</text><line style="stroke:#181818;stroke-width:0.5;" x1="1200" x2="1307.0342" y1="835.1094" y2="835.1094"/><text fill="#000000" font-family="sans-serif" font-size="14" lengthAdjust="spacing" textLength="56.7861" x="1205" y="853.6426">VACANT</text><text fill="#000000" font-family="sans-serif" font-size="14" lengthAdjust="spacing" textLength="77.0205" x="1205" y="871.252">RESERVED</text><text fill="#000000" font-family="sans-serif" font-size="14" lengthAdjust="spacing" textLength="73.8965" x="1205" y="888.8613">OCCUPIED</text><line style="stroke:#181818;stroke-width:0.5;" x1="1200" x2="1307.0342" y1="895.9375" y2="895.9375"/></g><!--class ReservationStatus--><g class="entity" data-qualified-name="ReservationStatus" data-source-line="81" id="ent0018"><rect fill="#F1F1F1" height="118.4375" rx="2.5" ry="2.5" style="stroke:#181818;stroke-width:0.5;" width="146.3926" x="855.5" y="1020.1094"/><ellipse cx="870.5" cy="1036.1094" fill="#EB937F" rx="11" ry="11" style="stroke:#181818;stroke-width:1;"/><path d="M869.3594,1036.9063 L869.3594,1039.4063 L873.6875,1039.4063 L873.6875,1038.4844 Q873.6875,1037.875 873.9219,1037.6094 Q874.1719,1037.3438 874.5469,1037.3438 Q874.9219,1037.3438 875.1563,1037.6094 Q875.3906,1037.875 875.3906,1038.4844 L875.3906,1041.1094 L867.3906,1041.1094 Q866.7656,1041.1094 866.5,1040.875 Q866.25,1040.6406 866.25,1040.25 Q866.25,1039.875 866.5156,1039.6406 Q866.7813,1039.4063 867.3906,1039.4063 L867.6563,1039.4063 L867.6563,1032.75 L867.3906,1032.75 Q866.7656,1032.75 866.5,1032.5156 Q866.25,1032.2813 866.25,1031.8906 Q866.25,1031.5156 866.5,1031.2813 Q866.7656,1031.0469 867.3906,1031.0469 L875.0156,1031.0469 L875.0156,1033.6406 Q875.0156,1034.25 874.7813,1034.5156 Q874.5625,1034.7656 874.1719,1034.7656 Q873.7969,1034.7656 873.5625,1034.5156 Q873.3281,1034.25 873.3281,1033.6406 L873.3281,1032.75 L869.3594,1032.75 L869.3594,1035.2031 L870.8438,1035.2031 Q870.8438,1034.5469 870.9688,1034.3594 Q871.2344,1033.9531 871.7031,1033.9531 Q872.0781,1033.9531 872.3125,1034.2188 Q872.5469,1034.4688 872.5469,1035.0781 L872.5469,1037.0469 Q872.5469,1037.5938 872.4219,1037.7813 Q872.1563,1038.1719 871.7031,1038.1719 Q871.2344,1038.1719 870.9688,1037.7656 Q870.8438,1037.5781 870.8438,1036.9063 L869.3594,1036.9063 Z " fill="#000000"/><text fill="#000000" font-family="sans-serif" font-size="14" lengthAdjust="spacing" textLength="114.3926" x="884.5" y="1041.8379">ReservationStatus</text><line style="stroke:#181818;stroke-width:0.5;" x1="856.5" x2="1000.8926" y1="1052.1094" y2="1052.1094"/><text fill="#000000" font-family="sans-serif" font-size="14" lengthAdjust="spacing" textLength="77.0205" x="861.5" y="1070.6426">RESERVED</text><text fill="#000000" font-family="sans-serif" font-size="14" lengthAdjust="spacing" textLength="90.2412" x="861.5" y="1088.252">CHECKED_IN</text><text fill="#000000" font-family="sans-serif" font-size="14" lengthAdjust="spacing" textLength="105.793" x="861.5" y="1105.8613">CHECKED_OUT</text><text fill="#000000" font-family="sans-serif" font-size="14" lengthAdjust="spacing" textLength="84.0273" x="861.5" y="1123.4707">CANCELLED</text><line style="stroke:#181818;stroke-width:0.5;" x1="856.5" x2="1000.8926" y1="1130.5469" y2="1130.5469"/></g><!--link Guest to Reservation--><g class="link" data-entity-1="ent0011" data-entity-2="ent0012" data-link-type="association" data-source-line="89" id="lnk19"><path codeLine="89" d="M1273.57,657.6594 C1249.13,679.6894 1219.56,704.3594 1190.5,723.6094 C1139.89,757.1394 1079.3,787.5294 1029.14,810.3794" fill="none" id="Guest-Reservation" style="stroke:#181818;stroke-width:1;"/><text fill="#000000" font-family="sans-serif" font-size="13" lengthAdjust="spacing" textLength="7.23" x="1259.5865" y="678.6077">1</text><text fill="#000000" font-family="sans-serif" font-size="13" lengthAdjust="spacing" textLength="19.5127" x="1036.9025" y="804.2996">0..*</text></g><!--link Room to Reservation--><g class="link" data-entity-1="ent0013" data-entity-2="ent0012" data-link-type="association" data-source-line="90" id="lnk20"><path codeLine="90" d="M928.5,692.8694 C928.5,712.5894 928.5,733.5594 928.5,753.5994" fill="none" id="Room-Reservation" style="stroke:#181818;stroke-width:1;"/><text fill="#000000" font-family="sans-serif" font-size="13" lengthAdjust="spacing" textLength="7.23" x="921.2477" y="713.9787">1</text><text fill="#000000" font-family="sans-serif" font-size="13" lengthAdjust="spacing" textLength="19.5127" x="908.7925" y="742.8546">0..*</text></g><!--link Reservation to Charge--><g class="link" data-entity-1="ent0012" data-entity-2="ent0016" data-link-type="association" data-source-line="91" id="lnk21"><path codeLine="91" d="M827.95,894.9494 C724.55,936.4494 564.82,1000.5394 464.33,1040.8594" fill="none" id="Reservation-Charge" style="stroke:#181818;stroke-width:1;"/><text fill="#000000" font-family="sans-serif" font-size="13" lengthAdjust="spacing" textLength="7.23" x="812.668" y="895.1321">1</text><text fill="#000000" font-family="sans-serif" font-size="13" lengthAdjust="spacing" textLength="21.6836" x="471.6308" y="1035.11">0..1</text></g><!--link Reservation to ServiceUsage--><g class="link" data-entity-1="ent0012" data-entity-2="ent0015" data-link-type="association" data-source-line="92" id="lnk22"><path codeLine="92" d="M1029.05,894.2494 C1075.41,912.4594 1131.21,934.2594 1181.5,953.6094 C1255.31,982.0194 1338.63,1013.5394 1402.96,1037.7594" fill="none" id="Reservation-ServiceUsage" style="stroke:#181818;stroke-width:1;"/><text fill="#000000" font-family="sans-serif" font-size="13" lengthAdjust="spacing" textLength="7.23" x="1037.0254" y="894.2731">1</text><text fill="#000000" font-family="sans-serif" font-size="13" lengthAdjust="spacing" textLength="19.5127" x="1375.3832" y="1031.6605">0..*</text></g><!--link RoomRate to Room--><g class="link" data-entity-1="ent0014" data-entity-2="ent0013" data-link-type="association" data-source-line="93" id="lnk23"><path codeLine="93" d="M760.23,432.6494 C765.85,448.9794 773.45,466.2994 783.5,480.6094 C791.2,491.5694 800.15,502.0994 809.76,512.0594" fill="none" id="RoomRate-Room" style="stroke:#181818;stroke-width:1;"/><polygon fill="#000000" points="791.1461,476.0276,788.8529,466.7976,783.8656,469.9083,791.1461,476.0276" style="stroke:#000000;stroke-width:1;stroke-linejoin:miter;stroke-miterlimit:10;"/><text fill="#000000" font-family="sans-serif" font-size="13" lengthAdjust="spacing" textLength="104" x="797.5" y="477.1045">&#23458;&#23460;&#12479;&#12452;&#12503;&#21029;&#21336;&#20385;</text><text fill="#000000" font-family="sans-serif" font-size="13" lengthAdjust="spacing" textLength="7.23" x="754.4253" y="453.5965">1</text><text fill="#000000" font-family="sans-serif" font-size="13" lengthAdjust="spacing" textLength="19.5127" x="782.5668" y="503.3175">0..*</text></g><!--link Room to RoomStatus--><g class="link" data-entity-1="ent0013" data-entity-2="ent0017" data-link-type="dependency" data-source-line="94" id="lnk24"><path codeLine="94" d="M1045.83,692.8694 C1098.02,733.0094 1152.9868,775.291 1194.7068,807.381" fill="none" id="Room-to-RoomStatus" style="stroke:#181818;stroke-width:1;stroke-dasharray:7,7;"/><polygon fill="#181818" points="1198.67,810.4294,1193.9749,801.7716,1194.7068,807.381,1189.0975,808.1128,1198.67,810.4294" style="stroke:#181818;stroke-width:1;stroke-linejoin:miter;stroke-miterlimit:10;"/></g><!--link Reservation to ReservationStatus--><g class="link" data-entity-1="ent0012" data-entity-2="ent0018" data-link-type="dependency" data-source-line="95" id="lnk25"><path codeLine="95" d="M928.5,953.6194 C928.5,976.2694 928.5,994.6294 928.5,1014.9094" fill="none" id="Reservation-to-ReservationStatus" style="stroke:#181818;stroke-width:1;stroke-dasharray:7,7;"/><polygon fill="#181818" points="928.5,1019.9094,932.5,1010.9094,928.5,1014.9094,924.5,1010.9094,928.5,1019.9094" style="stroke:#181818;stroke-width:1;stroke-linejoin:miter;stroke-miterlimit:10;"/></g><!--link ReservationUI to ReservationControl--><g class="link" data-entity-1="ent0001" data-entity-2="ent0006" data-link-type="dependency" data-source-line="98" id="lnk26"><path codeLine="98" d="M1695.79,242.1994 C1654.63,266.3594 1599.2025,298.8991 1551.2925,327.0091" fill="none" id="ReservationUI-to-ReservationControl" style="stroke:#181818;stroke-width:1;stroke-dasharray:7,7;"/><polygon fill="#181818" points="1546.98,329.5394,1556.7667,328.4349,1551.2925,327.0091,1552.7183,321.5349,1546.98,329.5394" style="stroke:#181818;stroke-width:1;stroke-linejoin:miter;stroke-miterlimit:10;"/></g><!--link InquiryUI to InquiryControl--><g class="link" data-entity-1="ent0002" data-entity-2="ent0007" data-link-type="dependency" data-source-line="99" id="lnk27"><path codeLine="99" d="M211.25,406.3094 C239.69,443.8294 286.8299,506.0346 320.6099,550.6046" fill="none" id="InquiryUI-to-InquiryControl" style="stroke:#181818;stroke-width:1;stroke-dasharray:7,7;"/><polygon fill="#181818" points="323.63,554.5894,321.3816,545.0006,320.6099,550.6046,315.0059,549.8328,323.63,554.5894" style="stroke:#181818;stroke-width:1;stroke-linejoin:miter;stroke-miterlimit:10;"/></g><!--link CheckInUI to CheckInControl--><g class="link" data-entity-1="ent0003" data-entity-2="ent0008" data-link-type="dependency" data-source-line="100" id="lnk28"><path codeLine="100" d="M104,234.7894 C164.2,261.0794 263.3178,304.3586 336.8578,336.4686" fill="none" id="CheckInUI-to-CheckInControl" style="stroke:#181818;stroke-width:1;stroke-dasharray:7,7;"/><polygon fill="#181818" points="341.44,338.4694,334.7926,331.2022,336.8578,336.4686,331.5914,338.5338,341.44,338.4694" style="stroke:#181818;stroke-width:1;stroke-linejoin:miter;stroke-miterlimit:10;"/></g><!--link CheckOutUI to CheckOutControl--><g class="link" data-entity-1="ent0004" data-entity-2="ent0009" data-link-type="dependency" data-source-line="101" id="lnk29"><path codeLine="101" d="M746.5,104.8494 C746.5,122.4794 746.5,140.4594 746.5,160.5894" fill="none" id="CheckOutUI-to-CheckOutControl" style="stroke:#181818;stroke-width:1;stroke-dasharray:7,7;"/><polygon fill="#181818" points="746.5,165.5894,750.5,156.5894,746.5,160.5894,742.5,156.5894,746.5,165.5894" style="stroke:#181818;stroke-width:1;stroke-linejoin:miter;stroke-miterlimit:10;"/></g><!--link CancellationUI to CancellationControl--><g class="link" data-entity-1="ent0005" data-entity-2="ent0010" data-link-type="dependency" data-source-line="102" id="lnk30"><path codeLine="102" d="M1116.5,242.1994 C1116.5,268.9994 1116.5,304.1994 1116.5,333.4694" fill="none" id="CancellationUI-to-CancellationControl" style="stroke:#181818;stroke-width:1;stroke-dasharray:7,7;"/><polygon fill="#181818" points="1116.5,338.4694,1120.5,329.4694,1116.5,333.4694,1112.5,329.4694,1116.5,338.4694" style="stroke:#181818;stroke-width:1;stroke-linejoin:miter;stroke-miterlimit:10;"/></g><!--link CheckInControl to InquiryControl--><g class="link" data-entity-1="ent0008" data-entity-2="ent0007" data-link-type="dependency" data-source-line="105" id="lnk31"><path codeLine="105" d="M415.19,414.6794 C403.49,453.0794 386.6287,508.3569 373.9987,549.7669" fill="none" id="CheckInControl-to-InquiryControl" style="stroke:#181818;stroke-width:1;stroke-dasharray:7,7;"/><polygon fill="#181818" points="372.54,554.5494,378.9916,547.1078,373.9987,549.7669,371.3396,544.7739,372.54,554.5494" style="stroke:#181818;stroke-width:1;stroke-linejoin:miter;stroke-miterlimit:10;"/><text fill="#000000" font-family="sans-serif" font-size="13" lengthAdjust="spacing" textLength="85.2744" x="400.5" y="477.1045">&#171;include&#187; UC4</text></g><!--link CancellationControl to InquiryControl--><g class="link" data-entity-1="ent0010" data-entity-2="ent0007" data-link-type="dependency" data-source-line="106" id="lnk32"><path codeLine="106" d="M981.96,413.0094 C952.59,420.0694 921.6,427.0194 892.5,432.6094 C797.75,450.7994 770.4,436.5494 677.5,462.6094 C596.89,485.2194 514.4424,521.6644 451.7124,552.3144" fill="none" id="CancellationControl-to-InquiryControl" style="stroke:#181818;stroke-width:1;stroke-dasharray:7,7;"/><polygon fill="#181818" points="447.22,554.5094,457.0624,554.1523,451.7124,552.3144,453.5504,546.9644,447.22,554.5094" style="stroke:#181818;stroke-width:1;stroke-linejoin:miter;stroke-miterlimit:10;"/><text fill="#000000" font-family="sans-serif" font-size="13" lengthAdjust="spacing" textLength="85.2744" x="678.5" y="477.1045">&#171;include&#187; UC4</text></g><!--link ReservationControl to Room--><g class="link" data-entity-1="ent0006" data-entity-2="ent0013" data-link-type="dependency" data-source-line="109" id="lnk33"><path codeLine="109" d="M1302.44,423.6694 C1290.97,426.7294 1279.57,429.7394 1268.5,432.6094 C1214.03,446.7394 1197.27,440.5494 1145.5,462.6094 C1112.13,476.8294 1082.3133,493.2687 1051.3833,512.7087" fill="none" id="ReservationControl-to-Room" style="stroke:#181818;stroke-width:1;stroke-dasharray:7,7;"/><polygon fill="#181818" points="1047.15,515.3694,1056.8985,513.9668,1051.3833,512.7087,1052.6414,507.1935,1047.15,515.3694" style="stroke:#181818;stroke-width:1;stroke-linejoin:miter;stroke-miterlimit:10;"/></g><!--link ReservationControl to Guest--><g class="link" data-entity-1="ent0006" data-entity-2="ent0011" data-link-type="dependency" data-source-line="110" id="lnk34"><path codeLine="110" d="M1439.91,423.8194 C1418.04,459.1494 1390.4408,503.7474 1367.3008,541.1474" fill="none" id="ReservationControl-to-Guest" style="stroke:#181818;stroke-width:1;stroke-dasharray:7,7;"/><polygon fill="#181818" points="1364.67,545.3994,1372.8069,539.8505,1367.3008,541.1474,1366.0038,535.6413,1364.67,545.3994" style="stroke:#181818;stroke-width:1;stroke-linejoin:miter;stroke-miterlimit:10;"/></g><!--link ReservationControl to Reservation--><g class="link" data-entity-1="ent0006" data-entity-2="ent0012" data-link-type="dependency" data-source-line="111" id="lnk35"><path codeLine="111" d="M1378.56,423.6294 C1338.01,446.7094 1290.94,476.9194 1253.5,510.6094 C1177.44,579.0594 1182.78,618.2394 1112.5,692.6094 C1086.91,719.6894 1060.96,743.7766 1032.94,768.0366" fill="none" id="ReservationControl-to-Reservation" style="stroke:#181818;stroke-width:1;stroke-dasharray:7,7;"/><polygon fill="#181818" points="1029.16,771.3094,1038.5823,768.4424,1032.94,768.0366,1033.3458,762.3943,1029.16,771.3094" style="stroke:#181818;stroke-width:1;stroke-linejoin:miter;stroke-miterlimit:10;"/></g><!--link InquiryControl to Reservation--><g class="link" data-entity-1="ent0007" data-entity-2="ent0012" data-link-type="dependency" data-source-line="112" id="lnk36"><path codeLine="112" d="M416.56,648.7994 C449.68,673.4894 492.79,702.9794 534.5,723.6094 C629.82,770.7594 741.5192,805.1597 823.0292,826.9197" fill="none" id="InquiryControl-to-Reservation" style="stroke:#181818;stroke-width:1;stroke-dasharray:7,7;"/><polygon fill="#181818" points="827.86,828.2094,820.1962,822.0234,823.0292,826.9197,818.1328,829.7527,827.86,828.2094" style="stroke:#181818;stroke-width:1;stroke-linejoin:miter;stroke-miterlimit:10;"/></g><!--link CheckInControl to Reservation--><g class="link" data-entity-1="ent0008" data-entity-2="ent0012" data-link-type="dependency" data-source-line="113" id="lnk37"><path codeLine="113" d="M465.89,414.8794 C543.09,487.9294 712.7982,648.5128 823.9982,753.7328" fill="none" id="CheckInControl-to-Reservation" style="stroke:#181818;stroke-width:1;stroke-dasharray:7,7;"/><polygon fill="#181818" points="827.63,757.1694,823.8419,748.0781,823.9982,753.7328,818.3435,753.8891,827.63,757.1694" style="stroke:#181818;stroke-width:1;stroke-linejoin:miter;stroke-miterlimit:10;"/></g><!--link CheckInControl to Room--><g class="link" data-entity-1="ent0008" data-entity-2="ent0013" data-link-type="dependency" data-source-line="114" id="lnk38"><path codeLine="114" d="M541.94,414.6394 C561.45,420.7394 581.53,426.9294 600.5,432.6094 C647.4,446.6594 661.71,442.8294 706.5,462.6094 C741.37,478.0094 773.0095,495.5363 805.4895,515.6563" fill="none" id="CheckInControl-to-Room" style="stroke:#181818;stroke-width:1;stroke-dasharray:7,7;"/><polygon fill="#181818" points="809.74,518.2894,804.1954,510.1495,805.4895,515.6563,799.9826,516.9503,809.74,518.2894" style="stroke:#181818;stroke-width:1;stroke-linejoin:miter;stroke-miterlimit:10;"/></g><!--link CheckOutControl to Reservation--><g class="link" data-entity-1="ent0009" data-entity-2="ent0012" data-link-type="dependency" data-source-line="115" id="lnk39"><path codeLine="115" d="M624.98,216.7094 C462.86,223.6994 188.95,246.4594 126.5,320.6094 C94.43,358.6794 120.33,383.2194 126.5,432.6094 C141.28,550.9094 106.76,609.7794 192.5,692.6094 C282.37,779.4294 643.3147,825.3032 822.9947,843.2232" fill="none" id="CheckOutControl-to-Reservation" style="stroke:#181818;stroke-width:1;stroke-dasharray:7,7;"/><polygon fill="#181818" points="827.97,843.7194,819.4114,838.846,822.9947,843.2232,818.6175,846.8065,827.97,843.7194" style="stroke:#181818;stroke-width:1;stroke-linejoin:miter;stroke-miterlimit:10;"/></g><!--link CheckOutControl to RoomRate--><g class="link" data-entity-1="ent0009" data-entity-2="ent0014" data-link-type="dependency" data-source-line="116" id="lnk40"><path codeLine="116" d="M746.5,260.0294 C746.5,278.9194 746.5,295.8894 746.5,315.5794" fill="none" id="CheckOutControl-to-RoomRate" style="stroke:#181818;stroke-width:1;stroke-dasharray:7,7;"/><polygon fill="#181818" points="746.5,320.5794,750.5,311.5794,746.5,315.5794,742.5,311.5794,746.5,320.5794" style="stroke:#181818;stroke-width:1;stroke-linejoin:miter;stroke-miterlimit:10;"/></g><!--link CheckOutControl to ServiceUsage--><g class="link" data-entity-1="ent0009" data-entity-2="ent0015" data-link-type="dependency" data-source-line="117" id="lnk41"><path codeLine="117" d="M868.03,234.4994 C920.11,243.0194 981.69,252.5094 1037.5,259.6094 C1186.53,278.5694 1703.5,225.3794 1703.5,375.6094 C1703.5,375.6094 1703.5,375.6094 1703.5,854.6094 C1703.5,924.4594 1652.7788,980.2022 1601.6288,1019.9322" fill="none" id="CheckOutControl-to-ServiceUsage" style="stroke:#181818;stroke-width:1;stroke-dasharray:7,7;"/><polygon fill="#181818" points="1597.68,1022.9994,1607.2415,1020.6375,1601.6288,1019.9322,1602.3341,1014.3195,1597.68,1022.9994" style="stroke:#181818;stroke-width:1;stroke-linejoin:miter;stroke-miterlimit:10;"/></g><!--link CheckOutControl to Charge--><g class="link" data-entity-1="ent0009" data-entity-2="ent0016" data-link-type="dependency" data-source-line="118" id="lnk42"><path codeLine="118" d="M624.8,215.7294 C416.66,222.6894 14.5,252.1194 14.5,375.6094 C14.5,375.6094 14.5,375.6094 14.5,854.6094 C14.5,979.2894 167.9906,1035.8941 273.7606,1060.5541" fill="none" id="CheckOutControl-to-Charge" style="stroke:#181818;stroke-width:1;stroke-dasharray:7,7;"/><polygon fill="#181818" points="278.63,1061.6894,270.7733,1055.7503,273.7606,1060.5541,268.9568,1063.5414,278.63,1061.6894" style="stroke:#181818;stroke-width:1;stroke-linejoin:miter;stroke-miterlimit:10;"/></g><!--link CheckOutControl to Room--><g class="link" data-entity-1="ent0009" data-entity-2="ent0013" data-link-type="dependency" data-source-line="119" id="lnk43"><path codeLine="119" d="M833.3,259.7794 C856.06,276.0194 878.21,296.3894 892.5,320.6094 C926.19,377.6994 934.3145,447.6194 934.4945,505.5994" fill="none" id="CheckOutControl-to-Room" style="stroke:#181818;stroke-width:1;stroke-dasharray:7,7;"/><polygon fill="#181818" points="934.51,510.5994,938.482,501.587,934.4945,505.5994,930.4821,501.6118,934.51,510.5994" style="stroke:#181818;stroke-width:1;stroke-linejoin:miter;stroke-miterlimit:10;"/></g><!--link CancellationControl to Reservation--><g class="link" data-entity-1="ent0010" data-entity-2="ent0012" data-link-type="dependency" data-source-line="120" id="lnk44"><path codeLine="120" d="M1116.68,414.8994 C1115.62,475.8394 1107.74,599.3294 1064.5,692.6094 C1054.69,713.7794 1044.3283,730.396 1029.7383,749.366" fill="none" id="CancellationControl-to-Reservation" style="stroke:#181818;stroke-width:1;stroke-dasharray:7,7;"/><polygon fill="#181818" points="1026.69,753.3294,1035.3475,748.6339,1029.7383,749.366,1029.0062,743.7567,1026.69,753.3294" style="stroke:#181818;stroke-width:1;stroke-linejoin:miter;stroke-miterlimit:10;"/></g><!--link CancellationControl to Room--><g class="link" data-entity-1="ent0010" data-entity-2="ent0013" data-link-type="dependency" data-source-line="121" id="lnk45"><path codeLine="121" d="M1070.35,414.8294 C1054.07,428.9794 1036.19,445.7594 1021.5,462.6094 C1008.59,477.4194 998.8495,490.0047 987.2795,506.5147" fill="none" id="CancellationControl-to-Room" style="stroke:#181818;stroke-width:1;stroke-dasharray:7,7;"/><polygon fill="#181818" points="984.41,510.6094,992.8508,505.5346,987.2795,506.5147,986.2993,500.9434,984.41,510.6094" style="stroke:#181818;stroke-width:1;stroke-linejoin:miter;stroke-miterlimit:10;"/></g><?plantuml-src ZLRTJzjM57_tNs7nCjWAOj8Ugef5waoqHMDGGUdhP18Fh0M7nKubD275leLw1GHhIu32MZvI2B26CfXAeP3_PJTso7_HSwyTVpii3ydD-VgTSy_7FOgeP0KMQn-mzX6ZEOos37tEVBtCTWFn6AC3e1iRfvq-YRdP9ggO-_FDuXP6bzznIT1fRh_kOfWlG6k7A6erZ3vr6lf1usNbfZWBOXYjOFGEerECz7fDwyBgiSzekGH6iLh5wXkigGuuLe6uYjKza3V_EC7Q4bOFiVe45pL0-xuWo0fmN20mK5ougQmr5_x1nKMiFQ_N_Z8NLAokOsqUQnNgm1pMTkrlQiPyiLY_sZIM5wbJfmGPRMBqDyH0V4Jxe4LkeVSkZukRlNU5BeA3jZ52MBkaKkTKkr8_Bnh7r_2DrICu6BLDhAvWTOE00nHWVKi-B4RBMDkZpXGnEhIeJ3hBop8xBCX2_Z6lY3bfDCNszOtb2bA6pqyd4hP0Ilgj8EQdevdSX93-DIMrOGuLb1WkBwM5R3OIsVMSt0z98itc9uoEufpdSfAIpsN1Jjew9HBixmpBVjKuk32gPSYDMTvidErOkUaqgZNpz9cv-lOEQrHtg40DQsMCLhlOU-o0A2jzmxdSP89Og5_eZRCdOA6nVaaotR90r8YwOybylmI9kSCsYxkDVxUDMPtOihGRAuV6qWTcnd-fiKuxa3wdlQQ8QK_uyKejfnm_Wvep_bp6-eGHDCe-hS9ZUbMd06LKtzniByJu1prcdCm7GczLHIoEMLflFlqJRDzKz4PrDSRsJpb9cARYBw5LLqYJ4eqrDq51ZSSvCUDwuQc--8WrABfT6YZqtT5juTe0dk8D3W1VyT9n0g22f8ZAj8tPFKwegGoO6r7oeZHEQ18_AVW8n4y-hRYqcN13X2pdNLx0VjhAV3-l41Zour0XKG6ohF1AGVRNq0YbaIk3SMrKFvARMYePrwtakNrWyMFAoHMcLnaIsg5JJ8-I2sGg8E5S3xHq-5w0E5YO71FolaiXv8VJK_wBTuC7hXkrFMFKUKCl6zLNmHb3_1ZBvR82x-bJynm2gS7aDZVEpDBxYA3gLpLuP-hdxze9jQ2FJFqIsD4n3vCKHiKT2d0gBwQ51q9-K1oVKBnjPYokrQ-tWucDc9sMHWjz14e4B8xA_7ZO0zbY3WRB-nT1y4BVrAwCPrlEM0XLbX-Hc-3p4LZy93mlteYwHLak29b0TK_nOiQVBMU-E0aBLnSZI8L9JqrGo4VtkVk33-4md1n93ZzAziDnYED67wJWE6Eh17k8QdeKk1-It8_9_fzJWvu_GwF4B5ZdaWC3r5YRcTCilO3zeLdQWLUfqoY_QZvTD2xsskyUPE7G3Z4gmQf1-e_iHxgv0lLNiVQCBdkIMJEiu-iEjhkRxUZjwVcom_Usq8Phm_QCAuyKdAminWc06MzXCKwD1w08-htW0s_eRwrYPXEMVpqz2My_Up4fApJdOXUh_-QUnwyi_aqhODb-WnXtso82_ZM1SRSjmlI_rundstAuxZFB1DOjAX9-0zjkNj7HTMAqHyi7flw9VL2hefJE5Z92gqu2kqKuDaXJNv-j12qxodt3H3tH_qlnzXXYtkM8TR9L6t4ysW2nYfvI3tWTP4TSq6riubLmcOhK2_BjPeba-jegIi1kp3Z3iLdpUHKdGmny1W00?></g></svg>