<svg xmlns="http://www.w3.org/2000/svg" xmlns:xlink="http://www.w3.org/1999/xlink" contentStyleType="text/css" data-diagram-type="DESCRIPTION" height="412px" preserveAspectRatio="none" style="width:617px;height:412px;background:#FFFFFF;" version="1.1" viewBox="0 0 617 412" width="617px" zoomAndPan="magnify"><?plantuml 1.2026.6?><defs/><g><g class="title" data-source-line="1"><text fill="#000000" font-family="sans-serif" font-size="14" font-weight="700" lengthAdjust="spacing" textLength="171.2539" x="219.373" y="24.5332">&#35201;&#27714;&#20998;&#26512; - &#12518;&#12540;&#12473;&#12465;&#12540;&#12473;&#22259;</text></g><!--cluster HRS--><g class="cluster" data-qualified-name="HRS" data-source-line="8" id="ent0003"><rect fill="none" height="301" rx="2.5" ry="2.5" style="stroke:#181818;stroke-width:1;" width="480" x="123" y="65.0494"/><text fill="#000000" font-family="sans-serif" font-size="14" font-weight="700" lengthAdjust="spacing" textLength="29.5586" x="348.2207" y="81.5826">HRS</text></g><!--entity UC1--><g class="entity" data-qualified-name="HRS.UC1" data-source-line="9" id="ent0004"><ellipse cx="224.3716" cy="192.2237" fill="#F1F1F1" rx="68.8716" ry="16.1743" style="stroke:#181818;stroke-width:0.5;"/><text fill="#000000" font-family="sans-serif" font-size="14" lengthAdjust="spacing" textLength="98" x="175.3716" y="197.5284">&#37096;&#23627;&#12434;&#20104;&#32004;&#12377;&#12427;</text></g><!--entity UC4--><g class="entity" data-qualified-name="HRS.UC4" data-source-line="10" id="ent0005"><ellipse cx="506.8574" cy="190.9209" fill="#F1F1F1" rx="79.8574" ry="18.3715" style="stroke:#181818;stroke-width:0.5;"/><text fill="#000000" font-family="sans-serif" font-size="14" lengthAdjust="spacing" textLength="126" x="443.8574" y="196.2255">&#20104;&#32004;&#20869;&#23481;&#12434;&#30906;&#35469;&#12377;&#12427;</text></g><!--entity UC5--><g class="entity" data-qualified-name="HRS.UC5" data-source-line="11" id="ent0006"><ellipse cx="224.6926" cy="121.0879" fill="#F1F1F1" rx="85.6926" ry="19.5385" style="stroke:#181818;stroke-width:0.5;"/><text fill="#000000" font-family="sans-serif" font-size="14" lengthAdjust="spacing" textLength="140" x="154.6926" y="126.3926">&#20104;&#32004;&#12434;&#12461;&#12515;&#12531;&#12475;&#12523;&#12377;&#12427;</text></g><!--entity UC2--><g class="entity" data-qualified-name="HRS.UC2" data-source-line="12" id="ent0007"><ellipse cx="224.7325" cy="260.2959" fill="#F1F1F1" rx="74.2325" ry="17.2465" style="stroke:#181818;stroke-width:0.5;"/><text fill="#000000" font-family="sans-serif" font-size="14" lengthAdjust="spacing" textLength="112" x="168.7325" y="265.6006">&#12481;&#12455;&#12483;&#12463;&#12452;&#12531;&#12377;&#12427;</text></g><!--entity UC3--><g class="entity" data-qualified-name="HRS.UC3" data-source-line="13" id="ent0008"><ellipse cx="224.3574" cy="330.9209" fill="#F1F1F1" rx="79.8574" ry="18.3715" style="stroke:#181818;stroke-width:0.5;"/><text fill="#000000" font-family="sans-serif" font-size="14" lengthAdjust="spacing" textLength="126" x="161.3574" y="336.2255">&#12481;&#12455;&#12483;&#12463;&#12450;&#12454;&#12488;&#12377;&#12427;</text></g><!--entity Guest--><g class="entity" data-qualified-name="Guest" data-source-line="5" id="ent0001"><ellipse cx="41" cy="154.5494" fill="#F1F1F1" rx="8" ry="8" style="stroke:#181818;stroke-width:0.5;"/><path d="M41,162.5494 L41,189.5494 M28,170.5494 L54,170.5494 M41,189.5494 L28,204.5494 M41,189.5494 L54,204.5494" fill="none" style="stroke:#181818;stroke-width:0.5;"/><text fill="#000000" font-family="sans-serif" font-size="14" lengthAdjust="spacing" textLength="42" x="20" y="220.5826">&#21033;&#29992;&#32773;</text></g><!--entity Staff--><g class="entity" data-qualified-name="Staff" data-source-line="6" id="ent0002"><ellipse cx="41" cy="318.5494" fill="#F1F1F1" rx="8" ry="8" style="stroke:#181818;stroke-width:0.5;"/><path d="M41,326.5494 L41,353.5494 M28,334.5494 L54,334.5494 M41,353.5494 L28,368.5494 M41,353.5494 L54,368.5494" fill="none" style="stroke:#181818;stroke-width:0.5;"/><text fill="#000000" font-family="sans-serif" font-size="14" lengthAdjust="spacing" textLength="70" x="6" y="384.5826">&#12501;&#12525;&#12531;&#12488;&#20418;</text></g><!--link Guest to UC1--><g class="link" data-entity-1="ent0001" data-entity-2="ent0004" data-link-type="dependency" data-source-line="16" id="lnk9"><path d="M62.12,185.8294 C84.73,186.6994 117.6537,187.9665 151.0637,189.2565" fill="none" id="Guest-to-UC1" style="stroke:#181818;stroke-width:1;"/><polygon fill="#181818" points="156.06,189.4494,147.221,185.1051,151.0637,189.2565,146.9124,193.0992,156.06,189.4494" style="stroke:#181818;stroke-width:1;stroke-linejoin:miter;stroke-miterlimit:10;"/></g><!--link Guest to UC4--><g class="link" data-entity-1="ent0001" data-entity-2="ent0005" data-link-type="dependency" data-source-line="17" id="lnk10"><path d="M59.03,145.8094 C71.1,123.2894 89.67,96.9994 115,84.0494 C192.17,44.6094 225.34,65.5194 310,84.0494 C378.93,99.1394 444.9269,143.827 479.6269,170.157" fill="none" id="Guest-to-UC4" style="stroke:#181818;stroke-width:1;"/><polygon fill="#181818" points="483.61,173.1794,478.8582,164.5526,479.6269,170.157,474.0225,170.9256,483.61,173.1794" style="stroke:#181818;stroke-width:1;stroke-linejoin:miter;stroke-miterlimit:10;"/></g><!--link Guest to UC5--><g class="link" data-entity-1="ent0001" data-entity-2="ent0006" data-link-type="dependency" data-source-line="18" id="lnk11"><path d="M62.09,177.4594 C76.73,171.9694 97.05,164.4294 115,158.0494 C134.78,151.0194 151.9544,145.1038 170.8744,138.6938" fill="none" id="Guest-to-UC5" style="stroke:#181818;stroke-width:1;"/><polygon fill="#181818" points="175.61,137.0894,165.8024,136.1888,170.8744,138.6938,168.3694,143.7658,175.61,137.0894" style="stroke:#181818;stroke-width:1;stroke-linejoin:miter;stroke-miterlimit:10;"/></g><!--link Guest to UC2--><g class="link" data-entity-1="ent0001" data-entity-2="ent0007" data-link-type="dependency" data-source-line="19" id="lnk12"><path d="M62.25,197.4994 C76.61,205.9894 96.55,217.0994 115,225.0494 C134.72,233.5394 152.4376,239.6702 171.8076,245.5802" fill="none" id="Guest-to-UC2" style="stroke:#181818;stroke-width:1;"/><polygon fill="#181818" points="176.59,247.0394,169.1491,240.587,171.8076,245.5802,166.8144,248.2388,176.59,247.0394" style="stroke:#181818;stroke-width:1;stroke-linejoin:miter;stroke-miterlimit:10;"/></g><!--link Guest to UC3--><g class="link" data-entity-1="ent0001" data-entity-2="ent0008" data-link-type="dependency" data-source-line="20" id="lnk13"><path d="M60,224.1094 C72.49,247.3394 91.15,275.7394 115,294.0494 C129.52,305.1994 142.8624,311.5714 160.0924,317.1414" fill="none" id="Guest-to-UC3" style="stroke:#181818;stroke-width:1;"/><polygon fill="#181818" points="164.85,318.6794,157.5168,312.1049,160.0924,317.1414,155.056,319.717,164.85,318.6794" style="stroke:#181818;stroke-width:1;stroke-linejoin:miter;stroke-miterlimit:10;"/></g><!--link Staff to UC2--><g class="link" data-entity-1="ent0002" data-entity-2="ent0007" data-link-type="dependency" data-source-line="21" id="lnk14"><path d="M76.13,320.2394 C87.91,311.2894 101.54,301.9594 115,295.0494 C133.31,285.6494 149.859,279.5398 168.749,273.8998" fill="none" id="Staff-to-UC2" style="stroke:#181818;stroke-width:1;"/><polygon fill="#181818" points="173.54,272.4694,163.7718,271.2114,168.749,273.8998,166.0605,278.877,173.54,272.4694" style="stroke:#181818;stroke-width:1;stroke-linejoin:miter;stroke-miterlimit:10;"/></g><!--link Staff to UC3--><g class="link" data-entity-1="ent0002" data-entity-2="ent0008" data-link-type="dependency" data-source-line="22" id="lnk15"><path d="M76.14,345.6594 C97.19,343.5794 120.0345,341.3133 145.8245,338.7533" fill="none" id="Staff-to-UC3" style="stroke:#181818;stroke-width:1;"/><polygon fill="#181818" points="150.8,338.2594,141.4489,335.1679,145.8245,338.7533,142.2391,343.1288,150.8,338.2594" style="stroke:#181818;stroke-width:1;stroke-linejoin:miter;stroke-miterlimit:10;"/></g><!--link Staff to UC4--><g class="link" data-entity-1="ent0002" data-entity-2="ent0005" data-link-type="dependency" data-source-line="23" id="lnk16"><path d="M76.37,360.2994 C128.73,375.5094 230.75,397.4094 310,367.0494 C394.35,334.7394 462.254,251.562 490.234,213.392" fill="none" id="Staff-to-UC4" style="stroke:#181818;stroke-width:1;"/><polygon fill="#181818" points="493.19,209.3594,484.6431,214.2532,490.234,213.392,491.0952,218.9829,493.19,209.3594" style="stroke:#181818;stroke-width:1;stroke-linejoin:miter;stroke-miterlimit:10;"/></g><!--link UC5 to UC4--><g class="link" data-entity-1="ent0006" data-entity-2="ent0005" data-link-type="dependency" data-source-line="25" id="lnk17"><path d="M282.94,135.3794 C332.47,147.7394 398.6089,164.2483 447.1189,176.3583" fill="none" id="UC5-to-UC4" style="stroke:#181818;stroke-width:1;stroke-dasharray:7,7;"/><polygon fill="#181818" points="451.97,177.5694,444.2068,171.5086,447.1189,176.3583,442.2692,179.2704,451.97,177.5694" style="stroke:#181818;stroke-width:1;stroke-linejoin:miter;stroke-miterlimit:10;"/><text fill="#000000" font-family="sans-serif" font-size="13" lengthAdjust="spacing" textLength="55.6563" x="341" y="146.5445">&#171;include&#187;</text></g><!--link UC2 to UC4--><g class="link" data-entity-1="ent0007" data-entity-2="ent0005" data-link-type="dependency" data-source-line="26" id="lnk18"><path d="M280.15,248.7994 C313.93,241.6394 358.12,231.8794 397,222.0494 C416.84,217.0394 433.7461,212.3658 452.5261,206.9458" fill="none" id="UC2-to-UC4" style="stroke:#181818;stroke-width:1;stroke-dasharray:7,7;"/><polygon fill="#181818" points="457.33,205.5594,447.5738,204.2118,452.5261,206.9458,449.7921,211.8981,457.33,205.5594" style="stroke:#181818;stroke-width:1;stroke-linejoin:miter;stroke-miterlimit:10;"/><text fill="#000000" font-family="sans-serif" font-size="13" lengthAdjust="spacing" textLength="55.6563" x="341" y="218.5445">&#171;include&#187;</text></g><?plantuml-src TP31IiD054NtxoiUtQTWscwaPED2rnO_8AIJ6WWf99EL27R6ba0HfEX211TLQbLKGjrO1J_cDMtz2wSfIWRfRYxttCUToptkCroEElDKP4blVdEE1f8SaVmayKuYNJ-owmc0proEl8sXrphasFH2vd2l7G3O3c-7MCgIXyN5U7dIBQ4TuMxC8lvhaRma-KnoGZAPVOaSQ73RTG5ML-oWfLhixJVm213ZY3bsnB3qBSTPsYSnc4sJnTifTQv8zFFimSvM4LpxMQ-RlQZEWyLmkdmyq_3gVro195IdsrKjyK7oIKlKYWcI7HBt92M9Ln9tgqIHDJUpGn9gp4J3At0CaE-3Xc7bdocgggPgcZ8rLO5yn3-lg7Il2g1EORcS2zp6UjqB73zkCijIZhd1-G40?></g></svg>